G04 #@! TF.GenerationSoftware,KiCad,Pcbnew,(6.0.6-0)*
G04 #@! TF.CreationDate,2022-09-14T12:48:58-04:00*
G04 #@! TF.ProjectId,dial_toner_mx,6469616c-5f74-46f6-9e65-725f6d782e6b,rev?*
G04 #@! TF.SameCoordinates,Original*
G04 #@! TF.FileFunction,Legend,Top*
G04 #@! TF.FilePolarity,Positive*
%FSLAX46Y46*%
G04 Gerber Fmt 4.6, Leading zero omitted, Abs format (unit mm)*
G04 Created by KiCad (PCBNEW (6.0.6-0)) date 2022-09-14 12:48:58*
%MOMM*%
%LPD*%
G01*
G04 APERTURE LIST*
%ADD10C,0.150000*%
%ADD11R,1.700000X1.700000*%
%ADD12O,1.700000X1.700000*%
%ADD13C,1.700000*%
%ADD14C,1.701800*%
%ADD15C,0.990600*%
%ADD16C,3.429000*%
%ADD17C,2.032000*%
G04 APERTURE END LIST*
D10*
X145827904Y-123174380D02*
X145827904Y-123983904D01*
X145875523Y-124079142D01*
X145923142Y-124126761D01*
X146018380Y-124174380D01*
X146208857Y-124174380D01*
X146304095Y-124126761D01*
X146351714Y-124079142D01*
X146399333Y-123983904D01*
X146399333Y-123174380D01*
X147399333Y-124174380D02*
X146827904Y-124174380D01*
X147113619Y-124174380D02*
X147113619Y-123174380D01*
X147018380Y-123317238D01*
X146923142Y-123412476D01*
X146827904Y-123460095D01*
X148018380Y-123174380D02*
X148113619Y-123174380D01*
X148208857Y-123222000D01*
X148256476Y-123269619D01*
X148304095Y-123364857D01*
X148351714Y-123555333D01*
X148351714Y-123793428D01*
X148304095Y-123983904D01*
X148256476Y-124079142D01*
X148208857Y-124126761D01*
X148113619Y-124174380D01*
X148018380Y-124174380D01*
X147923142Y-124126761D01*
X147875523Y-124079142D01*
X147827904Y-123983904D01*
X147780285Y-123793428D01*
X147780285Y-123555333D01*
X147827904Y-123364857D01*
X147875523Y-123269619D01*
X147923142Y-123222000D01*
X148018380Y-123174380D01*
X108204095Y-123174380D02*
X108204095Y-123983904D01*
X108251714Y-124079142D01*
X108299333Y-124126761D01*
X108394571Y-124174380D01*
X108585047Y-124174380D01*
X108680285Y-124126761D01*
X108727904Y-124079142D01*
X108775523Y-123983904D01*
X108775523Y-123174380D01*
X109727904Y-123174380D02*
X109251714Y-123174380D01*
X109204095Y-123650571D01*
X109251714Y-123602952D01*
X109346952Y-123555333D01*
X109585047Y-123555333D01*
X109680285Y-123602952D01*
X109727904Y-123650571D01*
X109775523Y-123745809D01*
X109775523Y-123983904D01*
X109727904Y-124079142D01*
X109680285Y-124126761D01*
X109585047Y-124174380D01*
X109346952Y-124174380D01*
X109251714Y-124126761D01*
X109204095Y-124079142D01*
X133604095Y-123174380D02*
X133604095Y-123983904D01*
X133651714Y-124079142D01*
X133699333Y-124126761D01*
X133794571Y-124174380D01*
X133985047Y-124174380D01*
X134080285Y-124126761D01*
X134127904Y-124079142D01*
X134175523Y-123983904D01*
X134175523Y-123174380D01*
X134556476Y-123174380D02*
X135175523Y-123174380D01*
X134842190Y-123555333D01*
X134985047Y-123555333D01*
X135080285Y-123602952D01*
X135127904Y-123650571D01*
X135175523Y-123745809D01*
X135175523Y-123983904D01*
X135127904Y-124079142D01*
X135080285Y-124126761D01*
X134985047Y-124174380D01*
X134699333Y-124174380D01*
X134604095Y-124126761D01*
X134556476Y-124079142D01*
X120904095Y-123174380D02*
X120904095Y-123983904D01*
X120951714Y-124079142D01*
X120999333Y-124126761D01*
X121094571Y-124174380D01*
X121285047Y-124174380D01*
X121380285Y-124126761D01*
X121427904Y-124079142D01*
X121475523Y-123983904D01*
X121475523Y-123174380D01*
X121999333Y-124174380D02*
X122189809Y-124174380D01*
X122285047Y-124126761D01*
X122332666Y-124079142D01*
X122427904Y-123936285D01*
X122475523Y-123745809D01*
X122475523Y-123364857D01*
X122427904Y-123269619D01*
X122380285Y-123222000D01*
X122285047Y-123174380D01*
X122094571Y-123174380D01*
X121999333Y-123222000D01*
X121951714Y-123269619D01*
X121904095Y-123364857D01*
X121904095Y-123602952D01*
X121951714Y-123698190D01*
X121999333Y-123745809D01*
X122094571Y-123793428D01*
X122285047Y-123793428D01*
X122380285Y-123745809D01*
X122427904Y-123698190D01*
X122475523Y-123602952D01*
X159004095Y-123174380D02*
X159004095Y-123983904D01*
X159051714Y-124079142D01*
X159099333Y-124126761D01*
X159194571Y-124174380D01*
X159385047Y-124174380D01*
X159480285Y-124126761D01*
X159527904Y-124079142D01*
X159575523Y-123983904D01*
X159575523Y-123174380D01*
X160480285Y-123507714D02*
X160480285Y-124174380D01*
X160242190Y-123126761D02*
X160004095Y-123841047D01*
X160623142Y-123841047D01*
X95027904Y-123174380D02*
X95027904Y-123983904D01*
X95075523Y-124079142D01*
X95123142Y-124126761D01*
X95218380Y-124174380D01*
X95408857Y-124174380D01*
X95504095Y-124126761D01*
X95551714Y-124079142D01*
X95599333Y-123983904D01*
X95599333Y-123174380D01*
X96599333Y-124174380D02*
X96027904Y-124174380D01*
X96313619Y-124174380D02*
X96313619Y-123174380D01*
X96218380Y-123317238D01*
X96123142Y-123412476D01*
X96027904Y-123460095D01*
X97551714Y-124174380D02*
X96980285Y-124174380D01*
X97266000Y-124174380D02*
X97266000Y-123174380D01*
X97170761Y-123317238D01*
X97075523Y-123412476D01*
X96980285Y-123460095D01*
G36*
X125486013Y-133219331D02*
G01*
X129877437Y-133219331D01*
X129887672Y-133490148D01*
X129897906Y-133760965D01*
X130168723Y-133771199D01*
X130439540Y-133781434D01*
X130439540Y-138172858D01*
X128235045Y-138181905D01*
X126030549Y-138190952D01*
X126030549Y-137628322D01*
X125467919Y-137628322D01*
X125468063Y-137593190D01*
X126592652Y-137593190D01*
X129859872Y-137593190D01*
X129859872Y-135450175D01*
X128243827Y-135450175D01*
X128243827Y-135977146D01*
X128807714Y-135977146D01*
X128798039Y-136530465D01*
X128788364Y-137083785D01*
X128235045Y-137093460D01*
X127681725Y-137103135D01*
X127681725Y-134852941D01*
X129859872Y-134852941D01*
X129859872Y-134325970D01*
X126592652Y-134325970D01*
X126592652Y-137593190D01*
X125468063Y-137593190D01*
X125476966Y-135423826D01*
X125486013Y-133219331D01*
G37*
G36*
X110080895Y-134325970D02*
G01*
X110080895Y-134852941D01*
X110642998Y-134852941D01*
X110642998Y-137101351D01*
X108453140Y-137101351D01*
X108067240Y-137100985D01*
X107702280Y-137099929D01*
X107364304Y-137098249D01*
X107059352Y-137096007D01*
X106793469Y-137093267D01*
X106572697Y-137090094D01*
X106403078Y-137086551D01*
X106290655Y-137082703D01*
X106241470Y-137078612D01*
X106239862Y-137077930D01*
X106228451Y-137033654D01*
X106220116Y-136938661D01*
X106216484Y-136812480D01*
X106216442Y-136796878D01*
X106216442Y-136539248D01*
X105689471Y-136539248D01*
X105689471Y-136504117D01*
X106813675Y-136504117D01*
X110080895Y-136504117D01*
X110080895Y-135450175D01*
X106813675Y-135450175D01*
X106813675Y-136504117D01*
X105689471Y-136504117D01*
X105689471Y-134325970D01*
X110080895Y-134325970D01*
G37*
G36*
X103511324Y-135977146D02*
G01*
X102387119Y-135977146D01*
X102387119Y-134852941D01*
X103511324Y-134852941D01*
X103511324Y-135977146D01*
G37*
G36*
X99119899Y-134325970D02*
G01*
X99119899Y-134849986D01*
X99392168Y-134860246D01*
X99664436Y-134870507D01*
X99664436Y-137083785D01*
X97459941Y-137092832D01*
X95255446Y-137101878D01*
X95255446Y-136539248D01*
X94693343Y-136539248D01*
X94693343Y-136504117D01*
X95817548Y-136504117D01*
X99084768Y-136504117D01*
X99084768Y-135450175D01*
X95817548Y-135450175D01*
X95817548Y-136504117D01*
X94693343Y-136504117D01*
X94693343Y-134325970D01*
X99119899Y-134325970D01*
G37*
G36*
X153002679Y-133210284D02*
G01*
X155207175Y-133219331D01*
X155217435Y-133491600D01*
X155227696Y-133763868D01*
X155751711Y-133763868D01*
X155751711Y-138190424D01*
X153561854Y-138190424D01*
X153175954Y-138190058D01*
X152810994Y-138189003D01*
X152473017Y-138187322D01*
X152168066Y-138185080D01*
X151902183Y-138182340D01*
X151681411Y-138179167D01*
X151511792Y-138175624D01*
X151399369Y-138171776D01*
X151350184Y-138167686D01*
X151348576Y-138167003D01*
X151337165Y-138122727D01*
X151328830Y-138027734D01*
X151325198Y-137901554D01*
X151325155Y-137885952D01*
X151325155Y-137628322D01*
X150798184Y-137628322D01*
X150798184Y-137593190D01*
X151922389Y-137593190D01*
X155189609Y-137593190D01*
X155189609Y-135977146D01*
X154627507Y-135977146D01*
X154627507Y-135415044D01*
X155189609Y-135415044D01*
X155189609Y-134325970D01*
X151922389Y-134325970D01*
X151922389Y-137593190D01*
X150798184Y-137593190D01*
X150798184Y-133201238D01*
X153002679Y-133210284D01*
G37*
G36*
X100191407Y-133219331D02*
G01*
X102395902Y-133210284D01*
X104600397Y-133201238D01*
X104600397Y-133763868D01*
X105162500Y-133763868D01*
X105162500Y-138190424D01*
X100735944Y-138190424D01*
X100735944Y-137628322D01*
X100173313Y-137628322D01*
X100173457Y-137593190D01*
X101297344Y-137593190D01*
X102387119Y-137593190D01*
X102387119Y-136504117D01*
X103511324Y-136504117D01*
X103511324Y-137593190D01*
X104565266Y-137593190D01*
X104565266Y-136539248D01*
X104038295Y-136539248D01*
X104038295Y-135977146D01*
X104565266Y-135977146D01*
X104565266Y-134325268D01*
X101315612Y-134343536D01*
X101297344Y-137593190D01*
X100173457Y-137593190D01*
X100182360Y-135423826D01*
X100191407Y-133219331D01*
G37*
G36*
X149709111Y-134325970D02*
G01*
X149709111Y-134852941D01*
X150271213Y-134852941D01*
X150271213Y-137101351D01*
X148081356Y-137101351D01*
X147695456Y-137100985D01*
X147330496Y-137099929D01*
X146992519Y-137098249D01*
X146687568Y-137096007D01*
X146421685Y-137093267D01*
X146200913Y-137090094D01*
X146031294Y-137086551D01*
X145918871Y-137082703D01*
X145869686Y-137078612D01*
X145868078Y-137077930D01*
X145856667Y-137033654D01*
X145848332Y-136938661D01*
X145844700Y-136812480D01*
X145844657Y-136796878D01*
X145844657Y-136539248D01*
X145317686Y-136539248D01*
X145317686Y-136504117D01*
X146441891Y-136504117D01*
X149709111Y-136504117D01*
X149709111Y-135450175D01*
X146441891Y-135450175D01*
X146441891Y-136504117D01*
X145317686Y-136504117D01*
X145317686Y-134325970D01*
X149709111Y-134325970D01*
G37*
G36*
X124414505Y-134325970D02*
G01*
X124414505Y-134852941D01*
X124941476Y-134852941D01*
X124941476Y-137101351D01*
X120550051Y-137101351D01*
X120550051Y-136539248D01*
X119987949Y-136539248D01*
X119987949Y-136504117D01*
X121112154Y-136504117D01*
X124379374Y-136504117D01*
X124379374Y-135450175D01*
X121112154Y-135450175D01*
X121112154Y-136504117D01*
X119987949Y-136504117D01*
X119987949Y-134325970D01*
X124414505Y-134325970D01*
G37*
G36*
X160705238Y-134325970D02*
G01*
X160705238Y-134849986D01*
X160977507Y-134860246D01*
X161249775Y-134870507D01*
X161249775Y-137083785D01*
X159045280Y-137092832D01*
X156840785Y-137101878D01*
X156840785Y-136539248D01*
X156278682Y-136539248D01*
X156278682Y-136504117D01*
X157402887Y-136504117D01*
X160670107Y-136504117D01*
X160670107Y-135450175D01*
X157402887Y-135450175D01*
X157402887Y-136504117D01*
X156278682Y-136504117D01*
X156278682Y-134325970D01*
X160705238Y-134325970D01*
G37*
G36*
X154100536Y-137101351D02*
G01*
X153561854Y-137101351D01*
X153374010Y-137099897D01*
X153211564Y-137095888D01*
X153087232Y-137089854D01*
X153013731Y-137082326D01*
X152999752Y-137077930D01*
X152991648Y-137036384D01*
X152984759Y-136937296D01*
X152979616Y-136793382D01*
X152976748Y-136617359D01*
X152976331Y-136515827D01*
X152976331Y-135977146D01*
X154100536Y-135977146D01*
X154100536Y-137101351D01*
G37*
G36*
X135375501Y-134325970D02*
G01*
X135375501Y-134852941D01*
X135938590Y-134852941D01*
X135920038Y-137083785D01*
X133715542Y-137092832D01*
X131511047Y-137101878D01*
X131511047Y-136539248D01*
X130948945Y-136539248D01*
X130948945Y-136504117D01*
X132073150Y-136504117D01*
X135340370Y-136504117D01*
X135340370Y-135450175D01*
X132073150Y-135450175D01*
X132073150Y-136504117D01*
X130948945Y-136504117D01*
X130948945Y-134325970D01*
X135375501Y-134325970D01*
G37*
G36*
X154100536Y-135450175D02*
G01*
X153554896Y-135450175D01*
X153336985Y-135448836D01*
X153180504Y-135444326D01*
X153076667Y-135435907D01*
X153016683Y-135422839D01*
X152991764Y-135404384D01*
X152991068Y-135402775D01*
X152983325Y-135345341D01*
X152980587Y-135240595D01*
X152983388Y-135112941D01*
X152993897Y-134870507D01*
X153547216Y-134860832D01*
X154100536Y-134851157D01*
X154100536Y-135450175D01*
G37*
G36*
X199450710Y-136363723D02*
G01*
X200249949Y-136373165D01*
X200260485Y-136575171D01*
X200271021Y-136777176D01*
X200653960Y-136777176D01*
X200653960Y-139939002D01*
X199037916Y-139939002D01*
X199037916Y-139552556D01*
X198651470Y-139552556D01*
X198651470Y-139517425D01*
X199459493Y-139517425D01*
X200232383Y-139517425D01*
X200232383Y-139166111D01*
X199459493Y-139166111D01*
X199459493Y-139517425D01*
X198651470Y-139517425D01*
X198651470Y-138744534D01*
X199459493Y-138744534D01*
X200232383Y-138744534D01*
X200232383Y-137198753D01*
X199459493Y-137198753D01*
X199459493Y-138744534D01*
X198651470Y-138744534D01*
X198651470Y-136354280D01*
X199450710Y-136363723D01*
G37*
G36*
X194699188Y-136373165D02*
G01*
X197878580Y-136354883D01*
X197878580Y-136777176D01*
X198265025Y-136777176D01*
X198265025Y-139939002D01*
X195103199Y-139939002D01*
X195103199Y-139552556D01*
X194680907Y-139552556D01*
X194683331Y-139130980D01*
X195524776Y-139130980D01*
X195911221Y-139130980D01*
X195911221Y-139517425D01*
X196262535Y-139517425D01*
X196262535Y-139130980D01*
X197105689Y-139130980D01*
X197105689Y-139517425D01*
X197457003Y-139517425D01*
X197457003Y-139130980D01*
X197843448Y-139130980D01*
X197843448Y-138779666D01*
X197454773Y-138779666D01*
X197474569Y-137954078D01*
X197659008Y-137943459D01*
X197843448Y-137932840D01*
X197843448Y-137585198D01*
X197457003Y-137585198D01*
X197457003Y-137198753D01*
X197105689Y-137198753D01*
X197105689Y-137585198D01*
X196262535Y-137585198D01*
X196262535Y-137198753D01*
X195911221Y-137198753D01*
X195911221Y-137585198D01*
X195524776Y-137585198D01*
X195524776Y-137932840D01*
X195893656Y-137954078D01*
X195903554Y-138366872D01*
X195913451Y-138779666D01*
X195524776Y-138779666D01*
X195524776Y-139130980D01*
X194683331Y-139130980D01*
X194690047Y-137962861D01*
X194699188Y-136373165D01*
G37*
G36*
X197088123Y-138762100D02*
G01*
X196692236Y-138772040D01*
X196510432Y-138774646D01*
X196388352Y-138771040D01*
X196315655Y-138760284D01*
X196282000Y-138741442D01*
X196278143Y-138734533D01*
X196271473Y-138681131D01*
X196267926Y-138574684D01*
X196267840Y-138432356D01*
X196270019Y-138320583D01*
X196280101Y-137954078D01*
X197088123Y-137954078D01*
X197088123Y-138762100D01*
G37*
G36*
X181914261Y-130680541D02*
G01*
X184830955Y-130680541D01*
X184830955Y-131031855D01*
X185182269Y-131031855D01*
X185182269Y-133912630D01*
X182301494Y-133912630D01*
X182301494Y-133564988D01*
X182117055Y-133554369D01*
X181932615Y-133543750D01*
X181932502Y-133526184D01*
X182687940Y-133526184D01*
X183355436Y-133526184D01*
X183355436Y-132823556D01*
X184093196Y-132823556D01*
X184093196Y-133526184D01*
X184795824Y-133526184D01*
X184795824Y-132823556D01*
X184444510Y-132823556D01*
X184444510Y-132472242D01*
X184795824Y-132472242D01*
X184795824Y-131418300D01*
X182687940Y-131418300D01*
X182687940Y-133526184D01*
X181932502Y-133526184D01*
X181923438Y-132112146D01*
X181914261Y-130680541D01*
G37*
G36*
X172982891Y-131742077D02*
G01*
X173360554Y-131752049D01*
X173360554Y-133192436D01*
X173007464Y-133202371D01*
X172856285Y-133204254D01*
X172732208Y-133201359D01*
X172651453Y-133194314D01*
X172629801Y-133187732D01*
X172622370Y-133146658D01*
X172615841Y-133046226D01*
X172610577Y-132897342D01*
X172606939Y-132710909D01*
X172605289Y-132497831D01*
X172605229Y-132447633D01*
X172605229Y-131732106D01*
X172982891Y-131742077D01*
G37*
G36*
X177664150Y-130680541D02*
G01*
X177664150Y-131031855D01*
X178015464Y-131031855D01*
X178015464Y-133912630D01*
X175134689Y-133912630D01*
X175134689Y-133561316D01*
X174783375Y-133561316D01*
X174783375Y-133526184D01*
X175521135Y-133526184D01*
X176188631Y-133526184D01*
X176188631Y-131734483D01*
X176926391Y-131734483D01*
X176926391Y-133526184D01*
X177629019Y-133526184D01*
X177629019Y-131418300D01*
X175521135Y-131418300D01*
X175521135Y-133526184D01*
X174783375Y-133526184D01*
X174783375Y-130680541D01*
X177664150Y-130680541D01*
G37*
G36*
X170497345Y-130680541D02*
G01*
X170497345Y-131031855D01*
X170848659Y-131031855D01*
X170848659Y-132120928D01*
X170146031Y-132120928D01*
X170146031Y-133912630D01*
X168670512Y-133912630D01*
X168670512Y-133561316D01*
X168319198Y-133561316D01*
X168319198Y-132120928D01*
X167967884Y-132120928D01*
X167967884Y-131769614D01*
X167616570Y-131769614D01*
X167616570Y-131734483D01*
X168354330Y-131734483D01*
X169056958Y-131734483D01*
X169056958Y-133526184D01*
X169759586Y-133526184D01*
X169759586Y-131734483D01*
X170462214Y-131734483D01*
X170462214Y-131418300D01*
X168354330Y-131418300D01*
X168354330Y-131734483D01*
X167616570Y-131734483D01*
X167616570Y-130680541D01*
X170497345Y-130680541D01*
G37*
G36*
X184093196Y-132472242D02*
G01*
X183355436Y-132472242D01*
X183355436Y-131734483D01*
X184093196Y-131734483D01*
X184093196Y-132472242D01*
G37*
G36*
X174818507Y-122881371D02*
G01*
X174818507Y-123004331D01*
X174822761Y-123083058D01*
X174849029Y-123118044D01*
X174917567Y-123127016D01*
X174959032Y-123127291D01*
X175099558Y-123127291D01*
X175099558Y-125200043D01*
X172991674Y-125200043D01*
X172991674Y-125077083D01*
X172986236Y-124994672D01*
X172955553Y-124960874D01*
X172878073Y-124954139D01*
X172868714Y-124954123D01*
X172745754Y-124954123D01*
X172745754Y-124918992D01*
X173272725Y-124918992D01*
X174818507Y-124918992D01*
X174818507Y-124708204D01*
X173761609Y-124708204D01*
X173771870Y-124435935D01*
X173782131Y-124163667D01*
X174818507Y-124144223D01*
X174818507Y-123935313D01*
X173764565Y-123935313D01*
X173764565Y-123654262D01*
X174818507Y-123654262D01*
X174818507Y-123408342D01*
X173272725Y-123408342D01*
X173272725Y-124918992D01*
X172745754Y-124918992D01*
X172745754Y-122881371D01*
X174818507Y-122881371D01*
G37*
G36*
X181107027Y-125867540D02*
G01*
X182933860Y-125867540D01*
X182933860Y-126324248D01*
X183390568Y-126324248D01*
X183390568Y-128115949D01*
X184725561Y-128115949D01*
X184725561Y-128572657D01*
X185182269Y-128572657D01*
X185182269Y-129942782D01*
X181563735Y-129942782D01*
X181563735Y-129486074D01*
X182020443Y-129486074D01*
X184690429Y-129486074D01*
X184690429Y-129065703D01*
X183803362Y-129056317D01*
X182916294Y-129046931D01*
X182907018Y-127931509D01*
X182897741Y-126816087D01*
X182020443Y-126816087D01*
X182020443Y-129486074D01*
X181563735Y-129486074D01*
X181107027Y-129486074D01*
X181107027Y-125867540D01*
G37*
G36*
X178330858Y-130680541D02*
G01*
X181247552Y-130680541D01*
X181247552Y-131031855D01*
X181598866Y-131031855D01*
X181598866Y-133912630D01*
X178718092Y-133912630D01*
X178718092Y-133564988D01*
X178349212Y-133543750D01*
X178349099Y-133526184D01*
X179104537Y-133526184D01*
X181212421Y-133526184D01*
X181212421Y-133210002D01*
X179772034Y-133210002D01*
X179772034Y-132472242D01*
X181212421Y-132472242D01*
X181212421Y-132120928D01*
X179772034Y-132120928D01*
X179772034Y-131734483D01*
X181212421Y-131734483D01*
X181212421Y-131418300D01*
X179104537Y-131418300D01*
X179104537Y-133526184D01*
X178349099Y-133526184D01*
X178340035Y-132112146D01*
X178330858Y-130680541D01*
G37*
G36*
X172113389Y-128115949D02*
G01*
X173448382Y-128115949D01*
X173448382Y-127694372D01*
X172570097Y-127694372D01*
X172570097Y-127237664D01*
X172113389Y-127237664D01*
X172113389Y-125867540D01*
X175731923Y-125867540D01*
X175731923Y-126324248D01*
X176188631Y-126324248D01*
X176188631Y-127694372D01*
X175275215Y-127694372D01*
X175275215Y-128115949D01*
X175731923Y-128115949D01*
X175731923Y-128572657D01*
X176188631Y-128572657D01*
X176188631Y-129942782D01*
X172570097Y-129942782D01*
X172570097Y-129486074D01*
X173026806Y-129486074D01*
X175696792Y-129486074D01*
X175696792Y-129064497D01*
X174818507Y-129064497D01*
X174818507Y-127237664D01*
X175696792Y-127237664D01*
X175696792Y-126816087D01*
X173026806Y-126816087D01*
X173026806Y-127237664D01*
X173941408Y-127237664D01*
X173932032Y-128142298D01*
X173922656Y-129046931D01*
X173474731Y-129056764D01*
X173026806Y-129066596D01*
X173026806Y-129486074D01*
X172570097Y-129486074D01*
X172113389Y-129486074D01*
X172113389Y-128115949D01*
G37*
G36*
X167616570Y-125867540D02*
G01*
X170778396Y-125867540D01*
X170778396Y-126324248D01*
X171235104Y-126324248D01*
X171235104Y-126780956D01*
X171691813Y-126780956D01*
X171691813Y-129486074D01*
X171235104Y-129486074D01*
X171235104Y-129942782D01*
X168038147Y-129942782D01*
X168038147Y-129486074D01*
X168529987Y-129486074D01*
X170743265Y-129486074D01*
X170743265Y-129029365D01*
X171199973Y-129029365D01*
X171199973Y-127237664D01*
X170743265Y-127237664D01*
X170743265Y-126816087D01*
X168529987Y-126816087D01*
X168529987Y-129486074D01*
X168038147Y-129486074D01*
X167616570Y-129486074D01*
X167616570Y-125867540D01*
G37*
G36*
X172253915Y-122881371D02*
G01*
X172253915Y-123004331D01*
X172259353Y-123086743D01*
X172290036Y-123120540D01*
X172367516Y-123127275D01*
X172376875Y-123127291D01*
X172499835Y-123127291D01*
X172499835Y-125200043D01*
X170427082Y-125200043D01*
X170427082Y-125077083D01*
X170421644Y-124994672D01*
X170390961Y-124960874D01*
X170313481Y-124954139D01*
X170304122Y-124954123D01*
X170181162Y-124954123D01*
X170181162Y-124918992D01*
X170708133Y-124918992D01*
X171199973Y-124918992D01*
X171199973Y-124143146D01*
X171472241Y-124153406D01*
X171744510Y-124163667D01*
X171754481Y-124541330D01*
X171764452Y-124918992D01*
X172218783Y-124918992D01*
X172218783Y-123408342D01*
X171765153Y-123408342D01*
X171754832Y-123663045D01*
X171744510Y-123917747D01*
X171472241Y-123928008D01*
X171199973Y-123938268D01*
X171199973Y-123408342D01*
X170708133Y-123408342D01*
X170708133Y-124918992D01*
X170181162Y-124918992D01*
X170181162Y-122881371D01*
X172253915Y-122881371D01*
G37*
G36*
X170321688Y-129064497D02*
G01*
X169408272Y-129064497D01*
X169408272Y-127237664D01*
X170321688Y-127237664D01*
X170321688Y-129064497D01*
G37*
G36*
X179315326Y-128151081D02*
G01*
X178401909Y-128151081D01*
X178401909Y-127237664D01*
X179315326Y-127237664D01*
X179315326Y-128151081D01*
G37*
G36*
X167616570Y-122881371D02*
G01*
X169689323Y-122881371D01*
X169689323Y-123004331D01*
X169694761Y-123086743D01*
X169725444Y-123120540D01*
X169802924Y-123127275D01*
X169812283Y-123127291D01*
X169935243Y-123127291D01*
X169935243Y-123935313D01*
X169443403Y-123935313D01*
X169443403Y-125200043D01*
X168389461Y-125200043D01*
X168389461Y-125077083D01*
X168385207Y-124998356D01*
X168358939Y-124963370D01*
X168290401Y-124954398D01*
X168248936Y-124954123D01*
X168108410Y-124954123D01*
X168108410Y-123935313D01*
X167985450Y-123935313D01*
X167906723Y-123931059D01*
X167871737Y-123904791D01*
X167862765Y-123836253D01*
X167862490Y-123794787D01*
X167858768Y-123704814D01*
X167835784Y-123664829D01*
X167775813Y-123654576D01*
X167739530Y-123654262D01*
X168143541Y-123654262D01*
X168670512Y-123654262D01*
X168670512Y-124918992D01*
X169162352Y-124918992D01*
X169162352Y-123654262D01*
X169654191Y-123654262D01*
X169654191Y-123408342D01*
X168143541Y-123408342D01*
X168143541Y-123654262D01*
X167739530Y-123654262D01*
X167616570Y-123654262D01*
X167616570Y-122881371D01*
G37*
G36*
X176610208Y-125867540D02*
G01*
X180228742Y-125867540D01*
X180228742Y-126324248D01*
X180685450Y-126324248D01*
X180685450Y-129942782D01*
X177066916Y-129942782D01*
X177066916Y-129486074D01*
X177523624Y-129486074D01*
X178401909Y-129486074D01*
X178401909Y-128572657D01*
X179315326Y-128572657D01*
X179315326Y-129486074D01*
X180193611Y-129486074D01*
X180193611Y-126816087D01*
X177523624Y-126816087D01*
X177523624Y-129486074D01*
X177066916Y-129486074D01*
X176610208Y-129486074D01*
X176610208Y-125867540D01*
G37*
G36*
X174080748Y-130680541D02*
G01*
X174080748Y-131031855D01*
X174432061Y-131031855D01*
X174432061Y-133912630D01*
X171551287Y-133912630D01*
X171551287Y-133561316D01*
X171199973Y-133561316D01*
X171199973Y-133526184D01*
X171937732Y-133526184D01*
X174045616Y-133526184D01*
X174045616Y-131418300D01*
X171937732Y-131418300D01*
X171937732Y-133526184D01*
X171199973Y-133526184D01*
X171199973Y-130680541D01*
X174080748Y-130680541D01*
G37*
X204790000Y-131958000D02*
X204790000Y-132958000D01*
X191790000Y-118958000D02*
X190790000Y-118958000D01*
X190790000Y-119958000D02*
X190790000Y-118958000D01*
X190790000Y-132958000D02*
X191790000Y-132958000D01*
X204790000Y-118958000D02*
X203790000Y-118958000D01*
X203790000Y-132958000D02*
X204790000Y-132958000D01*
X204790000Y-118958000D02*
X204790000Y-119958000D01*
X190790000Y-132958000D02*
X190790000Y-131958000D01*
%LPC*%
D11*
X208534000Y-128270000D03*
D12*
X208534000Y-130810000D03*
D13*
X143256000Y-122682000D03*
X143256000Y-125222000D03*
X143256000Y-127762000D03*
X150876000Y-122682000D03*
X150876000Y-125222000D03*
X150876000Y-127762000D03*
D14*
X192290000Y-125958000D03*
D15*
X192570000Y-130158000D03*
D16*
X197790000Y-125958000D03*
D14*
X203290000Y-125958000D03*
D17*
X197790000Y-120058000D03*
X202790000Y-122158000D03*
D13*
X105156000Y-122682000D03*
X105156000Y-125222000D03*
X105156000Y-127762000D03*
X112776000Y-122682000D03*
X112776000Y-125222000D03*
X112776000Y-127762000D03*
X130556000Y-122682000D03*
X130556000Y-125222000D03*
X130556000Y-127762000D03*
X138176000Y-122682000D03*
X138176000Y-125222000D03*
X138176000Y-127762000D03*
X117856000Y-122682000D03*
X117856000Y-125222000D03*
X117856000Y-127762000D03*
X125476000Y-122682000D03*
X125476000Y-125222000D03*
X125476000Y-127762000D03*
X155956000Y-122682000D03*
X155956000Y-125222000D03*
X155956000Y-127762000D03*
X163576000Y-122682000D03*
X163576000Y-125222000D03*
X163576000Y-127762000D03*
X92456000Y-122682000D03*
X92456000Y-125222000D03*
X92456000Y-127762000D03*
X100076000Y-122682000D03*
X100076000Y-125222000D03*
X100076000Y-127762000D03*
M02*
