G04 #@! TF.GenerationSoftware,KiCad,Pcbnew,(6.0.6-0)*
G04 #@! TF.CreationDate,2022-09-14T12:48:58-04:00*
G04 #@! TF.ProjectId,dial_toner_mx,6469616c-5f74-46f6-9e65-725f6d782e6b,rev?*
G04 #@! TF.SameCoordinates,Original*
G04 #@! TF.FileFunction,Legend,Bot*
G04 #@! TF.FilePolarity,Positive*
%FSLAX46Y46*%
G04 Gerber Fmt 4.6, Leading zero omitted, Abs format (unit mm)*
G04 Created by KiCad (PCBNEW (6.0.6-0)) date 2022-09-14 12:48:58*
%MOMM*%
%LPD*%
G01*
G04 APERTURE LIST*
G04 Aperture macros list*
%AMRoundRect*
0 Rectangle with rounded corners*
0 $1 Rounding radius*
0 $2 $3 $4 $5 $6 $7 $8 $9 X,Y pos of 4 corners*
0 Add a 4 corners polygon primitive as box body*
4,1,4,$2,$3,$4,$5,$6,$7,$8,$9,$2,$3,0*
0 Add four circle primitives for the rounded corners*
1,1,$1+$1,$2,$3*
1,1,$1+$1,$4,$5*
1,1,$1+$1,$6,$7*
1,1,$1+$1,$8,$9*
0 Add four rect primitives between the rounded corners*
20,1,$1+$1,$2,$3,$4,$5,0*
20,1,$1+$1,$4,$5,$6,$7,0*
20,1,$1+$1,$6,$7,$8,$9,0*
20,1,$1+$1,$8,$9,$2,$3,0*%
G04 Aperture macros list end*
%ADD10C,0.150000*%
%ADD11C,0.101600*%
%ADD12C,0.120000*%
%ADD13C,0.152400*%
%ADD14C,0.100000*%
%ADD15C,0.066040*%
%ADD16C,0.127000*%
%ADD17C,0.254000*%
%ADD18R,1.700000X1.700000*%
%ADD19O,1.700000X1.700000*%
%ADD20RoundRect,0.250000X0.337500X0.475000X-0.337500X0.475000X-0.337500X-0.475000X0.337500X-0.475000X0*%
%ADD21RoundRect,0.250000X-0.475000X0.337500X-0.475000X-0.337500X0.475000X-0.337500X0.475000X0.337500X0*%
%ADD22C,1.700000*%
%ADD23C,1.701800*%
%ADD24C,0.990600*%
%ADD25C,3.429000*%
%ADD26C,2.032000*%
%ADD27R,0.800000X0.480000*%
%ADD28R,0.800000X0.320000*%
%ADD29R,1.270000X0.558800*%
%ADD30R,1.700000X0.820000*%
%ADD31RoundRect,0.205000X0.645000X0.205000X-0.645000X0.205000X-0.645000X-0.205000X0.645000X-0.205000X0*%
%ADD32RoundRect,0.150000X-0.150000X0.825000X-0.150000X-0.825000X0.150000X-0.825000X0.150000X0.825000X0*%
%ADD33O,2.748280X1.998980*%
G04 APERTURE END LIST*
D10*
X206605095Y-131516380D02*
X206605095Y-130516380D01*
X206367000Y-130516380D01*
X206224142Y-130564000D01*
X206128904Y-130659238D01*
X206081285Y-130754476D01*
X206033666Y-130944952D01*
X206033666Y-131087809D01*
X206081285Y-131278285D01*
X206128904Y-131373523D01*
X206224142Y-131468761D01*
X206367000Y-131516380D01*
X206605095Y-131516380D01*
X205700333Y-130516380D02*
X205081285Y-130516380D01*
X205414619Y-130897333D01*
X205271761Y-130897333D01*
X205176523Y-130944952D01*
X205128904Y-130992571D01*
X205081285Y-131087809D01*
X205081285Y-131325904D01*
X205128904Y-131421142D01*
X205176523Y-131468761D01*
X205271761Y-131516380D01*
X205557476Y-131516380D01*
X205652714Y-131468761D01*
X205700333Y-131421142D01*
X206605095Y-128722380D02*
X206605095Y-127722380D01*
X206367000Y-127722380D01*
X206224142Y-127770000D01*
X206128904Y-127865238D01*
X206081285Y-127960476D01*
X206033666Y-128150952D01*
X206033666Y-128293809D01*
X206081285Y-128484285D01*
X206128904Y-128579523D01*
X206224142Y-128674761D01*
X206367000Y-128722380D01*
X206605095Y-128722380D01*
X205652714Y-127817619D02*
X205605095Y-127770000D01*
X205509857Y-127722380D01*
X205271761Y-127722380D01*
X205176523Y-127770000D01*
X205128904Y-127817619D01*
X205081285Y-127912857D01*
X205081285Y-128008095D01*
X205128904Y-128150952D01*
X205700333Y-128722380D01*
X205081285Y-128722380D01*
X143031981Y-132207000D02*
G75*
G03*
X143031981Y-132207000I-283981J0D01*
G01*
X117475000Y-132334000D02*
G75*
G03*
X117475000Y-132334000I-254000J0D01*
G01*
X92231981Y-132207000D02*
G75*
G03*
X92231981Y-132207000I-283981J0D01*
G01*
X123190000Y-132969000D02*
G75*
G03*
X123190000Y-132969000I-254000J0D01*
G01*
X148590000Y-132842000D02*
G75*
G03*
X148590000Y-132842000I-254000J0D01*
G01*
X97790000Y-132842000D02*
G75*
G03*
X97790000Y-132842000I-254000J0D01*
G01*
X163254523Y-119776761D02*
X163921190Y-118824380D01*
X164397380Y-119776761D02*
X164397380Y-117776761D01*
X163635476Y-117776761D01*
X163445000Y-117872000D01*
X163349761Y-117967238D01*
X163254523Y-118157714D01*
X163254523Y-118443428D01*
X163349761Y-118633904D01*
X163445000Y-118729142D01*
X163635476Y-118824380D01*
X164397380Y-118824380D01*
X161635476Y-119681523D02*
X161825952Y-119776761D01*
X162206904Y-119776761D01*
X162397380Y-119681523D01*
X162492619Y-119491047D01*
X162492619Y-118729142D01*
X162397380Y-118538666D01*
X162206904Y-118443428D01*
X161825952Y-118443428D01*
X161635476Y-118538666D01*
X161540238Y-118729142D01*
X161540238Y-118919619D01*
X162492619Y-119110095D01*
X160873571Y-118443428D02*
X160397380Y-119776761D01*
X159921190Y-118443428D01*
X157730714Y-118443428D02*
X156302142Y-118443428D01*
X157159285Y-117586285D02*
X157730714Y-120157714D01*
X156492619Y-119300571D02*
X157921190Y-119300571D01*
X157064047Y-120157714D02*
X156492619Y-117586285D01*
X155254523Y-117776761D02*
X155064047Y-117776761D01*
X154873571Y-117872000D01*
X154778333Y-117967238D01*
X154683095Y-118157714D01*
X154587857Y-118538666D01*
X154587857Y-119014857D01*
X154683095Y-119395809D01*
X154778333Y-119586285D01*
X154873571Y-119681523D01*
X155064047Y-119776761D01*
X155254523Y-119776761D01*
X155445000Y-119681523D01*
X155540238Y-119586285D01*
X155635476Y-119395809D01*
X155730714Y-119014857D01*
X155730714Y-118538666D01*
X155635476Y-118157714D01*
X155540238Y-117967238D01*
X155445000Y-117872000D01*
X155254523Y-117776761D01*
X153349761Y-117776761D02*
X153159285Y-117776761D01*
X152968809Y-117872000D01*
X152873571Y-117967238D01*
X152778333Y-118157714D01*
X152683095Y-118538666D01*
X152683095Y-119014857D01*
X152778333Y-119395809D01*
X152873571Y-119586285D01*
X152968809Y-119681523D01*
X153159285Y-119776761D01*
X153349761Y-119776761D01*
X153540238Y-119681523D01*
X153635476Y-119586285D01*
X153730714Y-119395809D01*
X153825952Y-119014857D01*
X153825952Y-118538666D01*
X153730714Y-118157714D01*
X153635476Y-117967238D01*
X153540238Y-117872000D01*
X153349761Y-117776761D01*
X151445000Y-117776761D02*
X151254523Y-117776761D01*
X151064047Y-117872000D01*
X150968809Y-117967238D01*
X150873571Y-118157714D01*
X150778333Y-118538666D01*
X150778333Y-119014857D01*
X150873571Y-119395809D01*
X150968809Y-119586285D01*
X151064047Y-119681523D01*
X151254523Y-119776761D01*
X151445000Y-119776761D01*
X151635476Y-119681523D01*
X151730714Y-119586285D01*
X151825952Y-119395809D01*
X151921190Y-119014857D01*
X151921190Y-118538666D01*
X151825952Y-118157714D01*
X151730714Y-117967238D01*
X151635476Y-117872000D01*
X151445000Y-117776761D01*
X149540238Y-117776761D02*
X149349761Y-117776761D01*
X149159285Y-117872000D01*
X149064047Y-117967238D01*
X148968809Y-118157714D01*
X148873571Y-118538666D01*
X148873571Y-119014857D01*
X148968809Y-119395809D01*
X149064047Y-119586285D01*
X149159285Y-119681523D01*
X149349761Y-119776761D01*
X149540238Y-119776761D01*
X149730714Y-119681523D01*
X149825952Y-119586285D01*
X149921190Y-119395809D01*
X150016428Y-119014857D01*
X150016428Y-118538666D01*
X149921190Y-118157714D01*
X149825952Y-117967238D01*
X149730714Y-117872000D01*
X149540238Y-117776761D01*
X147635476Y-117776761D02*
X147445000Y-117776761D01*
X147254523Y-117872000D01*
X147159285Y-117967238D01*
X147064047Y-118157714D01*
X146968809Y-118538666D01*
X146968809Y-119014857D01*
X147064047Y-119395809D01*
X147159285Y-119586285D01*
X147254523Y-119681523D01*
X147445000Y-119776761D01*
X147635476Y-119776761D01*
X147825952Y-119681523D01*
X147921190Y-119586285D01*
X148016428Y-119395809D01*
X148111666Y-119014857D01*
X148111666Y-118538666D01*
X148016428Y-118157714D01*
X147921190Y-117967238D01*
X147825952Y-117872000D01*
X147635476Y-117776761D01*
X146302142Y-117776761D02*
X145064047Y-117776761D01*
X145730714Y-118538666D01*
X145445000Y-118538666D01*
X145254523Y-118633904D01*
X145159285Y-118729142D01*
X145064047Y-118919619D01*
X145064047Y-119395809D01*
X145159285Y-119586285D01*
X145254523Y-119681523D01*
X145445000Y-119776761D01*
X146016428Y-119776761D01*
X146206904Y-119681523D01*
X146302142Y-119586285D01*
X142683095Y-119776761D02*
X142683095Y-117776761D01*
X142683095Y-118538666D02*
X142492619Y-118443428D01*
X142111666Y-118443428D01*
X141921190Y-118538666D01*
X141825952Y-118633904D01*
X141730714Y-118824380D01*
X141730714Y-119395809D01*
X141825952Y-119586285D01*
X141921190Y-119681523D01*
X142111666Y-119776761D01*
X142492619Y-119776761D01*
X142683095Y-119681523D01*
X141064047Y-118443428D02*
X140587857Y-119776761D01*
X140111666Y-118443428D02*
X140587857Y-119776761D01*
X140778333Y-120252952D01*
X140873571Y-120348190D01*
X141064047Y-120443428D01*
X136778333Y-117872000D02*
X136968809Y-117776761D01*
X137254523Y-117776761D01*
X137540238Y-117872000D01*
X137730714Y-118062476D01*
X137825952Y-118252952D01*
X137921190Y-118633904D01*
X137921190Y-118919619D01*
X137825952Y-119300571D01*
X137730714Y-119491047D01*
X137540238Y-119681523D01*
X137254523Y-119776761D01*
X137064047Y-119776761D01*
X136778333Y-119681523D01*
X136683095Y-119586285D01*
X136683095Y-118919619D01*
X137064047Y-118919619D01*
X134968809Y-118443428D02*
X134968809Y-119776761D01*
X135825952Y-118443428D02*
X135825952Y-119491047D01*
X135730714Y-119681523D01*
X135540238Y-119776761D01*
X135254523Y-119776761D01*
X135064047Y-119681523D01*
X134968809Y-119586285D01*
X134206904Y-118443428D02*
X133730714Y-119776761D01*
X133254523Y-118443428D02*
X133730714Y-119776761D01*
X133921190Y-120252952D01*
X134016428Y-120348190D01*
X134206904Y-120443428D01*
X130968809Y-119776761D02*
X130968809Y-117776761D01*
X130492619Y-117776761D01*
X130206904Y-117872000D01*
X130016428Y-118062476D01*
X129921190Y-118252952D01*
X129825952Y-118633904D01*
X129825952Y-118919619D01*
X129921190Y-119300571D01*
X130016428Y-119491047D01*
X130206904Y-119681523D01*
X130492619Y-119776761D01*
X130968809Y-119776761D01*
X128111666Y-118443428D02*
X128111666Y-119776761D01*
X128968809Y-118443428D02*
X128968809Y-119491047D01*
X128873571Y-119681523D01*
X128683095Y-119776761D01*
X128397380Y-119776761D01*
X128206904Y-119681523D01*
X128111666Y-119586285D01*
X127159285Y-118443428D02*
X127159285Y-120443428D01*
X127159285Y-118538666D02*
X126968809Y-118443428D01*
X126587857Y-118443428D01*
X126397380Y-118538666D01*
X126302142Y-118633904D01*
X126206904Y-118824380D01*
X126206904Y-119395809D01*
X126302142Y-119586285D01*
X126397380Y-119681523D01*
X126587857Y-119776761D01*
X126968809Y-119776761D01*
X127159285Y-119681523D01*
X125064047Y-119776761D02*
X125254523Y-119681523D01*
X125349761Y-119586285D01*
X125445000Y-119395809D01*
X125445000Y-118824380D01*
X125349761Y-118633904D01*
X125254523Y-118538666D01*
X125064047Y-118443428D01*
X124778333Y-118443428D01*
X124587857Y-118538666D01*
X124492619Y-118633904D01*
X124397380Y-118824380D01*
X124397380Y-119395809D01*
X124492619Y-119586285D01*
X124587857Y-119681523D01*
X124778333Y-119776761D01*
X125064047Y-119776761D01*
X123540238Y-118443428D02*
X123540238Y-119776761D01*
X123540238Y-118633904D02*
X123445000Y-118538666D01*
X123254523Y-118443428D01*
X122968809Y-118443428D01*
X122778333Y-118538666D01*
X122683095Y-118729142D01*
X122683095Y-119776761D01*
X122016428Y-118443428D02*
X121254523Y-118443428D01*
X121730714Y-117776761D02*
X121730714Y-119491047D01*
X121635476Y-119681523D01*
X121445000Y-119776761D01*
X121254523Y-119776761D01*
X118492619Y-120538666D02*
X118587857Y-120443428D01*
X118778333Y-120157714D01*
X118873571Y-119967238D01*
X118968809Y-119681523D01*
X119064047Y-119205333D01*
X119064047Y-118824380D01*
X118968809Y-118348190D01*
X118873571Y-118062476D01*
X118778333Y-117872000D01*
X118587857Y-117586285D01*
X118492619Y-117491047D01*
X116492619Y-118824380D02*
X116587857Y-118729142D01*
X116778333Y-118633904D01*
X116968809Y-118633904D01*
X117159285Y-118729142D01*
X117254523Y-118824380D01*
X117349761Y-119014857D01*
X117349761Y-119205333D01*
X117254523Y-119395809D01*
X117159285Y-119491047D01*
X116968809Y-119586285D01*
X116778333Y-119586285D01*
X116587857Y-119491047D01*
X116492619Y-119395809D01*
X116492619Y-118633904D02*
X116492619Y-119395809D01*
X116397380Y-119491047D01*
X116302142Y-119491047D01*
X116111666Y-119395809D01*
X116016428Y-119205333D01*
X116016428Y-118729142D01*
X116206904Y-118443428D01*
X116492619Y-118252952D01*
X116873571Y-118157714D01*
X117254523Y-118252952D01*
X117540238Y-118443428D01*
X117730714Y-118729142D01*
X117825952Y-119110095D01*
X117730714Y-119491047D01*
X117540238Y-119776761D01*
X117254523Y-119967238D01*
X116873571Y-120062476D01*
X116492619Y-119967238D01*
X116206904Y-119776761D01*
X114302142Y-118443428D02*
X114302142Y-120062476D01*
X114397380Y-120252952D01*
X114492619Y-120348190D01*
X114683095Y-120443428D01*
X114968809Y-120443428D01*
X115159285Y-120348190D01*
X114302142Y-119681523D02*
X114492619Y-119776761D01*
X114873571Y-119776761D01*
X115064047Y-119681523D01*
X115159285Y-119586285D01*
X115254523Y-119395809D01*
X115254523Y-118824380D01*
X115159285Y-118633904D01*
X115064047Y-118538666D01*
X114873571Y-118443428D01*
X114492619Y-118443428D01*
X114302142Y-118538666D01*
X113540238Y-118443428D02*
X113064047Y-119776761D01*
X112587857Y-118443428D01*
X112016428Y-118443428D02*
X111540238Y-119776761D01*
X111064047Y-118443428D02*
X111540238Y-119776761D01*
X111730714Y-120252952D01*
X111825952Y-120348190D01*
X112016428Y-120443428D01*
X110778333Y-119967238D02*
X109254523Y-119967238D01*
X107921190Y-119776761D02*
X107921190Y-117776761D01*
X107921190Y-119681523D02*
X108111666Y-119776761D01*
X108492619Y-119776761D01*
X108683095Y-119681523D01*
X108778333Y-119586285D01*
X108873571Y-119395809D01*
X108873571Y-118824380D01*
X108778333Y-118633904D01*
X108683095Y-118538666D01*
X108492619Y-118443428D01*
X108111666Y-118443428D01*
X107921190Y-118538666D01*
X107159285Y-118443428D02*
X106683095Y-119776761D01*
X106206904Y-118443428D01*
X105445000Y-118443428D02*
X105445000Y-120443428D01*
X105445000Y-118538666D02*
X105254523Y-118443428D01*
X104873571Y-118443428D01*
X104683095Y-118538666D01*
X104587857Y-118633904D01*
X104492619Y-118824380D01*
X104492619Y-119395809D01*
X104587857Y-119586285D01*
X104683095Y-119681523D01*
X104873571Y-119776761D01*
X105254523Y-119776761D01*
X105445000Y-119681523D01*
X103349761Y-119776761D02*
X103540238Y-119681523D01*
X103635476Y-119586285D01*
X103730714Y-119395809D01*
X103730714Y-118824380D01*
X103635476Y-118633904D01*
X103540238Y-118538666D01*
X103349761Y-118443428D01*
X103064047Y-118443428D01*
X102873571Y-118538666D01*
X102778333Y-118633904D01*
X102683095Y-118824380D01*
X102683095Y-119395809D01*
X102778333Y-119586285D01*
X102873571Y-119681523D01*
X103064047Y-119776761D01*
X103349761Y-119776761D01*
X101825952Y-118443428D02*
X101825952Y-119776761D01*
X101825952Y-118633904D02*
X101730714Y-118538666D01*
X101540238Y-118443428D01*
X101254523Y-118443428D01*
X101064047Y-118538666D01*
X100968809Y-118729142D01*
X100968809Y-119776761D01*
X100302142Y-118443428D02*
X99540238Y-118443428D01*
X100016428Y-117776761D02*
X100016428Y-119491047D01*
X99921190Y-119681523D01*
X99730714Y-119776761D01*
X99540238Y-119776761D01*
X99064047Y-120538666D02*
X98968809Y-120443428D01*
X98778333Y-120157714D01*
X98683095Y-119967238D01*
X98587857Y-119681523D01*
X98492619Y-119205333D01*
X98492619Y-118824380D01*
X98587857Y-118348190D01*
X98683095Y-118062476D01*
X98778333Y-117872000D01*
X98968809Y-117586285D01*
X99064047Y-117491047D01*
X92495666Y-136472142D02*
X92543285Y-136519761D01*
X92686142Y-136567380D01*
X92781380Y-136567380D01*
X92924238Y-136519761D01*
X93019476Y-136424523D01*
X93067095Y-136329285D01*
X93114714Y-136138809D01*
X93114714Y-135995952D01*
X93067095Y-135805476D01*
X93019476Y-135710238D01*
X92924238Y-135615000D01*
X92781380Y-135567380D01*
X92686142Y-135567380D01*
X92543285Y-135615000D01*
X92495666Y-135662619D01*
X91638523Y-135900714D02*
X91638523Y-136567380D01*
X91876619Y-135519761D02*
X92114714Y-136234047D01*
X91495666Y-136234047D01*
X142914666Y-136472142D02*
X142962285Y-136519761D01*
X143105142Y-136567380D01*
X143200380Y-136567380D01*
X143343238Y-136519761D01*
X143438476Y-136424523D01*
X143486095Y-136329285D01*
X143533714Y-136138809D01*
X143533714Y-135995952D01*
X143486095Y-135805476D01*
X143438476Y-135710238D01*
X143343238Y-135615000D01*
X143200380Y-135567380D01*
X143105142Y-135567380D01*
X142962285Y-135615000D01*
X142914666Y-135662619D01*
X142581333Y-135567380D02*
X141962285Y-135567380D01*
X142295619Y-135948333D01*
X142152761Y-135948333D01*
X142057523Y-135995952D01*
X142009904Y-136043571D01*
X141962285Y-136138809D01*
X141962285Y-136376904D01*
X142009904Y-136472142D01*
X142057523Y-136519761D01*
X142152761Y-136567380D01*
X142438476Y-136567380D01*
X142533714Y-136519761D01*
X142581333Y-136472142D01*
X117514666Y-136599142D02*
X117562285Y-136646761D01*
X117705142Y-136694380D01*
X117800380Y-136694380D01*
X117943238Y-136646761D01*
X118038476Y-136551523D01*
X118086095Y-136456285D01*
X118133714Y-136265809D01*
X118133714Y-136122952D01*
X118086095Y-135932476D01*
X118038476Y-135837238D01*
X117943238Y-135742000D01*
X117800380Y-135694380D01*
X117705142Y-135694380D01*
X117562285Y-135742000D01*
X117514666Y-135789619D01*
X117133714Y-135789619D02*
X117086095Y-135742000D01*
X116990857Y-135694380D01*
X116752761Y-135694380D01*
X116657523Y-135742000D01*
X116609904Y-135789619D01*
X116562285Y-135884857D01*
X116562285Y-135980095D01*
X116609904Y-136122952D01*
X117181333Y-136694380D01*
X116562285Y-136694380D01*
X203747666Y-135612142D02*
X203795285Y-135659761D01*
X203938142Y-135707380D01*
X204033380Y-135707380D01*
X204176238Y-135659761D01*
X204271476Y-135564523D01*
X204319095Y-135469285D01*
X204366714Y-135278809D01*
X204366714Y-135135952D01*
X204319095Y-134945476D01*
X204271476Y-134850238D01*
X204176238Y-134755000D01*
X204033380Y-134707380D01*
X203938142Y-134707380D01*
X203795285Y-134755000D01*
X203747666Y-134802619D01*
X202795285Y-135707380D02*
X203366714Y-135707380D01*
X203081000Y-135707380D02*
X203081000Y-134707380D01*
X203176238Y-134850238D01*
X203271476Y-134945476D01*
X203366714Y-134993095D01*
X145597476Y-131256380D02*
X145930809Y-130780190D01*
X146168904Y-131256380D02*
X146168904Y-130256380D01*
X145787952Y-130256380D01*
X145692714Y-130304000D01*
X145645095Y-130351619D01*
X145597476Y-130446857D01*
X145597476Y-130589714D01*
X145645095Y-130684952D01*
X145692714Y-130732571D01*
X145787952Y-130780190D01*
X146168904Y-130780190D01*
X145168904Y-131256380D02*
X145168904Y-130256380D01*
X144597476Y-131256380D01*
X144597476Y-130256380D01*
X144168904Y-130351619D02*
X144121285Y-130304000D01*
X144026047Y-130256380D01*
X143787952Y-130256380D01*
X143692714Y-130304000D01*
X143645095Y-130351619D01*
X143597476Y-130446857D01*
X143597476Y-130542095D01*
X143645095Y-130684952D01*
X144216523Y-131256380D01*
X143597476Y-131256380D01*
X192841840Y-117159710D02*
X192841840Y-118487565D01*
X192763731Y-118643783D01*
X192685622Y-118721892D01*
X192529404Y-118800001D01*
X192216967Y-118800001D01*
X192060749Y-118721892D01*
X191982640Y-118643783D01*
X191904531Y-118487565D01*
X191904531Y-117159710D01*
X190264240Y-118800001D02*
X191201549Y-118800001D01*
X190732894Y-118800001D02*
X190732894Y-117159710D01*
X190889113Y-117394037D01*
X191045331Y-117550255D01*
X191201549Y-117628364D01*
X120197476Y-131383380D02*
X120530809Y-130907190D01*
X120768904Y-131383380D02*
X120768904Y-130383380D01*
X120387952Y-130383380D01*
X120292714Y-130431000D01*
X120245095Y-130478619D01*
X120197476Y-130573857D01*
X120197476Y-130716714D01*
X120245095Y-130811952D01*
X120292714Y-130859571D01*
X120387952Y-130907190D01*
X120768904Y-130907190D01*
X119768904Y-131383380D02*
X119768904Y-130383380D01*
X119197476Y-131383380D01*
X119197476Y-130383380D01*
X118197476Y-131383380D02*
X118768904Y-131383380D01*
X118483190Y-131383380D02*
X118483190Y-130383380D01*
X118578428Y-130526238D01*
X118673666Y-130621476D01*
X118768904Y-130669095D01*
X198306666Y-133200666D02*
X198306666Y-132500666D01*
X198140000Y-132500666D01*
X198040000Y-132534000D01*
X197973333Y-132600666D01*
X197940000Y-132667333D01*
X197906666Y-132800666D01*
X197906666Y-132900666D01*
X197940000Y-133034000D01*
X197973333Y-133100666D01*
X198040000Y-133167333D01*
X198140000Y-133200666D01*
X198306666Y-133200666D01*
X197240000Y-133200666D02*
X197640000Y-133200666D01*
X197440000Y-133200666D02*
X197440000Y-132500666D01*
X197506666Y-132600666D01*
X197573333Y-132667333D01*
X197640000Y-132700666D01*
X94797476Y-131256380D02*
X95130809Y-130780190D01*
X95368904Y-131256380D02*
X95368904Y-130256380D01*
X94987952Y-130256380D01*
X94892714Y-130304000D01*
X94845095Y-130351619D01*
X94797476Y-130446857D01*
X94797476Y-130589714D01*
X94845095Y-130684952D01*
X94892714Y-130732571D01*
X94987952Y-130780190D01*
X95368904Y-130780190D01*
X94368904Y-131256380D02*
X94368904Y-130256380D01*
X93797476Y-131256380D01*
X93797476Y-130256380D01*
X93416523Y-130256380D02*
X92797476Y-130256380D01*
X93130809Y-130637333D01*
X92987952Y-130637333D01*
X92892714Y-130684952D01*
X92845095Y-130732571D01*
X92797476Y-130827809D01*
X92797476Y-131065904D01*
X92845095Y-131161142D01*
X92892714Y-131208761D01*
X92987952Y-131256380D01*
X93273666Y-131256380D01*
X93368904Y-131208761D01*
X93416523Y-131161142D01*
X147603380Y-134620095D02*
X148412904Y-134620095D01*
X148508142Y-134667714D01*
X148555761Y-134715333D01*
X148603380Y-134810571D01*
X148603380Y-135001047D01*
X148555761Y-135096285D01*
X148508142Y-135143904D01*
X148412904Y-135191523D01*
X147603380Y-135191523D01*
X147603380Y-135572476D02*
X147603380Y-136239142D01*
X148603380Y-135810571D01*
D11*
X177397833Y-117559666D02*
X177397833Y-118279333D01*
X177355500Y-118364000D01*
X177313166Y-118406333D01*
X177228500Y-118448666D01*
X177059166Y-118448666D01*
X176974500Y-118406333D01*
X176932166Y-118364000D01*
X176889833Y-118279333D01*
X176889833Y-117559666D01*
X176508833Y-117644333D02*
X176466500Y-117602000D01*
X176381833Y-117559666D01*
X176170166Y-117559666D01*
X176085500Y-117602000D01*
X176043166Y-117644333D01*
X176000833Y-117729000D01*
X176000833Y-117813666D01*
X176043166Y-117940666D01*
X176551166Y-118448666D01*
X176000833Y-118448666D01*
D10*
X122203380Y-134747095D02*
X123012904Y-134747095D01*
X123108142Y-134794714D01*
X123155761Y-134842333D01*
X123203380Y-134937571D01*
X123203380Y-135128047D01*
X123155761Y-135223285D01*
X123108142Y-135270904D01*
X123012904Y-135318523D01*
X122203380Y-135318523D01*
X122203380Y-136223285D02*
X122203380Y-136032809D01*
X122251000Y-135937571D01*
X122298619Y-135889952D01*
X122441476Y-135794714D01*
X122631952Y-135747095D01*
X123012904Y-135747095D01*
X123108142Y-135794714D01*
X123155761Y-135842333D01*
X123203380Y-135937571D01*
X123203380Y-136128047D01*
X123155761Y-136223285D01*
X123108142Y-136270904D01*
X123012904Y-136318523D01*
X122774809Y-136318523D01*
X122679571Y-136270904D01*
X122631952Y-136223285D01*
X122584333Y-136128047D01*
X122584333Y-135937571D01*
X122631952Y-135842333D01*
X122679571Y-135794714D01*
X122774809Y-135747095D01*
X96803380Y-134620095D02*
X97612904Y-134620095D01*
X97708142Y-134667714D01*
X97755761Y-134715333D01*
X97803380Y-134810571D01*
X97803380Y-135001047D01*
X97755761Y-135096285D01*
X97708142Y-135143904D01*
X97612904Y-135191523D01*
X96803380Y-135191523D01*
X97231952Y-135810571D02*
X97184333Y-135715333D01*
X97136714Y-135667714D01*
X97041476Y-135620095D01*
X96993857Y-135620095D01*
X96898619Y-135667714D01*
X96851000Y-135715333D01*
X96803380Y-135810571D01*
X96803380Y-136001047D01*
X96851000Y-136096285D01*
X96898619Y-136143904D01*
X96993857Y-136191523D01*
X97041476Y-136191523D01*
X97136714Y-136143904D01*
X97184333Y-136096285D01*
X97231952Y-136001047D01*
X97231952Y-135810571D01*
X97279571Y-135715333D01*
X97327190Y-135667714D01*
X97422428Y-135620095D01*
X97612904Y-135620095D01*
X97708142Y-135667714D01*
X97755761Y-135715333D01*
X97803380Y-135810571D01*
X97803380Y-136001047D01*
X97755761Y-136096285D01*
X97708142Y-136143904D01*
X97612904Y-136191523D01*
X97422428Y-136191523D01*
X97327190Y-136143904D01*
X97279571Y-136096285D01*
X97231952Y-136001047D01*
D12*
X209864000Y-128270000D02*
X209864000Y-126940000D01*
X209864000Y-132140000D02*
X207204000Y-132140000D01*
X209864000Y-129540000D02*
X209864000Y-132140000D01*
X209864000Y-129540000D02*
X207204000Y-129540000D01*
X209864000Y-126940000D02*
X208534000Y-126940000D01*
X207204000Y-129540000D02*
X207204000Y-132140000D01*
X92590252Y-137060000D02*
X92067748Y-137060000D01*
X92590252Y-138530000D02*
X92067748Y-138530000D01*
X143009252Y-137060000D02*
X142486748Y-137060000D01*
X143009252Y-138530000D02*
X142486748Y-138530000D01*
X117609252Y-137187000D02*
X117086748Y-137187000D01*
X117609252Y-138657000D02*
X117086748Y-138657000D01*
X202846000Y-132432248D02*
X202846000Y-132954752D01*
X204316000Y-132432248D02*
X204316000Y-132954752D01*
X144377000Y-131784000D02*
X145437000Y-131784000D01*
X144377000Y-135424000D02*
X145437000Y-135424000D01*
D13*
X193040200Y-120090600D02*
X193649800Y-120090600D01*
X192506800Y-121970200D02*
X192506800Y-121309800D01*
X193649800Y-120090600D02*
X193954600Y-120090600D01*
X192735400Y-120090600D02*
X193040200Y-120090600D01*
X193954600Y-123189400D02*
X192735400Y-123189400D01*
X193040200Y-120090600D02*
G75*
G03*
X193649800Y-120090600I304800J0D01*
G01*
D12*
X118977000Y-135551000D02*
X120037000Y-135551000D01*
X118977000Y-131911000D02*
X120037000Y-131911000D01*
G36*
X195590000Y-129384000D02*
G01*
X194990000Y-129384000D01*
X195590000Y-128784000D01*
X195590000Y-129384000D01*
G37*
D14*
X195590000Y-129384000D02*
X194990000Y-129384000D01*
X195590000Y-128784000D01*
X195590000Y-129384000D01*
D12*
X93577000Y-135424000D02*
X94637000Y-135424000D01*
X93577000Y-131784000D02*
X94637000Y-131784000D01*
X159111000Y-135382000D02*
X159111000Y-137332000D01*
X159111000Y-135382000D02*
X159111000Y-133432000D01*
X148991000Y-135382000D02*
X148991000Y-137332000D01*
X148991000Y-135382000D02*
X148991000Y-131932000D01*
D15*
X173736000Y-121412000D02*
X173736000Y-118745000D01*
X179705000Y-119507000D02*
X174625000Y-119507000D01*
X174625000Y-122047000D02*
X174625000Y-119507000D01*
X173736000Y-125478540D02*
X171958000Y-125478540D01*
X182372000Y-118745000D02*
X180594000Y-118745000D01*
D16*
X181655720Y-117403880D02*
X172661580Y-117403880D01*
D15*
X171958000Y-125478540D02*
X171958000Y-122809000D01*
X180594000Y-125478540D02*
X180594000Y-122809000D01*
X179705000Y-139192000D02*
X173990000Y-139192000D01*
X179705000Y-136652000D02*
X173990000Y-136652000D01*
X173990000Y-139192000D02*
X173990000Y-136652000D01*
X182372000Y-125478540D02*
X180594000Y-125478540D01*
X173736000Y-121412000D02*
X171958000Y-121412000D01*
X182372000Y-122809000D02*
X180594000Y-122809000D01*
D16*
X181660800Y-124757180D02*
X181660800Y-117403880D01*
D15*
X179705000Y-139192000D02*
X179705000Y-136652000D01*
D16*
X172661580Y-117403880D02*
X172661580Y-124757180D01*
D15*
X182372000Y-121412000D02*
X180594000Y-121412000D01*
X179705000Y-122047000D02*
X179705000Y-119507000D01*
X180594000Y-121412000D02*
X180594000Y-118745000D01*
D16*
X186055000Y-139827000D02*
X168257220Y-139827000D01*
D15*
X171958000Y-121412000D02*
X171958000Y-118745000D01*
X173736000Y-125478540D02*
X173736000Y-122809000D01*
X182372000Y-121412000D02*
X182372000Y-118745000D01*
X173736000Y-118745000D02*
X171958000Y-118745000D01*
D16*
X172661580Y-124757180D02*
X181660800Y-124757180D01*
D15*
X179705000Y-122047000D02*
X174625000Y-122047000D01*
X173736000Y-122809000D02*
X171958000Y-122809000D01*
D16*
X168257220Y-118828820D02*
X185384440Y-118828820D01*
D15*
X182372000Y-125478540D02*
X182372000Y-122809000D01*
D17*
X187071000Y-121666000D02*
G75*
G03*
X187071000Y-121666000I-127000J0D01*
G01*
D12*
X123591000Y-135509000D02*
X123591000Y-132059000D01*
X133711000Y-135509000D02*
X133711000Y-133559000D01*
X133711000Y-135509000D02*
X133711000Y-137459000D01*
X123591000Y-135509000D02*
X123591000Y-137459000D01*
X98191000Y-135382000D02*
X98191000Y-137332000D01*
X108311000Y-135382000D02*
X108311000Y-133432000D01*
X98191000Y-135382000D02*
X98191000Y-131932000D01*
X108311000Y-135382000D02*
X108311000Y-137332000D01*
%LPC*%
D18*
X208534000Y-128270000D03*
D19*
X208534000Y-130810000D03*
D20*
X93366500Y-137795000D03*
X91291500Y-137795000D03*
X143785500Y-137795000D03*
X141710500Y-137795000D03*
X118385500Y-137922000D03*
X116310500Y-137922000D03*
D21*
X203581000Y-131656000D03*
X203581000Y-133731000D03*
D22*
X143256000Y-122682000D03*
X143256000Y-125222000D03*
X143256000Y-127762000D03*
X150876000Y-122682000D03*
X150876000Y-125222000D03*
X150876000Y-127762000D03*
D23*
X192290000Y-125958000D03*
D24*
X192570000Y-130158000D03*
D25*
X197790000Y-125958000D03*
D23*
X203290000Y-125958000D03*
D26*
X197790000Y-120058000D03*
X202790000Y-122158000D03*
D22*
X105156000Y-122682000D03*
X105156000Y-125222000D03*
X105156000Y-127762000D03*
X112776000Y-122682000D03*
X112776000Y-125222000D03*
X112776000Y-127762000D03*
X130556000Y-122682000D03*
X130556000Y-125222000D03*
X130556000Y-127762000D03*
X138176000Y-122682000D03*
X138176000Y-125222000D03*
X138176000Y-127762000D03*
X117856000Y-122682000D03*
X117856000Y-125222000D03*
X117856000Y-127762000D03*
X125476000Y-122682000D03*
X125476000Y-125222000D03*
X125476000Y-127762000D03*
X155956000Y-122682000D03*
X155956000Y-125222000D03*
X155956000Y-127762000D03*
X163576000Y-122682000D03*
X163576000Y-125222000D03*
X163576000Y-127762000D03*
X92456000Y-122682000D03*
X92456000Y-125222000D03*
X92456000Y-127762000D03*
X100076000Y-122682000D03*
X100076000Y-125222000D03*
X100076000Y-127762000D03*
D27*
X145807000Y-132244000D03*
D28*
X145807000Y-132964000D03*
X145807000Y-133604000D03*
X145807000Y-134244000D03*
D27*
X145807000Y-134964000D03*
X144007000Y-134964000D03*
D28*
X144007000Y-134244000D03*
X144007000Y-133604000D03*
X144007000Y-132964000D03*
D27*
X144007000Y-132244000D03*
D29*
X194640400Y-120700200D03*
X194640400Y-121640000D03*
X194640400Y-122579800D03*
X192049600Y-122579800D03*
X192049600Y-120700200D03*
D27*
X120407000Y-132371000D03*
D28*
X120407000Y-133091000D03*
X120407000Y-133731000D03*
X120407000Y-134371000D03*
D27*
X120407000Y-135091000D03*
X118607000Y-135091000D03*
D28*
X118607000Y-134371000D03*
X118607000Y-133731000D03*
X118607000Y-133091000D03*
D27*
X118607000Y-132371000D03*
D30*
X200457000Y-131534000D03*
X200457000Y-130034000D03*
D31*
X195123000Y-130034000D03*
D30*
X195123000Y-131534000D03*
D27*
X95007000Y-132244000D03*
D28*
X95007000Y-132964000D03*
X95007000Y-133604000D03*
X95007000Y-134244000D03*
D27*
X95007000Y-134964000D03*
X93207000Y-134964000D03*
D28*
X93207000Y-134244000D03*
X93207000Y-133604000D03*
X93207000Y-132964000D03*
D27*
X93207000Y-132244000D03*
D32*
X149606000Y-132907000D03*
X150876000Y-132907000D03*
X152146000Y-132907000D03*
X153416000Y-132907000D03*
X154686000Y-132907000D03*
X155956000Y-132907000D03*
X157226000Y-132907000D03*
X158496000Y-132907000D03*
X158496000Y-137857000D03*
X157226000Y-137857000D03*
X155956000Y-137857000D03*
X154686000Y-137857000D03*
X153416000Y-137857000D03*
X152146000Y-137857000D03*
X150876000Y-137857000D03*
X149606000Y-137857000D03*
D33*
X185221880Y-121709180D03*
X185221880Y-124249180D03*
X185221880Y-126789180D03*
X185221880Y-129329180D03*
X185221880Y-131869180D03*
X185221880Y-134409180D03*
X185221880Y-136949180D03*
X169057320Y-136949180D03*
X169057320Y-134409180D03*
X169057320Y-131869180D03*
X169057320Y-129329180D03*
X169057320Y-126789180D03*
X169057320Y-124249180D03*
X169057320Y-121709180D03*
D32*
X124206000Y-133034000D03*
X125476000Y-133034000D03*
X126746000Y-133034000D03*
X128016000Y-133034000D03*
X129286000Y-133034000D03*
X130556000Y-133034000D03*
X131826000Y-133034000D03*
X133096000Y-133034000D03*
X133096000Y-137984000D03*
X131826000Y-137984000D03*
X130556000Y-137984000D03*
X129286000Y-137984000D03*
X128016000Y-137984000D03*
X126746000Y-137984000D03*
X125476000Y-137984000D03*
X124206000Y-137984000D03*
X98806000Y-132907000D03*
X100076000Y-132907000D03*
X101346000Y-132907000D03*
X102616000Y-132907000D03*
X103886000Y-132907000D03*
X105156000Y-132907000D03*
X106426000Y-132907000D03*
X107696000Y-132907000D03*
X107696000Y-137857000D03*
X106426000Y-137857000D03*
X105156000Y-137857000D03*
X103886000Y-137857000D03*
X102616000Y-137857000D03*
X101346000Y-137857000D03*
X100076000Y-137857000D03*
X98806000Y-137857000D03*
M02*
