M48
; DRILL file {KiCad (6.0.6-0)} date Wednesday, September 14, 2022 at 12:48:50 PM
; FORMAT={-:-/ absolute / metric / decimal}
; #@! TF.CreationDate,2022-09-14T12:48:50-04:00
; #@! TF.GenerationSoftware,Kicad,Pcbnew,(6.0.6-0)
; #@! TF.FileFunction,Plated,1,2,PTH
FMAT,2
METRIC
; #@! TA.AperFunction,Plated,PTH,ViaDrill
T1C0.400
; #@! TA.AperFunction,Plated,PTH,ComponentDrill
T2C0.900
; #@! TA.AperFunction,Plated,PTH,ComponentDrill
T3C1.000
; #@! TA.AperFunction,Plated,PTH,ComponentDrill
T4C1.270
%
G90
G05
T1
X93.201Y-130.937
X94.805Y-137.858
X96.266Y-135.382
X97.282Y-135.382
X97.409Y-137.922
X99.758Y-131.381
X101.155Y-131.381
X105.791Y-130.937
X106.68Y-126.492
X108.712Y-138.938
X118.608Y-130.937
X120.015Y-137.922
X121.666Y-135.382
X122.809Y-135.382
X123.063Y-137.922
X125.164Y-131.513
X126.561Y-131.513
X131.064Y-131.064
X132.334Y-126.746
X134.112Y-138.811
X144.007Y-131.064
X145.415Y-137.795
X146.939Y-135.382
X148.088Y-135.365
X148.463Y-137.795
X150.564Y-131.386
X151.962Y-131.386
X156.464Y-130.937
X159.004Y-129.667
X159.766Y-138.811
X162.56Y-131.572
X165.862Y-138.557
X180.213Y-122.682
X181.61Y-122.682
X201.803Y-133.858
T2
X92.456Y-122.682
X92.456Y-125.222
X92.456Y-127.762
X100.076Y-122.682
X100.076Y-125.222
X100.076Y-127.762
X105.156Y-122.682
X105.156Y-125.222
X105.156Y-127.762
X112.776Y-122.682
X112.776Y-125.222
X112.776Y-127.762
X117.856Y-122.682
X117.856Y-125.222
X117.856Y-127.762
X125.476Y-122.682
X125.476Y-125.222
X125.476Y-127.762
X130.556Y-122.682
X130.556Y-125.222
X130.556Y-127.762
X138.176Y-122.682
X138.176Y-125.222
X138.176Y-127.762
X143.256Y-122.682
X143.256Y-125.222
X143.256Y-127.762
X150.876Y-122.682
X150.876Y-125.222
X150.876Y-127.762
X155.956Y-122.682
X155.956Y-125.222
X155.956Y-127.762
X163.576Y-122.682
X163.576Y-125.222
X163.576Y-127.762
T3
X208.534Y-128.27
X208.534Y-130.81
T4
X197.79Y-120.058
X202.79Y-122.158
T0
M30
