G04 #@! TF.GenerationSoftware,KiCad,Pcbnew,(6.0.6-0)*
G04 #@! TF.CreationDate,2022-09-14T12:48:58-04:00*
G04 #@! TF.ProjectId,dial_toner_mx,6469616c-5f74-46f6-9e65-725f6d782e6b,rev?*
G04 #@! TF.SameCoordinates,Original*
G04 #@! TF.FileFunction,Soldermask,Bot*
G04 #@! TF.FilePolarity,Negative*
%FSLAX46Y46*%
G04 Gerber Fmt 4.6, Leading zero omitted, Abs format (unit mm)*
G04 Created by KiCad (PCBNEW (6.0.6-0)) date 2022-09-14 12:48:58*
%MOMM*%
%LPD*%
G01*
G04 APERTURE LIST*
G04 Aperture macros list*
%AMRoundRect*
0 Rectangle with rounded corners*
0 $1 Rounding radius*
0 $2 $3 $4 $5 $6 $7 $8 $9 X,Y pos of 4 corners*
0 Add a 4 corners polygon primitive as box body*
4,1,4,$2,$3,$4,$5,$6,$7,$8,$9,$2,$3,0*
0 Add four circle primitives for the rounded corners*
1,1,$1+$1,$2,$3*
1,1,$1+$1,$4,$5*
1,1,$1+$1,$6,$7*
1,1,$1+$1,$8,$9*
0 Add four rect primitives between the rounded corners*
20,1,$1+$1,$2,$3,$4,$5,0*
20,1,$1+$1,$4,$5,$6,$7,0*
20,1,$1+$1,$6,$7,$8,$9,0*
20,1,$1+$1,$8,$9,$2,$3,0*%
G04 Aperture macros list end*
%ADD10R,1.700000X1.700000*%
%ADD11O,1.700000X1.700000*%
%ADD12RoundRect,0.250000X0.337500X0.475000X-0.337500X0.475000X-0.337500X-0.475000X0.337500X-0.475000X0*%
%ADD13RoundRect,0.250000X-0.475000X0.337500X-0.475000X-0.337500X0.475000X-0.337500X0.475000X0.337500X0*%
%ADD14C,1.700000*%
%ADD15C,1.701800*%
%ADD16C,0.990600*%
%ADD17C,3.429000*%
%ADD18C,2.032000*%
%ADD19R,0.800000X0.480000*%
%ADD20R,0.800000X0.320000*%
%ADD21R,1.270000X0.558800*%
%ADD22R,1.700000X0.820000*%
%ADD23RoundRect,0.205000X0.645000X0.205000X-0.645000X0.205000X-0.645000X-0.205000X0.645000X-0.205000X0*%
%ADD24RoundRect,0.150000X-0.150000X0.825000X-0.150000X-0.825000X0.150000X-0.825000X0.150000X0.825000X0*%
%ADD25O,2.748280X1.998980*%
G04 APERTURE END LIST*
D10*
X208534000Y-128270000D03*
D11*
X208534000Y-130810000D03*
D12*
X93366500Y-137795000D03*
X91291500Y-137795000D03*
X143785500Y-137795000D03*
X141710500Y-137795000D03*
X118385500Y-137922000D03*
X116310500Y-137922000D03*
D13*
X203581000Y-131656000D03*
X203581000Y-133731000D03*
D14*
X143256000Y-122682000D03*
X143256000Y-125222000D03*
X143256000Y-127762000D03*
X150876000Y-122682000D03*
X150876000Y-125222000D03*
X150876000Y-127762000D03*
D15*
X192290000Y-125958000D03*
D16*
X192570000Y-130158000D03*
D17*
X197790000Y-125958000D03*
D15*
X203290000Y-125958000D03*
D18*
X197790000Y-120058000D03*
X202790000Y-122158000D03*
D14*
X105156000Y-122682000D03*
X105156000Y-125222000D03*
X105156000Y-127762000D03*
X112776000Y-122682000D03*
X112776000Y-125222000D03*
X112776000Y-127762000D03*
X130556000Y-122682000D03*
X130556000Y-125222000D03*
X130556000Y-127762000D03*
X138176000Y-122682000D03*
X138176000Y-125222000D03*
X138176000Y-127762000D03*
X117856000Y-122682000D03*
X117856000Y-125222000D03*
X117856000Y-127762000D03*
X125476000Y-122682000D03*
X125476000Y-125222000D03*
X125476000Y-127762000D03*
X155956000Y-122682000D03*
X155956000Y-125222000D03*
X155956000Y-127762000D03*
X163576000Y-122682000D03*
X163576000Y-125222000D03*
X163576000Y-127762000D03*
X92456000Y-122682000D03*
X92456000Y-125222000D03*
X92456000Y-127762000D03*
X100076000Y-122682000D03*
X100076000Y-125222000D03*
X100076000Y-127762000D03*
D19*
X145807000Y-132244000D03*
D20*
X145807000Y-132964000D03*
X145807000Y-133604000D03*
X145807000Y-134244000D03*
D19*
X145807000Y-134964000D03*
X144007000Y-134964000D03*
D20*
X144007000Y-134244000D03*
X144007000Y-133604000D03*
X144007000Y-132964000D03*
D19*
X144007000Y-132244000D03*
D21*
X194640400Y-120700200D03*
X194640400Y-121640000D03*
X194640400Y-122579800D03*
X192049600Y-122579800D03*
X192049600Y-120700200D03*
D19*
X120407000Y-132371000D03*
D20*
X120407000Y-133091000D03*
X120407000Y-133731000D03*
X120407000Y-134371000D03*
D19*
X120407000Y-135091000D03*
X118607000Y-135091000D03*
D20*
X118607000Y-134371000D03*
X118607000Y-133731000D03*
X118607000Y-133091000D03*
D19*
X118607000Y-132371000D03*
D22*
X200457000Y-131534000D03*
X200457000Y-130034000D03*
D23*
X195123000Y-130034000D03*
D22*
X195123000Y-131534000D03*
D19*
X95007000Y-132244000D03*
D20*
X95007000Y-132964000D03*
X95007000Y-133604000D03*
X95007000Y-134244000D03*
D19*
X95007000Y-134964000D03*
X93207000Y-134964000D03*
D20*
X93207000Y-134244000D03*
X93207000Y-133604000D03*
X93207000Y-132964000D03*
D19*
X93207000Y-132244000D03*
D24*
X149606000Y-132907000D03*
X150876000Y-132907000D03*
X152146000Y-132907000D03*
X153416000Y-132907000D03*
X154686000Y-132907000D03*
X155956000Y-132907000D03*
X157226000Y-132907000D03*
X158496000Y-132907000D03*
X158496000Y-137857000D03*
X157226000Y-137857000D03*
X155956000Y-137857000D03*
X154686000Y-137857000D03*
X153416000Y-137857000D03*
X152146000Y-137857000D03*
X150876000Y-137857000D03*
X149606000Y-137857000D03*
D25*
X185221880Y-121709180D03*
X185221880Y-124249180D03*
X185221880Y-126789180D03*
X185221880Y-129329180D03*
X185221880Y-131869180D03*
X185221880Y-134409180D03*
X185221880Y-136949180D03*
X169057320Y-136949180D03*
X169057320Y-134409180D03*
X169057320Y-131869180D03*
X169057320Y-129329180D03*
X169057320Y-126789180D03*
X169057320Y-124249180D03*
X169057320Y-121709180D03*
D24*
X124206000Y-133034000D03*
X125476000Y-133034000D03*
X126746000Y-133034000D03*
X128016000Y-133034000D03*
X129286000Y-133034000D03*
X130556000Y-133034000D03*
X131826000Y-133034000D03*
X133096000Y-133034000D03*
X133096000Y-137984000D03*
X131826000Y-137984000D03*
X130556000Y-137984000D03*
X129286000Y-137984000D03*
X128016000Y-137984000D03*
X126746000Y-137984000D03*
X125476000Y-137984000D03*
X124206000Y-137984000D03*
X98806000Y-132907000D03*
X100076000Y-132907000D03*
X101346000Y-132907000D03*
X102616000Y-132907000D03*
X103886000Y-132907000D03*
X105156000Y-132907000D03*
X106426000Y-132907000D03*
X107696000Y-132907000D03*
X107696000Y-137857000D03*
X106426000Y-137857000D03*
X105156000Y-137857000D03*
X103886000Y-137857000D03*
X102616000Y-137857000D03*
X101346000Y-137857000D03*
X100076000Y-137857000D03*
X98806000Y-137857000D03*
M02*
