G04 #@! TF.GenerationSoftware,KiCad,Pcbnew,(6.0.6-0)*
G04 #@! TF.CreationDate,2022-09-14T12:48:58-04:00*
G04 #@! TF.ProjectId,dial_toner_mx,6469616c-5f74-46f6-9e65-725f6d782e6b,rev?*
G04 #@! TF.SameCoordinates,Original*
G04 #@! TF.FileFunction,Soldermask,Top*
G04 #@! TF.FilePolarity,Negative*
%FSLAX46Y46*%
G04 Gerber Fmt 4.6, Leading zero omitted, Abs format (unit mm)*
G04 Created by KiCad (PCBNEW (6.0.6-0)) date 2022-09-14 12:48:58*
%MOMM*%
%LPD*%
G01*
G04 APERTURE LIST*
%ADD10R,1.700000X1.700000*%
%ADD11O,1.700000X1.700000*%
%ADD12C,1.700000*%
%ADD13C,1.701800*%
%ADD14C,0.990600*%
%ADD15C,3.429000*%
%ADD16C,2.032000*%
G04 APERTURE END LIST*
D10*
X208534000Y-128270000D03*
D11*
X208534000Y-130810000D03*
D12*
X143256000Y-122682000D03*
X143256000Y-125222000D03*
X143256000Y-127762000D03*
X150876000Y-122682000D03*
X150876000Y-125222000D03*
X150876000Y-127762000D03*
D13*
X192290000Y-125958000D03*
D14*
X192570000Y-130158000D03*
D15*
X197790000Y-125958000D03*
D13*
X203290000Y-125958000D03*
D16*
X197790000Y-120058000D03*
X202790000Y-122158000D03*
D12*
X105156000Y-122682000D03*
X105156000Y-125222000D03*
X105156000Y-127762000D03*
X112776000Y-122682000D03*
X112776000Y-125222000D03*
X112776000Y-127762000D03*
X130556000Y-122682000D03*
X130556000Y-125222000D03*
X130556000Y-127762000D03*
X138176000Y-122682000D03*
X138176000Y-125222000D03*
X138176000Y-127762000D03*
X117856000Y-122682000D03*
X117856000Y-125222000D03*
X117856000Y-127762000D03*
X125476000Y-122682000D03*
X125476000Y-125222000D03*
X125476000Y-127762000D03*
X155956000Y-122682000D03*
X155956000Y-125222000D03*
X155956000Y-127762000D03*
X163576000Y-122682000D03*
X163576000Y-125222000D03*
X163576000Y-127762000D03*
X92456000Y-122682000D03*
X92456000Y-125222000D03*
X92456000Y-127762000D03*
X100076000Y-122682000D03*
X100076000Y-125222000D03*
X100076000Y-127762000D03*
M02*
