G04 #@! TF.GenerationSoftware,KiCad,Pcbnew,(6.0.6-0)*
G04 #@! TF.CreationDate,2022-09-14T12:48:58-04:00*
G04 #@! TF.ProjectId,dial_toner_mx,6469616c-5f74-46f6-9e65-725f6d782e6b,rev?*
G04 #@! TF.SameCoordinates,Original*
G04 #@! TF.FileFunction,Copper,L1,Top*
G04 #@! TF.FilePolarity,Positive*
%FSLAX46Y46*%
G04 Gerber Fmt 4.6, Leading zero omitted, Abs format (unit mm)*
G04 Created by KiCad (PCBNEW (6.0.6-0)) date 2022-09-14 12:48:58*
%MOMM*%
%LPD*%
G01*
G04 APERTURE LIST*
G04 #@! TA.AperFunction,ComponentPad*
%ADD10R,1.700000X1.700000*%
G04 #@! TD*
G04 #@! TA.AperFunction,ComponentPad*
%ADD11O,1.700000X1.700000*%
G04 #@! TD*
G04 #@! TA.AperFunction,ComponentPad*
%ADD12C,1.700000*%
G04 #@! TD*
G04 #@! TA.AperFunction,ComponentPad*
%ADD13C,2.032000*%
G04 #@! TD*
G04 #@! TA.AperFunction,ViaPad*
%ADD14C,0.800000*%
G04 #@! TD*
G04 #@! TA.AperFunction,Conductor*
%ADD15C,0.750000*%
G04 #@! TD*
G04 #@! TA.AperFunction,Conductor*
%ADD16C,0.250000*%
G04 #@! TD*
G04 APERTURE END LIST*
D10*
X208534000Y-128270000D03*
D11*
X208534000Y-130810000D03*
D12*
X143256000Y-122682000D03*
X143256000Y-125222000D03*
X143256000Y-127762000D03*
X150876000Y-122682000D03*
X150876000Y-125222000D03*
X150876000Y-127762000D03*
D13*
X197790000Y-120058000D03*
X202790000Y-122158000D03*
D12*
X105156000Y-122682000D03*
X105156000Y-125222000D03*
X105156000Y-127762000D03*
X112776000Y-122682000D03*
X112776000Y-125222000D03*
X112776000Y-127762000D03*
X130556000Y-122682000D03*
X130556000Y-125222000D03*
X130556000Y-127762000D03*
X138176000Y-122682000D03*
X138176000Y-125222000D03*
X138176000Y-127762000D03*
X117856000Y-122682000D03*
X117856000Y-125222000D03*
X117856000Y-127762000D03*
X125476000Y-122682000D03*
X125476000Y-125222000D03*
X125476000Y-127762000D03*
X155956000Y-122682000D03*
X155956000Y-125222000D03*
X155956000Y-127762000D03*
X163576000Y-122682000D03*
X163576000Y-125222000D03*
X163576000Y-127762000D03*
X92456000Y-122682000D03*
X92456000Y-125222000D03*
X92456000Y-127762000D03*
X100076000Y-122682000D03*
X100076000Y-125222000D03*
X100076000Y-127762000D03*
D14*
X145415000Y-137795000D03*
X120015000Y-137922000D03*
X94805500Y-137858500D03*
X201803000Y-133858000D03*
X97409000Y-137922000D03*
X162560000Y-131572000D03*
X93201500Y-130937000D03*
X118607500Y-130937000D03*
X123063000Y-137922000D03*
X144007500Y-131064000D03*
X148463000Y-137795000D03*
X134112000Y-138811000D03*
X108712000Y-138938000D03*
X159766000Y-138811000D03*
X106680000Y-126492000D03*
X181610000Y-122682000D03*
X180213000Y-122682000D03*
X132334000Y-126746000D03*
X165862000Y-138557000D03*
X159004000Y-129667000D03*
X101155500Y-131381500D03*
X99758500Y-131381500D03*
X105791000Y-130937000D03*
X96266000Y-135382000D03*
X97282000Y-135382000D03*
X126561500Y-131513500D03*
X125164500Y-131513500D03*
X131064000Y-131064000D03*
X121666000Y-135382000D03*
X122809000Y-135382000D03*
X151961500Y-131386500D03*
X150564500Y-131386500D03*
X156464000Y-130937000D03*
X146939000Y-135382000D03*
X148088000Y-135365500D03*
D15*
X145415000Y-137795000D02*
X144018000Y-137795000D01*
X120015000Y-137922000D02*
X118491000Y-137922000D01*
X94805500Y-137858500D02*
X94869000Y-137922000D01*
X144018000Y-137795000D02*
X132461000Y-137795000D01*
X94869000Y-137922000D02*
X97409000Y-137922000D01*
X93201500Y-136254500D02*
X94805500Y-137858500D01*
X144007500Y-131064000D02*
X144018000Y-131074500D01*
X144018000Y-131074500D02*
X144018000Y-137795000D01*
X118491000Y-137922000D02*
X107188000Y-137922000D01*
X132461000Y-137795000D02*
X123190000Y-137795000D01*
X162433000Y-131699000D02*
X162433000Y-135509000D01*
X160147000Y-137795000D02*
X148463000Y-137795000D01*
X162433000Y-135509000D02*
X160147000Y-137795000D01*
X93201500Y-130937000D02*
X93201500Y-136254500D01*
X162560000Y-131572000D02*
X162433000Y-131699000D01*
X123190000Y-137795000D02*
X123063000Y-137922000D01*
X123063000Y-137922000D02*
X120015000Y-137922000D01*
X148463000Y-137795000D02*
X145415000Y-137795000D01*
X107188000Y-137922000D02*
X97409000Y-137922000D01*
X118491000Y-131053500D02*
X118491000Y-137922000D01*
X118607500Y-130937000D02*
X118491000Y-131053500D01*
D16*
X134112000Y-138811000D02*
X108839000Y-138811000D01*
X108839000Y-138811000D02*
X108712000Y-138938000D01*
X159766000Y-138811000D02*
X134112000Y-138811000D01*
X181610000Y-122682000D02*
X178689000Y-119761000D01*
X113411000Y-119761000D02*
X106680000Y-126492000D01*
X178689000Y-119761000D02*
X113411000Y-119761000D01*
X180213000Y-122682000D02*
X178054000Y-120523000D01*
X138557000Y-120523000D02*
X132334000Y-126746000D01*
X178054000Y-120523000D02*
X138557000Y-120523000D01*
X161577068Y-129667000D02*
X165862000Y-133951932D01*
X159004000Y-129667000D02*
X161577068Y-129667000D01*
X165862000Y-133951932D02*
X165862000Y-138557000D01*
X101155500Y-131381500D02*
X101282500Y-131381500D01*
X101282500Y-131381500D02*
X102704536Y-129959464D01*
X102704536Y-129959464D02*
X110578536Y-129959464D01*
X110578536Y-129959464D02*
X112776000Y-127762000D01*
X103378000Y-127762000D02*
X105156000Y-127762000D01*
X99758500Y-131381500D02*
X103378000Y-127762000D01*
X113878000Y-128218464D02*
X113878000Y-123784000D01*
X105791000Y-130937000D02*
X106391536Y-130336464D01*
X113878000Y-123784000D02*
X112776000Y-122682000D01*
X111760000Y-130336464D02*
X113878000Y-128218464D01*
X106391536Y-130336464D02*
X111760000Y-130336464D01*
X93599000Y-127762000D02*
X92456000Y-127762000D01*
X96520000Y-135128000D02*
X96520000Y-130683000D01*
X96520000Y-130683000D02*
X93599000Y-127762000D01*
X96266000Y-135382000D02*
X96520000Y-135128000D01*
X97282000Y-125476000D02*
X100076000Y-122682000D01*
X97282000Y-135382000D02*
X97282000Y-125476000D01*
X138182000Y-128264000D02*
X138182000Y-127894000D01*
X126561500Y-131513500D02*
X128027000Y-130048000D01*
X136398000Y-130048000D02*
X138182000Y-128264000D01*
X128027000Y-130048000D02*
X136398000Y-130048000D01*
X128784000Y-127894000D02*
X130562000Y-127894000D01*
X125164500Y-131513500D02*
X128784000Y-127894000D01*
X139284000Y-128350464D02*
X139284000Y-123916000D01*
X131064000Y-131064000D02*
X131659536Y-130468464D01*
X139284000Y-123916000D02*
X138182000Y-122814000D01*
X137166000Y-130468464D02*
X139284000Y-128350464D01*
X131659536Y-130468464D02*
X137166000Y-130468464D01*
X121666000Y-135382000D02*
X121926000Y-135122000D01*
X121926000Y-135122000D02*
X121926000Y-130689000D01*
X119131000Y-127894000D02*
X117862000Y-127894000D01*
X121926000Y-130689000D02*
X119131000Y-127894000D01*
X122688000Y-125608000D02*
X125482000Y-122814000D01*
X122688000Y-135261000D02*
X122688000Y-125608000D01*
X122809000Y-135382000D02*
X122688000Y-135261000D01*
X162952000Y-128397000D02*
X163582000Y-127767000D01*
X156193932Y-130285000D02*
X156227000Y-130285000D01*
X155812000Y-130700000D02*
X155812000Y-130666932D01*
X155125500Y-131386500D02*
X155812000Y-130700000D01*
X156227000Y-130285000D02*
X158115000Y-128397000D01*
X158115000Y-128397000D02*
X162952000Y-128397000D01*
X155812000Y-130666932D02*
X156193932Y-130285000D01*
X151961500Y-131386500D02*
X155125500Y-131386500D01*
X150564500Y-131386500D02*
X151268000Y-130683000D01*
X155962000Y-129534000D02*
X155962000Y-127767000D01*
X154813000Y-130683000D02*
X155962000Y-129534000D01*
X151268000Y-130683000D02*
X154813000Y-130683000D01*
X164032464Y-128864000D02*
X164684000Y-128212464D01*
X164684000Y-128212464D02*
X164684000Y-123789000D01*
X164684000Y-123789000D02*
X163582000Y-122687000D01*
X156464000Y-130937000D02*
X158537000Y-128864000D01*
X158537000Y-128864000D02*
X164032464Y-128864000D01*
X144658000Y-127767000D02*
X143262000Y-127767000D01*
X146939000Y-135382000D02*
X147326000Y-134995000D01*
X147326000Y-130435000D02*
X144658000Y-127767000D01*
X147326000Y-134995000D02*
X147326000Y-130435000D01*
X148088000Y-135365500D02*
X148088000Y-125481000D01*
X148088000Y-125481000D02*
X150882000Y-122687000D01*
G04 #@! TA.AperFunction,Conductor*
G36*
X142970008Y-116332499D02*
G01*
X207218367Y-116332500D01*
X207237755Y-116334001D01*
X207252579Y-116336310D01*
X207252588Y-116336310D01*
X207261456Y-116337691D01*
X207279452Y-116335338D01*
X207302848Y-116334472D01*
X207423141Y-116341229D01*
X207545007Y-116348075D01*
X207559037Y-116349656D01*
X207825855Y-116394994D01*
X207839615Y-116398135D01*
X208099544Y-116473022D01*
X208099672Y-116473059D01*
X208113008Y-116477726D01*
X208363036Y-116581294D01*
X208375743Y-116587412D01*
X208612634Y-116718340D01*
X208624575Y-116725844D01*
X208845305Y-116882462D01*
X208856344Y-116891267D01*
X209058132Y-117071598D01*
X209068123Y-117081589D01*
X209248453Y-117283381D01*
X209257263Y-117294428D01*
X209413869Y-117515146D01*
X209421379Y-117527096D01*
X209552279Y-117763946D01*
X209552293Y-117763971D01*
X209558423Y-117776701D01*
X209661985Y-118026724D01*
X209666652Y-118040061D01*
X209741571Y-118300114D01*
X209744715Y-118313889D01*
X209784361Y-118547225D01*
X209790047Y-118580693D01*
X209791628Y-118594728D01*
X209804508Y-118824058D01*
X209804829Y-118829779D01*
X209803526Y-118856230D01*
X209802048Y-118865724D01*
X209803212Y-118874626D01*
X209803212Y-118874628D01*
X209806175Y-118897283D01*
X209807239Y-118913621D01*
X209807239Y-126854854D01*
X209787237Y-126922975D01*
X209733581Y-126969468D01*
X209663307Y-126979572D01*
X209630933Y-126968777D01*
X209630705Y-126969385D01*
X209494316Y-126918255D01*
X209432134Y-126911500D01*
X207635866Y-126911500D01*
X207573684Y-126918255D01*
X207437295Y-126969385D01*
X207320739Y-127056739D01*
X207233385Y-127173295D01*
X207182255Y-127309684D01*
X207175500Y-127371866D01*
X207175500Y-129168134D01*
X207182255Y-129230316D01*
X207233385Y-129366705D01*
X207320739Y-129483261D01*
X207437295Y-129570615D01*
X207445704Y-129573767D01*
X207445705Y-129573768D01*
X207554451Y-129614535D01*
X207611216Y-129657176D01*
X207635916Y-129723738D01*
X207620709Y-129793087D01*
X207601316Y-129819568D01*
X207474629Y-129952138D01*
X207471715Y-129956410D01*
X207471714Y-129956411D01*
X207433388Y-130012595D01*
X207348743Y-130136680D01*
X207315968Y-130207288D01*
X207272701Y-130300500D01*
X207254688Y-130339305D01*
X207194989Y-130554570D01*
X207171251Y-130776695D01*
X207171548Y-130781848D01*
X207171548Y-130781851D01*
X207182023Y-130963523D01*
X207184110Y-130999715D01*
X207185247Y-131004761D01*
X207185248Y-131004767D01*
X207206516Y-131099137D01*
X207233222Y-131217639D01*
X207281732Y-131337106D01*
X207304455Y-131393065D01*
X207317266Y-131424616D01*
X207333511Y-131451126D01*
X207425320Y-131600944D01*
X207433987Y-131615088D01*
X207580250Y-131783938D01*
X207752126Y-131926632D01*
X207945000Y-132039338D01*
X207949825Y-132041180D01*
X207949826Y-132041181D01*
X207992009Y-132057289D01*
X208153692Y-132119030D01*
X208158760Y-132120061D01*
X208158763Y-132120062D01*
X208266017Y-132141883D01*
X208372597Y-132163567D01*
X208377772Y-132163757D01*
X208377774Y-132163757D01*
X208590673Y-132171564D01*
X208590677Y-132171564D01*
X208595837Y-132171753D01*
X208600957Y-132171097D01*
X208600959Y-132171097D01*
X208812288Y-132144025D01*
X208812289Y-132144025D01*
X208817416Y-132143368D01*
X208822366Y-132141883D01*
X209026429Y-132080661D01*
X209026434Y-132080659D01*
X209031384Y-132079174D01*
X209231994Y-131980896D01*
X209413860Y-131851173D01*
X209447255Y-131817895D01*
X209518627Y-131746771D01*
X209572096Y-131693489D01*
X209575110Y-131689295D01*
X209575119Y-131689284D01*
X209578917Y-131683998D01*
X209634911Y-131640350D01*
X209705615Y-131633904D01*
X209768579Y-131666707D01*
X209803813Y-131728343D01*
X209807239Y-131757524D01*
X209807239Y-139527367D01*
X209805738Y-139546755D01*
X209803429Y-139561579D01*
X209803429Y-139561588D01*
X209802048Y-139570456D01*
X209804401Y-139588452D01*
X209805267Y-139611848D01*
X209804767Y-139620749D01*
X209791664Y-139854009D01*
X209790083Y-139868039D01*
X209744743Y-140134871D01*
X209741607Y-140148608D01*
X209666683Y-140408668D01*
X209662017Y-140422004D01*
X209558446Y-140672043D01*
X209552315Y-140684773D01*
X209421409Y-140921627D01*
X209413892Y-140933591D01*
X209257277Y-141154319D01*
X209248479Y-141165350D01*
X209068140Y-141367149D01*
X209058150Y-141377139D01*
X208856350Y-141557479D01*
X208845319Y-141566277D01*
X208648630Y-141705835D01*
X208624591Y-141722892D01*
X208612627Y-141730409D01*
X208375773Y-141861315D01*
X208363043Y-141867446D01*
X208113004Y-141971017D01*
X208099671Y-141975682D01*
X207839608Y-142050607D01*
X207825871Y-142053743D01*
X207559039Y-142099083D01*
X207545008Y-142100664D01*
X207310139Y-142113857D01*
X207283691Y-142112555D01*
X207282885Y-142112430D01*
X207282884Y-142112430D01*
X207274008Y-142111048D01*
X207244355Y-142114926D01*
X207242451Y-142115175D01*
X207226112Y-142116239D01*
X88945633Y-142116239D01*
X88926245Y-142114738D01*
X88911421Y-142112429D01*
X88911412Y-142112429D01*
X88902544Y-142111048D01*
X88884548Y-142113401D01*
X88861152Y-142114267D01*
X88741174Y-142107528D01*
X88618991Y-142100664D01*
X88604961Y-142099083D01*
X88338129Y-142053743D01*
X88324392Y-142050607D01*
X88064329Y-141975682D01*
X88050996Y-141971017D01*
X87800957Y-141867446D01*
X87788227Y-141861315D01*
X87551373Y-141730409D01*
X87539409Y-141722892D01*
X87515370Y-141705835D01*
X87318681Y-141566277D01*
X87307650Y-141557479D01*
X87105850Y-141377139D01*
X87095860Y-141367149D01*
X86915521Y-141165350D01*
X86906723Y-141154319D01*
X86750108Y-140933591D01*
X86742591Y-140921627D01*
X86611685Y-140684773D01*
X86605554Y-140672043D01*
X86501983Y-140422004D01*
X86497317Y-140408668D01*
X86422393Y-140148608D01*
X86419257Y-140134871D01*
X86373917Y-139868039D01*
X86372336Y-139854008D01*
X86359143Y-139619139D01*
X86360445Y-139592691D01*
X86360570Y-139591885D01*
X86360570Y-139591884D01*
X86361952Y-139583008D01*
X86357825Y-139551451D01*
X86356761Y-139535112D01*
X86356761Y-130937000D01*
X92287996Y-130937000D01*
X92288686Y-130943565D01*
X92305812Y-131106507D01*
X92307958Y-131126928D01*
X92311778Y-131138684D01*
X92311833Y-131138854D01*
X92318000Y-131177790D01*
X92318000Y-136175043D01*
X92316449Y-136194755D01*
X92314350Y-136208007D01*
X92314695Y-136214594D01*
X92314695Y-136214598D01*
X92317827Y-136274350D01*
X92318000Y-136280945D01*
X92318000Y-136300806D01*
X92318344Y-136304077D01*
X92320076Y-136320559D01*
X92320593Y-136327128D01*
X92324070Y-136393471D01*
X92327542Y-136406429D01*
X92331145Y-136425872D01*
X92332546Y-136439202D01*
X92353078Y-136502394D01*
X92354944Y-136508696D01*
X92372138Y-136572863D01*
X92375134Y-136578742D01*
X92375137Y-136578751D01*
X92378228Y-136584817D01*
X92385792Y-136603079D01*
X92387892Y-136609543D01*
X92387895Y-136609551D01*
X92389936Y-136615831D01*
X92393238Y-136621550D01*
X92393240Y-136621555D01*
X92423154Y-136673367D01*
X92426287Y-136679137D01*
X92456453Y-136738339D01*
X92460609Y-136743471D01*
X92464891Y-136748759D01*
X92476089Y-136765052D01*
X92482796Y-136776669D01*
X92487213Y-136781575D01*
X92487217Y-136781580D01*
X92527247Y-136826038D01*
X92531531Y-136831054D01*
X92541941Y-136843909D01*
X92544028Y-136846486D01*
X92558073Y-136860531D01*
X92562614Y-136865316D01*
X92607066Y-136914685D01*
X92617926Y-136922575D01*
X92632954Y-136935412D01*
X94018491Y-138320949D01*
X94038515Y-138347043D01*
X94066460Y-138395444D01*
X94070881Y-138400354D01*
X94129061Y-138464969D01*
X94194247Y-138537366D01*
X94348748Y-138649618D01*
X94354778Y-138652303D01*
X94354780Y-138652304D01*
X94374170Y-138660937D01*
X94384623Y-138666612D01*
X94385161Y-138667048D01*
X94444367Y-138697214D01*
X94450139Y-138700349D01*
X94501944Y-138730260D01*
X94501954Y-138730265D01*
X94507669Y-138733564D01*
X94513951Y-138735605D01*
X94513955Y-138735607D01*
X94520431Y-138737712D01*
X94538686Y-138745273D01*
X94544756Y-138748366D01*
X94544763Y-138748369D01*
X94550638Y-138751362D01*
X94614845Y-138768567D01*
X94621092Y-138770418D01*
X94684298Y-138790954D01*
X94690865Y-138791644D01*
X94690869Y-138791645D01*
X94697639Y-138792357D01*
X94717074Y-138795959D01*
X94723643Y-138797719D01*
X94723645Y-138797719D01*
X94730029Y-138799430D01*
X94736628Y-138799776D01*
X94736629Y-138799776D01*
X94754733Y-138800725D01*
X94796372Y-138802907D01*
X94802931Y-138803423D01*
X94822694Y-138805500D01*
X94842555Y-138805500D01*
X94849150Y-138805673D01*
X94908902Y-138808805D01*
X94908906Y-138808805D01*
X94915493Y-138809150D01*
X94928747Y-138807051D01*
X94948456Y-138805500D01*
X97182653Y-138805500D01*
X97208850Y-138808253D01*
X97307056Y-138829128D01*
X97307061Y-138829128D01*
X97313513Y-138830500D01*
X97504487Y-138830500D01*
X97510939Y-138829128D01*
X97510944Y-138829128D01*
X97609150Y-138808253D01*
X97635347Y-138805500D01*
X107673186Y-138805500D01*
X107741307Y-138825502D01*
X107787800Y-138879158D01*
X107799181Y-138931479D01*
X107798496Y-138938000D01*
X107818458Y-139127928D01*
X107877473Y-139309556D01*
X107972960Y-139474944D01*
X107977378Y-139479851D01*
X107977379Y-139479852D01*
X108096232Y-139611852D01*
X108100747Y-139616866D01*
X108183664Y-139677109D01*
X108240122Y-139718128D01*
X108255248Y-139729118D01*
X108261276Y-139731802D01*
X108261278Y-139731803D01*
X108423681Y-139804109D01*
X108429712Y-139806794D01*
X108523112Y-139826647D01*
X108610056Y-139845128D01*
X108610061Y-139845128D01*
X108616513Y-139846500D01*
X108807487Y-139846500D01*
X108813939Y-139845128D01*
X108813944Y-139845128D01*
X108900888Y-139826647D01*
X108994288Y-139806794D01*
X109000319Y-139804109D01*
X109162722Y-139731803D01*
X109162724Y-139731802D01*
X109168752Y-139729118D01*
X109183879Y-139718128D01*
X109240336Y-139677109D01*
X109323253Y-139616866D01*
X109333176Y-139605846D01*
X109434108Y-139493749D01*
X109440914Y-139486190D01*
X109501360Y-139448950D01*
X109534550Y-139444500D01*
X133403800Y-139444500D01*
X133471921Y-139464502D01*
X133491147Y-139480843D01*
X133491420Y-139480540D01*
X133496332Y-139484963D01*
X133500747Y-139489866D01*
X133522329Y-139505546D01*
X133641164Y-139591885D01*
X133655248Y-139602118D01*
X133661276Y-139604802D01*
X133661278Y-139604803D01*
X133697094Y-139620749D01*
X133829712Y-139679794D01*
X133923113Y-139699647D01*
X134010056Y-139718128D01*
X134010061Y-139718128D01*
X134016513Y-139719500D01*
X134207487Y-139719500D01*
X134213939Y-139718128D01*
X134213944Y-139718128D01*
X134300887Y-139699647D01*
X134394288Y-139679794D01*
X134526906Y-139620749D01*
X134562722Y-139604803D01*
X134562724Y-139604802D01*
X134568752Y-139602118D01*
X134582837Y-139591885D01*
X134701671Y-139505546D01*
X134723253Y-139489866D01*
X134727668Y-139484963D01*
X134732580Y-139480540D01*
X134733705Y-139481789D01*
X134787014Y-139448949D01*
X134820200Y-139444500D01*
X159057800Y-139444500D01*
X159125921Y-139464502D01*
X159145147Y-139480843D01*
X159145420Y-139480540D01*
X159150332Y-139484963D01*
X159154747Y-139489866D01*
X159176329Y-139505546D01*
X159295164Y-139591885D01*
X159309248Y-139602118D01*
X159315276Y-139604802D01*
X159315278Y-139604803D01*
X159351094Y-139620749D01*
X159483712Y-139679794D01*
X159577113Y-139699647D01*
X159664056Y-139718128D01*
X159664061Y-139718128D01*
X159670513Y-139719500D01*
X159861487Y-139719500D01*
X159867939Y-139718128D01*
X159867944Y-139718128D01*
X159954887Y-139699647D01*
X160048288Y-139679794D01*
X160180906Y-139620749D01*
X160216722Y-139604803D01*
X160216724Y-139604802D01*
X160222752Y-139602118D01*
X160236837Y-139591885D01*
X160303687Y-139543315D01*
X160377253Y-139489866D01*
X160505040Y-139347944D01*
X160600527Y-139182556D01*
X160659542Y-139000928D01*
X160677455Y-138830500D01*
X160678814Y-138817565D01*
X160679504Y-138811000D01*
X160671018Y-138730260D01*
X160660233Y-138627642D01*
X160660232Y-138627638D01*
X160659542Y-138621072D01*
X160657501Y-138614791D01*
X160656465Y-138609917D01*
X160661867Y-138539126D01*
X160695402Y-138490083D01*
X160707307Y-138479364D01*
X160718539Y-138469251D01*
X160723554Y-138464969D01*
X160736409Y-138454559D01*
X160736412Y-138454556D01*
X160738986Y-138452472D01*
X160753031Y-138438427D01*
X160757816Y-138433886D01*
X160802274Y-138393856D01*
X160802275Y-138393855D01*
X160807185Y-138389434D01*
X160815075Y-138378574D01*
X160827912Y-138363546D01*
X163001546Y-136189912D01*
X163016574Y-136177075D01*
X163027434Y-136169185D01*
X163071886Y-136119816D01*
X163076427Y-136115031D01*
X163090472Y-136100986D01*
X163092559Y-136098409D01*
X163102969Y-136085554D01*
X163107253Y-136080538D01*
X163147283Y-136036080D01*
X163147287Y-136036075D01*
X163151704Y-136031169D01*
X163158411Y-136019552D01*
X163169609Y-136003259D01*
X163173891Y-135997971D01*
X163178047Y-135992839D01*
X163208213Y-135933637D01*
X163211346Y-135927867D01*
X163241260Y-135876055D01*
X163241262Y-135876050D01*
X163244564Y-135870331D01*
X163246605Y-135864051D01*
X163246608Y-135864043D01*
X163248708Y-135857579D01*
X163256272Y-135839317D01*
X163259363Y-135833251D01*
X163259366Y-135833242D01*
X163262362Y-135827363D01*
X163279556Y-135763196D01*
X163281422Y-135756894D01*
X163301954Y-135693702D01*
X163303355Y-135680372D01*
X163306958Y-135660929D01*
X163310430Y-135647971D01*
X163313906Y-135581646D01*
X163314423Y-135575071D01*
X163316156Y-135558579D01*
X163316500Y-135555306D01*
X163316500Y-135535432D01*
X163316673Y-135528838D01*
X163319804Y-135469099D01*
X163319804Y-135469095D01*
X163320149Y-135462507D01*
X163318051Y-135449260D01*
X163316500Y-135429550D01*
X163316500Y-132606527D01*
X163336502Y-132538406D01*
X163390158Y-132491913D01*
X163460432Y-132481809D01*
X163525012Y-132511303D01*
X163531595Y-132517432D01*
X165191595Y-134177432D01*
X165225621Y-134239744D01*
X165228500Y-134266527D01*
X165228500Y-137854476D01*
X165208498Y-137922597D01*
X165196142Y-137938779D01*
X165122960Y-138020056D01*
X165027473Y-138185444D01*
X164968458Y-138367072D01*
X164967768Y-138373633D01*
X164967768Y-138373635D01*
X164951821Y-138525368D01*
X164948496Y-138557000D01*
X164949186Y-138563565D01*
X164957823Y-138645737D01*
X164968458Y-138746928D01*
X165027473Y-138928556D01*
X165030776Y-138934278D01*
X165030777Y-138934279D01*
X165036716Y-138944565D01*
X165122960Y-139093944D01*
X165127378Y-139098851D01*
X165127379Y-139098852D01*
X165246325Y-139230955D01*
X165250747Y-139235866D01*
X165405248Y-139348118D01*
X165411276Y-139350802D01*
X165411278Y-139350803D01*
X165573681Y-139423109D01*
X165579712Y-139425794D01*
X165667716Y-139444500D01*
X165760056Y-139464128D01*
X165760061Y-139464128D01*
X165766513Y-139465500D01*
X165957487Y-139465500D01*
X165963939Y-139464128D01*
X165963944Y-139464128D01*
X166056284Y-139444500D01*
X166144288Y-139425794D01*
X166150319Y-139423109D01*
X166312722Y-139350803D01*
X166312724Y-139350802D01*
X166318752Y-139348118D01*
X166473253Y-139235866D01*
X166477675Y-139230955D01*
X166596621Y-139098852D01*
X166596622Y-139098851D01*
X166601040Y-139093944D01*
X166687284Y-138944565D01*
X166693223Y-138934279D01*
X166693224Y-138934278D01*
X166696527Y-138928556D01*
X166755542Y-138746928D01*
X166766178Y-138645737D01*
X166774814Y-138563565D01*
X166775504Y-138557000D01*
X166772179Y-138525368D01*
X166756232Y-138373635D01*
X166756232Y-138373633D01*
X166755542Y-138367072D01*
X166696527Y-138185444D01*
X166601040Y-138020056D01*
X166527863Y-137938785D01*
X166497147Y-137874779D01*
X166495500Y-137854476D01*
X166495500Y-134030699D01*
X166496027Y-134019516D01*
X166497702Y-134012023D01*
X166495562Y-133943932D01*
X166495500Y-133939975D01*
X166495500Y-133912076D01*
X166494996Y-133908085D01*
X166494063Y-133896243D01*
X166492923Y-133859968D01*
X166492674Y-133852043D01*
X166490462Y-133844429D01*
X166490461Y-133844424D01*
X166487023Y-133832591D01*
X166483012Y-133813227D01*
X166481467Y-133800996D01*
X166480474Y-133793135D01*
X166477557Y-133785768D01*
X166477556Y-133785763D01*
X166464198Y-133752024D01*
X166460354Y-133740797D01*
X166450230Y-133705954D01*
X166448018Y-133698339D01*
X166437707Y-133680904D01*
X166429012Y-133663156D01*
X166421552Y-133644315D01*
X166395564Y-133608545D01*
X166389048Y-133598625D01*
X166370580Y-133567397D01*
X166370578Y-133567394D01*
X166366542Y-133560570D01*
X166352221Y-133546249D01*
X166339380Y-133531215D01*
X166332131Y-133521238D01*
X166327472Y-133514825D01*
X166293395Y-133486634D01*
X166284616Y-133478644D01*
X165159693Y-132353721D01*
X195581024Y-132353721D01*
X195583491Y-132362352D01*
X195589150Y-132382153D01*
X195592728Y-132398915D01*
X195596920Y-132428187D01*
X195600634Y-132436355D01*
X195600634Y-132436356D01*
X195607548Y-132451562D01*
X195613996Y-132469086D01*
X195621051Y-132493771D01*
X195625843Y-132501365D01*
X195625844Y-132501368D01*
X195636830Y-132518780D01*
X195644969Y-132533863D01*
X195657208Y-132560782D01*
X195663069Y-132567584D01*
X195673970Y-132580235D01*
X195685073Y-132595239D01*
X195698776Y-132616958D01*
X195705501Y-132622897D01*
X195705504Y-132622901D01*
X195720938Y-132636532D01*
X195732982Y-132648724D01*
X195746427Y-132664327D01*
X195746430Y-132664329D01*
X195752287Y-132671127D01*
X195759816Y-132676007D01*
X195759817Y-132676008D01*
X195773835Y-132685094D01*
X195788709Y-132696385D01*
X195801217Y-132707431D01*
X195807951Y-132713378D01*
X195834711Y-132725942D01*
X195849691Y-132734263D01*
X195866983Y-132745471D01*
X195866988Y-132745473D01*
X195874515Y-132750352D01*
X195883108Y-132752922D01*
X195883113Y-132752924D01*
X195899120Y-132757711D01*
X195916564Y-132764372D01*
X195931676Y-132771467D01*
X195931678Y-132771468D01*
X195939800Y-132775281D01*
X195948667Y-132776662D01*
X195948668Y-132776662D01*
X195951353Y-132777080D01*
X195969017Y-132779830D01*
X195985732Y-132783613D01*
X196005466Y-132789515D01*
X196005472Y-132789516D01*
X196014066Y-132792086D01*
X196023037Y-132792141D01*
X196023038Y-132792141D01*
X196033097Y-132792202D01*
X196048506Y-132792296D01*
X196049289Y-132792329D01*
X196050386Y-132792500D01*
X196081377Y-132792500D01*
X196082147Y-132792502D01*
X196155785Y-132792952D01*
X196155786Y-132792952D01*
X196159721Y-132792976D01*
X196161065Y-132792592D01*
X196162410Y-132792500D01*
X199481377Y-132792500D01*
X199482148Y-132792502D01*
X199559721Y-132792976D01*
X199588152Y-132784850D01*
X199604915Y-132781272D01*
X199605753Y-132781152D01*
X199634187Y-132777080D01*
X199657564Y-132766451D01*
X199675087Y-132760004D01*
X199699771Y-132752949D01*
X199707365Y-132748157D01*
X199707368Y-132748156D01*
X199724780Y-132737170D01*
X199739865Y-132729030D01*
X199766782Y-132716792D01*
X199786235Y-132700030D01*
X199801239Y-132688927D01*
X199822958Y-132675224D01*
X199828897Y-132668499D01*
X199828901Y-132668496D01*
X199842532Y-132653062D01*
X199854724Y-132641018D01*
X199870327Y-132627573D01*
X199870329Y-132627570D01*
X199877127Y-132621713D01*
X199891094Y-132600165D01*
X199902385Y-132585291D01*
X199913431Y-132572783D01*
X199913432Y-132572782D01*
X199919378Y-132566049D01*
X199931943Y-132539287D01*
X199940263Y-132524309D01*
X199951471Y-132507017D01*
X199951473Y-132507012D01*
X199956352Y-132499485D01*
X199958922Y-132490892D01*
X199958924Y-132490887D01*
X199963711Y-132474880D01*
X199970372Y-132457436D01*
X199977467Y-132442324D01*
X199977468Y-132442322D01*
X199981281Y-132434200D01*
X199985830Y-132404983D01*
X199989613Y-132388268D01*
X199995515Y-132368534D01*
X199995516Y-132368528D01*
X199998086Y-132359934D01*
X199998296Y-132325494D01*
X199998329Y-132324711D01*
X199998500Y-132323614D01*
X199998500Y-132292623D01*
X199998502Y-132291853D01*
X199998952Y-132218215D01*
X199998952Y-132218214D01*
X199998976Y-132214279D01*
X199998592Y-132212935D01*
X199998500Y-132211590D01*
X199998500Y-129292623D01*
X199998502Y-129291853D01*
X199998800Y-129243102D01*
X199998976Y-129214279D01*
X199990850Y-129185847D01*
X199987272Y-129169085D01*
X199985190Y-129154550D01*
X199983080Y-129139813D01*
X199972451Y-129116436D01*
X199966004Y-129098913D01*
X199958949Y-129074229D01*
X199954156Y-129066632D01*
X199943170Y-129049220D01*
X199935030Y-129034135D01*
X199933684Y-129031174D01*
X199922792Y-129007218D01*
X199906030Y-128987765D01*
X199894927Y-128972761D01*
X199881224Y-128951042D01*
X199874499Y-128945103D01*
X199874496Y-128945099D01*
X199859062Y-128931468D01*
X199847018Y-128919276D01*
X199833573Y-128903673D01*
X199833570Y-128903671D01*
X199827713Y-128896873D01*
X199814009Y-128887990D01*
X199806165Y-128882906D01*
X199791291Y-128871615D01*
X199778783Y-128860569D01*
X199778782Y-128860568D01*
X199772049Y-128854622D01*
X199745287Y-128842057D01*
X199730309Y-128833737D01*
X199713017Y-128822529D01*
X199713012Y-128822527D01*
X199705485Y-128817648D01*
X199696892Y-128815078D01*
X199696887Y-128815076D01*
X199680880Y-128810289D01*
X199663436Y-128803628D01*
X199648324Y-128796533D01*
X199648322Y-128796532D01*
X199640200Y-128792719D01*
X199631333Y-128791338D01*
X199631332Y-128791338D01*
X199620478Y-128789648D01*
X199610983Y-128788170D01*
X199594268Y-128784387D01*
X199574534Y-128778485D01*
X199574528Y-128778484D01*
X199565934Y-128775914D01*
X199556963Y-128775859D01*
X199556962Y-128775859D01*
X199546903Y-128775798D01*
X199531494Y-128775704D01*
X199530711Y-128775671D01*
X199529614Y-128775500D01*
X199498623Y-128775500D01*
X199497853Y-128775498D01*
X199424215Y-128775048D01*
X199424214Y-128775048D01*
X199420279Y-128775024D01*
X199418935Y-128775408D01*
X199417590Y-128775500D01*
X196098623Y-128775500D01*
X196097853Y-128775498D01*
X196097037Y-128775493D01*
X196020279Y-128775024D01*
X195997918Y-128781415D01*
X195991847Y-128783150D01*
X195975085Y-128786728D01*
X195945813Y-128790920D01*
X195937645Y-128794634D01*
X195937644Y-128794634D01*
X195922438Y-128801548D01*
X195904914Y-128807996D01*
X195880229Y-128815051D01*
X195872635Y-128819843D01*
X195872632Y-128819844D01*
X195855220Y-128830830D01*
X195840137Y-128838969D01*
X195813218Y-128851208D01*
X195806416Y-128857069D01*
X195793765Y-128867970D01*
X195778761Y-128879073D01*
X195757042Y-128892776D01*
X195751103Y-128899501D01*
X195751099Y-128899504D01*
X195737468Y-128914938D01*
X195725276Y-128926982D01*
X195709673Y-128940427D01*
X195709671Y-128940430D01*
X195702873Y-128946287D01*
X195697993Y-128953816D01*
X195697992Y-128953817D01*
X195688906Y-128967835D01*
X195677615Y-128982709D01*
X195672297Y-128988731D01*
X195660622Y-129001951D01*
X195648058Y-129028711D01*
X195639737Y-129043691D01*
X195628529Y-129060983D01*
X195628527Y-129060988D01*
X195623648Y-129068515D01*
X195621078Y-129077108D01*
X195621076Y-129077113D01*
X195616289Y-129093120D01*
X195609628Y-129110564D01*
X195606394Y-129117452D01*
X195598719Y-129133800D01*
X195597338Y-129142667D01*
X195597338Y-129142668D01*
X195594170Y-129163015D01*
X195590387Y-129179732D01*
X195584485Y-129199466D01*
X195584484Y-129199472D01*
X195581914Y-129208066D01*
X195581705Y-129242401D01*
X195581704Y-129242497D01*
X195581671Y-129243289D01*
X195581500Y-129244386D01*
X195581500Y-129275377D01*
X195581498Y-129276147D01*
X195581024Y-129353721D01*
X195581408Y-129355065D01*
X195581500Y-129356410D01*
X195581500Y-132275377D01*
X195581498Y-132276147D01*
X195581024Y-132353721D01*
X165159693Y-132353721D01*
X163013261Y-130207288D01*
X191562228Y-130207288D01*
X191592722Y-130408922D01*
X191594928Y-130414917D01*
X191594928Y-130414918D01*
X191660914Y-130594263D01*
X191663137Y-130600306D01*
X191736361Y-130718404D01*
X191761582Y-130759080D01*
X191770598Y-130773622D01*
X191774979Y-130778255D01*
X191774980Y-130778256D01*
X191866812Y-130875366D01*
X191910714Y-130921791D01*
X191915944Y-130925453D01*
X191915945Y-130925454D01*
X192070466Y-131033650D01*
X192077761Y-131038758D01*
X192264916Y-131119747D01*
X192280669Y-131123038D01*
X192459788Y-131160459D01*
X192459792Y-131160459D01*
X192464533Y-131161450D01*
X192469370Y-131161703D01*
X192469374Y-131161704D01*
X192469440Y-131161707D01*
X192471212Y-131161800D01*
X192620967Y-131161800D01*
X192693613Y-131154421D01*
X192766534Y-131147014D01*
X192766535Y-131147014D01*
X192772883Y-131146369D01*
X192967478Y-131085386D01*
X193145837Y-130986521D01*
X193300673Y-130853810D01*
X193425661Y-130692676D01*
X193515696Y-130509701D01*
X193524230Y-130476940D01*
X193565490Y-130318541D01*
X193565490Y-130318538D01*
X193567100Y-130312359D01*
X193572693Y-130205624D01*
X193577438Y-130115094D01*
X193577438Y-130115090D01*
X193577772Y-130108712D01*
X193547278Y-129907078D01*
X193476863Y-129715694D01*
X193383570Y-129565229D01*
X193372764Y-129547800D01*
X193372763Y-129547799D01*
X193369402Y-129542378D01*
X193329046Y-129499702D01*
X193233671Y-129398846D01*
X193229286Y-129394209D01*
X193198397Y-129372580D01*
X193067472Y-129280906D01*
X193067471Y-129280905D01*
X193062239Y-129277242D01*
X192875084Y-129196253D01*
X192785751Y-129177590D01*
X192680212Y-129155541D01*
X192680208Y-129155541D01*
X192675467Y-129154550D01*
X192670630Y-129154297D01*
X192670626Y-129154296D01*
X192670560Y-129154293D01*
X192668788Y-129154200D01*
X192519033Y-129154200D01*
X192446387Y-129161579D01*
X192373466Y-129168986D01*
X192373465Y-129168986D01*
X192367117Y-129169631D01*
X192172522Y-129230614D01*
X191994163Y-129329479D01*
X191839327Y-129462190D01*
X191714339Y-129623324D01*
X191624304Y-129806299D01*
X191622695Y-129812477D01*
X191622694Y-129812479D01*
X191584226Y-129960161D01*
X191572900Y-130003641D01*
X191569517Y-130068206D01*
X191562621Y-130199796D01*
X191562228Y-130207288D01*
X163013261Y-130207288D01*
X162518568Y-129712595D01*
X162484542Y-129650283D01*
X162489607Y-129579467D01*
X162532154Y-129522632D01*
X162598674Y-129497821D01*
X162607663Y-129497500D01*
X163953697Y-129497500D01*
X163964880Y-129498027D01*
X163972373Y-129499702D01*
X163980299Y-129499453D01*
X163980300Y-129499453D01*
X164040450Y-129497562D01*
X164044409Y-129497500D01*
X164072320Y-129497500D01*
X164076255Y-129497003D01*
X164076320Y-129496995D01*
X164088157Y-129496062D01*
X164120415Y-129495048D01*
X164124434Y-129494922D01*
X164132353Y-129494673D01*
X164151807Y-129489021D01*
X164171164Y-129485013D01*
X164183394Y-129483468D01*
X164183395Y-129483468D01*
X164191261Y-129482474D01*
X164198632Y-129479555D01*
X164198634Y-129479555D01*
X164232376Y-129466196D01*
X164243606Y-129462351D01*
X164278447Y-129452229D01*
X164278448Y-129452229D01*
X164286057Y-129450018D01*
X164292876Y-129445985D01*
X164292881Y-129445983D01*
X164303492Y-129439707D01*
X164321240Y-129431012D01*
X164340081Y-129423552D01*
X164375851Y-129397564D01*
X164385771Y-129391048D01*
X164416999Y-129372580D01*
X164417002Y-129372578D01*
X164423826Y-129368542D01*
X164438147Y-129354221D01*
X164453181Y-129341380D01*
X164453922Y-129340842D01*
X164469571Y-129329472D01*
X164497752Y-129295407D01*
X164505742Y-129286626D01*
X165076258Y-128716111D01*
X165084537Y-128708577D01*
X165091018Y-128704464D01*
X165137644Y-128654812D01*
X165140398Y-128651971D01*
X165160135Y-128632234D01*
X165162615Y-128629037D01*
X165170320Y-128620015D01*
X165189524Y-128599565D01*
X165200586Y-128587785D01*
X165204405Y-128580839D01*
X165204407Y-128580836D01*
X165210348Y-128570030D01*
X165221199Y-128553511D01*
X165225860Y-128547502D01*
X165233614Y-128537505D01*
X165236759Y-128530236D01*
X165236762Y-128530232D01*
X165251174Y-128496927D01*
X165256391Y-128486277D01*
X165277695Y-128447524D01*
X165280096Y-128438175D01*
X165282733Y-128427902D01*
X165289137Y-128409198D01*
X165294033Y-128397884D01*
X165294033Y-128397883D01*
X165297181Y-128390609D01*
X165298420Y-128382786D01*
X165298423Y-128382776D01*
X165304099Y-128346940D01*
X165306505Y-128335320D01*
X165315528Y-128300175D01*
X165315528Y-128300174D01*
X165317500Y-128292494D01*
X165317500Y-128272240D01*
X165319051Y-128252529D01*
X165320980Y-128240350D01*
X165322220Y-128232521D01*
X165318059Y-128188502D01*
X165317500Y-128176645D01*
X165317500Y-125893732D01*
X190927200Y-125893732D01*
X190927400Y-125899062D01*
X190927400Y-125899063D01*
X190931364Y-126004659D01*
X190935854Y-126124268D01*
X190983228Y-126350050D01*
X191067967Y-126564622D01*
X191138717Y-126681214D01*
X191174104Y-126739530D01*
X191187647Y-126761849D01*
X191191144Y-126765879D01*
X191333010Y-126929365D01*
X191338847Y-126936092D01*
X191342978Y-126939479D01*
X191513115Y-127078984D01*
X191513121Y-127078988D01*
X191517243Y-127082368D01*
X191717735Y-127196494D01*
X191722751Y-127198315D01*
X191722756Y-127198317D01*
X191929575Y-127273389D01*
X191929579Y-127273390D01*
X191934590Y-127275209D01*
X191939839Y-127276158D01*
X191939842Y-127276159D01*
X192157523Y-127315522D01*
X192157530Y-127315523D01*
X192161607Y-127316260D01*
X192179344Y-127317096D01*
X192184292Y-127317330D01*
X192184299Y-127317330D01*
X192185780Y-127317400D01*
X192347925Y-127317400D01*
X192428042Y-127310602D01*
X192514562Y-127303261D01*
X192514566Y-127303260D01*
X192519873Y-127302810D01*
X192525028Y-127301472D01*
X192525034Y-127301471D01*
X192738003Y-127246195D01*
X192738007Y-127246194D01*
X192743172Y-127244853D01*
X192748038Y-127242661D01*
X192748041Y-127242660D01*
X192948649Y-127152293D01*
X192953515Y-127150101D01*
X192957935Y-127147125D01*
X192957939Y-127147123D01*
X193081525Y-127063919D01*
X193144885Y-127021262D01*
X193311812Y-126862022D01*
X193386343Y-126761849D01*
X193446337Y-126681214D01*
X193446339Y-126681211D01*
X193449521Y-126676934D01*
X193504705Y-126568396D01*
X193551658Y-126476046D01*
X193551658Y-126476045D01*
X193554077Y-126471288D01*
X193606355Y-126302926D01*
X193620905Y-126256070D01*
X193620906Y-126256064D01*
X193622489Y-126250967D01*
X193652800Y-126022268D01*
X193652139Y-126004659D01*
X195562514Y-126004659D01*
X195562877Y-126008807D01*
X195562877Y-126008811D01*
X195564517Y-126027553D01*
X195588252Y-126298849D01*
X195589162Y-126302921D01*
X195589163Y-126302926D01*
X195647659Y-126564622D01*
X195652672Y-126587050D01*
X195754644Y-126864199D01*
X195756591Y-126867892D01*
X195756592Y-126867894D01*
X195791771Y-126934617D01*
X195892374Y-127125427D01*
X195929111Y-127177121D01*
X196061019Y-127362735D01*
X196061024Y-127362741D01*
X196063443Y-127366145D01*
X196066287Y-127369195D01*
X196066292Y-127369201D01*
X196166449Y-127476606D01*
X196264846Y-127582124D01*
X196493045Y-127769568D01*
X196744029Y-127925185D01*
X196747846Y-127926901D01*
X196747849Y-127926902D01*
X196771736Y-127937637D01*
X197013390Y-128046241D01*
X197296395Y-128130608D01*
X197300515Y-128131261D01*
X197300517Y-128131261D01*
X197584592Y-128176255D01*
X197584598Y-128176256D01*
X197588073Y-128176806D01*
X197612632Y-128177921D01*
X197679017Y-128180936D01*
X197679038Y-128180936D01*
X197680437Y-128181000D01*
X197864901Y-128181000D01*
X198084664Y-128166403D01*
X198088763Y-128165577D01*
X198088767Y-128165576D01*
X198262190Y-128130608D01*
X198374151Y-128108033D01*
X198653375Y-128011888D01*
X198823153Y-127926870D01*
X198913695Y-127881530D01*
X198913697Y-127881529D01*
X198917431Y-127879659D01*
X199161678Y-127713668D01*
X199231893Y-127650889D01*
X199378712Y-127519617D01*
X199381827Y-127516832D01*
X199390623Y-127506570D01*
X199571289Y-127295784D01*
X199571292Y-127295780D01*
X199574009Y-127292610D01*
X199576283Y-127289108D01*
X199576287Y-127289103D01*
X199732570Y-127048449D01*
X199732573Y-127048444D01*
X199734849Y-127044939D01*
X199740114Y-127033852D01*
X199801706Y-126904138D01*
X199861519Y-126778172D01*
X199871849Y-126746000D01*
X199950515Y-126500983D01*
X199950515Y-126500982D01*
X199951795Y-126496996D01*
X199981506Y-126331870D01*
X200003351Y-126210459D01*
X200003352Y-126210454D01*
X200004090Y-126206350D01*
X200007581Y-126129486D01*
X200017297Y-125915511D01*
X200017297Y-125915506D01*
X200017486Y-125911341D01*
X200015946Y-125893732D01*
X201927200Y-125893732D01*
X201927400Y-125899062D01*
X201927400Y-125899063D01*
X201931364Y-126004659D01*
X201935854Y-126124268D01*
X201983228Y-126350050D01*
X202067967Y-126564622D01*
X202138717Y-126681214D01*
X202174104Y-126739530D01*
X202187647Y-126761849D01*
X202191144Y-126765879D01*
X202333010Y-126929365D01*
X202338847Y-126936092D01*
X202342978Y-126939479D01*
X202513115Y-127078984D01*
X202513121Y-127078988D01*
X202517243Y-127082368D01*
X202717735Y-127196494D01*
X202722751Y-127198315D01*
X202722756Y-127198317D01*
X202929575Y-127273389D01*
X202929579Y-127273390D01*
X202934590Y-127275209D01*
X202939839Y-127276158D01*
X202939842Y-127276159D01*
X203157523Y-127315522D01*
X203157530Y-127315523D01*
X203161607Y-127316260D01*
X203179344Y-127317096D01*
X203184292Y-127317330D01*
X203184299Y-127317330D01*
X203185780Y-127317400D01*
X203347925Y-127317400D01*
X203428042Y-127310602D01*
X203514562Y-127303261D01*
X203514566Y-127303260D01*
X203519873Y-127302810D01*
X203525028Y-127301472D01*
X203525034Y-127301471D01*
X203738003Y-127246195D01*
X203738007Y-127246194D01*
X203743172Y-127244853D01*
X203748038Y-127242661D01*
X203748041Y-127242660D01*
X203948649Y-127152293D01*
X203953515Y-127150101D01*
X203957935Y-127147125D01*
X203957939Y-127147123D01*
X204081525Y-127063919D01*
X204144885Y-127021262D01*
X204311812Y-126862022D01*
X204386343Y-126761849D01*
X204446337Y-126681214D01*
X204446339Y-126681211D01*
X204449521Y-126676934D01*
X204504705Y-126568396D01*
X204551658Y-126476046D01*
X204551658Y-126476045D01*
X204554077Y-126471288D01*
X204606355Y-126302926D01*
X204620905Y-126256070D01*
X204620906Y-126256064D01*
X204622489Y-126250967D01*
X204652800Y-126022268D01*
X204651983Y-126000489D01*
X204645988Y-125840794D01*
X204644146Y-125791732D01*
X204596772Y-125565950D01*
X204593689Y-125558142D01*
X204547401Y-125440935D01*
X204512033Y-125351378D01*
X204414968Y-125191419D01*
X204395122Y-125158714D01*
X204395121Y-125158713D01*
X204392353Y-125154151D01*
X204364260Y-125121777D01*
X204244653Y-124983941D01*
X204244651Y-124983939D01*
X204241153Y-124979908D01*
X204199018Y-124945360D01*
X204066885Y-124837016D01*
X204066879Y-124837012D01*
X204062757Y-124833632D01*
X203862265Y-124719506D01*
X203857249Y-124717685D01*
X203857244Y-124717683D01*
X203650425Y-124642611D01*
X203650421Y-124642610D01*
X203645410Y-124640791D01*
X203640161Y-124639842D01*
X203640158Y-124639841D01*
X203422477Y-124600478D01*
X203422470Y-124600477D01*
X203418393Y-124599740D01*
X203400656Y-124598904D01*
X203395708Y-124598670D01*
X203395701Y-124598670D01*
X203394220Y-124598600D01*
X203232075Y-124598600D01*
X203165119Y-124604281D01*
X203065438Y-124612739D01*
X203065434Y-124612740D01*
X203060127Y-124613190D01*
X203054972Y-124614528D01*
X203054966Y-124614529D01*
X202841997Y-124669805D01*
X202841993Y-124669806D01*
X202836828Y-124671147D01*
X202831962Y-124673339D01*
X202831959Y-124673340D01*
X202733521Y-124717683D01*
X202626485Y-124765899D01*
X202622065Y-124768875D01*
X202622061Y-124768877D01*
X202584350Y-124794266D01*
X202435115Y-124894738D01*
X202268188Y-125053978D01*
X202265000Y-125058263D01*
X202136049Y-125231580D01*
X202130479Y-125239066D01*
X202114667Y-125270166D01*
X202037176Y-125422580D01*
X202025923Y-125444712D01*
X201994287Y-125546595D01*
X201959095Y-125659930D01*
X201959094Y-125659936D01*
X201957511Y-125665033D01*
X201949130Y-125728267D01*
X201930292Y-125870404D01*
X201927200Y-125893732D01*
X200015946Y-125893732D01*
X199992112Y-125621312D01*
X199991748Y-125617151D01*
X199990837Y-125613074D01*
X199928240Y-125333028D01*
X199928238Y-125333021D01*
X199927328Y-125328950D01*
X199925337Y-125323537D01*
X199883264Y-125209188D01*
X199825356Y-125051801D01*
X199816540Y-125035079D01*
X199740978Y-124891764D01*
X199687626Y-124790573D01*
X199571308Y-124626897D01*
X199518981Y-124553265D01*
X199518976Y-124553259D01*
X199516557Y-124549855D01*
X199513713Y-124546805D01*
X199513708Y-124546799D01*
X199318000Y-124336928D01*
X199315154Y-124333876D01*
X199086955Y-124146432D01*
X198835971Y-123990815D01*
X198825120Y-123985938D01*
X198651773Y-123908033D01*
X198566610Y-123869759D01*
X198328018Y-123798632D01*
X198287604Y-123786584D01*
X198287602Y-123786584D01*
X198283605Y-123785392D01*
X198279485Y-123784739D01*
X198279483Y-123784739D01*
X197995408Y-123739745D01*
X197995402Y-123739744D01*
X197991927Y-123739194D01*
X197967368Y-123738079D01*
X197900983Y-123735064D01*
X197900962Y-123735064D01*
X197899563Y-123735000D01*
X197715099Y-123735000D01*
X197495336Y-123749597D01*
X197491237Y-123750423D01*
X197491233Y-123750424D01*
X197383856Y-123772075D01*
X197205849Y-123807967D01*
X196926625Y-123904112D01*
X196922897Y-123905979D01*
X196677295Y-124028967D01*
X196662569Y-124036341D01*
X196418322Y-124202332D01*
X196198173Y-124399168D01*
X196195456Y-124402338D01*
X196195455Y-124402339D01*
X196013586Y-124614529D01*
X196005991Y-124623390D01*
X196003717Y-124626892D01*
X196003713Y-124626897D01*
X195847430Y-124867551D01*
X195845151Y-124871061D01*
X195843357Y-124874839D01*
X195843356Y-124874841D01*
X195795075Y-124976521D01*
X195718481Y-125137828D01*
X195717202Y-125141811D01*
X195717201Y-125141814D01*
X195636695Y-125392562D01*
X195628205Y-125419004D01*
X195622967Y-125448114D01*
X195577377Y-125701499D01*
X195575910Y-125709650D01*
X195575721Y-125713817D01*
X195575720Y-125713824D01*
X195562703Y-126000489D01*
X195562514Y-126004659D01*
X193652139Y-126004659D01*
X193651983Y-126000489D01*
X193645988Y-125840794D01*
X193644146Y-125791732D01*
X193596772Y-125565950D01*
X193593689Y-125558142D01*
X193547401Y-125440935D01*
X193512033Y-125351378D01*
X193414968Y-125191419D01*
X193395122Y-125158714D01*
X193395121Y-125158713D01*
X193392353Y-125154151D01*
X193364260Y-125121777D01*
X193244653Y-124983941D01*
X193244651Y-124983939D01*
X193241153Y-124979908D01*
X193199018Y-124945360D01*
X193066885Y-124837016D01*
X193066879Y-124837012D01*
X193062757Y-124833632D01*
X192862265Y-124719506D01*
X192857249Y-124717685D01*
X192857244Y-124717683D01*
X192650425Y-124642611D01*
X192650421Y-124642610D01*
X192645410Y-124640791D01*
X192640161Y-124639842D01*
X192640158Y-124639841D01*
X192422477Y-124600478D01*
X192422470Y-124600477D01*
X192418393Y-124599740D01*
X192400656Y-124598904D01*
X192395708Y-124598670D01*
X192395701Y-124598670D01*
X192394220Y-124598600D01*
X192232075Y-124598600D01*
X192165119Y-124604281D01*
X192065438Y-124612739D01*
X192065434Y-124612740D01*
X192060127Y-124613190D01*
X192054972Y-124614528D01*
X192054966Y-124614529D01*
X191841997Y-124669805D01*
X191841993Y-124669806D01*
X191836828Y-124671147D01*
X191831962Y-124673339D01*
X191831959Y-124673340D01*
X191733521Y-124717683D01*
X191626485Y-124765899D01*
X191622065Y-124768875D01*
X191622061Y-124768877D01*
X191584350Y-124794266D01*
X191435115Y-124894738D01*
X191268188Y-125053978D01*
X191265000Y-125058263D01*
X191136049Y-125231580D01*
X191130479Y-125239066D01*
X191114667Y-125270166D01*
X191037176Y-125422580D01*
X191025923Y-125444712D01*
X190994287Y-125546595D01*
X190959095Y-125659930D01*
X190959094Y-125659936D01*
X190957511Y-125665033D01*
X190949130Y-125728267D01*
X190930292Y-125870404D01*
X190927200Y-125893732D01*
X165317500Y-125893732D01*
X165317500Y-123867763D01*
X165318027Y-123856579D01*
X165319701Y-123849091D01*
X165317562Y-123781032D01*
X165317500Y-123777075D01*
X165317500Y-123749144D01*
X165316994Y-123745138D01*
X165316061Y-123733292D01*
X165314922Y-123697037D01*
X165314673Y-123689110D01*
X165309022Y-123669658D01*
X165305014Y-123650306D01*
X165303467Y-123638063D01*
X165302474Y-123630203D01*
X165297576Y-123617832D01*
X165286200Y-123589097D01*
X165282355Y-123577870D01*
X165278758Y-123565489D01*
X165270018Y-123535407D01*
X165265984Y-123528585D01*
X165265981Y-123528579D01*
X165259706Y-123517968D01*
X165251010Y-123500218D01*
X165246472Y-123488756D01*
X165246469Y-123488751D01*
X165243552Y-123481383D01*
X165230901Y-123463970D01*
X165217573Y-123445625D01*
X165211057Y-123435707D01*
X165192575Y-123404457D01*
X165188542Y-123397637D01*
X165174218Y-123383313D01*
X165161376Y-123368278D01*
X165158812Y-123364749D01*
X165149472Y-123351893D01*
X165115406Y-123323711D01*
X165106627Y-123315722D01*
X164927451Y-123136546D01*
X164893425Y-123074234D01*
X164895988Y-123010822D01*
X164906865Y-122975022D01*
X164906867Y-122975015D01*
X164908370Y-122970069D01*
X164937529Y-122748590D01*
X164937611Y-122745240D01*
X164939074Y-122685365D01*
X164939074Y-122685361D01*
X164939156Y-122682000D01*
X164920852Y-122459361D01*
X164866431Y-122242702D01*
X164777354Y-122037840D01*
X164737906Y-121976862D01*
X164658822Y-121854617D01*
X164658820Y-121854614D01*
X164656014Y-121850277D01*
X164505670Y-121685051D01*
X164501619Y-121681852D01*
X164501615Y-121681848D01*
X164334414Y-121549800D01*
X164334410Y-121549798D01*
X164330359Y-121546598D01*
X164134789Y-121438638D01*
X164104034Y-121427747D01*
X164029274Y-121401273D01*
X163971737Y-121359679D01*
X163945821Y-121293581D01*
X163959755Y-121223965D01*
X164009114Y-121172934D01*
X164071333Y-121156500D01*
X177739406Y-121156500D01*
X177807527Y-121176502D01*
X177828501Y-121193405D01*
X179265878Y-122630783D01*
X179299904Y-122693095D01*
X179302093Y-122706708D01*
X179318141Y-122859394D01*
X179319458Y-122871928D01*
X179378473Y-123053556D01*
X179381776Y-123059278D01*
X179381777Y-123059279D01*
X179399814Y-123090520D01*
X179473960Y-123218944D01*
X179478378Y-123223851D01*
X179478379Y-123223852D01*
X179539586Y-123291829D01*
X179601747Y-123360866D01*
X179756248Y-123473118D01*
X179762276Y-123475802D01*
X179762278Y-123475803D01*
X179887280Y-123531457D01*
X179930712Y-123550794D01*
X180017009Y-123569137D01*
X180111056Y-123589128D01*
X180111061Y-123589128D01*
X180117513Y-123590500D01*
X180308487Y-123590500D01*
X180314939Y-123589128D01*
X180314944Y-123589128D01*
X180408991Y-123569137D01*
X180495288Y-123550794D01*
X180538720Y-123531457D01*
X180663722Y-123475803D01*
X180663724Y-123475802D01*
X180669752Y-123473118D01*
X180700591Y-123450712D01*
X180818909Y-123364749D01*
X180818911Y-123364747D01*
X180824253Y-123360866D01*
X180827683Y-123357056D01*
X180891196Y-123326576D01*
X180961649Y-123335339D01*
X180995145Y-123356865D01*
X180998747Y-123360866D01*
X181004089Y-123364747D01*
X181004091Y-123364749D01*
X181122409Y-123450712D01*
X181153248Y-123473118D01*
X181159276Y-123475802D01*
X181159278Y-123475803D01*
X181284280Y-123531457D01*
X181327712Y-123550794D01*
X181414009Y-123569137D01*
X181508056Y-123589128D01*
X181508061Y-123589128D01*
X181514513Y-123590500D01*
X181705487Y-123590500D01*
X181711939Y-123589128D01*
X181711944Y-123589128D01*
X181805991Y-123569137D01*
X181892288Y-123550794D01*
X181935720Y-123531457D01*
X182060722Y-123475803D01*
X182060724Y-123475802D01*
X182066752Y-123473118D01*
X182164216Y-123402306D01*
X201910524Y-123402306D01*
X201916251Y-123409956D01*
X202091759Y-123517507D01*
X202100553Y-123521988D01*
X202313029Y-123609998D01*
X202322414Y-123613047D01*
X202546044Y-123666737D01*
X202555791Y-123668280D01*
X202785070Y-123686325D01*
X202794930Y-123686325D01*
X203024209Y-123668280D01*
X203033956Y-123666737D01*
X203257586Y-123613047D01*
X203266971Y-123609998D01*
X203479447Y-123521988D01*
X203488241Y-123517507D01*
X203660083Y-123412203D01*
X203669543Y-123401747D01*
X203665759Y-123392969D01*
X202802812Y-122530022D01*
X202788868Y-122522408D01*
X202787035Y-122522539D01*
X202780420Y-122526790D01*
X201917284Y-123389926D01*
X201910524Y-123402306D01*
X182164216Y-123402306D01*
X182221253Y-123360866D01*
X182283414Y-123291829D01*
X182344621Y-123223852D01*
X182344622Y-123223851D01*
X182349040Y-123218944D01*
X182423186Y-123090520D01*
X182441223Y-123059279D01*
X182441224Y-123059278D01*
X182444527Y-123053556D01*
X182503542Y-122871928D01*
X182504860Y-122859394D01*
X182522814Y-122688565D01*
X182523504Y-122682000D01*
X182506744Y-122522539D01*
X182504232Y-122498635D01*
X182504232Y-122498633D01*
X182503542Y-122492072D01*
X182444527Y-122310444D01*
X182359360Y-122162930D01*
X201261675Y-122162930D01*
X201279720Y-122392209D01*
X201281263Y-122401956D01*
X201334953Y-122625586D01*
X201338002Y-122634971D01*
X201426012Y-122847447D01*
X201430493Y-122856241D01*
X201535797Y-123028083D01*
X201546253Y-123037543D01*
X201555031Y-123033759D01*
X202417978Y-122170812D01*
X202424356Y-122159132D01*
X203154408Y-122159132D01*
X203154539Y-122160965D01*
X203158790Y-122167580D01*
X204021926Y-123030716D01*
X204034306Y-123037476D01*
X204041956Y-123031749D01*
X204149507Y-122856241D01*
X204153988Y-122847447D01*
X204241998Y-122634971D01*
X204245047Y-122625586D01*
X204298737Y-122401956D01*
X204300280Y-122392209D01*
X204318325Y-122162930D01*
X204318325Y-122153070D01*
X204300280Y-121923791D01*
X204298737Y-121914044D01*
X204245047Y-121690414D01*
X204241998Y-121681029D01*
X204153988Y-121468553D01*
X204149507Y-121459759D01*
X204044203Y-121287917D01*
X204033747Y-121278457D01*
X204024969Y-121282241D01*
X203162022Y-122145188D01*
X203154408Y-122159132D01*
X202424356Y-122159132D01*
X202425592Y-122156868D01*
X202425461Y-122155035D01*
X202421210Y-122148420D01*
X201558074Y-121285284D01*
X201545694Y-121278524D01*
X201538044Y-121284251D01*
X201430493Y-121459759D01*
X201426012Y-121468553D01*
X201338002Y-121681029D01*
X201334953Y-121690414D01*
X201281263Y-121914044D01*
X201279720Y-121923791D01*
X201261675Y-122153070D01*
X201261675Y-122162930D01*
X182359360Y-122162930D01*
X182349040Y-122145056D01*
X182252503Y-122037840D01*
X182225675Y-122008045D01*
X182225674Y-122008044D01*
X182221253Y-122003134D01*
X182066752Y-121890882D01*
X182060724Y-121888198D01*
X182060722Y-121888197D01*
X181898319Y-121815891D01*
X181898318Y-121815891D01*
X181892288Y-121813206D01*
X181798888Y-121793353D01*
X181711944Y-121774872D01*
X181711939Y-121774872D01*
X181705487Y-121773500D01*
X181649594Y-121773500D01*
X181581473Y-121753498D01*
X181560499Y-121736595D01*
X179881905Y-120058000D01*
X196260786Y-120058000D01*
X196279613Y-120297222D01*
X196280767Y-120302029D01*
X196280768Y-120302035D01*
X196311828Y-120431405D01*
X196335631Y-120530553D01*
X196337524Y-120535124D01*
X196337525Y-120535126D01*
X196338895Y-120538432D01*
X196427460Y-120752249D01*
X196552840Y-120956849D01*
X196708682Y-121139318D01*
X196712444Y-121142531D01*
X196879588Y-121285284D01*
X196891151Y-121295160D01*
X197095751Y-121420540D01*
X197100321Y-121422433D01*
X197100323Y-121422434D01*
X197211665Y-121468553D01*
X197317447Y-121512369D01*
X197397600Y-121531612D01*
X197545965Y-121567232D01*
X197545971Y-121567233D01*
X197550778Y-121568387D01*
X197790000Y-121587214D01*
X198029222Y-121568387D01*
X198034029Y-121567233D01*
X198034035Y-121567232D01*
X198182400Y-121531612D01*
X198262553Y-121512369D01*
X198368335Y-121468553D01*
X198479677Y-121422434D01*
X198479679Y-121422433D01*
X198484249Y-121420540D01*
X198688849Y-121295160D01*
X198700413Y-121285284D01*
X198867556Y-121142531D01*
X198871318Y-121139318D01*
X199027160Y-120956849D01*
X199053263Y-120914253D01*
X201910457Y-120914253D01*
X201914241Y-120923031D01*
X202777188Y-121785978D01*
X202791132Y-121793592D01*
X202792965Y-121793461D01*
X202799580Y-121789210D01*
X203662716Y-120926074D01*
X203669476Y-120913694D01*
X203663749Y-120906044D01*
X203488241Y-120798493D01*
X203479447Y-120794012D01*
X203266971Y-120706002D01*
X203257586Y-120702953D01*
X203033956Y-120649263D01*
X203024209Y-120647720D01*
X202794930Y-120629675D01*
X202785070Y-120629675D01*
X202555791Y-120647720D01*
X202546044Y-120649263D01*
X202322414Y-120702953D01*
X202313029Y-120706002D01*
X202100553Y-120794012D01*
X202091759Y-120798493D01*
X201919917Y-120903797D01*
X201910457Y-120914253D01*
X199053263Y-120914253D01*
X199152540Y-120752249D01*
X199241106Y-120538432D01*
X199242475Y-120535126D01*
X199242476Y-120535124D01*
X199244369Y-120530553D01*
X199268172Y-120431405D01*
X199299232Y-120302035D01*
X199299233Y-120302029D01*
X199300387Y-120297222D01*
X199319214Y-120058000D01*
X199300387Y-119818778D01*
X199299233Y-119813971D01*
X199299232Y-119813965D01*
X199245524Y-119590259D01*
X199244369Y-119585447D01*
X199242475Y-119580874D01*
X199154434Y-119368323D01*
X199154433Y-119368321D01*
X199152540Y-119363751D01*
X199027160Y-119159151D01*
X199000551Y-119127995D01*
X198874531Y-118980444D01*
X198871318Y-118976682D01*
X198798773Y-118914723D01*
X198692617Y-118824058D01*
X198692616Y-118824057D01*
X198688849Y-118820840D01*
X198484249Y-118695460D01*
X198479679Y-118693567D01*
X198479677Y-118693566D01*
X198267126Y-118605525D01*
X198267124Y-118605524D01*
X198262553Y-118603631D01*
X198166985Y-118580687D01*
X198034035Y-118548768D01*
X198034029Y-118548767D01*
X198029222Y-118547613D01*
X197790000Y-118528786D01*
X197550778Y-118547613D01*
X197545971Y-118548767D01*
X197545965Y-118548768D01*
X197413015Y-118580687D01*
X197317447Y-118603631D01*
X197312876Y-118605524D01*
X197312874Y-118605525D01*
X197100323Y-118693566D01*
X197100321Y-118693567D01*
X197095751Y-118695460D01*
X196891151Y-118820840D01*
X196887384Y-118824057D01*
X196887383Y-118824058D01*
X196781227Y-118914723D01*
X196708682Y-118976682D01*
X196705469Y-118980444D01*
X196579450Y-119127995D01*
X196552840Y-119159151D01*
X196427460Y-119363751D01*
X196425567Y-119368321D01*
X196425566Y-119368323D01*
X196337525Y-119580874D01*
X196335631Y-119585447D01*
X196334476Y-119590259D01*
X196280768Y-119813965D01*
X196280767Y-119813971D01*
X196279613Y-119818778D01*
X196260786Y-120058000D01*
X179881905Y-120058000D01*
X179192652Y-119368747D01*
X179185112Y-119360461D01*
X179181000Y-119353982D01*
X179131348Y-119307356D01*
X179128507Y-119304602D01*
X179108770Y-119284865D01*
X179105573Y-119282385D01*
X179096551Y-119274680D01*
X179083116Y-119262064D01*
X179064321Y-119244414D01*
X179057375Y-119240595D01*
X179057372Y-119240593D01*
X179046566Y-119234652D01*
X179030047Y-119223801D01*
X179029583Y-119223441D01*
X179014041Y-119211386D01*
X179006772Y-119208241D01*
X179006768Y-119208238D01*
X178973463Y-119193826D01*
X178962813Y-119188609D01*
X178924060Y-119167305D01*
X178904437Y-119162267D01*
X178885734Y-119155863D01*
X178874420Y-119150967D01*
X178874419Y-119150967D01*
X178867145Y-119147819D01*
X178859322Y-119146580D01*
X178859312Y-119146577D01*
X178823476Y-119140901D01*
X178811856Y-119138495D01*
X178776711Y-119129472D01*
X178776710Y-119129472D01*
X178769030Y-119127500D01*
X178748776Y-119127500D01*
X178729065Y-119125949D01*
X178726534Y-119125548D01*
X178709057Y-119122780D01*
X178701165Y-119123526D01*
X178665039Y-119126941D01*
X178653181Y-119127500D01*
X113489763Y-119127500D01*
X113478579Y-119126973D01*
X113471091Y-119125299D01*
X113463168Y-119125548D01*
X113403033Y-119127438D01*
X113399075Y-119127500D01*
X113371144Y-119127500D01*
X113367229Y-119127995D01*
X113367225Y-119127995D01*
X113367167Y-119128003D01*
X113367138Y-119128006D01*
X113355296Y-119128939D01*
X113311110Y-119130327D01*
X113293744Y-119135372D01*
X113291658Y-119135978D01*
X113272306Y-119139986D01*
X113260068Y-119141532D01*
X113260066Y-119141533D01*
X113252203Y-119142526D01*
X113211086Y-119158806D01*
X113199885Y-119162641D01*
X113157406Y-119174982D01*
X113150587Y-119179015D01*
X113150582Y-119179017D01*
X113139971Y-119185293D01*
X113122221Y-119193990D01*
X113103383Y-119201448D01*
X113096967Y-119206109D01*
X113096966Y-119206110D01*
X113067625Y-119227428D01*
X113057701Y-119233947D01*
X113026460Y-119252422D01*
X113026455Y-119252426D01*
X113019637Y-119256458D01*
X113005313Y-119270782D01*
X112990281Y-119283621D01*
X112973893Y-119295528D01*
X112945712Y-119329593D01*
X112937722Y-119338373D01*
X106729500Y-125546595D01*
X106667188Y-125580621D01*
X106640405Y-125583500D01*
X106621874Y-125583500D01*
X106553753Y-125563498D01*
X106507260Y-125509842D01*
X106496952Y-125441054D01*
X106516590Y-125291887D01*
X106517109Y-125285212D01*
X106518572Y-125225364D01*
X106518378Y-125218646D01*
X106500781Y-125004604D01*
X106499096Y-124994424D01*
X106447214Y-124787875D01*
X106443894Y-124778124D01*
X106358972Y-124582814D01*
X106354105Y-124573739D01*
X106289063Y-124473197D01*
X106278377Y-124463995D01*
X106268812Y-124468398D01*
X104402737Y-126334473D01*
X104395977Y-126346853D01*
X104401258Y-126353907D01*
X104447969Y-126381203D01*
X104496693Y-126432841D01*
X104509764Y-126502624D01*
X104483033Y-126568396D01*
X104442584Y-126601752D01*
X104429607Y-126608507D01*
X104425474Y-126611610D01*
X104425471Y-126611612D01*
X104255100Y-126739530D01*
X104250965Y-126742635D01*
X104096629Y-126904138D01*
X104093715Y-126908410D01*
X104093714Y-126908411D01*
X103981095Y-127073504D01*
X103926184Y-127118507D01*
X103877007Y-127128500D01*
X103456767Y-127128500D01*
X103445584Y-127127973D01*
X103438091Y-127126298D01*
X103430165Y-127126547D01*
X103430164Y-127126547D01*
X103370014Y-127128438D01*
X103366055Y-127128500D01*
X103338144Y-127128500D01*
X103334210Y-127128997D01*
X103334209Y-127128997D01*
X103334144Y-127129005D01*
X103322307Y-127129938D01*
X103290049Y-127130952D01*
X103286030Y-127131078D01*
X103278111Y-127131327D01*
X103258657Y-127136979D01*
X103239300Y-127140987D01*
X103227070Y-127142532D01*
X103227069Y-127142532D01*
X103219203Y-127143526D01*
X103211832Y-127146445D01*
X103211830Y-127146445D01*
X103178088Y-127159804D01*
X103166858Y-127163649D01*
X103132017Y-127173771D01*
X103132016Y-127173771D01*
X103124407Y-127175982D01*
X103117588Y-127180015D01*
X103117583Y-127180017D01*
X103106972Y-127186293D01*
X103089224Y-127194988D01*
X103070383Y-127202448D01*
X103063967Y-127207110D01*
X103063966Y-127207110D01*
X103034613Y-127228436D01*
X103024693Y-127234952D01*
X102993465Y-127253420D01*
X102993462Y-127253422D01*
X102986638Y-127257458D01*
X102972317Y-127271779D01*
X102957284Y-127284619D01*
X102940893Y-127296528D01*
X102920148Y-127321604D01*
X102912702Y-127330605D01*
X102904712Y-127339384D01*
X99808000Y-130436095D01*
X99745688Y-130470121D01*
X99718905Y-130473000D01*
X99663013Y-130473000D01*
X99656561Y-130474372D01*
X99656556Y-130474372D01*
X99569612Y-130492853D01*
X99476212Y-130512706D01*
X99470182Y-130515391D01*
X99470181Y-130515391D01*
X99307778Y-130587697D01*
X99307776Y-130587698D01*
X99301748Y-130590382D01*
X99296407Y-130594262D01*
X99296406Y-130594263D01*
X99281628Y-130605000D01*
X99147247Y-130702634D01*
X99142826Y-130707544D01*
X99142825Y-130707545D01*
X99027709Y-130835395D01*
X99019460Y-130844556D01*
X98976799Y-130918447D01*
X98927520Y-131003801D01*
X98923973Y-131009944D01*
X98864958Y-131191572D01*
X98864268Y-131198133D01*
X98864268Y-131198135D01*
X98852061Y-131314279D01*
X98844996Y-131381500D01*
X98845686Y-131388065D01*
X98862399Y-131547077D01*
X98864958Y-131571428D01*
X98923973Y-131753056D01*
X98927276Y-131758778D01*
X98927277Y-131758779D01*
X98936931Y-131775500D01*
X99019460Y-131918444D01*
X99023878Y-131923351D01*
X99023879Y-131923352D01*
X99110454Y-132019503D01*
X99147247Y-132060366D01*
X99173134Y-132079174D01*
X99287869Y-132162534D01*
X99301748Y-132172618D01*
X99307776Y-132175302D01*
X99307778Y-132175303D01*
X99404161Y-132218215D01*
X99476212Y-132250294D01*
X99569612Y-132270147D01*
X99656556Y-132288628D01*
X99656561Y-132288628D01*
X99663013Y-132290000D01*
X99853987Y-132290000D01*
X99860439Y-132288628D01*
X99860444Y-132288628D01*
X99947388Y-132270147D01*
X100040788Y-132250294D01*
X100112839Y-132218215D01*
X100209222Y-132175303D01*
X100209224Y-132175302D01*
X100215252Y-132172618D01*
X100227710Y-132163567D01*
X100364409Y-132064249D01*
X100364411Y-132064247D01*
X100369753Y-132060366D01*
X100373183Y-132056556D01*
X100436696Y-132026076D01*
X100507149Y-132034839D01*
X100540645Y-132056365D01*
X100544247Y-132060366D01*
X100549589Y-132064247D01*
X100549591Y-132064249D01*
X100686290Y-132163567D01*
X100698748Y-132172618D01*
X100704776Y-132175302D01*
X100704778Y-132175303D01*
X100801161Y-132218215D01*
X100873212Y-132250294D01*
X100966612Y-132270147D01*
X101053556Y-132288628D01*
X101053561Y-132288628D01*
X101060013Y-132290000D01*
X101250987Y-132290000D01*
X101257439Y-132288628D01*
X101257444Y-132288628D01*
X101344388Y-132270147D01*
X101437788Y-132250294D01*
X101509839Y-132218215D01*
X101606222Y-132175303D01*
X101606224Y-132175302D01*
X101612252Y-132172618D01*
X101626132Y-132162534D01*
X101740866Y-132079174D01*
X101766753Y-132060366D01*
X101803546Y-132019503D01*
X101890121Y-131923352D01*
X101890122Y-131923351D01*
X101894540Y-131918444D01*
X101977069Y-131775500D01*
X101986723Y-131758779D01*
X101986724Y-131758778D01*
X101990027Y-131753056D01*
X102049042Y-131571428D01*
X102051491Y-131548125D01*
X102078503Y-131482468D01*
X102087706Y-131472198D01*
X102930035Y-130629869D01*
X102992347Y-130595843D01*
X103019130Y-130592964D01*
X104775323Y-130592964D01*
X104843444Y-130612966D01*
X104889937Y-130666622D01*
X104900041Y-130736896D01*
X104899165Y-130741820D01*
X104897458Y-130747072D01*
X104877496Y-130937000D01*
X104878186Y-130943565D01*
X104895312Y-131106507D01*
X104897458Y-131126928D01*
X104956473Y-131308556D01*
X104959776Y-131314278D01*
X104959777Y-131314279D01*
X104968932Y-131330135D01*
X105051960Y-131473944D01*
X105056378Y-131478851D01*
X105056379Y-131478852D01*
X105175325Y-131610955D01*
X105179747Y-131615866D01*
X105334248Y-131728118D01*
X105340276Y-131730802D01*
X105340278Y-131730803D01*
X105502681Y-131803109D01*
X105508712Y-131805794D01*
X105602112Y-131825647D01*
X105689056Y-131844128D01*
X105689061Y-131844128D01*
X105695513Y-131845500D01*
X105886487Y-131845500D01*
X105892939Y-131844128D01*
X105892944Y-131844128D01*
X105979888Y-131825647D01*
X106073288Y-131805794D01*
X106079319Y-131803109D01*
X106241722Y-131730803D01*
X106241724Y-131730802D01*
X106247752Y-131728118D01*
X106402253Y-131615866D01*
X106406675Y-131610955D01*
X106525621Y-131478852D01*
X106525622Y-131478851D01*
X106530040Y-131473944D01*
X106613068Y-131330135D01*
X106622223Y-131314279D01*
X106622224Y-131314278D01*
X106625527Y-131308556D01*
X106684542Y-131126928D01*
X106685981Y-131113244D01*
X106689181Y-131082792D01*
X106716195Y-131017136D01*
X106774417Y-130976507D01*
X106814491Y-130969964D01*
X111681233Y-130969964D01*
X111692416Y-130970491D01*
X111699909Y-130972166D01*
X111707835Y-130971917D01*
X111707836Y-130971917D01*
X111767986Y-130970026D01*
X111771945Y-130969964D01*
X111799856Y-130969964D01*
X111803791Y-130969467D01*
X111803856Y-130969459D01*
X111815693Y-130968526D01*
X111847951Y-130967512D01*
X111851970Y-130967386D01*
X111859889Y-130967137D01*
X111879343Y-130961485D01*
X111898700Y-130957477D01*
X111910930Y-130955932D01*
X111910931Y-130955932D01*
X111918797Y-130954938D01*
X111926168Y-130952019D01*
X111926170Y-130952019D01*
X111959912Y-130938660D01*
X111971142Y-130934815D01*
X112005983Y-130924693D01*
X112005984Y-130924693D01*
X112013593Y-130922482D01*
X112020412Y-130918449D01*
X112020417Y-130918447D01*
X112031028Y-130912171D01*
X112048776Y-130903476D01*
X112067617Y-130896016D01*
X112086733Y-130882128D01*
X112103387Y-130870028D01*
X112113307Y-130863512D01*
X112144535Y-130845044D01*
X112144538Y-130845042D01*
X112151362Y-130841006D01*
X112165683Y-130826685D01*
X112180717Y-130813844D01*
X112190694Y-130806595D01*
X112197107Y-130801936D01*
X112225298Y-130767859D01*
X112233288Y-130759080D01*
X114270247Y-128722121D01*
X114278537Y-128714577D01*
X114285018Y-128710464D01*
X114331659Y-128660796D01*
X114334413Y-128657955D01*
X114354134Y-128638234D01*
X114356613Y-128635038D01*
X114364318Y-128626017D01*
X114389158Y-128599565D01*
X114394586Y-128593785D01*
X114404346Y-128576032D01*
X114415199Y-128559509D01*
X114422753Y-128549770D01*
X114427613Y-128543505D01*
X114445176Y-128502921D01*
X114450383Y-128492291D01*
X114471695Y-128453524D01*
X114473666Y-128445847D01*
X114473668Y-128445842D01*
X114476732Y-128433906D01*
X114483138Y-128415194D01*
X114488033Y-128403883D01*
X114491181Y-128396609D01*
X114492421Y-128388781D01*
X114492423Y-128388774D01*
X114498099Y-128352940D01*
X114500505Y-128341320D01*
X114509528Y-128306175D01*
X114509528Y-128306174D01*
X114511500Y-128298494D01*
X114511500Y-128278240D01*
X114513051Y-128258529D01*
X114514980Y-128246350D01*
X114516220Y-128238521D01*
X114512059Y-128194502D01*
X114511500Y-128182645D01*
X114511500Y-127728695D01*
X116493251Y-127728695D01*
X116493548Y-127733848D01*
X116493548Y-127733851D01*
X116503519Y-127906782D01*
X116506110Y-127951715D01*
X116507247Y-127956761D01*
X116507248Y-127956767D01*
X116527026Y-128044525D01*
X116555222Y-128169639D01*
X116593461Y-128263811D01*
X116633587Y-128362629D01*
X116639266Y-128376616D01*
X116678623Y-128440841D01*
X116753291Y-128562688D01*
X116755987Y-128567088D01*
X116902250Y-128735938D01*
X117026353Y-128838970D01*
X117061284Y-128867970D01*
X117074126Y-128878632D01*
X117267000Y-128991338D01*
X117271825Y-128993180D01*
X117271826Y-128993181D01*
X117308585Y-129007218D01*
X117475692Y-129071030D01*
X117480760Y-129072061D01*
X117480763Y-129072062D01*
X117584267Y-129093120D01*
X117694597Y-129115567D01*
X117699772Y-129115757D01*
X117699774Y-129115757D01*
X117912673Y-129123564D01*
X117912677Y-129123564D01*
X117917837Y-129123753D01*
X117922957Y-129123097D01*
X117922959Y-129123097D01*
X118134288Y-129096025D01*
X118134289Y-129096025D01*
X118139416Y-129095368D01*
X118146909Y-129093120D01*
X118348429Y-129032661D01*
X118348434Y-129032659D01*
X118353384Y-129031174D01*
X118553994Y-128932896D01*
X118735860Y-128803173D01*
X118746273Y-128792797D01*
X118851326Y-128688110D01*
X118913698Y-128654194D01*
X118984505Y-128659382D01*
X119029361Y-128688266D01*
X121255595Y-130914500D01*
X121289621Y-130976812D01*
X121292500Y-131003595D01*
X121292500Y-134471990D01*
X121272498Y-134540111D01*
X121220774Y-134584500D01*
X121221001Y-134584893D01*
X121218911Y-134586100D01*
X121217750Y-134587096D01*
X121215283Y-134588194D01*
X121215275Y-134588199D01*
X121209248Y-134590882D01*
X121054747Y-134703134D01*
X121050326Y-134708044D01*
X121050325Y-134708045D01*
X120941817Y-134828556D01*
X120926960Y-134845056D01*
X120923659Y-134850774D01*
X120837371Y-135000229D01*
X120831473Y-135010444D01*
X120772458Y-135192072D01*
X120752496Y-135382000D01*
X120753186Y-135388565D01*
X120771384Y-135561706D01*
X120772458Y-135571928D01*
X120831473Y-135753556D01*
X120834776Y-135759278D01*
X120834777Y-135759279D01*
X120868686Y-135818010D01*
X120926960Y-135918944D01*
X120931378Y-135923851D01*
X120931379Y-135923852D01*
X121050325Y-136055955D01*
X121054747Y-136060866D01*
X121132512Y-136117366D01*
X121203835Y-136169185D01*
X121209248Y-136173118D01*
X121215276Y-136175802D01*
X121215278Y-136175803D01*
X121377681Y-136248109D01*
X121383712Y-136250794D01*
X121477112Y-136270647D01*
X121564056Y-136289128D01*
X121564061Y-136289128D01*
X121570513Y-136290500D01*
X121761487Y-136290500D01*
X121767939Y-136289128D01*
X121767944Y-136289128D01*
X121854888Y-136270647D01*
X121948288Y-136250794D01*
X121954319Y-136248109D01*
X122116722Y-136175803D01*
X122116724Y-136175802D01*
X122122752Y-136173118D01*
X122128166Y-136169185D01*
X122163439Y-136143557D01*
X122230306Y-136119699D01*
X122299458Y-136135779D01*
X122311561Y-136143557D01*
X122346835Y-136169185D01*
X122352248Y-136173118D01*
X122358276Y-136175802D01*
X122358278Y-136175803D01*
X122520681Y-136248109D01*
X122526712Y-136250794D01*
X122620112Y-136270647D01*
X122707056Y-136289128D01*
X122707061Y-136289128D01*
X122713513Y-136290500D01*
X122904487Y-136290500D01*
X122910939Y-136289128D01*
X122910944Y-136289128D01*
X122997888Y-136270647D01*
X123091288Y-136250794D01*
X123097319Y-136248109D01*
X123259722Y-136175803D01*
X123259724Y-136175802D01*
X123265752Y-136173118D01*
X123271166Y-136169185D01*
X123342488Y-136117366D01*
X123420253Y-136060866D01*
X123424675Y-136055955D01*
X123543621Y-135923852D01*
X123543622Y-135923851D01*
X123548040Y-135918944D01*
X123606314Y-135818010D01*
X123640223Y-135759279D01*
X123640224Y-135759278D01*
X123643527Y-135753556D01*
X123702542Y-135571928D01*
X123703617Y-135561706D01*
X123721814Y-135388565D01*
X123722504Y-135382000D01*
X123702542Y-135192072D01*
X123643527Y-135010444D01*
X123637630Y-135000229D01*
X123551341Y-134850774D01*
X123548040Y-134845056D01*
X123533184Y-134828556D01*
X123424675Y-134708045D01*
X123424674Y-134708044D01*
X123420253Y-134703134D01*
X123414909Y-134699251D01*
X123414907Y-134699249D01*
X123373438Y-134669120D01*
X123330085Y-134612898D01*
X123321500Y-134567185D01*
X123321500Y-127728695D01*
X124113251Y-127728695D01*
X124113548Y-127733848D01*
X124113548Y-127733851D01*
X124123519Y-127906782D01*
X124126110Y-127951715D01*
X124127247Y-127956761D01*
X124127248Y-127956767D01*
X124147026Y-128044525D01*
X124175222Y-128169639D01*
X124213461Y-128263811D01*
X124253587Y-128362629D01*
X124259266Y-128376616D01*
X124298623Y-128440841D01*
X124373291Y-128562688D01*
X124375987Y-128567088D01*
X124522250Y-128735938D01*
X124646353Y-128838970D01*
X124681284Y-128867970D01*
X124694126Y-128878632D01*
X124887000Y-128991338D01*
X124891825Y-128993180D01*
X124891826Y-128993181D01*
X124928585Y-129007218D01*
X125095692Y-129071030D01*
X125100760Y-129072061D01*
X125100763Y-129072062D01*
X125204267Y-129093120D01*
X125314597Y-129115567D01*
X125319772Y-129115757D01*
X125319774Y-129115757D01*
X125532673Y-129123564D01*
X125532677Y-129123564D01*
X125537837Y-129123753D01*
X125542957Y-129123097D01*
X125542959Y-129123097D01*
X125754288Y-129096025D01*
X125754289Y-129096025D01*
X125759416Y-129095368D01*
X125766909Y-129093120D01*
X125968429Y-129032661D01*
X125968434Y-129032659D01*
X125973384Y-129031174D01*
X126173994Y-128932896D01*
X126355860Y-128803173D01*
X126366273Y-128792797D01*
X126454691Y-128704687D01*
X126514096Y-128645489D01*
X126524975Y-128630350D01*
X126641435Y-128468277D01*
X126644453Y-128464077D01*
X126648611Y-128455665D01*
X126741136Y-128268453D01*
X126741137Y-128268451D01*
X126743430Y-128263811D01*
X126808370Y-128050069D01*
X126837529Y-127828590D01*
X126838752Y-127778526D01*
X126839074Y-127765365D01*
X126839074Y-127765361D01*
X126839156Y-127762000D01*
X126820852Y-127539361D01*
X126766431Y-127322702D01*
X126677354Y-127117840D01*
X126616799Y-127024236D01*
X126558822Y-126934617D01*
X126558820Y-126934614D01*
X126556014Y-126930277D01*
X126405670Y-126765051D01*
X126401616Y-126761849D01*
X126401615Y-126761848D01*
X126234414Y-126629800D01*
X126234410Y-126629798D01*
X126230359Y-126626598D01*
X126188569Y-126603529D01*
X126138598Y-126553097D01*
X126123826Y-126483654D01*
X126148942Y-126417248D01*
X126176293Y-126390642D01*
X126225247Y-126355723D01*
X126233648Y-126345023D01*
X126226660Y-126331870D01*
X125488812Y-125594022D01*
X125474868Y-125586408D01*
X125473035Y-125586539D01*
X125466420Y-125590790D01*
X124722737Y-126334473D01*
X124715977Y-126346853D01*
X124721258Y-126353907D01*
X124767969Y-126381203D01*
X124816693Y-126432841D01*
X124829764Y-126502624D01*
X124803033Y-126568396D01*
X124762584Y-126601752D01*
X124749607Y-126608507D01*
X124745474Y-126611610D01*
X124745471Y-126611612D01*
X124575100Y-126739530D01*
X124570965Y-126742635D01*
X124416629Y-126904138D01*
X124413715Y-126908410D01*
X124413714Y-126908411D01*
X124372064Y-126969468D01*
X124290743Y-127088680D01*
X124252011Y-127172121D01*
X124202290Y-127279237D01*
X124196688Y-127291305D01*
X124136989Y-127506570D01*
X124113251Y-127728695D01*
X123321500Y-127728695D01*
X123321500Y-125922594D01*
X123341502Y-125854473D01*
X123358405Y-125833499D01*
X123909016Y-125282888D01*
X123971328Y-125248862D01*
X124042143Y-125253927D01*
X124098979Y-125296474D01*
X124123902Y-125364730D01*
X124126309Y-125406477D01*
X124127745Y-125416697D01*
X124174565Y-125624446D01*
X124177645Y-125634275D01*
X124257770Y-125831603D01*
X124262413Y-125840794D01*
X124342460Y-125971420D01*
X124352916Y-125980880D01*
X124361694Y-125977096D01*
X125115658Y-125223132D01*
X125840408Y-125223132D01*
X125840539Y-125224965D01*
X125844790Y-125231580D01*
X126586474Y-125973264D01*
X126598484Y-125979823D01*
X126610223Y-125970855D01*
X126641004Y-125928019D01*
X126646315Y-125919180D01*
X126740670Y-125728267D01*
X126744469Y-125718672D01*
X126806376Y-125514915D01*
X126808555Y-125504834D01*
X126836590Y-125291887D01*
X126837109Y-125285212D01*
X126838572Y-125225364D01*
X126838378Y-125218646D01*
X126836341Y-125193863D01*
X129194050Y-125193863D01*
X129206309Y-125406477D01*
X129207745Y-125416697D01*
X129254565Y-125624446D01*
X129257645Y-125634275D01*
X129337770Y-125831603D01*
X129342413Y-125840794D01*
X129422460Y-125971420D01*
X129432916Y-125980880D01*
X129441694Y-125977096D01*
X130183978Y-125234812D01*
X130191592Y-125220868D01*
X130191461Y-125219035D01*
X130187210Y-125212420D01*
X129445849Y-124471059D01*
X129434313Y-124464759D01*
X129422031Y-124474382D01*
X129374089Y-124544662D01*
X129369004Y-124553613D01*
X129279338Y-124746783D01*
X129275775Y-124756470D01*
X129218864Y-124961681D01*
X129216933Y-124971800D01*
X129194302Y-125183574D01*
X129194050Y-125193863D01*
X126836341Y-125193863D01*
X126820781Y-125004604D01*
X126819096Y-124994424D01*
X126767214Y-124787875D01*
X126763894Y-124778124D01*
X126678972Y-124582814D01*
X126674105Y-124573739D01*
X126609063Y-124473197D01*
X126598377Y-124463995D01*
X126588812Y-124468398D01*
X125848022Y-125209188D01*
X125840408Y-125223132D01*
X125115658Y-125223132D01*
X126229389Y-124109401D01*
X126236410Y-124096544D01*
X126229611Y-124087213D01*
X126225559Y-124084521D01*
X126188602Y-124064120D01*
X126138631Y-124013687D01*
X126123859Y-123944245D01*
X126148975Y-123877839D01*
X126176327Y-123851232D01*
X126236245Y-123808493D01*
X126355860Y-123723173D01*
X126382088Y-123697037D01*
X126463653Y-123615756D01*
X126514096Y-123565489D01*
X126523670Y-123552166D01*
X126638302Y-123392637D01*
X126644453Y-123384077D01*
X126650769Y-123371299D01*
X126741136Y-123188453D01*
X126741137Y-123188451D01*
X126743430Y-123183811D01*
X126808370Y-122970069D01*
X126837529Y-122748590D01*
X126837611Y-122745240D01*
X126839074Y-122685365D01*
X126839074Y-122685361D01*
X126839156Y-122682000D01*
X126836418Y-122648695D01*
X129193251Y-122648695D01*
X129193548Y-122653848D01*
X129193548Y-122653851D01*
X129199011Y-122748590D01*
X129206110Y-122871715D01*
X129207247Y-122876761D01*
X129207248Y-122876767D01*
X129214107Y-122907202D01*
X129255222Y-123089639D01*
X129339266Y-123296616D01*
X129366979Y-123341840D01*
X129449072Y-123475803D01*
X129455987Y-123487088D01*
X129602250Y-123655938D01*
X129774126Y-123798632D01*
X129846918Y-123841168D01*
X129847955Y-123841774D01*
X129896679Y-123893412D01*
X129909750Y-123963195D01*
X129883019Y-124028967D01*
X129842562Y-124062327D01*
X129834460Y-124066544D01*
X129825734Y-124072039D01*
X129805677Y-124087099D01*
X129797223Y-124098427D01*
X129803968Y-124110758D01*
X130543188Y-124849978D01*
X130557132Y-124857592D01*
X130558965Y-124857461D01*
X130565580Y-124853210D01*
X131309389Y-124109401D01*
X131316410Y-124096544D01*
X131309611Y-124087213D01*
X131305559Y-124084521D01*
X131268602Y-124064120D01*
X131218631Y-124013687D01*
X131203859Y-123944245D01*
X131228975Y-123877839D01*
X131256327Y-123851232D01*
X131316245Y-123808493D01*
X131435860Y-123723173D01*
X131462088Y-123697037D01*
X131543653Y-123615756D01*
X131594096Y-123565489D01*
X131603670Y-123552166D01*
X131718302Y-123392637D01*
X131724453Y-123384077D01*
X131730769Y-123371299D01*
X131821136Y-123188453D01*
X131821137Y-123188451D01*
X131823430Y-123183811D01*
X131888370Y-122970069D01*
X131917529Y-122748590D01*
X131917611Y-122745240D01*
X131919074Y-122685365D01*
X131919074Y-122685361D01*
X131919156Y-122682000D01*
X131900852Y-122459361D01*
X131846431Y-122242702D01*
X131757354Y-122037840D01*
X131717906Y-121976862D01*
X131638822Y-121854617D01*
X131638820Y-121854614D01*
X131636014Y-121850277D01*
X131485670Y-121685051D01*
X131481619Y-121681852D01*
X131481615Y-121681848D01*
X131314414Y-121549800D01*
X131314410Y-121549798D01*
X131310359Y-121546598D01*
X131114789Y-121438638D01*
X131109920Y-121436914D01*
X131109916Y-121436912D01*
X130909087Y-121365795D01*
X130909083Y-121365794D01*
X130904212Y-121364069D01*
X130899119Y-121363162D01*
X130899116Y-121363161D01*
X130689373Y-121325800D01*
X130689367Y-121325799D01*
X130684284Y-121324894D01*
X130610452Y-121323992D01*
X130466081Y-121322228D01*
X130466079Y-121322228D01*
X130460911Y-121322165D01*
X130240091Y-121355955D01*
X130027756Y-121425357D01*
X129829607Y-121528507D01*
X129825474Y-121531610D01*
X129825471Y-121531612D01*
X129751933Y-121586826D01*
X129650965Y-121662635D01*
X129647393Y-121666373D01*
X129533096Y-121785978D01*
X129496629Y-121824138D01*
X129370743Y-122008680D01*
X129355003Y-122042590D01*
X129302808Y-122155035D01*
X129276688Y-122211305D01*
X129216989Y-122426570D01*
X129193251Y-122648695D01*
X126836418Y-122648695D01*
X126820852Y-122459361D01*
X126766431Y-122242702D01*
X126677354Y-122037840D01*
X126637906Y-121976862D01*
X126558822Y-121854617D01*
X126558820Y-121854614D01*
X126556014Y-121850277D01*
X126405670Y-121685051D01*
X126401619Y-121681852D01*
X126401615Y-121681848D01*
X126234414Y-121549800D01*
X126234410Y-121549798D01*
X126230359Y-121546598D01*
X126034789Y-121438638D01*
X126029920Y-121436914D01*
X126029916Y-121436912D01*
X125829087Y-121365795D01*
X125829083Y-121365794D01*
X125824212Y-121364069D01*
X125819119Y-121363162D01*
X125819116Y-121363161D01*
X125609373Y-121325800D01*
X125609367Y-121325799D01*
X125604284Y-121324894D01*
X125530452Y-121323992D01*
X125386081Y-121322228D01*
X125386079Y-121322228D01*
X125380911Y-121322165D01*
X125160091Y-121355955D01*
X124947756Y-121425357D01*
X124749607Y-121528507D01*
X124745474Y-121531610D01*
X124745471Y-121531612D01*
X124671933Y-121586826D01*
X124570965Y-121662635D01*
X124567393Y-121666373D01*
X124453096Y-121785978D01*
X124416629Y-121824138D01*
X124290743Y-122008680D01*
X124275003Y-122042590D01*
X124222808Y-122155035D01*
X124196688Y-122211305D01*
X124136989Y-122426570D01*
X124113251Y-122648695D01*
X124113548Y-122653848D01*
X124113548Y-122653851D01*
X124119011Y-122748590D01*
X124126110Y-122871715D01*
X124127247Y-122876761D01*
X124127248Y-122876767D01*
X124134107Y-122907202D01*
X124175222Y-123089639D01*
X124177165Y-123094425D01*
X124177167Y-123094430D01*
X124182841Y-123108404D01*
X124189937Y-123179045D01*
X124155193Y-123244902D01*
X122295747Y-125104348D01*
X122287461Y-125111888D01*
X122280982Y-125116000D01*
X122275557Y-125121777D01*
X122234357Y-125165651D01*
X122231602Y-125168493D01*
X122211865Y-125188230D01*
X122209385Y-125191427D01*
X122201682Y-125200447D01*
X122171414Y-125232679D01*
X122167595Y-125239625D01*
X122167593Y-125239628D01*
X122161652Y-125250434D01*
X122150801Y-125266953D01*
X122138386Y-125282959D01*
X122135241Y-125290228D01*
X122135238Y-125290232D01*
X122120826Y-125323537D01*
X122115609Y-125334187D01*
X122094305Y-125372940D01*
X122092334Y-125380615D01*
X122092334Y-125380616D01*
X122089267Y-125392562D01*
X122082863Y-125411266D01*
X122079515Y-125419004D01*
X122074819Y-125429855D01*
X122073580Y-125437678D01*
X122073577Y-125437688D01*
X122067901Y-125473524D01*
X122065495Y-125485144D01*
X122054500Y-125527970D01*
X122054500Y-125548224D01*
X122052949Y-125567934D01*
X122049780Y-125587943D01*
X122050526Y-125595835D01*
X122053941Y-125631961D01*
X122054500Y-125643819D01*
X122054500Y-129617406D01*
X122034498Y-129685527D01*
X121980842Y-129732020D01*
X121910568Y-129742124D01*
X121845988Y-129712630D01*
X121839405Y-129706501D01*
X120841028Y-128708123D01*
X119634652Y-127501747D01*
X119627112Y-127493461D01*
X119623000Y-127486982D01*
X119573348Y-127440356D01*
X119570507Y-127437602D01*
X119550770Y-127417865D01*
X119547573Y-127415385D01*
X119538551Y-127407680D01*
X119525122Y-127395069D01*
X119506321Y-127377414D01*
X119499375Y-127373595D01*
X119499372Y-127373593D01*
X119488566Y-127367652D01*
X119472047Y-127356801D01*
X119469154Y-127354557D01*
X119456041Y-127344386D01*
X119448772Y-127341241D01*
X119448768Y-127341238D01*
X119415463Y-127326826D01*
X119404813Y-127321609D01*
X119366060Y-127300305D01*
X119346437Y-127295267D01*
X119327734Y-127288863D01*
X119316420Y-127283967D01*
X119316419Y-127283967D01*
X119309145Y-127280819D01*
X119301322Y-127279580D01*
X119301312Y-127279577D01*
X119265476Y-127273901D01*
X119253856Y-127271495D01*
X119218711Y-127262472D01*
X119218710Y-127262472D01*
X119211030Y-127260500D01*
X119201994Y-127260500D01*
X119201158Y-127260255D01*
X119195240Y-127259507D01*
X119195361Y-127258552D01*
X119133873Y-127240498D01*
X119086445Y-127184743D01*
X119067419Y-127140987D01*
X119057354Y-127117840D01*
X118996799Y-127024236D01*
X118938822Y-126934617D01*
X118938820Y-126934614D01*
X118936014Y-126930277D01*
X118785670Y-126765051D01*
X118781616Y-126761849D01*
X118781615Y-126761848D01*
X118614414Y-126629800D01*
X118614410Y-126629798D01*
X118610359Y-126626598D01*
X118568569Y-126603529D01*
X118518598Y-126553097D01*
X118503826Y-126483654D01*
X118528942Y-126417248D01*
X118556293Y-126390642D01*
X118605247Y-126355723D01*
X118613648Y-126345023D01*
X118606660Y-126331870D01*
X117868812Y-125594022D01*
X117854868Y-125586408D01*
X117853035Y-125586539D01*
X117846420Y-125590790D01*
X117102737Y-126334473D01*
X117095977Y-126346853D01*
X117101258Y-126353907D01*
X117147969Y-126381203D01*
X117196693Y-126432841D01*
X117209764Y-126502624D01*
X117183033Y-126568396D01*
X117142584Y-126601752D01*
X117129607Y-126608507D01*
X117125474Y-126611610D01*
X117125471Y-126611612D01*
X116955100Y-126739530D01*
X116950965Y-126742635D01*
X116796629Y-126904138D01*
X116793715Y-126908410D01*
X116793714Y-126908411D01*
X116752064Y-126969468D01*
X116670743Y-127088680D01*
X116632011Y-127172121D01*
X116582290Y-127279237D01*
X116576688Y-127291305D01*
X116516989Y-127506570D01*
X116493251Y-127728695D01*
X114511500Y-127728695D01*
X114511500Y-125193863D01*
X116494050Y-125193863D01*
X116506309Y-125406477D01*
X116507745Y-125416697D01*
X116554565Y-125624446D01*
X116557645Y-125634275D01*
X116637770Y-125831603D01*
X116642413Y-125840794D01*
X116722460Y-125971420D01*
X116732916Y-125980880D01*
X116741694Y-125977096D01*
X117483978Y-125234812D01*
X117490356Y-125223132D01*
X118220408Y-125223132D01*
X118220539Y-125224965D01*
X118224790Y-125231580D01*
X118966474Y-125973264D01*
X118978484Y-125979823D01*
X118990223Y-125970855D01*
X119021004Y-125928019D01*
X119026315Y-125919180D01*
X119120670Y-125728267D01*
X119124469Y-125718672D01*
X119186376Y-125514915D01*
X119188555Y-125504834D01*
X119216590Y-125291887D01*
X119217109Y-125285212D01*
X119218572Y-125225364D01*
X119218378Y-125218646D01*
X119200781Y-125004604D01*
X119199096Y-124994424D01*
X119147214Y-124787875D01*
X119143894Y-124778124D01*
X119058972Y-124582814D01*
X119054105Y-124573739D01*
X118989063Y-124473197D01*
X118978377Y-124463995D01*
X118968812Y-124468398D01*
X118228022Y-125209188D01*
X118220408Y-125223132D01*
X117490356Y-125223132D01*
X117491592Y-125220868D01*
X117491461Y-125219035D01*
X117487210Y-125212420D01*
X116745849Y-124471059D01*
X116734313Y-124464759D01*
X116722031Y-124474382D01*
X116674089Y-124544662D01*
X116669004Y-124553613D01*
X116579338Y-124746783D01*
X116575775Y-124756470D01*
X116518864Y-124961681D01*
X116516933Y-124971800D01*
X116494302Y-125183574D01*
X116494050Y-125193863D01*
X114511500Y-125193863D01*
X114511500Y-123862763D01*
X114512027Y-123851579D01*
X114513701Y-123844091D01*
X114511562Y-123776032D01*
X114511500Y-123772075D01*
X114511500Y-123744144D01*
X114510994Y-123740138D01*
X114510061Y-123728292D01*
X114509995Y-123726171D01*
X114508673Y-123684110D01*
X114503022Y-123664658D01*
X114499014Y-123645306D01*
X114497467Y-123633063D01*
X114496474Y-123625203D01*
X114492734Y-123615756D01*
X114480200Y-123584097D01*
X114476355Y-123572870D01*
X114474885Y-123567811D01*
X114464018Y-123530407D01*
X114459984Y-123523585D01*
X114459981Y-123523579D01*
X114453706Y-123512968D01*
X114445010Y-123495218D01*
X114440472Y-123483756D01*
X114440469Y-123483751D01*
X114437552Y-123476383D01*
X114416152Y-123446928D01*
X114411573Y-123440625D01*
X114405057Y-123430707D01*
X114388260Y-123402306D01*
X114382542Y-123392637D01*
X114368218Y-123378313D01*
X114355376Y-123363278D01*
X114351763Y-123358305D01*
X114343472Y-123346893D01*
X114309406Y-123318711D01*
X114300627Y-123310722D01*
X114127218Y-123137313D01*
X114093192Y-123075001D01*
X114095755Y-123011589D01*
X114106865Y-122975022D01*
X114106867Y-122975015D01*
X114108370Y-122970069D01*
X114137529Y-122748590D01*
X114137611Y-122745240D01*
X114139074Y-122685365D01*
X114139074Y-122685361D01*
X114139156Y-122682000D01*
X114136418Y-122648695D01*
X116493251Y-122648695D01*
X116493548Y-122653848D01*
X116493548Y-122653851D01*
X116499011Y-122748590D01*
X116506110Y-122871715D01*
X116507247Y-122876761D01*
X116507248Y-122876767D01*
X116514107Y-122907202D01*
X116555222Y-123089639D01*
X116639266Y-123296616D01*
X116666979Y-123341840D01*
X116749072Y-123475803D01*
X116755987Y-123487088D01*
X116902250Y-123655938D01*
X117074126Y-123798632D01*
X117146918Y-123841168D01*
X117147955Y-123841774D01*
X117196679Y-123893412D01*
X117209750Y-123963195D01*
X117183019Y-124028967D01*
X117142562Y-124062327D01*
X117134460Y-124066544D01*
X117125734Y-124072039D01*
X117105677Y-124087099D01*
X117097223Y-124098427D01*
X117103968Y-124110758D01*
X117843188Y-124849978D01*
X117857132Y-124857592D01*
X117858965Y-124857461D01*
X117865580Y-124853210D01*
X118609389Y-124109401D01*
X118616410Y-124096544D01*
X118609611Y-124087213D01*
X118605559Y-124084521D01*
X118568602Y-124064120D01*
X118518631Y-124013687D01*
X118503859Y-123944245D01*
X118528975Y-123877839D01*
X118556327Y-123851232D01*
X118616245Y-123808493D01*
X118735860Y-123723173D01*
X118762088Y-123697037D01*
X118843653Y-123615756D01*
X118894096Y-123565489D01*
X118903670Y-123552166D01*
X119018302Y-123392637D01*
X119024453Y-123384077D01*
X119030769Y-123371299D01*
X119121136Y-123188453D01*
X119121137Y-123188451D01*
X119123430Y-123183811D01*
X119188370Y-122970069D01*
X119217529Y-122748590D01*
X119217611Y-122745240D01*
X119219074Y-122685365D01*
X119219074Y-122685361D01*
X119219156Y-122682000D01*
X119200852Y-122459361D01*
X119146431Y-122242702D01*
X119057354Y-122037840D01*
X119017906Y-121976862D01*
X118938822Y-121854617D01*
X118938820Y-121854614D01*
X118936014Y-121850277D01*
X118785670Y-121685051D01*
X118781619Y-121681852D01*
X118781615Y-121681848D01*
X118614414Y-121549800D01*
X118614410Y-121549798D01*
X118610359Y-121546598D01*
X118414789Y-121438638D01*
X118409920Y-121436914D01*
X118409916Y-121436912D01*
X118209087Y-121365795D01*
X118209083Y-121365794D01*
X118204212Y-121364069D01*
X118199119Y-121363162D01*
X118199116Y-121363161D01*
X117989373Y-121325800D01*
X117989367Y-121325799D01*
X117984284Y-121324894D01*
X117910452Y-121323992D01*
X117766081Y-121322228D01*
X117766079Y-121322228D01*
X117760911Y-121322165D01*
X117540091Y-121355955D01*
X117327756Y-121425357D01*
X117129607Y-121528507D01*
X117125474Y-121531610D01*
X117125471Y-121531612D01*
X117051933Y-121586826D01*
X116950965Y-121662635D01*
X116947393Y-121666373D01*
X116833096Y-121785978D01*
X116796629Y-121824138D01*
X116670743Y-122008680D01*
X116655003Y-122042590D01*
X116602808Y-122155035D01*
X116576688Y-122211305D01*
X116516989Y-122426570D01*
X116493251Y-122648695D01*
X114136418Y-122648695D01*
X114120852Y-122459361D01*
X114066431Y-122242702D01*
X113977354Y-122037840D01*
X113937906Y-121976862D01*
X113858822Y-121854617D01*
X113858820Y-121854614D01*
X113856014Y-121850277D01*
X113705670Y-121685051D01*
X113701619Y-121681852D01*
X113701615Y-121681848D01*
X113534414Y-121549800D01*
X113534410Y-121549798D01*
X113530359Y-121546598D01*
X113334789Y-121438638D01*
X113329920Y-121436914D01*
X113329916Y-121436912D01*
X113129087Y-121365795D01*
X113129083Y-121365794D01*
X113124212Y-121364069D01*
X113119119Y-121363162D01*
X113119116Y-121363161D01*
X113005179Y-121342866D01*
X112941621Y-121311228D01*
X112905258Y-121250251D01*
X112907635Y-121179294D01*
X112938180Y-121129724D01*
X113636499Y-120431405D01*
X113698811Y-120397379D01*
X113725594Y-120394500D01*
X137485406Y-120394500D01*
X137553527Y-120414502D01*
X137600020Y-120468158D01*
X137610124Y-120538432D01*
X137580630Y-120603012D01*
X137574502Y-120609594D01*
X134970869Y-123213226D01*
X132383500Y-125800595D01*
X132321188Y-125834621D01*
X132294405Y-125837500D01*
X132238513Y-125837500D01*
X132232061Y-125838872D01*
X132232056Y-125838872D01*
X132145112Y-125857353D01*
X132051712Y-125877206D01*
X132045682Y-125879891D01*
X132045681Y-125879891D01*
X131979958Y-125909153D01*
X131909591Y-125918587D01*
X131845294Y-125888481D01*
X131807480Y-125828392D01*
X131808156Y-125757398D01*
X131815751Y-125738221D01*
X131820670Y-125728268D01*
X131824469Y-125718672D01*
X131886376Y-125514915D01*
X131888555Y-125504834D01*
X131916590Y-125291887D01*
X131917109Y-125285212D01*
X131918572Y-125225364D01*
X131918378Y-125218646D01*
X131900781Y-125004604D01*
X131899096Y-124994424D01*
X131847214Y-124787875D01*
X131843894Y-124778124D01*
X131758972Y-124582814D01*
X131754105Y-124573739D01*
X131689063Y-124473197D01*
X131678377Y-124463995D01*
X131668812Y-124468398D01*
X129802737Y-126334473D01*
X129795977Y-126346853D01*
X129801258Y-126353907D01*
X129847969Y-126381203D01*
X129896693Y-126432841D01*
X129909764Y-126502624D01*
X129883033Y-126568396D01*
X129842584Y-126601752D01*
X129829607Y-126608507D01*
X129825474Y-126611610D01*
X129825471Y-126611612D01*
X129655100Y-126739530D01*
X129650965Y-126742635D01*
X129496629Y-126904138D01*
X129493715Y-126908410D01*
X129493714Y-126908411D01*
X129452064Y-126969468D01*
X129370743Y-127088680D01*
X129326152Y-127184743D01*
X129324849Y-127187551D01*
X129278024Y-127240917D01*
X129210561Y-127260500D01*
X128862767Y-127260500D01*
X128851584Y-127259973D01*
X128844091Y-127258298D01*
X128836165Y-127258547D01*
X128836164Y-127258547D01*
X128776014Y-127260438D01*
X128772055Y-127260500D01*
X128744144Y-127260500D01*
X128740210Y-127260997D01*
X128740209Y-127260997D01*
X128740144Y-127261005D01*
X128728307Y-127261938D01*
X128696049Y-127262952D01*
X128692030Y-127263078D01*
X128684111Y-127263327D01*
X128664657Y-127268979D01*
X128645300Y-127272987D01*
X128633070Y-127274532D01*
X128633069Y-127274532D01*
X128625203Y-127275526D01*
X128617832Y-127278445D01*
X128617830Y-127278445D01*
X128584088Y-127291804D01*
X128572858Y-127295649D01*
X128538017Y-127305771D01*
X128538016Y-127305771D01*
X128530407Y-127307982D01*
X128523588Y-127312015D01*
X128523583Y-127312017D01*
X128512972Y-127318293D01*
X128495224Y-127326988D01*
X128476383Y-127334448D01*
X128469967Y-127339110D01*
X128469966Y-127339110D01*
X128440613Y-127360436D01*
X128430693Y-127366952D01*
X128399465Y-127385420D01*
X128399462Y-127385422D01*
X128392638Y-127389458D01*
X128378317Y-127403779D01*
X128363284Y-127416619D01*
X128346893Y-127428528D01*
X128338217Y-127439016D01*
X128318702Y-127462605D01*
X128310712Y-127471384D01*
X125214000Y-130568095D01*
X125151688Y-130602121D01*
X125124905Y-130605000D01*
X125069013Y-130605000D01*
X125062561Y-130606372D01*
X125062556Y-130606372D01*
X124975612Y-130624853D01*
X124882212Y-130644706D01*
X124876182Y-130647391D01*
X124876181Y-130647391D01*
X124713778Y-130719697D01*
X124713776Y-130719698D01*
X124707748Y-130722382D01*
X124553247Y-130834634D01*
X124548826Y-130839544D01*
X124548825Y-130839545D01*
X124431340Y-130970026D01*
X124425460Y-130976556D01*
X124386422Y-131044171D01*
X124338643Y-131126928D01*
X124329973Y-131141944D01*
X124270958Y-131323572D01*
X124270268Y-131330133D01*
X124270268Y-131330135D01*
X124257552Y-131451126D01*
X124250996Y-131513500D01*
X124251686Y-131520065D01*
X124267099Y-131666707D01*
X124270958Y-131703428D01*
X124329973Y-131885056D01*
X124333276Y-131890778D01*
X124333277Y-131890779D01*
X124365189Y-131946052D01*
X124425460Y-132050444D01*
X124429878Y-132055351D01*
X124429879Y-132055352D01*
X124522372Y-132158076D01*
X124553247Y-132192366D01*
X124581116Y-132212614D01*
X124692622Y-132293628D01*
X124707748Y-132304618D01*
X124713776Y-132307302D01*
X124713778Y-132307303D01*
X124831990Y-132359934D01*
X124882212Y-132382294D01*
X124975613Y-132402147D01*
X125062556Y-132420628D01*
X125062561Y-132420628D01*
X125069013Y-132422000D01*
X125259987Y-132422000D01*
X125266439Y-132420628D01*
X125266444Y-132420628D01*
X125353387Y-132402147D01*
X125446788Y-132382294D01*
X125497010Y-132359934D01*
X125615222Y-132307303D01*
X125615224Y-132307302D01*
X125621252Y-132304618D01*
X125634490Y-132295000D01*
X125770409Y-132196249D01*
X125770411Y-132196247D01*
X125775753Y-132192366D01*
X125779183Y-132188556D01*
X125842696Y-132158076D01*
X125913149Y-132166839D01*
X125946645Y-132188365D01*
X125950247Y-132192366D01*
X125955589Y-132196247D01*
X125955591Y-132196249D01*
X126091510Y-132295000D01*
X126104748Y-132304618D01*
X126110776Y-132307302D01*
X126110778Y-132307303D01*
X126228990Y-132359934D01*
X126279212Y-132382294D01*
X126372613Y-132402147D01*
X126459556Y-132420628D01*
X126459561Y-132420628D01*
X126466013Y-132422000D01*
X126656987Y-132422000D01*
X126663439Y-132420628D01*
X126663444Y-132420628D01*
X126750387Y-132402147D01*
X126843788Y-132382294D01*
X126894010Y-132359934D01*
X127012222Y-132307303D01*
X127012224Y-132307302D01*
X127018252Y-132304618D01*
X127033379Y-132293628D01*
X127144884Y-132212614D01*
X127172753Y-132192366D01*
X127203628Y-132158076D01*
X127296121Y-132055352D01*
X127296122Y-132055351D01*
X127300540Y-132050444D01*
X127360811Y-131946052D01*
X127392723Y-131890779D01*
X127392724Y-131890778D01*
X127396027Y-131885056D01*
X127455042Y-131703428D01*
X127458902Y-131666707D01*
X127472407Y-131538208D01*
X127499420Y-131472551D01*
X127508622Y-131462282D01*
X128252501Y-130718404D01*
X128314813Y-130684379D01*
X128341596Y-130681500D01*
X130059605Y-130681500D01*
X130127726Y-130701502D01*
X130174219Y-130755158D01*
X130184323Y-130825432D01*
X130179437Y-130846437D01*
X130178424Y-130849556D01*
X130172498Y-130867792D01*
X130172498Y-130867794D01*
X130170458Y-130874072D01*
X130169768Y-130880633D01*
X130169768Y-130880635D01*
X130154991Y-131021229D01*
X130150496Y-131064000D01*
X130151186Y-131070565D01*
X130165120Y-131203135D01*
X130170458Y-131253928D01*
X130229473Y-131435556D01*
X130232776Y-131441278D01*
X130232777Y-131441279D01*
X130238462Y-131451126D01*
X130324960Y-131600944D01*
X130329378Y-131605851D01*
X130329379Y-131605852D01*
X130411572Y-131697137D01*
X130452747Y-131742866D01*
X130535664Y-131803109D01*
X130596803Y-131847529D01*
X130607248Y-131855118D01*
X130613276Y-131857802D01*
X130613278Y-131857803D01*
X130771735Y-131928352D01*
X130781712Y-131932794D01*
X130844086Y-131946052D01*
X130962056Y-131971128D01*
X130962061Y-131971128D01*
X130968513Y-131972500D01*
X131159487Y-131972500D01*
X131165939Y-131971128D01*
X131165944Y-131971128D01*
X131283914Y-131946052D01*
X131346288Y-131932794D01*
X131356265Y-131928352D01*
X131514722Y-131857803D01*
X131514724Y-131857802D01*
X131520752Y-131855118D01*
X131531198Y-131847529D01*
X131592336Y-131803109D01*
X131675253Y-131742866D01*
X131716428Y-131697137D01*
X131798621Y-131605852D01*
X131798622Y-131605851D01*
X131803040Y-131600944D01*
X131889538Y-131451126D01*
X131895223Y-131441279D01*
X131895224Y-131441278D01*
X131898527Y-131435556D01*
X131944947Y-131292691D01*
X131955502Y-131260207D01*
X131955502Y-131260205D01*
X131957542Y-131253928D01*
X131961655Y-131214794D01*
X131988668Y-131149137D01*
X132046889Y-131108507D01*
X132086965Y-131101964D01*
X137087233Y-131101964D01*
X137098416Y-131102491D01*
X137105909Y-131104166D01*
X137113835Y-131103917D01*
X137113836Y-131103917D01*
X137173986Y-131102026D01*
X137177945Y-131101964D01*
X137205856Y-131101964D01*
X137209791Y-131101467D01*
X137209856Y-131101459D01*
X137221693Y-131100526D01*
X137253951Y-131099512D01*
X137257970Y-131099386D01*
X137265889Y-131099137D01*
X137285343Y-131093485D01*
X137304700Y-131089477D01*
X137316930Y-131087932D01*
X137316931Y-131087932D01*
X137324797Y-131086938D01*
X137332168Y-131084019D01*
X137332170Y-131084019D01*
X137365912Y-131070660D01*
X137377142Y-131066815D01*
X137411983Y-131056693D01*
X137411984Y-131056693D01*
X137419593Y-131054482D01*
X137426412Y-131050449D01*
X137426417Y-131050447D01*
X137437028Y-131044171D01*
X137454776Y-131035476D01*
X137473617Y-131028016D01*
X137502277Y-131007194D01*
X137509387Y-131002028D01*
X137519307Y-130995512D01*
X137550535Y-130977044D01*
X137550538Y-130977042D01*
X137557362Y-130973006D01*
X137571683Y-130958685D01*
X137586717Y-130945844D01*
X137596694Y-130938595D01*
X137603107Y-130933936D01*
X137631298Y-130899859D01*
X137639288Y-130891080D01*
X139676247Y-128854121D01*
X139684537Y-128846577D01*
X139691018Y-128842464D01*
X139737659Y-128792796D01*
X139740413Y-128789955D01*
X139760134Y-128770234D01*
X139762612Y-128767039D01*
X139770318Y-128758017D01*
X139787951Y-128739240D01*
X139800586Y-128725785D01*
X139810346Y-128708032D01*
X139821199Y-128691509D01*
X139828753Y-128681770D01*
X139833613Y-128675505D01*
X139851176Y-128634921D01*
X139856383Y-128624291D01*
X139877695Y-128585524D01*
X139879666Y-128577847D01*
X139879668Y-128577842D01*
X139882732Y-128565906D01*
X139889138Y-128547194D01*
X139890735Y-128543505D01*
X139897181Y-128528609D01*
X139898421Y-128520781D01*
X139898423Y-128520774D01*
X139904099Y-128484940D01*
X139906505Y-128473320D01*
X139915528Y-128438175D01*
X139915528Y-128438174D01*
X139917500Y-128430494D01*
X139917500Y-128410240D01*
X139919051Y-128390529D01*
X139920980Y-128378350D01*
X139922220Y-128370521D01*
X139918059Y-128326502D01*
X139917500Y-128314645D01*
X139917500Y-125193863D01*
X141894050Y-125193863D01*
X141906309Y-125406477D01*
X141907745Y-125416697D01*
X141954565Y-125624446D01*
X141957645Y-125634275D01*
X142037770Y-125831603D01*
X142042413Y-125840794D01*
X142122460Y-125971420D01*
X142132916Y-125980880D01*
X142141694Y-125977096D01*
X142883978Y-125234812D01*
X142890356Y-125223132D01*
X143620408Y-125223132D01*
X143620539Y-125224965D01*
X143624790Y-125231580D01*
X144366474Y-125973264D01*
X144378484Y-125979823D01*
X144390223Y-125970855D01*
X144421004Y-125928019D01*
X144426315Y-125919180D01*
X144520670Y-125728267D01*
X144524469Y-125718672D01*
X144586376Y-125514915D01*
X144588555Y-125504834D01*
X144616590Y-125291887D01*
X144617109Y-125285212D01*
X144618572Y-125225364D01*
X144618378Y-125218646D01*
X144600781Y-125004604D01*
X144599096Y-124994424D01*
X144547214Y-124787875D01*
X144543894Y-124778124D01*
X144458972Y-124582814D01*
X144454105Y-124573739D01*
X144389063Y-124473197D01*
X144378377Y-124463995D01*
X144368812Y-124468398D01*
X143628022Y-125209188D01*
X143620408Y-125223132D01*
X142890356Y-125223132D01*
X142891592Y-125220868D01*
X142891461Y-125219035D01*
X142887210Y-125212420D01*
X142145849Y-124471059D01*
X142134313Y-124464759D01*
X142122031Y-124474382D01*
X142074089Y-124544662D01*
X142069004Y-124553613D01*
X141979338Y-124746783D01*
X141975775Y-124756470D01*
X141918864Y-124961681D01*
X141916933Y-124971800D01*
X141894302Y-125183574D01*
X141894050Y-125193863D01*
X139917500Y-125193863D01*
X139917500Y-123994763D01*
X139918027Y-123983579D01*
X139919701Y-123976091D01*
X139917562Y-123908032D01*
X139917500Y-123904075D01*
X139917500Y-123876144D01*
X139916994Y-123872138D01*
X139916061Y-123860292D01*
X139916019Y-123858938D01*
X139914673Y-123816110D01*
X139909022Y-123796658D01*
X139905014Y-123777306D01*
X139903467Y-123765063D01*
X139902474Y-123757203D01*
X139899353Y-123749320D01*
X139886200Y-123716097D01*
X139882355Y-123704870D01*
X139880079Y-123697037D01*
X139870018Y-123662407D01*
X139865984Y-123655585D01*
X139865981Y-123655579D01*
X139859706Y-123644968D01*
X139851010Y-123627218D01*
X139846472Y-123615756D01*
X139846469Y-123615751D01*
X139843552Y-123608383D01*
X139829540Y-123589097D01*
X139817573Y-123572625D01*
X139811057Y-123562707D01*
X139792575Y-123531457D01*
X139788542Y-123524637D01*
X139774218Y-123510313D01*
X139761376Y-123495278D01*
X139749472Y-123478893D01*
X139715406Y-123450711D01*
X139706627Y-123442722D01*
X139497858Y-123233953D01*
X139463832Y-123171641D01*
X139466394Y-123108230D01*
X139506867Y-122975015D01*
X139508370Y-122970069D01*
X139537529Y-122748590D01*
X139537611Y-122745240D01*
X139539074Y-122685365D01*
X139539074Y-122685361D01*
X139539156Y-122682000D01*
X139520852Y-122459361D01*
X139466431Y-122242702D01*
X139377354Y-122037840D01*
X139337906Y-121976862D01*
X139258822Y-121854617D01*
X139258820Y-121854614D01*
X139256014Y-121850277D01*
X139105670Y-121685051D01*
X139101619Y-121681852D01*
X139101615Y-121681848D01*
X138934414Y-121549800D01*
X138934410Y-121549798D01*
X138930359Y-121546598D01*
X138754172Y-121449338D01*
X138704202Y-121398905D01*
X138689430Y-121329462D01*
X138714546Y-121263057D01*
X138725971Y-121249934D01*
X138782500Y-121193405D01*
X138844812Y-121159379D01*
X138871595Y-121156500D01*
X142759261Y-121156500D01*
X142827382Y-121176502D01*
X142873875Y-121230158D01*
X142883979Y-121300432D01*
X142854485Y-121365012D01*
X142798406Y-121402265D01*
X142727756Y-121425357D01*
X142529607Y-121528507D01*
X142525474Y-121531610D01*
X142525471Y-121531612D01*
X142451933Y-121586826D01*
X142350965Y-121662635D01*
X142347393Y-121666373D01*
X142233096Y-121785978D01*
X142196629Y-121824138D01*
X142070743Y-122008680D01*
X142055003Y-122042590D01*
X142002808Y-122155035D01*
X141976688Y-122211305D01*
X141916989Y-122426570D01*
X141893251Y-122648695D01*
X141893548Y-122653848D01*
X141893548Y-122653851D01*
X141899011Y-122748590D01*
X141906110Y-122871715D01*
X141907247Y-122876761D01*
X141907248Y-122876767D01*
X141914107Y-122907202D01*
X141955222Y-123089639D01*
X142039266Y-123296616D01*
X142066979Y-123341840D01*
X142149072Y-123475803D01*
X142155987Y-123487088D01*
X142302250Y-123655938D01*
X142474126Y-123798632D01*
X142546918Y-123841168D01*
X142547955Y-123841774D01*
X142596679Y-123893412D01*
X142609750Y-123963195D01*
X142583019Y-124028967D01*
X142542562Y-124062327D01*
X142534460Y-124066544D01*
X142525734Y-124072039D01*
X142505677Y-124087099D01*
X142497223Y-124098427D01*
X142503968Y-124110758D01*
X143243188Y-124849978D01*
X143257132Y-124857592D01*
X143258965Y-124857461D01*
X143265580Y-124853210D01*
X144009389Y-124109401D01*
X144016410Y-124096544D01*
X144009611Y-124087213D01*
X144005559Y-124084521D01*
X143968602Y-124064120D01*
X143918631Y-124013687D01*
X143903859Y-123944245D01*
X143928975Y-123877839D01*
X143956327Y-123851232D01*
X144016245Y-123808493D01*
X144135860Y-123723173D01*
X144162088Y-123697037D01*
X144243653Y-123615756D01*
X144294096Y-123565489D01*
X144303670Y-123552166D01*
X144418302Y-123392637D01*
X144424453Y-123384077D01*
X144430769Y-123371299D01*
X144521136Y-123188453D01*
X144521137Y-123188451D01*
X144523430Y-123183811D01*
X144588370Y-122970069D01*
X144617529Y-122748590D01*
X144617611Y-122745240D01*
X144619074Y-122685365D01*
X144619074Y-122685361D01*
X144619156Y-122682000D01*
X144600852Y-122459361D01*
X144546431Y-122242702D01*
X144457354Y-122037840D01*
X144417906Y-121976862D01*
X144338822Y-121854617D01*
X144338820Y-121854614D01*
X144336014Y-121850277D01*
X144185670Y-121685051D01*
X144181619Y-121681852D01*
X144181615Y-121681848D01*
X144014414Y-121549800D01*
X144014410Y-121549798D01*
X144010359Y-121546598D01*
X143814789Y-121438638D01*
X143784034Y-121427747D01*
X143709274Y-121401273D01*
X143651737Y-121359679D01*
X143625821Y-121293581D01*
X143639755Y-121223965D01*
X143689114Y-121172934D01*
X143751333Y-121156500D01*
X150379261Y-121156500D01*
X150447382Y-121176502D01*
X150493875Y-121230158D01*
X150503979Y-121300432D01*
X150474485Y-121365012D01*
X150418406Y-121402265D01*
X150347756Y-121425357D01*
X150149607Y-121528507D01*
X150145474Y-121531610D01*
X150145471Y-121531612D01*
X150071933Y-121586826D01*
X149970965Y-121662635D01*
X149967393Y-121666373D01*
X149853096Y-121785978D01*
X149816629Y-121824138D01*
X149690743Y-122008680D01*
X149675003Y-122042590D01*
X149622808Y-122155035D01*
X149596688Y-122211305D01*
X149536989Y-122426570D01*
X149513251Y-122648695D01*
X149513548Y-122653848D01*
X149513548Y-122653851D01*
X149519011Y-122748590D01*
X149526110Y-122871715D01*
X149527247Y-122876761D01*
X149527248Y-122876767D01*
X149561476Y-123028646D01*
X149556940Y-123099498D01*
X149527654Y-123145442D01*
X148610768Y-124062327D01*
X147695747Y-124977348D01*
X147687461Y-124984888D01*
X147680982Y-124989000D01*
X147675557Y-124994777D01*
X147634357Y-125038651D01*
X147631602Y-125041493D01*
X147611865Y-125061230D01*
X147609385Y-125064427D01*
X147601682Y-125073447D01*
X147571414Y-125105679D01*
X147567595Y-125112625D01*
X147567593Y-125112628D01*
X147561652Y-125123434D01*
X147550801Y-125139953D01*
X147538386Y-125155959D01*
X147535241Y-125163228D01*
X147535238Y-125163232D01*
X147520826Y-125196537D01*
X147515609Y-125207187D01*
X147494305Y-125245940D01*
X147492334Y-125253615D01*
X147492334Y-125253616D01*
X147489267Y-125265562D01*
X147482863Y-125284266D01*
X147474819Y-125302855D01*
X147473580Y-125310678D01*
X147473577Y-125310688D01*
X147467901Y-125346524D01*
X147465495Y-125358144D01*
X147459726Y-125380616D01*
X147454500Y-125400970D01*
X147454500Y-125421224D01*
X147452949Y-125440934D01*
X147449780Y-125460943D01*
X147450526Y-125468835D01*
X147453941Y-125504961D01*
X147454500Y-125516819D01*
X147454500Y-129363406D01*
X147434498Y-129431527D01*
X147380842Y-129478020D01*
X147310568Y-129488124D01*
X147245988Y-129458630D01*
X147239405Y-129452501D01*
X146301127Y-128514222D01*
X145161652Y-127374747D01*
X145154112Y-127366461D01*
X145150000Y-127359982D01*
X145100348Y-127313356D01*
X145097507Y-127310602D01*
X145077770Y-127290865D01*
X145074573Y-127288385D01*
X145065551Y-127280680D01*
X145033321Y-127250414D01*
X145026375Y-127246595D01*
X145026372Y-127246593D01*
X145015566Y-127240652D01*
X144999047Y-127229801D01*
X144997287Y-127228436D01*
X144983041Y-127217386D01*
X144975772Y-127214241D01*
X144975768Y-127214238D01*
X144942463Y-127199826D01*
X144931813Y-127194609D01*
X144893060Y-127173305D01*
X144873437Y-127168267D01*
X144854734Y-127161863D01*
X144843420Y-127156967D01*
X144843419Y-127156967D01*
X144836145Y-127153819D01*
X144828322Y-127152580D01*
X144828312Y-127152577D01*
X144792476Y-127146901D01*
X144780856Y-127144495D01*
X144745711Y-127135472D01*
X144745710Y-127135472D01*
X144738030Y-127133500D01*
X144717776Y-127133500D01*
X144698065Y-127131949D01*
X144685886Y-127130020D01*
X144678057Y-127128780D01*
X144670165Y-127129526D01*
X144634039Y-127132941D01*
X144622181Y-127133500D01*
X144536040Y-127133500D01*
X144467919Y-127113498D01*
X144430248Y-127075940D01*
X144338822Y-126934617D01*
X144338820Y-126934614D01*
X144336014Y-126930277D01*
X144185670Y-126765051D01*
X144181616Y-126761849D01*
X144181615Y-126761848D01*
X144014414Y-126629800D01*
X144014410Y-126629798D01*
X144010359Y-126626598D01*
X143968569Y-126603529D01*
X143918598Y-126553097D01*
X143903826Y-126483654D01*
X143928942Y-126417248D01*
X143956293Y-126390642D01*
X144005247Y-126355723D01*
X144013648Y-126345023D01*
X144006660Y-126331870D01*
X143268812Y-125594022D01*
X143254868Y-125586408D01*
X143253035Y-125586539D01*
X143246420Y-125590790D01*
X142502737Y-126334473D01*
X142495977Y-126346853D01*
X142501258Y-126353907D01*
X142547969Y-126381203D01*
X142596693Y-126432841D01*
X142609764Y-126502624D01*
X142583033Y-126568396D01*
X142542584Y-126601752D01*
X142529607Y-126608507D01*
X142525474Y-126611610D01*
X142525471Y-126611612D01*
X142355100Y-126739530D01*
X142350965Y-126742635D01*
X142196629Y-126904138D01*
X142193715Y-126908410D01*
X142193714Y-126908411D01*
X142152064Y-126969468D01*
X142070743Y-127088680D01*
X142032011Y-127172121D01*
X141982290Y-127279237D01*
X141976688Y-127291305D01*
X141916989Y-127506570D01*
X141893251Y-127728695D01*
X141893548Y-127733848D01*
X141893548Y-127733851D01*
X141903519Y-127906782D01*
X141906110Y-127951715D01*
X141907247Y-127956761D01*
X141907248Y-127956767D01*
X141927026Y-128044525D01*
X141955222Y-128169639D01*
X141993461Y-128263811D01*
X142033587Y-128362629D01*
X142039266Y-128376616D01*
X142078623Y-128440841D01*
X142153291Y-128562688D01*
X142155987Y-128567088D01*
X142302250Y-128735938D01*
X142426353Y-128838970D01*
X142461284Y-128867970D01*
X142474126Y-128878632D01*
X142667000Y-128991338D01*
X142671825Y-128993180D01*
X142671826Y-128993181D01*
X142708585Y-129007218D01*
X142875692Y-129071030D01*
X142880760Y-129072061D01*
X142880763Y-129072062D01*
X142984267Y-129093120D01*
X143094597Y-129115567D01*
X143099772Y-129115757D01*
X143099774Y-129115757D01*
X143312673Y-129123564D01*
X143312677Y-129123564D01*
X143317837Y-129123753D01*
X143322957Y-129123097D01*
X143322959Y-129123097D01*
X143534288Y-129096025D01*
X143534289Y-129096025D01*
X143539416Y-129095368D01*
X143546909Y-129093120D01*
X143748429Y-129032661D01*
X143748434Y-129032659D01*
X143753384Y-129031174D01*
X143953994Y-128932896D01*
X144135860Y-128803173D01*
X144146273Y-128792797D01*
X144234691Y-128704687D01*
X144294096Y-128645489D01*
X144297112Y-128641292D01*
X144297119Y-128641284D01*
X144352426Y-128564316D01*
X144408420Y-128520668D01*
X144479124Y-128514222D01*
X144543843Y-128548747D01*
X145606501Y-129611406D01*
X146655595Y-130660500D01*
X146689621Y-130722812D01*
X146692500Y-130749595D01*
X146692500Y-134415446D01*
X146672498Y-134483567D01*
X146617749Y-134530553D01*
X146488278Y-134588197D01*
X146488276Y-134588198D01*
X146482248Y-134590882D01*
X146327747Y-134703134D01*
X146323326Y-134708044D01*
X146323325Y-134708045D01*
X146214817Y-134828556D01*
X146199960Y-134845056D01*
X146196659Y-134850774D01*
X146110371Y-135000229D01*
X146104473Y-135010444D01*
X146045458Y-135192072D01*
X146025496Y-135382000D01*
X146026186Y-135388565D01*
X146044384Y-135561706D01*
X146045458Y-135571928D01*
X146104473Y-135753556D01*
X146107776Y-135759278D01*
X146107777Y-135759279D01*
X146141686Y-135818010D01*
X146199960Y-135918944D01*
X146204378Y-135923851D01*
X146204379Y-135923852D01*
X146323325Y-136055955D01*
X146327747Y-136060866D01*
X146405512Y-136117366D01*
X146476835Y-136169185D01*
X146482248Y-136173118D01*
X146488276Y-136175802D01*
X146488278Y-136175803D01*
X146650681Y-136248109D01*
X146656712Y-136250794D01*
X146750112Y-136270647D01*
X146837056Y-136289128D01*
X146837061Y-136289128D01*
X146843513Y-136290500D01*
X147034487Y-136290500D01*
X147040939Y-136289128D01*
X147040944Y-136289128D01*
X147127888Y-136270647D01*
X147221288Y-136250794D01*
X147227319Y-136248109D01*
X147389722Y-136175803D01*
X147389724Y-136175802D01*
X147395752Y-136173118D01*
X147401094Y-136169237D01*
X147450794Y-136133128D01*
X147517662Y-136109269D01*
X147586814Y-136125350D01*
X147598915Y-136133127D01*
X147625907Y-136152738D01*
X147625910Y-136152740D01*
X147631248Y-136156618D01*
X147637276Y-136159302D01*
X147637278Y-136159303D01*
X147799681Y-136231609D01*
X147805712Y-136234294D01*
X147883338Y-136250794D01*
X147986056Y-136272628D01*
X147986061Y-136272628D01*
X147992513Y-136274000D01*
X148183487Y-136274000D01*
X148189939Y-136272628D01*
X148189944Y-136272628D01*
X148292662Y-136250794D01*
X148370288Y-136234294D01*
X148376319Y-136231609D01*
X148538722Y-136159303D01*
X148538724Y-136159302D01*
X148544752Y-136156618D01*
X148577085Y-136133127D01*
X148618099Y-136103328D01*
X148699253Y-136044366D01*
X148721596Y-136019552D01*
X148822621Y-135907352D01*
X148822622Y-135907351D01*
X148827040Y-135902444D01*
X148913001Y-135753556D01*
X148919223Y-135742779D01*
X148919224Y-135742778D01*
X148922527Y-135737056D01*
X148981542Y-135555428D01*
X148990616Y-135469099D01*
X149000814Y-135372065D01*
X149001504Y-135365500D01*
X148983276Y-135192072D01*
X148982232Y-135182135D01*
X148982232Y-135182133D01*
X148981542Y-135175572D01*
X148922527Y-134993944D01*
X148827040Y-134828556D01*
X148753863Y-134747285D01*
X148723147Y-134683279D01*
X148721500Y-134662976D01*
X148721500Y-127728695D01*
X149513251Y-127728695D01*
X149513548Y-127733848D01*
X149513548Y-127733851D01*
X149523519Y-127906782D01*
X149526110Y-127951715D01*
X149527247Y-127956761D01*
X149527248Y-127956767D01*
X149547026Y-128044525D01*
X149575222Y-128169639D01*
X149613461Y-128263811D01*
X149653587Y-128362629D01*
X149659266Y-128376616D01*
X149698623Y-128440841D01*
X149773291Y-128562688D01*
X149775987Y-128567088D01*
X149922250Y-128735938D01*
X150046353Y-128838970D01*
X150081284Y-128867970D01*
X150094126Y-128878632D01*
X150287000Y-128991338D01*
X150291825Y-128993180D01*
X150291826Y-128993181D01*
X150328585Y-129007218D01*
X150495692Y-129071030D01*
X150500760Y-129072061D01*
X150500763Y-129072062D01*
X150604267Y-129093120D01*
X150714597Y-129115567D01*
X150719772Y-129115757D01*
X150719774Y-129115757D01*
X150932673Y-129123564D01*
X150932677Y-129123564D01*
X150937837Y-129123753D01*
X150942957Y-129123097D01*
X150942959Y-129123097D01*
X151154288Y-129096025D01*
X151154289Y-129096025D01*
X151159416Y-129095368D01*
X151166909Y-129093120D01*
X151368429Y-129032661D01*
X151368434Y-129032659D01*
X151373384Y-129031174D01*
X151573994Y-128932896D01*
X151755860Y-128803173D01*
X151766273Y-128792797D01*
X151854691Y-128704687D01*
X151914096Y-128645489D01*
X151924975Y-128630350D01*
X152041435Y-128468277D01*
X152044453Y-128464077D01*
X152048611Y-128455665D01*
X152141136Y-128268453D01*
X152141137Y-128268451D01*
X152143430Y-128263811D01*
X152208370Y-128050069D01*
X152237529Y-127828590D01*
X152238752Y-127778526D01*
X152239074Y-127765365D01*
X152239074Y-127765361D01*
X152239156Y-127762000D01*
X152220852Y-127539361D01*
X152166431Y-127322702D01*
X152077354Y-127117840D01*
X152016799Y-127024236D01*
X151958822Y-126934617D01*
X151958820Y-126934614D01*
X151956014Y-126930277D01*
X151805670Y-126765051D01*
X151801616Y-126761849D01*
X151801615Y-126761848D01*
X151634414Y-126629800D01*
X151634410Y-126629798D01*
X151630359Y-126626598D01*
X151588569Y-126603529D01*
X151538598Y-126553097D01*
X151523826Y-126483654D01*
X151548942Y-126417248D01*
X151576293Y-126390642D01*
X151625247Y-126355723D01*
X151633648Y-126345023D01*
X151626660Y-126331870D01*
X150888812Y-125594022D01*
X150874868Y-125586408D01*
X150873035Y-125586539D01*
X150866420Y-125590790D01*
X150122737Y-126334473D01*
X150115977Y-126346853D01*
X150121258Y-126353907D01*
X150167969Y-126381203D01*
X150216693Y-126432841D01*
X150229764Y-126502624D01*
X150203033Y-126568396D01*
X150162584Y-126601752D01*
X150149607Y-126608507D01*
X150145474Y-126611610D01*
X150145471Y-126611612D01*
X149975100Y-126739530D01*
X149970965Y-126742635D01*
X149816629Y-126904138D01*
X149813715Y-126908410D01*
X149813714Y-126908411D01*
X149772064Y-126969468D01*
X149690743Y-127088680D01*
X149652011Y-127172121D01*
X149602290Y-127279237D01*
X149596688Y-127291305D01*
X149536989Y-127506570D01*
X149513251Y-127728695D01*
X148721500Y-127728695D01*
X148721500Y-125795594D01*
X148741502Y-125727473D01*
X148758405Y-125706499D01*
X149302093Y-125162811D01*
X149364405Y-125128785D01*
X149435220Y-125133850D01*
X149492056Y-125176397D01*
X149516979Y-125244653D01*
X149526309Y-125406477D01*
X149527745Y-125416697D01*
X149574565Y-125624446D01*
X149577645Y-125634275D01*
X149657770Y-125831603D01*
X149662413Y-125840794D01*
X149742460Y-125971420D01*
X149752916Y-125980880D01*
X149761694Y-125977096D01*
X150515658Y-125223132D01*
X151240408Y-125223132D01*
X151240539Y-125224965D01*
X151244790Y-125231580D01*
X151986474Y-125973264D01*
X151998484Y-125979823D01*
X152010223Y-125970855D01*
X152041004Y-125928019D01*
X152046315Y-125919180D01*
X152140670Y-125728267D01*
X152144469Y-125718672D01*
X152206376Y-125514915D01*
X152208555Y-125504834D01*
X152236590Y-125291887D01*
X152237109Y-125285212D01*
X152238572Y-125225364D01*
X152238378Y-125218646D01*
X152236341Y-125193863D01*
X154594050Y-125193863D01*
X154606309Y-125406477D01*
X154607745Y-125416697D01*
X154654565Y-125624446D01*
X154657645Y-125634275D01*
X154737770Y-125831603D01*
X154742413Y-125840794D01*
X154822460Y-125971420D01*
X154832916Y-125980880D01*
X154841694Y-125977096D01*
X155583978Y-125234812D01*
X155590356Y-125223132D01*
X156320408Y-125223132D01*
X156320539Y-125224965D01*
X156324790Y-125231580D01*
X157066474Y-125973264D01*
X157078484Y-125979823D01*
X157090223Y-125970855D01*
X157121004Y-125928019D01*
X157126315Y-125919180D01*
X157220670Y-125728267D01*
X157224469Y-125718672D01*
X157286376Y-125514915D01*
X157288555Y-125504834D01*
X157316590Y-125291887D01*
X157317109Y-125285212D01*
X157318572Y-125225364D01*
X157318378Y-125218646D01*
X157316341Y-125193863D01*
X162214050Y-125193863D01*
X162226309Y-125406477D01*
X162227745Y-125416697D01*
X162274565Y-125624446D01*
X162277645Y-125634275D01*
X162357770Y-125831603D01*
X162362413Y-125840794D01*
X162442460Y-125971420D01*
X162452916Y-125980880D01*
X162461694Y-125977096D01*
X163203978Y-125234812D01*
X163211592Y-125220868D01*
X163211461Y-125219035D01*
X163207210Y-125212420D01*
X162465849Y-124471059D01*
X162454313Y-124464759D01*
X162442031Y-124474382D01*
X162394089Y-124544662D01*
X162389004Y-124553613D01*
X162299338Y-124746783D01*
X162295775Y-124756470D01*
X162238864Y-124961681D01*
X162236933Y-124971800D01*
X162214302Y-125183574D01*
X162214050Y-125193863D01*
X157316341Y-125193863D01*
X157300781Y-125004604D01*
X157299096Y-124994424D01*
X157247214Y-124787875D01*
X157243894Y-124778124D01*
X157158972Y-124582814D01*
X157154105Y-124573739D01*
X157089063Y-124473197D01*
X157078377Y-124463995D01*
X157068812Y-124468398D01*
X156328022Y-125209188D01*
X156320408Y-125223132D01*
X155590356Y-125223132D01*
X155591592Y-125220868D01*
X155591461Y-125219035D01*
X155587210Y-125212420D01*
X154845849Y-124471059D01*
X154834313Y-124464759D01*
X154822031Y-124474382D01*
X154774089Y-124544662D01*
X154769004Y-124553613D01*
X154679338Y-124746783D01*
X154675775Y-124756470D01*
X154618864Y-124961681D01*
X154616933Y-124971800D01*
X154594302Y-125183574D01*
X154594050Y-125193863D01*
X152236341Y-125193863D01*
X152220781Y-125004604D01*
X152219096Y-124994424D01*
X152167214Y-124787875D01*
X152163894Y-124778124D01*
X152078972Y-124582814D01*
X152074105Y-124573739D01*
X152009063Y-124473197D01*
X151998377Y-124463995D01*
X151988812Y-124468398D01*
X151248022Y-125209188D01*
X151240408Y-125223132D01*
X150515658Y-125223132D01*
X151629389Y-124109401D01*
X151636410Y-124096544D01*
X151629611Y-124087213D01*
X151625559Y-124084521D01*
X151588602Y-124064120D01*
X151538631Y-124013687D01*
X151523859Y-123944245D01*
X151548975Y-123877839D01*
X151576327Y-123851232D01*
X151636245Y-123808493D01*
X151755860Y-123723173D01*
X151782088Y-123697037D01*
X151863653Y-123615756D01*
X151914096Y-123565489D01*
X151923670Y-123552166D01*
X152038302Y-123392637D01*
X152044453Y-123384077D01*
X152050769Y-123371299D01*
X152141136Y-123188453D01*
X152141137Y-123188451D01*
X152143430Y-123183811D01*
X152208370Y-122970069D01*
X152237529Y-122748590D01*
X152237611Y-122745240D01*
X152239074Y-122685365D01*
X152239074Y-122685361D01*
X152239156Y-122682000D01*
X152220852Y-122459361D01*
X152166431Y-122242702D01*
X152077354Y-122037840D01*
X152037906Y-121976862D01*
X151958822Y-121854617D01*
X151958820Y-121854614D01*
X151956014Y-121850277D01*
X151805670Y-121685051D01*
X151801619Y-121681852D01*
X151801615Y-121681848D01*
X151634414Y-121549800D01*
X151634410Y-121549798D01*
X151630359Y-121546598D01*
X151434789Y-121438638D01*
X151404034Y-121427747D01*
X151329274Y-121401273D01*
X151271737Y-121359679D01*
X151245821Y-121293581D01*
X151259755Y-121223965D01*
X151309114Y-121172934D01*
X151371333Y-121156500D01*
X155459261Y-121156500D01*
X155527382Y-121176502D01*
X155573875Y-121230158D01*
X155583979Y-121300432D01*
X155554485Y-121365012D01*
X155498406Y-121402265D01*
X155427756Y-121425357D01*
X155229607Y-121528507D01*
X155225474Y-121531610D01*
X155225471Y-121531612D01*
X155151933Y-121586826D01*
X155050965Y-121662635D01*
X155047393Y-121666373D01*
X154933096Y-121785978D01*
X154896629Y-121824138D01*
X154770743Y-122008680D01*
X154755003Y-122042590D01*
X154702808Y-122155035D01*
X154676688Y-122211305D01*
X154616989Y-122426570D01*
X154593251Y-122648695D01*
X154593548Y-122653848D01*
X154593548Y-122653851D01*
X154599011Y-122748590D01*
X154606110Y-122871715D01*
X154607247Y-122876761D01*
X154607248Y-122876767D01*
X154614107Y-122907202D01*
X154655222Y-123089639D01*
X154739266Y-123296616D01*
X154766979Y-123341840D01*
X154849072Y-123475803D01*
X154855987Y-123487088D01*
X155002250Y-123655938D01*
X155174126Y-123798632D01*
X155246918Y-123841168D01*
X155247955Y-123841774D01*
X155296679Y-123893412D01*
X155309750Y-123963195D01*
X155283019Y-124028967D01*
X155242562Y-124062327D01*
X155234460Y-124066544D01*
X155225734Y-124072039D01*
X155205677Y-124087099D01*
X155197223Y-124098427D01*
X155203968Y-124110758D01*
X155943188Y-124849978D01*
X155957132Y-124857592D01*
X155958965Y-124857461D01*
X155965580Y-124853210D01*
X156709389Y-124109401D01*
X156716410Y-124096544D01*
X156709611Y-124087213D01*
X156705559Y-124084521D01*
X156668602Y-124064120D01*
X156618631Y-124013687D01*
X156603859Y-123944245D01*
X156628975Y-123877839D01*
X156656327Y-123851232D01*
X156716245Y-123808493D01*
X156835860Y-123723173D01*
X156862088Y-123697037D01*
X156943653Y-123615756D01*
X156994096Y-123565489D01*
X157003670Y-123552166D01*
X157118302Y-123392637D01*
X157124453Y-123384077D01*
X157130769Y-123371299D01*
X157221136Y-123188453D01*
X157221137Y-123188451D01*
X157223430Y-123183811D01*
X157288370Y-122970069D01*
X157317529Y-122748590D01*
X157317611Y-122745240D01*
X157319074Y-122685365D01*
X157319074Y-122685361D01*
X157319156Y-122682000D01*
X157300852Y-122459361D01*
X157246431Y-122242702D01*
X157157354Y-122037840D01*
X157117906Y-121976862D01*
X157038822Y-121854617D01*
X157038820Y-121854614D01*
X157036014Y-121850277D01*
X156885670Y-121685051D01*
X156881619Y-121681852D01*
X156881615Y-121681848D01*
X156714414Y-121549800D01*
X156714410Y-121549798D01*
X156710359Y-121546598D01*
X156514789Y-121438638D01*
X156484034Y-121427747D01*
X156409274Y-121401273D01*
X156351737Y-121359679D01*
X156325821Y-121293581D01*
X156339755Y-121223965D01*
X156389114Y-121172934D01*
X156451333Y-121156500D01*
X163079261Y-121156500D01*
X163147382Y-121176502D01*
X163193875Y-121230158D01*
X163203979Y-121300432D01*
X163174485Y-121365012D01*
X163118406Y-121402265D01*
X163047756Y-121425357D01*
X162849607Y-121528507D01*
X162845474Y-121531610D01*
X162845471Y-121531612D01*
X162771933Y-121586826D01*
X162670965Y-121662635D01*
X162667393Y-121666373D01*
X162553096Y-121785978D01*
X162516629Y-121824138D01*
X162390743Y-122008680D01*
X162375003Y-122042590D01*
X162322808Y-122155035D01*
X162296688Y-122211305D01*
X162236989Y-122426570D01*
X162213251Y-122648695D01*
X162213548Y-122653848D01*
X162213548Y-122653851D01*
X162219011Y-122748590D01*
X162226110Y-122871715D01*
X162227247Y-122876761D01*
X162227248Y-122876767D01*
X162234107Y-122907202D01*
X162275222Y-123089639D01*
X162359266Y-123296616D01*
X162386979Y-123341840D01*
X162469072Y-123475803D01*
X162475987Y-123487088D01*
X162622250Y-123655938D01*
X162794126Y-123798632D01*
X162866918Y-123841168D01*
X162867955Y-123841774D01*
X162916679Y-123893412D01*
X162929750Y-123963195D01*
X162903019Y-124028967D01*
X162862562Y-124062327D01*
X162854460Y-124066544D01*
X162845734Y-124072039D01*
X162825677Y-124087099D01*
X162817223Y-124098427D01*
X162823968Y-124110758D01*
X163846115Y-125132905D01*
X163880141Y-125195217D01*
X163875076Y-125266032D01*
X163846115Y-125311095D01*
X162822737Y-126334473D01*
X162815977Y-126346853D01*
X162821258Y-126353907D01*
X162867969Y-126381203D01*
X162916693Y-126432841D01*
X162929764Y-126502624D01*
X162903033Y-126568396D01*
X162862584Y-126601752D01*
X162849607Y-126608507D01*
X162845474Y-126611610D01*
X162845471Y-126611612D01*
X162675100Y-126739530D01*
X162670965Y-126742635D01*
X162516629Y-126904138D01*
X162513715Y-126908410D01*
X162513714Y-126908411D01*
X162472064Y-126969468D01*
X162390743Y-127088680D01*
X162352011Y-127172121D01*
X162302290Y-127279237D01*
X162296688Y-127291305D01*
X162236989Y-127506570D01*
X162236440Y-127511707D01*
X162221566Y-127650889D01*
X162194438Y-127716499D01*
X162136146Y-127757027D01*
X162096279Y-127763500D01*
X158193767Y-127763500D01*
X158182584Y-127762973D01*
X158175091Y-127761298D01*
X158167165Y-127761547D01*
X158167164Y-127761547D01*
X158107014Y-127763438D01*
X158103055Y-127763500D01*
X158075144Y-127763500D01*
X158071210Y-127763997D01*
X158071209Y-127763997D01*
X158071144Y-127764005D01*
X158059307Y-127764938D01*
X158027490Y-127765938D01*
X158023029Y-127766078D01*
X158015110Y-127766327D01*
X158003954Y-127769568D01*
X157995658Y-127771978D01*
X157976306Y-127775986D01*
X157969235Y-127776880D01*
X157956203Y-127778526D01*
X157948834Y-127781443D01*
X157948832Y-127781444D01*
X157915097Y-127794800D01*
X157903869Y-127798645D01*
X157861407Y-127810982D01*
X157854585Y-127815016D01*
X157854579Y-127815019D01*
X157843968Y-127821294D01*
X157826218Y-127829990D01*
X157814756Y-127834528D01*
X157814751Y-127834531D01*
X157807383Y-127837448D01*
X157800968Y-127842109D01*
X157771625Y-127863427D01*
X157761707Y-127869943D01*
X157749254Y-127877308D01*
X157723637Y-127892458D01*
X157709313Y-127906782D01*
X157694281Y-127919621D01*
X157677893Y-127931528D01*
X157649712Y-127965593D01*
X157641722Y-127974373D01*
X157508740Y-128107355D01*
X157446428Y-128141381D01*
X157375613Y-128136316D01*
X157318777Y-128093769D01*
X157293966Y-128027249D01*
X157294723Y-128001813D01*
X157298890Y-127970167D01*
X157317529Y-127828590D01*
X157318752Y-127778526D01*
X157319074Y-127765365D01*
X157319074Y-127765361D01*
X157319156Y-127762000D01*
X157300852Y-127539361D01*
X157246431Y-127322702D01*
X157157354Y-127117840D01*
X157096799Y-127024236D01*
X157038822Y-126934617D01*
X157038820Y-126934614D01*
X157036014Y-126930277D01*
X156885670Y-126765051D01*
X156881616Y-126761849D01*
X156881615Y-126761848D01*
X156714414Y-126629800D01*
X156714410Y-126629798D01*
X156710359Y-126626598D01*
X156668569Y-126603529D01*
X156618598Y-126553097D01*
X156603826Y-126483654D01*
X156628942Y-126417248D01*
X156656293Y-126390642D01*
X156705247Y-126355723D01*
X156713648Y-126345023D01*
X156706660Y-126331870D01*
X155968812Y-125594022D01*
X155954868Y-125586408D01*
X155953035Y-125586539D01*
X155946420Y-125590790D01*
X155202737Y-126334473D01*
X155195977Y-126346853D01*
X155201258Y-126353907D01*
X155247969Y-126381203D01*
X155296693Y-126432841D01*
X155309764Y-126502624D01*
X155283033Y-126568396D01*
X155242584Y-126601752D01*
X155229607Y-126608507D01*
X155225474Y-126611610D01*
X155225471Y-126611612D01*
X155055100Y-126739530D01*
X155050965Y-126742635D01*
X154896629Y-126904138D01*
X154893715Y-126908410D01*
X154893714Y-126908411D01*
X154852064Y-126969468D01*
X154770743Y-127088680D01*
X154732011Y-127172121D01*
X154682290Y-127279237D01*
X154676688Y-127291305D01*
X154616989Y-127506570D01*
X154593251Y-127728695D01*
X154593548Y-127733848D01*
X154593548Y-127733851D01*
X154603519Y-127906782D01*
X154606110Y-127951715D01*
X154607247Y-127956761D01*
X154607248Y-127956767D01*
X154627026Y-128044525D01*
X154655222Y-128169639D01*
X154693461Y-128263811D01*
X154733587Y-128362629D01*
X154739266Y-128376616D01*
X154778623Y-128440841D01*
X154853291Y-128562688D01*
X154855987Y-128567088D01*
X155002250Y-128735938D01*
X155126353Y-128838970D01*
X155161284Y-128867970D01*
X155174126Y-128878632D01*
X155178583Y-128881236D01*
X155178588Y-128881240D01*
X155266070Y-128932360D01*
X155314794Y-128983998D01*
X155328500Y-129041148D01*
X155328500Y-129219405D01*
X155308498Y-129287526D01*
X155291595Y-129308500D01*
X154587500Y-130012595D01*
X154525188Y-130046621D01*
X154498405Y-130049500D01*
X151346767Y-130049500D01*
X151335584Y-130048973D01*
X151328091Y-130047298D01*
X151320165Y-130047547D01*
X151320164Y-130047547D01*
X151260014Y-130049438D01*
X151256055Y-130049500D01*
X151228144Y-130049500D01*
X151224210Y-130049997D01*
X151224209Y-130049997D01*
X151224144Y-130050005D01*
X151212307Y-130050938D01*
X151180490Y-130051938D01*
X151176029Y-130052078D01*
X151168110Y-130052327D01*
X151150454Y-130057456D01*
X151148658Y-130057978D01*
X151129306Y-130061986D01*
X151122235Y-130062880D01*
X151109203Y-130064526D01*
X151101834Y-130067443D01*
X151101832Y-130067444D01*
X151068097Y-130080800D01*
X151056869Y-130084645D01*
X151014407Y-130096982D01*
X151007585Y-130101016D01*
X151007579Y-130101019D01*
X150996968Y-130107294D01*
X150979218Y-130115990D01*
X150967756Y-130120528D01*
X150967751Y-130120531D01*
X150960383Y-130123448D01*
X150953968Y-130128109D01*
X150924625Y-130149427D01*
X150914707Y-130155943D01*
X150897973Y-130165840D01*
X150876637Y-130178458D01*
X150862313Y-130192782D01*
X150847281Y-130205621D01*
X150830893Y-130217528D01*
X150802712Y-130251593D01*
X150794722Y-130260373D01*
X150614000Y-130441095D01*
X150551688Y-130475121D01*
X150524905Y-130478000D01*
X150469013Y-130478000D01*
X150462561Y-130479372D01*
X150462556Y-130479372D01*
X150375613Y-130497853D01*
X150282212Y-130517706D01*
X150276182Y-130520391D01*
X150276181Y-130520391D01*
X150113778Y-130592697D01*
X150113776Y-130592698D01*
X150107748Y-130595382D01*
X150102407Y-130599262D01*
X150102406Y-130599263D01*
X150083546Y-130612966D01*
X149953247Y-130707634D01*
X149948826Y-130712544D01*
X149948825Y-130712545D01*
X149838211Y-130835395D01*
X149825460Y-130849556D01*
X149787948Y-130914529D01*
X149739446Y-130998537D01*
X149729973Y-131014944D01*
X149670958Y-131196572D01*
X149670268Y-131203133D01*
X149670268Y-131203135D01*
X149664270Y-131260206D01*
X149650996Y-131386500D01*
X149651686Y-131393065D01*
X149669743Y-131564865D01*
X149670958Y-131576428D01*
X149729973Y-131758056D01*
X149825460Y-131923444D01*
X149829878Y-131928351D01*
X149829879Y-131928352D01*
X149911952Y-132019503D01*
X149953247Y-132065366D01*
X150027109Y-132119030D01*
X150099676Y-132171753D01*
X150107748Y-132177618D01*
X150113776Y-132180302D01*
X150113778Y-132180303D01*
X150274063Y-132251666D01*
X150282212Y-132255294D01*
X150375612Y-132275147D01*
X150462556Y-132293628D01*
X150462561Y-132293628D01*
X150469013Y-132295000D01*
X150659987Y-132295000D01*
X150666439Y-132293628D01*
X150666444Y-132293628D01*
X150753388Y-132275147D01*
X150846788Y-132255294D01*
X150854937Y-132251666D01*
X151015222Y-132180303D01*
X151015224Y-132180302D01*
X151021252Y-132177618D01*
X151028134Y-132172618D01*
X151170409Y-132069249D01*
X151170411Y-132069247D01*
X151175753Y-132065366D01*
X151179183Y-132061556D01*
X151242696Y-132031076D01*
X151313149Y-132039839D01*
X151346645Y-132061365D01*
X151350247Y-132065366D01*
X151355589Y-132069247D01*
X151355591Y-132069249D01*
X151497866Y-132172618D01*
X151504748Y-132177618D01*
X151510776Y-132180302D01*
X151510778Y-132180303D01*
X151671063Y-132251666D01*
X151679212Y-132255294D01*
X151772612Y-132275147D01*
X151859556Y-132293628D01*
X151859561Y-132293628D01*
X151866013Y-132295000D01*
X152056987Y-132295000D01*
X152063439Y-132293628D01*
X152063444Y-132293628D01*
X152150388Y-132275147D01*
X152243788Y-132255294D01*
X152251937Y-132251666D01*
X152412222Y-132180303D01*
X152412224Y-132180302D01*
X152418252Y-132177618D01*
X152426325Y-132171753D01*
X152556885Y-132076895D01*
X152572753Y-132065366D01*
X152577168Y-132060463D01*
X152582080Y-132056040D01*
X152583205Y-132057289D01*
X152636514Y-132024449D01*
X152669700Y-132020000D01*
X155046733Y-132020000D01*
X155057916Y-132020527D01*
X155065409Y-132022202D01*
X155073335Y-132021953D01*
X155073336Y-132021953D01*
X155133486Y-132020062D01*
X155137445Y-132020000D01*
X155165356Y-132020000D01*
X155169291Y-132019503D01*
X155169356Y-132019495D01*
X155181193Y-132018562D01*
X155213451Y-132017548D01*
X155217470Y-132017422D01*
X155225389Y-132017173D01*
X155244843Y-132011521D01*
X155264200Y-132007513D01*
X155276430Y-132005968D01*
X155276431Y-132005968D01*
X155284297Y-132004974D01*
X155291668Y-132002055D01*
X155291670Y-132002055D01*
X155325412Y-131988696D01*
X155336642Y-131984851D01*
X155371483Y-131974729D01*
X155371484Y-131974729D01*
X155379093Y-131972518D01*
X155385912Y-131968485D01*
X155385917Y-131968483D01*
X155396528Y-131962207D01*
X155414276Y-131953512D01*
X155433117Y-131946052D01*
X155468887Y-131920064D01*
X155478807Y-131913548D01*
X155510035Y-131895080D01*
X155510038Y-131895078D01*
X155516862Y-131891042D01*
X155531183Y-131876721D01*
X155546217Y-131863880D01*
X155556194Y-131856631D01*
X155562607Y-131851972D01*
X155590798Y-131817895D01*
X155598788Y-131809116D01*
X155741490Y-131666414D01*
X155803802Y-131632388D01*
X155874617Y-131637453D01*
X155904646Y-131653573D01*
X155939850Y-131679150D01*
X156007248Y-131728118D01*
X156013276Y-131730802D01*
X156013278Y-131730803D01*
X156175681Y-131803109D01*
X156181712Y-131805794D01*
X156275112Y-131825647D01*
X156362056Y-131844128D01*
X156362061Y-131844128D01*
X156368513Y-131845500D01*
X156559487Y-131845500D01*
X156565939Y-131844128D01*
X156565944Y-131844128D01*
X156652888Y-131825647D01*
X156746288Y-131805794D01*
X156752319Y-131803109D01*
X156914722Y-131730803D01*
X156914724Y-131730802D01*
X156920752Y-131728118D01*
X157075253Y-131615866D01*
X157079675Y-131610955D01*
X157198621Y-131478852D01*
X157198622Y-131478851D01*
X157203040Y-131473944D01*
X157286068Y-131330135D01*
X157295223Y-131314279D01*
X157295224Y-131314278D01*
X157298527Y-131308556D01*
X157357542Y-131126928D01*
X157359935Y-131104166D01*
X157366809Y-131038758D01*
X157374907Y-130961706D01*
X157401920Y-130896050D01*
X157411122Y-130885782D01*
X158089580Y-130207324D01*
X158151892Y-130173298D01*
X158222707Y-130178363D01*
X158272311Y-130212108D01*
X158392747Y-130345866D01*
X158547248Y-130458118D01*
X158553276Y-130460802D01*
X158553278Y-130460803D01*
X158702086Y-130527056D01*
X158721712Y-130535794D01*
X158810046Y-130554570D01*
X158902056Y-130574128D01*
X158902061Y-130574128D01*
X158908513Y-130575500D01*
X159099487Y-130575500D01*
X159105939Y-130574128D01*
X159105944Y-130574128D01*
X159197954Y-130554570D01*
X159286288Y-130535794D01*
X159305914Y-130527056D01*
X159454722Y-130460803D01*
X159454724Y-130460802D01*
X159460752Y-130458118D01*
X159520212Y-130414918D01*
X159593671Y-130361546D01*
X159615253Y-130345866D01*
X159619668Y-130340963D01*
X159624580Y-130336540D01*
X159625705Y-130337789D01*
X159679014Y-130304949D01*
X159712200Y-130300500D01*
X161262474Y-130300500D01*
X161330595Y-130320502D01*
X161351569Y-130337405D01*
X161844560Y-130830396D01*
X161878586Y-130892708D01*
X161873521Y-130963523D01*
X161849102Y-131003801D01*
X161828164Y-131027055D01*
X161820960Y-131035056D01*
X161815697Y-131044171D01*
X161792567Y-131084234D01*
X161777314Y-131105228D01*
X161775528Y-131107014D01*
X161773452Y-131109578D01*
X161773441Y-131109590D01*
X161763031Y-131122446D01*
X161758747Y-131127462D01*
X161718717Y-131171920D01*
X161718713Y-131171925D01*
X161714296Y-131176831D01*
X161709410Y-131185294D01*
X161707589Y-131188448D01*
X161696391Y-131204741D01*
X161687953Y-131215161D01*
X161657787Y-131274363D01*
X161654654Y-131280133D01*
X161624740Y-131331945D01*
X161624738Y-131331950D01*
X161621436Y-131337669D01*
X161619395Y-131343949D01*
X161619392Y-131343957D01*
X161617292Y-131350421D01*
X161609728Y-131368683D01*
X161606637Y-131374749D01*
X161606634Y-131374758D01*
X161603638Y-131380637D01*
X161601929Y-131387015D01*
X161586444Y-131444804D01*
X161584578Y-131451106D01*
X161564046Y-131514298D01*
X161563356Y-131520866D01*
X161562645Y-131527628D01*
X161559042Y-131547071D01*
X161555570Y-131560029D01*
X161555225Y-131566619D01*
X161555224Y-131566623D01*
X161552093Y-131626367D01*
X161551577Y-131632931D01*
X161549500Y-131652694D01*
X161549500Y-131672555D01*
X161549327Y-131679150D01*
X161546749Y-131728343D01*
X161545850Y-131745493D01*
X161546882Y-131752007D01*
X161547949Y-131758744D01*
X161549500Y-131778456D01*
X161549500Y-135090852D01*
X161529498Y-135158973D01*
X161512595Y-135179947D01*
X159817947Y-136874595D01*
X159755635Y-136908621D01*
X159728852Y-136911500D01*
X148689347Y-136911500D01*
X148663150Y-136908747D01*
X148564944Y-136887872D01*
X148564939Y-136887872D01*
X148558487Y-136886500D01*
X148367513Y-136886500D01*
X148361061Y-136887872D01*
X148361056Y-136887872D01*
X148262850Y-136908747D01*
X148236653Y-136911500D01*
X145641347Y-136911500D01*
X145615150Y-136908747D01*
X145516944Y-136887872D01*
X145516939Y-136887872D01*
X145510487Y-136886500D01*
X145319513Y-136886500D01*
X145313061Y-136887872D01*
X145313056Y-136887872D01*
X145214850Y-136908747D01*
X145188653Y-136911500D01*
X145027500Y-136911500D01*
X144959379Y-136891498D01*
X144912886Y-136837842D01*
X144901500Y-136785500D01*
X144901500Y-131256175D01*
X144902190Y-131243005D01*
X144920314Y-131070565D01*
X144921004Y-131064000D01*
X144916509Y-131021229D01*
X144901732Y-130880635D01*
X144901732Y-130880633D01*
X144901042Y-130874072D01*
X144842027Y-130692444D01*
X144838564Y-130686445D01*
X144751585Y-130535794D01*
X144746540Y-130527056D01*
X144701416Y-130476940D01*
X144623175Y-130390045D01*
X144623174Y-130390044D01*
X144618753Y-130385134D01*
X144464252Y-130272882D01*
X144458224Y-130270198D01*
X144458222Y-130270197D01*
X144295819Y-130197891D01*
X144295818Y-130197891D01*
X144289788Y-130195206D01*
X144186720Y-130173298D01*
X144109444Y-130156872D01*
X144109439Y-130156872D01*
X144102987Y-130155500D01*
X143912013Y-130155500D01*
X143905561Y-130156872D01*
X143905556Y-130156872D01*
X143828280Y-130173298D01*
X143725212Y-130195206D01*
X143719182Y-130197891D01*
X143719181Y-130197891D01*
X143556778Y-130270197D01*
X143556776Y-130270198D01*
X143550748Y-130272882D01*
X143396247Y-130385134D01*
X143391826Y-130390044D01*
X143391825Y-130390045D01*
X143313585Y-130476940D01*
X143268460Y-130527056D01*
X143263415Y-130535794D01*
X143176437Y-130686445D01*
X143172973Y-130692444D01*
X143113958Y-130874072D01*
X143113268Y-130880633D01*
X143113268Y-130880635D01*
X143098491Y-131021229D01*
X143093996Y-131064000D01*
X143094686Y-131070565D01*
X143112810Y-131243005D01*
X143113958Y-131253928D01*
X143122473Y-131280133D01*
X143128333Y-131298169D01*
X143134500Y-131337106D01*
X143134500Y-136785500D01*
X143114498Y-136853621D01*
X143060842Y-136900114D01*
X143008500Y-136911500D01*
X123269457Y-136911500D01*
X123249745Y-136909949D01*
X123243008Y-136908882D01*
X123243009Y-136908882D01*
X123236493Y-136907850D01*
X123229906Y-136908195D01*
X123229902Y-136908195D01*
X123170150Y-136911327D01*
X123163555Y-136911500D01*
X123143694Y-136911500D01*
X123123931Y-136913577D01*
X123117372Y-136914093D01*
X123101573Y-136914921D01*
X123057623Y-136917224D01*
X123057619Y-136917225D01*
X123051029Y-136917570D01*
X123038071Y-136921042D01*
X123018628Y-136924645D01*
X123005298Y-136926046D01*
X122942106Y-136946578D01*
X122935804Y-136948444D01*
X122882328Y-136962773D01*
X122871637Y-136965638D01*
X122865758Y-136968634D01*
X122865749Y-136968637D01*
X122859683Y-136971728D01*
X122841421Y-136979292D01*
X122834957Y-136981392D01*
X122834949Y-136981395D01*
X122828669Y-136983436D01*
X122822950Y-136986738D01*
X122822945Y-136986740D01*
X122771140Y-137016650D01*
X122765351Y-137019793D01*
X122759018Y-137023020D01*
X122755586Y-137024769D01*
X122698387Y-137038500D01*
X120241347Y-137038500D01*
X120215150Y-137035747D01*
X120116944Y-137014872D01*
X120116939Y-137014872D01*
X120110487Y-137013500D01*
X119919513Y-137013500D01*
X119913061Y-137014872D01*
X119913056Y-137014872D01*
X119814850Y-137035747D01*
X119788653Y-137038500D01*
X119500500Y-137038500D01*
X119432379Y-137018498D01*
X119385886Y-136964842D01*
X119374500Y-136912500D01*
X119374500Y-131459277D01*
X119391381Y-131396277D01*
X119393236Y-131393065D01*
X119429568Y-131330135D01*
X119438723Y-131314279D01*
X119438724Y-131314278D01*
X119442027Y-131308556D01*
X119501042Y-131126928D01*
X119503189Y-131106507D01*
X119520314Y-130943565D01*
X119521004Y-130937000D01*
X119519790Y-130925454D01*
X119501732Y-130753635D01*
X119501732Y-130753633D01*
X119501042Y-130747072D01*
X119442027Y-130565444D01*
X119419497Y-130526420D01*
X119367347Y-130436095D01*
X119346540Y-130400056D01*
X119301244Y-130349749D01*
X119223175Y-130263045D01*
X119223174Y-130263044D01*
X119218753Y-130258134D01*
X119091722Y-130165840D01*
X119069594Y-130149763D01*
X119069593Y-130149762D01*
X119064252Y-130145882D01*
X119058224Y-130143198D01*
X119058222Y-130143197D01*
X118895819Y-130070891D01*
X118895818Y-130070891D01*
X118889788Y-130068206D01*
X118788239Y-130046621D01*
X118709444Y-130029872D01*
X118709439Y-130029872D01*
X118702987Y-130028500D01*
X118512013Y-130028500D01*
X118505561Y-130029872D01*
X118505556Y-130029872D01*
X118426761Y-130046621D01*
X118325212Y-130068206D01*
X118319182Y-130070891D01*
X118319181Y-130070891D01*
X118156778Y-130143197D01*
X118156776Y-130143198D01*
X118150748Y-130145882D01*
X118145407Y-130149762D01*
X118145406Y-130149763D01*
X118123278Y-130165840D01*
X117996247Y-130258134D01*
X117991826Y-130263044D01*
X117991825Y-130263045D01*
X117913757Y-130349749D01*
X117868460Y-130400056D01*
X117847653Y-130436095D01*
X117836566Y-130455298D01*
X117825377Y-130471580D01*
X117821017Y-130476964D01*
X117816747Y-130481963D01*
X117776717Y-130526420D01*
X117776713Y-130526425D01*
X117772296Y-130531331D01*
X117765791Y-130542597D01*
X117765589Y-130542948D01*
X117754391Y-130559241D01*
X117745953Y-130569661D01*
X117715787Y-130628863D01*
X117712654Y-130634633D01*
X117682740Y-130686445D01*
X117682738Y-130686450D01*
X117679436Y-130692169D01*
X117677395Y-130698449D01*
X117677392Y-130698457D01*
X117675292Y-130704921D01*
X117667728Y-130723183D01*
X117664637Y-130729249D01*
X117664634Y-130729258D01*
X117661638Y-130735137D01*
X117659929Y-130741515D01*
X117644444Y-130799304D01*
X117642578Y-130805606D01*
X117622046Y-130868798D01*
X117621356Y-130875366D01*
X117620645Y-130882128D01*
X117617042Y-130901571D01*
X117613570Y-130914529D01*
X117613225Y-130921119D01*
X117613224Y-130921123D01*
X117611254Y-130958720D01*
X117610306Y-130976812D01*
X117610093Y-130980867D01*
X117609577Y-130987431D01*
X117607500Y-131007194D01*
X117607500Y-131027055D01*
X117607327Y-131033650D01*
X117604616Y-131085386D01*
X117603850Y-131099993D01*
X117605370Y-131109590D01*
X117605949Y-131113244D01*
X117607500Y-131132956D01*
X117607500Y-136912500D01*
X117587498Y-136980621D01*
X117533842Y-137027114D01*
X117481500Y-137038500D01*
X97635347Y-137038500D01*
X97609150Y-137035747D01*
X97510944Y-137014872D01*
X97510939Y-137014872D01*
X97504487Y-137013500D01*
X97313513Y-137013500D01*
X97307061Y-137014872D01*
X97307056Y-137014872D01*
X97208850Y-137035747D01*
X97182653Y-137038500D01*
X95287147Y-137038500D01*
X95219026Y-137018498D01*
X95198052Y-137001595D01*
X94121905Y-135925447D01*
X94087879Y-135863135D01*
X94085000Y-135836352D01*
X94085000Y-131177790D01*
X94091167Y-131138854D01*
X94091222Y-131138684D01*
X94095042Y-131126928D01*
X94097189Y-131106507D01*
X94114314Y-130943565D01*
X94115004Y-130937000D01*
X94113790Y-130925454D01*
X94095732Y-130753635D01*
X94095732Y-130753633D01*
X94095042Y-130747072D01*
X94036027Y-130565444D01*
X94013497Y-130526420D01*
X93961347Y-130436095D01*
X93940540Y-130400056D01*
X93895244Y-130349749D01*
X93817175Y-130263045D01*
X93817174Y-130263044D01*
X93812753Y-130258134D01*
X93685722Y-130165840D01*
X93663594Y-130149763D01*
X93663593Y-130149762D01*
X93658252Y-130145882D01*
X93652224Y-130143198D01*
X93652222Y-130143197D01*
X93489819Y-130070891D01*
X93489818Y-130070891D01*
X93483788Y-130068206D01*
X93382239Y-130046621D01*
X93303444Y-130029872D01*
X93303439Y-130029872D01*
X93296987Y-130028500D01*
X93106013Y-130028500D01*
X93099561Y-130029872D01*
X93099556Y-130029872D01*
X93020761Y-130046621D01*
X92919212Y-130068206D01*
X92913182Y-130070891D01*
X92913181Y-130070891D01*
X92750778Y-130143197D01*
X92750776Y-130143198D01*
X92744748Y-130145882D01*
X92739407Y-130149762D01*
X92739406Y-130149763D01*
X92717278Y-130165840D01*
X92590247Y-130258134D01*
X92585826Y-130263044D01*
X92585825Y-130263045D01*
X92507757Y-130349749D01*
X92462460Y-130400056D01*
X92441653Y-130436095D01*
X92389504Y-130526420D01*
X92366973Y-130565444D01*
X92307958Y-130747072D01*
X92307268Y-130753633D01*
X92307268Y-130753635D01*
X92289210Y-130925454D01*
X92287996Y-130937000D01*
X86356761Y-130937000D01*
X86356761Y-127728695D01*
X91093251Y-127728695D01*
X91093548Y-127733848D01*
X91093548Y-127733851D01*
X91103519Y-127906782D01*
X91106110Y-127951715D01*
X91107247Y-127956761D01*
X91107248Y-127956767D01*
X91127026Y-128044525D01*
X91155222Y-128169639D01*
X91193461Y-128263811D01*
X91233587Y-128362629D01*
X91239266Y-128376616D01*
X91278623Y-128440841D01*
X91353291Y-128562688D01*
X91355987Y-128567088D01*
X91502250Y-128735938D01*
X91626353Y-128838970D01*
X91661284Y-128867970D01*
X91674126Y-128878632D01*
X91867000Y-128991338D01*
X91871825Y-128993180D01*
X91871826Y-128993181D01*
X91908585Y-129007218D01*
X92075692Y-129071030D01*
X92080760Y-129072061D01*
X92080763Y-129072062D01*
X92184267Y-129093120D01*
X92294597Y-129115567D01*
X92299772Y-129115757D01*
X92299774Y-129115757D01*
X92512673Y-129123564D01*
X92512677Y-129123564D01*
X92517837Y-129123753D01*
X92522957Y-129123097D01*
X92522959Y-129123097D01*
X92734288Y-129096025D01*
X92734289Y-129096025D01*
X92739416Y-129095368D01*
X92746909Y-129093120D01*
X92948429Y-129032661D01*
X92948434Y-129032659D01*
X92953384Y-129031174D01*
X93153994Y-128932896D01*
X93335860Y-128803173D01*
X93346273Y-128792797D01*
X93451326Y-128688110D01*
X93513698Y-128654194D01*
X93584505Y-128659382D01*
X93629361Y-128688266D01*
X95849595Y-130908500D01*
X95883621Y-130970812D01*
X95886500Y-130997595D01*
X95886500Y-134474661D01*
X95866498Y-134542782D01*
X95819820Y-134582847D01*
X95821001Y-134584893D01*
X95815278Y-134588197D01*
X95809248Y-134590882D01*
X95654747Y-134703134D01*
X95650326Y-134708044D01*
X95650325Y-134708045D01*
X95541817Y-134828556D01*
X95526960Y-134845056D01*
X95523659Y-134850774D01*
X95437371Y-135000229D01*
X95431473Y-135010444D01*
X95372458Y-135192072D01*
X95352496Y-135382000D01*
X95353186Y-135388565D01*
X95371384Y-135561706D01*
X95372458Y-135571928D01*
X95431473Y-135753556D01*
X95434776Y-135759278D01*
X95434777Y-135759279D01*
X95468686Y-135818010D01*
X95526960Y-135918944D01*
X95531378Y-135923851D01*
X95531379Y-135923852D01*
X95650325Y-136055955D01*
X95654747Y-136060866D01*
X95732512Y-136117366D01*
X95803835Y-136169185D01*
X95809248Y-136173118D01*
X95815276Y-136175802D01*
X95815278Y-136175803D01*
X95977681Y-136248109D01*
X95983712Y-136250794D01*
X96077112Y-136270647D01*
X96164056Y-136289128D01*
X96164061Y-136289128D01*
X96170513Y-136290500D01*
X96361487Y-136290500D01*
X96367939Y-136289128D01*
X96367944Y-136289128D01*
X96454888Y-136270647D01*
X96548288Y-136250794D01*
X96722752Y-136173118D01*
X96793118Y-136163684D01*
X96825247Y-136173118D01*
X96825248Y-136173118D01*
X96999712Y-136250794D01*
X97093112Y-136270647D01*
X97180056Y-136289128D01*
X97180061Y-136289128D01*
X97186513Y-136290500D01*
X97377487Y-136290500D01*
X97383939Y-136289128D01*
X97383944Y-136289128D01*
X97470888Y-136270647D01*
X97564288Y-136250794D01*
X97570319Y-136248109D01*
X97732722Y-136175803D01*
X97732724Y-136175802D01*
X97738752Y-136173118D01*
X97744166Y-136169185D01*
X97815488Y-136117366D01*
X97893253Y-136060866D01*
X97897675Y-136055955D01*
X98016621Y-135923852D01*
X98016622Y-135923851D01*
X98021040Y-135918944D01*
X98079314Y-135818010D01*
X98113223Y-135759279D01*
X98113224Y-135759278D01*
X98116527Y-135753556D01*
X98175542Y-135571928D01*
X98176617Y-135561706D01*
X98194814Y-135388565D01*
X98195504Y-135382000D01*
X98175542Y-135192072D01*
X98116527Y-135010444D01*
X98110630Y-135000229D01*
X98024341Y-134850774D01*
X98021040Y-134845056D01*
X97947863Y-134763785D01*
X97917147Y-134699779D01*
X97915500Y-134679476D01*
X97915500Y-127728695D01*
X98713251Y-127728695D01*
X98713548Y-127733848D01*
X98713548Y-127733851D01*
X98723519Y-127906782D01*
X98726110Y-127951715D01*
X98727247Y-127956761D01*
X98727248Y-127956767D01*
X98747026Y-128044525D01*
X98775222Y-128169639D01*
X98813461Y-128263811D01*
X98853587Y-128362629D01*
X98859266Y-128376616D01*
X98898623Y-128440841D01*
X98973291Y-128562688D01*
X98975987Y-128567088D01*
X99122250Y-128735938D01*
X99246353Y-128838970D01*
X99281284Y-128867970D01*
X99294126Y-128878632D01*
X99487000Y-128991338D01*
X99491825Y-128993180D01*
X99491826Y-128993181D01*
X99528585Y-129007218D01*
X99695692Y-129071030D01*
X99700760Y-129072061D01*
X99700763Y-129072062D01*
X99804267Y-129093120D01*
X99914597Y-129115567D01*
X99919772Y-129115757D01*
X99919774Y-129115757D01*
X100132673Y-129123564D01*
X100132677Y-129123564D01*
X100137837Y-129123753D01*
X100142957Y-129123097D01*
X100142959Y-129123097D01*
X100354288Y-129096025D01*
X100354289Y-129096025D01*
X100359416Y-129095368D01*
X100366909Y-129093120D01*
X100568429Y-129032661D01*
X100568434Y-129032659D01*
X100573384Y-129031174D01*
X100773994Y-128932896D01*
X100955860Y-128803173D01*
X100966273Y-128792797D01*
X101054691Y-128704687D01*
X101114096Y-128645489D01*
X101124975Y-128630350D01*
X101241435Y-128468277D01*
X101244453Y-128464077D01*
X101248611Y-128455665D01*
X101341136Y-128268453D01*
X101341137Y-128268451D01*
X101343430Y-128263811D01*
X101408370Y-128050069D01*
X101437529Y-127828590D01*
X101438752Y-127778526D01*
X101439074Y-127765365D01*
X101439074Y-127765361D01*
X101439156Y-127762000D01*
X101420852Y-127539361D01*
X101366431Y-127322702D01*
X101277354Y-127117840D01*
X101216799Y-127024236D01*
X101158822Y-126934617D01*
X101158820Y-126934614D01*
X101156014Y-126930277D01*
X101005670Y-126765051D01*
X101001616Y-126761849D01*
X101001615Y-126761848D01*
X100834414Y-126629800D01*
X100834410Y-126629798D01*
X100830359Y-126626598D01*
X100788569Y-126603529D01*
X100738598Y-126553097D01*
X100723826Y-126483654D01*
X100748942Y-126417248D01*
X100776293Y-126390642D01*
X100825247Y-126355723D01*
X100833648Y-126345023D01*
X100826660Y-126331870D01*
X100088812Y-125594022D01*
X100074868Y-125586408D01*
X100073035Y-125586539D01*
X100066420Y-125590790D01*
X99322737Y-126334473D01*
X99315977Y-126346853D01*
X99321258Y-126353907D01*
X99367969Y-126381203D01*
X99416693Y-126432841D01*
X99429764Y-126502624D01*
X99403033Y-126568396D01*
X99362584Y-126601752D01*
X99349607Y-126608507D01*
X99345474Y-126611610D01*
X99345471Y-126611612D01*
X99175100Y-126739530D01*
X99170965Y-126742635D01*
X99016629Y-126904138D01*
X99013715Y-126908410D01*
X99013714Y-126908411D01*
X98972064Y-126969468D01*
X98890743Y-127088680D01*
X98852011Y-127172121D01*
X98802290Y-127279237D01*
X98796688Y-127291305D01*
X98736989Y-127506570D01*
X98713251Y-127728695D01*
X97915500Y-127728695D01*
X97915500Y-125790594D01*
X97935502Y-125722473D01*
X97952405Y-125701499D01*
X98501493Y-125152411D01*
X98563805Y-125118385D01*
X98634620Y-125123450D01*
X98691456Y-125165997D01*
X98716379Y-125234253D01*
X98726309Y-125406477D01*
X98727745Y-125416697D01*
X98774565Y-125624446D01*
X98777645Y-125634275D01*
X98857770Y-125831603D01*
X98862413Y-125840794D01*
X98942460Y-125971420D01*
X98952916Y-125980880D01*
X98961694Y-125977096D01*
X99715658Y-125223132D01*
X100440408Y-125223132D01*
X100440539Y-125224965D01*
X100444790Y-125231580D01*
X101186474Y-125973264D01*
X101198484Y-125979823D01*
X101210223Y-125970855D01*
X101241004Y-125928019D01*
X101246315Y-125919180D01*
X101340670Y-125728267D01*
X101344469Y-125718672D01*
X101406376Y-125514915D01*
X101408555Y-125504834D01*
X101436590Y-125291887D01*
X101437109Y-125285212D01*
X101438572Y-125225364D01*
X101438378Y-125218646D01*
X101436341Y-125193863D01*
X103794050Y-125193863D01*
X103806309Y-125406477D01*
X103807745Y-125416697D01*
X103854565Y-125624446D01*
X103857645Y-125634275D01*
X103937770Y-125831603D01*
X103942413Y-125840794D01*
X104022460Y-125971420D01*
X104032916Y-125980880D01*
X104041694Y-125977096D01*
X104783978Y-125234812D01*
X104791592Y-125220868D01*
X104791461Y-125219035D01*
X104787210Y-125212420D01*
X104045849Y-124471059D01*
X104034313Y-124464759D01*
X104022031Y-124474382D01*
X103974089Y-124544662D01*
X103969004Y-124553613D01*
X103879338Y-124746783D01*
X103875775Y-124756470D01*
X103818864Y-124961681D01*
X103816933Y-124971800D01*
X103794302Y-125183574D01*
X103794050Y-125193863D01*
X101436341Y-125193863D01*
X101420781Y-125004604D01*
X101419096Y-124994424D01*
X101367214Y-124787875D01*
X101363894Y-124778124D01*
X101278972Y-124582814D01*
X101274105Y-124573739D01*
X101209063Y-124473197D01*
X101198377Y-124463995D01*
X101188812Y-124468398D01*
X100448022Y-125209188D01*
X100440408Y-125223132D01*
X99715658Y-125223132D01*
X100829389Y-124109401D01*
X100836410Y-124096544D01*
X100829611Y-124087213D01*
X100825559Y-124084521D01*
X100788602Y-124064120D01*
X100738631Y-124013687D01*
X100723859Y-123944245D01*
X100748975Y-123877839D01*
X100776327Y-123851232D01*
X100836245Y-123808493D01*
X100955860Y-123723173D01*
X100982088Y-123697037D01*
X101063653Y-123615756D01*
X101114096Y-123565489D01*
X101123670Y-123552166D01*
X101238302Y-123392637D01*
X101244453Y-123384077D01*
X101250769Y-123371299D01*
X101341136Y-123188453D01*
X101341137Y-123188451D01*
X101343430Y-123183811D01*
X101408370Y-122970069D01*
X101437529Y-122748590D01*
X101437611Y-122745240D01*
X101439074Y-122685365D01*
X101439074Y-122685361D01*
X101439156Y-122682000D01*
X101436418Y-122648695D01*
X103793251Y-122648695D01*
X103793548Y-122653848D01*
X103793548Y-122653851D01*
X103799011Y-122748590D01*
X103806110Y-122871715D01*
X103807247Y-122876761D01*
X103807248Y-122876767D01*
X103814107Y-122907202D01*
X103855222Y-123089639D01*
X103939266Y-123296616D01*
X103966979Y-123341840D01*
X104049072Y-123475803D01*
X104055987Y-123487088D01*
X104202250Y-123655938D01*
X104374126Y-123798632D01*
X104446918Y-123841168D01*
X104447955Y-123841774D01*
X104496679Y-123893412D01*
X104509750Y-123963195D01*
X104483019Y-124028967D01*
X104442562Y-124062327D01*
X104434460Y-124066544D01*
X104425734Y-124072039D01*
X104405677Y-124087099D01*
X104397223Y-124098427D01*
X104403968Y-124110758D01*
X105143188Y-124849978D01*
X105157132Y-124857592D01*
X105158965Y-124857461D01*
X105165580Y-124853210D01*
X105909389Y-124109401D01*
X105916410Y-124096544D01*
X105909611Y-124087213D01*
X105905559Y-124084521D01*
X105868602Y-124064120D01*
X105818631Y-124013687D01*
X105803859Y-123944245D01*
X105828975Y-123877839D01*
X105856327Y-123851232D01*
X105916245Y-123808493D01*
X106035860Y-123723173D01*
X106062088Y-123697037D01*
X106143653Y-123615756D01*
X106194096Y-123565489D01*
X106203670Y-123552166D01*
X106318302Y-123392637D01*
X106324453Y-123384077D01*
X106330769Y-123371299D01*
X106421136Y-123188453D01*
X106421137Y-123188451D01*
X106423430Y-123183811D01*
X106488370Y-122970069D01*
X106517529Y-122748590D01*
X106517611Y-122745240D01*
X106519074Y-122685365D01*
X106519074Y-122685361D01*
X106519156Y-122682000D01*
X106500852Y-122459361D01*
X106446431Y-122242702D01*
X106357354Y-122037840D01*
X106317906Y-121976862D01*
X106238822Y-121854617D01*
X106238820Y-121854614D01*
X106236014Y-121850277D01*
X106085670Y-121685051D01*
X106081619Y-121681852D01*
X106081615Y-121681848D01*
X105914414Y-121549800D01*
X105914410Y-121549798D01*
X105910359Y-121546598D01*
X105714789Y-121438638D01*
X105709920Y-121436914D01*
X105709916Y-121436912D01*
X105509087Y-121365795D01*
X105509083Y-121365794D01*
X105504212Y-121364069D01*
X105499119Y-121363162D01*
X105499116Y-121363161D01*
X105289373Y-121325800D01*
X105289367Y-121325799D01*
X105284284Y-121324894D01*
X105210452Y-121323992D01*
X105066081Y-121322228D01*
X105066079Y-121322228D01*
X105060911Y-121322165D01*
X104840091Y-121355955D01*
X104627756Y-121425357D01*
X104429607Y-121528507D01*
X104425474Y-121531610D01*
X104425471Y-121531612D01*
X104351933Y-121586826D01*
X104250965Y-121662635D01*
X104247393Y-121666373D01*
X104133096Y-121785978D01*
X104096629Y-121824138D01*
X103970743Y-122008680D01*
X103955003Y-122042590D01*
X103902808Y-122155035D01*
X103876688Y-122211305D01*
X103816989Y-122426570D01*
X103793251Y-122648695D01*
X101436418Y-122648695D01*
X101420852Y-122459361D01*
X101366431Y-122242702D01*
X101277354Y-122037840D01*
X101237906Y-121976862D01*
X101158822Y-121854617D01*
X101158820Y-121854614D01*
X101156014Y-121850277D01*
X101005670Y-121685051D01*
X101001619Y-121681852D01*
X101001615Y-121681848D01*
X100834414Y-121549800D01*
X100834410Y-121549798D01*
X100830359Y-121546598D01*
X100634789Y-121438638D01*
X100629920Y-121436914D01*
X100629916Y-121436912D01*
X100429087Y-121365795D01*
X100429083Y-121365794D01*
X100424212Y-121364069D01*
X100419119Y-121363162D01*
X100419116Y-121363161D01*
X100209373Y-121325800D01*
X100209367Y-121325799D01*
X100204284Y-121324894D01*
X100130452Y-121323992D01*
X99986081Y-121322228D01*
X99986079Y-121322228D01*
X99980911Y-121322165D01*
X99760091Y-121355955D01*
X99547756Y-121425357D01*
X99349607Y-121528507D01*
X99345474Y-121531610D01*
X99345471Y-121531612D01*
X99271933Y-121586826D01*
X99170965Y-121662635D01*
X99167393Y-121666373D01*
X99053096Y-121785978D01*
X99016629Y-121824138D01*
X98890743Y-122008680D01*
X98875003Y-122042590D01*
X98822808Y-122155035D01*
X98796688Y-122211305D01*
X98736989Y-122426570D01*
X98713251Y-122648695D01*
X98713548Y-122653848D01*
X98713548Y-122653851D01*
X98719011Y-122748590D01*
X98726110Y-122871715D01*
X98727247Y-122876761D01*
X98727248Y-122876767D01*
X98759453Y-123019668D01*
X98754917Y-123090520D01*
X98725631Y-123136464D01*
X96889747Y-124972348D01*
X96881461Y-124979888D01*
X96874982Y-124984000D01*
X96869557Y-124989777D01*
X96828357Y-125033651D01*
X96825602Y-125036493D01*
X96805865Y-125056230D01*
X96803385Y-125059427D01*
X96795682Y-125068447D01*
X96765414Y-125100679D01*
X96761595Y-125107625D01*
X96761593Y-125107628D01*
X96755652Y-125118434D01*
X96744801Y-125134953D01*
X96732386Y-125150959D01*
X96729241Y-125158228D01*
X96729238Y-125158232D01*
X96714826Y-125191537D01*
X96709609Y-125202187D01*
X96688305Y-125240940D01*
X96686334Y-125248615D01*
X96686334Y-125248616D01*
X96683267Y-125260562D01*
X96676863Y-125279266D01*
X96668819Y-125297855D01*
X96667580Y-125305678D01*
X96667577Y-125305688D01*
X96661901Y-125341524D01*
X96659495Y-125353144D01*
X96656195Y-125365999D01*
X96648500Y-125395970D01*
X96648500Y-125416224D01*
X96646949Y-125435934D01*
X96643780Y-125455943D01*
X96644526Y-125463835D01*
X96647941Y-125499961D01*
X96648500Y-125511819D01*
X96648500Y-129611406D01*
X96628498Y-129679527D01*
X96574842Y-129726020D01*
X96504568Y-129736124D01*
X96439988Y-129706630D01*
X96433405Y-129700501D01*
X95371139Y-128638234D01*
X94102652Y-127369747D01*
X94095112Y-127361461D01*
X94091000Y-127354982D01*
X94084888Y-127349242D01*
X94045247Y-127312017D01*
X94041348Y-127308356D01*
X94038507Y-127305602D01*
X94018770Y-127285865D01*
X94015573Y-127283385D01*
X94006551Y-127275680D01*
X94006387Y-127275526D01*
X93974321Y-127245414D01*
X93967375Y-127241595D01*
X93967372Y-127241593D01*
X93956566Y-127235652D01*
X93940047Y-127224801D01*
X93930487Y-127217386D01*
X93924041Y-127212386D01*
X93916772Y-127209241D01*
X93916768Y-127209238D01*
X93883463Y-127194826D01*
X93872813Y-127189609D01*
X93834060Y-127168305D01*
X93825508Y-127166109D01*
X93814438Y-127163267D01*
X93795734Y-127156863D01*
X93784420Y-127151967D01*
X93784419Y-127151967D01*
X93777145Y-127148819D01*
X93769322Y-127147580D01*
X93769312Y-127147577D01*
X93733476Y-127141901D01*
X93721861Y-127139496D01*
X93709017Y-127136199D01*
X93648009Y-127099888D01*
X93634557Y-127082601D01*
X93567904Y-126979572D01*
X93538822Y-126934617D01*
X93538820Y-126934614D01*
X93536014Y-126930277D01*
X93385670Y-126765051D01*
X93381616Y-126761849D01*
X93381615Y-126761848D01*
X93214414Y-126629800D01*
X93214410Y-126629798D01*
X93210359Y-126626598D01*
X93168569Y-126603529D01*
X93118598Y-126553097D01*
X93103826Y-126483654D01*
X93128942Y-126417248D01*
X93156293Y-126390642D01*
X93205247Y-126355723D01*
X93213648Y-126345023D01*
X93206660Y-126331870D01*
X92468812Y-125594022D01*
X92454868Y-125586408D01*
X92453035Y-125586539D01*
X92446420Y-125590790D01*
X91702737Y-126334473D01*
X91695977Y-126346853D01*
X91701258Y-126353907D01*
X91747969Y-126381203D01*
X91796693Y-126432841D01*
X91809764Y-126502624D01*
X91783033Y-126568396D01*
X91742584Y-126601752D01*
X91729607Y-126608507D01*
X91725474Y-126611610D01*
X91725471Y-126611612D01*
X91555100Y-126739530D01*
X91550965Y-126742635D01*
X91396629Y-126904138D01*
X91393715Y-126908410D01*
X91393714Y-126908411D01*
X91352064Y-126969468D01*
X91270743Y-127088680D01*
X91232011Y-127172121D01*
X91182290Y-127279237D01*
X91176688Y-127291305D01*
X91116989Y-127506570D01*
X91093251Y-127728695D01*
X86356761Y-127728695D01*
X86356761Y-125193863D01*
X91094050Y-125193863D01*
X91106309Y-125406477D01*
X91107745Y-125416697D01*
X91154565Y-125624446D01*
X91157645Y-125634275D01*
X91237770Y-125831603D01*
X91242413Y-125840794D01*
X91322460Y-125971420D01*
X91332916Y-125980880D01*
X91341694Y-125977096D01*
X92083978Y-125234812D01*
X92090356Y-125223132D01*
X92820408Y-125223132D01*
X92820539Y-125224965D01*
X92824790Y-125231580D01*
X93566474Y-125973264D01*
X93578484Y-125979823D01*
X93590223Y-125970855D01*
X93621004Y-125928019D01*
X93626315Y-125919180D01*
X93720670Y-125728267D01*
X93724469Y-125718672D01*
X93786376Y-125514915D01*
X93788555Y-125504834D01*
X93816590Y-125291887D01*
X93817109Y-125285212D01*
X93818572Y-125225364D01*
X93818378Y-125218646D01*
X93800781Y-125004604D01*
X93799096Y-124994424D01*
X93747214Y-124787875D01*
X93743894Y-124778124D01*
X93658972Y-124582814D01*
X93654105Y-124573739D01*
X93589063Y-124473197D01*
X93578377Y-124463995D01*
X93568812Y-124468398D01*
X92828022Y-125209188D01*
X92820408Y-125223132D01*
X92090356Y-125223132D01*
X92091592Y-125220868D01*
X92091461Y-125219035D01*
X92087210Y-125212420D01*
X91345849Y-124471059D01*
X91334313Y-124464759D01*
X91322031Y-124474382D01*
X91274089Y-124544662D01*
X91269004Y-124553613D01*
X91179338Y-124746783D01*
X91175775Y-124756470D01*
X91118864Y-124961681D01*
X91116933Y-124971800D01*
X91094302Y-125183574D01*
X91094050Y-125193863D01*
X86356761Y-125193863D01*
X86356761Y-122648695D01*
X91093251Y-122648695D01*
X91093548Y-122653848D01*
X91093548Y-122653851D01*
X91099011Y-122748590D01*
X91106110Y-122871715D01*
X91107247Y-122876761D01*
X91107248Y-122876767D01*
X91114107Y-122907202D01*
X91155222Y-123089639D01*
X91239266Y-123296616D01*
X91266979Y-123341840D01*
X91349072Y-123475803D01*
X91355987Y-123487088D01*
X91502250Y-123655938D01*
X91674126Y-123798632D01*
X91746918Y-123841168D01*
X91747955Y-123841774D01*
X91796679Y-123893412D01*
X91809750Y-123963195D01*
X91783019Y-124028967D01*
X91742562Y-124062327D01*
X91734460Y-124066544D01*
X91725734Y-124072039D01*
X91705677Y-124087099D01*
X91697223Y-124098427D01*
X91703968Y-124110758D01*
X92443188Y-124849978D01*
X92457132Y-124857592D01*
X92458965Y-124857461D01*
X92465580Y-124853210D01*
X93209389Y-124109401D01*
X93216410Y-124096544D01*
X93209611Y-124087213D01*
X93205559Y-124084521D01*
X93168602Y-124064120D01*
X93118631Y-124013687D01*
X93103859Y-123944245D01*
X93128975Y-123877839D01*
X93156327Y-123851232D01*
X93216245Y-123808493D01*
X93335860Y-123723173D01*
X93362088Y-123697037D01*
X93443653Y-123615756D01*
X93494096Y-123565489D01*
X93503670Y-123552166D01*
X93618302Y-123392637D01*
X93624453Y-123384077D01*
X93630769Y-123371299D01*
X93721136Y-123188453D01*
X93721137Y-123188451D01*
X93723430Y-123183811D01*
X93788370Y-122970069D01*
X93817529Y-122748590D01*
X93817611Y-122745240D01*
X93819074Y-122685365D01*
X93819074Y-122685361D01*
X93819156Y-122682000D01*
X93800852Y-122459361D01*
X93746431Y-122242702D01*
X93657354Y-122037840D01*
X93617906Y-121976862D01*
X93538822Y-121854617D01*
X93538820Y-121854614D01*
X93536014Y-121850277D01*
X93385670Y-121685051D01*
X93381619Y-121681852D01*
X93381615Y-121681848D01*
X93214414Y-121549800D01*
X93214410Y-121549798D01*
X93210359Y-121546598D01*
X93014789Y-121438638D01*
X93009920Y-121436914D01*
X93009916Y-121436912D01*
X92809087Y-121365795D01*
X92809083Y-121365794D01*
X92804212Y-121364069D01*
X92799119Y-121363162D01*
X92799116Y-121363161D01*
X92589373Y-121325800D01*
X92589367Y-121325799D01*
X92584284Y-121324894D01*
X92510452Y-121323992D01*
X92366081Y-121322228D01*
X92366079Y-121322228D01*
X92360911Y-121322165D01*
X92140091Y-121355955D01*
X91927756Y-121425357D01*
X91729607Y-121528507D01*
X91725474Y-121531610D01*
X91725471Y-121531612D01*
X91651933Y-121586826D01*
X91550965Y-121662635D01*
X91547393Y-121666373D01*
X91433096Y-121785978D01*
X91396629Y-121824138D01*
X91270743Y-122008680D01*
X91255003Y-122042590D01*
X91202808Y-122155035D01*
X91176688Y-122211305D01*
X91116989Y-122426570D01*
X91093251Y-122648695D01*
X86356761Y-122648695D01*
X86356761Y-118921365D01*
X86358261Y-118901980D01*
X86360571Y-118887147D01*
X86360571Y-118887143D01*
X86361952Y-118878274D01*
X86359599Y-118860278D01*
X86358733Y-118836880D01*
X86366675Y-118695460D01*
X86372332Y-118594724D01*
X86373914Y-118580687D01*
X86379338Y-118548768D01*
X86419247Y-118313879D01*
X86422391Y-118300104D01*
X86497312Y-118040047D01*
X86501979Y-118026710D01*
X86605545Y-117776676D01*
X86611676Y-117763946D01*
X86742581Y-117527089D01*
X86750098Y-117515125D01*
X86906707Y-117294402D01*
X86915517Y-117283355D01*
X87095849Y-117081562D01*
X87105840Y-117071571D01*
X87307632Y-116891236D01*
X87318679Y-116882426D01*
X87539397Y-116725816D01*
X87551345Y-116718308D01*
X87788234Y-116587380D01*
X87800953Y-116581256D01*
X88050980Y-116477689D01*
X88064316Y-116473022D01*
X88324376Y-116398097D01*
X88338152Y-116394953D01*
X88604949Y-116349619D01*
X88618990Y-116348036D01*
X88853687Y-116334853D01*
X88880132Y-116336154D01*
X88881118Y-116336308D01*
X88881122Y-116336308D01*
X88889992Y-116337689D01*
X88921549Y-116333562D01*
X88937888Y-116332498D01*
X142970008Y-116332499D01*
G37*
G04 #@! TD.AperFunction*
G04 #@! TA.AperFunction,Conductor*
G36*
X136877184Y-123202886D02*
G01*
X136934020Y-123245433D01*
X136949895Y-123273538D01*
X136959266Y-123296616D01*
X136986979Y-123341840D01*
X137069072Y-123475803D01*
X137075987Y-123487088D01*
X137222250Y-123655938D01*
X137394126Y-123798632D01*
X137466918Y-123841168D01*
X137467955Y-123841774D01*
X137516679Y-123893412D01*
X137529750Y-123963195D01*
X137503019Y-124028967D01*
X137462562Y-124062327D01*
X137454460Y-124066544D01*
X137445734Y-124072039D01*
X137425677Y-124087099D01*
X137417223Y-124098427D01*
X137423968Y-124110758D01*
X138446115Y-125132905D01*
X138480141Y-125195217D01*
X138475076Y-125266032D01*
X138446115Y-125311095D01*
X137422737Y-126334473D01*
X137415977Y-126346853D01*
X137421258Y-126353907D01*
X137467969Y-126381203D01*
X137516693Y-126432841D01*
X137529764Y-126502624D01*
X137503033Y-126568396D01*
X137462584Y-126601752D01*
X137449607Y-126608507D01*
X137445474Y-126611610D01*
X137445471Y-126611612D01*
X137275100Y-126739530D01*
X137270965Y-126742635D01*
X137116629Y-126904138D01*
X137113715Y-126908410D01*
X137113714Y-126908411D01*
X137072064Y-126969468D01*
X136990743Y-127088680D01*
X136952011Y-127172121D01*
X136902290Y-127279237D01*
X136896688Y-127291305D01*
X136836989Y-127506570D01*
X136813251Y-127728695D01*
X136813548Y-127733848D01*
X136813548Y-127733851D01*
X136823519Y-127906782D01*
X136826110Y-127951715D01*
X136827247Y-127956761D01*
X136827248Y-127956767D01*
X136847026Y-128044525D01*
X136875222Y-128169639D01*
X136913461Y-128263811D01*
X136953587Y-128362629D01*
X136959266Y-128376616D01*
X136984809Y-128418298D01*
X136988759Y-128424744D01*
X137007297Y-128493277D01*
X136985841Y-128560954D01*
X136970421Y-128579675D01*
X136569421Y-128980674D01*
X136172499Y-129377596D01*
X136110187Y-129411621D01*
X136083404Y-129414500D01*
X128463595Y-129414500D01*
X128395474Y-129394498D01*
X128348981Y-129340842D01*
X128338877Y-129270568D01*
X128368371Y-129205988D01*
X128374500Y-129199405D01*
X129009500Y-128564405D01*
X129071812Y-128530379D01*
X129098595Y-128527500D01*
X129364140Y-128527500D01*
X129432261Y-128547502D01*
X129459377Y-128571002D01*
X129598865Y-128732031D01*
X129598869Y-128732035D01*
X129602250Y-128735938D01*
X129726353Y-128838970D01*
X129761284Y-128867970D01*
X129774126Y-128878632D01*
X129967000Y-128991338D01*
X129971825Y-128993180D01*
X129971826Y-128993181D01*
X130008585Y-129007218D01*
X130175692Y-129071030D01*
X130180760Y-129072061D01*
X130180763Y-129072062D01*
X130284267Y-129093120D01*
X130394597Y-129115567D01*
X130399772Y-129115757D01*
X130399774Y-129115757D01*
X130612673Y-129123564D01*
X130612677Y-129123564D01*
X130617837Y-129123753D01*
X130622957Y-129123097D01*
X130622959Y-129123097D01*
X130834288Y-129096025D01*
X130834289Y-129096025D01*
X130839416Y-129095368D01*
X130846909Y-129093120D01*
X131048429Y-129032661D01*
X131048434Y-129032659D01*
X131053384Y-129031174D01*
X131253994Y-128932896D01*
X131435860Y-128803173D01*
X131446273Y-128792797D01*
X131534691Y-128704687D01*
X131594096Y-128645489D01*
X131604975Y-128630350D01*
X131721435Y-128468277D01*
X131724453Y-128464077D01*
X131728611Y-128455665D01*
X131821136Y-128268453D01*
X131821137Y-128268451D01*
X131823430Y-128263811D01*
X131888370Y-128050069D01*
X131917529Y-127828590D01*
X131918752Y-127778526D01*
X131919074Y-127765365D01*
X131919074Y-127765361D01*
X131919156Y-127762000D01*
X131918357Y-127752279D01*
X131932711Y-127682748D01*
X131982377Y-127632016D01*
X132051587Y-127616189D01*
X132070130Y-127618709D01*
X132232056Y-127653128D01*
X132232061Y-127653128D01*
X132238513Y-127654500D01*
X132429487Y-127654500D01*
X132435939Y-127653128D01*
X132435944Y-127653128D01*
X132535265Y-127632016D01*
X132616288Y-127614794D01*
X132683717Y-127584773D01*
X132784722Y-127539803D01*
X132784724Y-127539802D01*
X132790752Y-127537118D01*
X132945253Y-127424866D01*
X132953739Y-127415441D01*
X133068621Y-127287852D01*
X133068622Y-127287851D01*
X133073040Y-127282944D01*
X133142946Y-127161863D01*
X133165223Y-127123279D01*
X133165224Y-127123278D01*
X133168527Y-127117556D01*
X133227542Y-126935928D01*
X133228538Y-126926457D01*
X133243725Y-126781954D01*
X133244907Y-126770706D01*
X133271920Y-126705050D01*
X133281122Y-126694782D01*
X134782041Y-125193863D01*
X136814050Y-125193863D01*
X136826309Y-125406477D01*
X136827745Y-125416697D01*
X136874565Y-125624446D01*
X136877645Y-125634275D01*
X136957770Y-125831603D01*
X136962413Y-125840794D01*
X137042460Y-125971420D01*
X137052916Y-125980880D01*
X137061694Y-125977096D01*
X137803978Y-125234812D01*
X137811592Y-125220868D01*
X137811461Y-125219035D01*
X137807210Y-125212420D01*
X137065849Y-124471059D01*
X137054313Y-124464759D01*
X137042031Y-124474382D01*
X136994089Y-124544662D01*
X136989004Y-124553613D01*
X136899338Y-124746783D01*
X136895775Y-124756470D01*
X136838864Y-124961681D01*
X136836933Y-124971800D01*
X136814302Y-125183574D01*
X136814050Y-125193863D01*
X134782041Y-125193863D01*
X136744057Y-123231847D01*
X136806369Y-123197821D01*
X136877184Y-123202886D01*
G37*
G04 #@! TD.AperFunction*
G04 #@! TA.AperFunction,Conductor*
G36*
X111355223Y-122816847D02*
G01*
X111412059Y-122859394D01*
X111434107Y-122907200D01*
X111475222Y-123089639D01*
X111559266Y-123296616D01*
X111586979Y-123341840D01*
X111669072Y-123475803D01*
X111675987Y-123487088D01*
X111822250Y-123655938D01*
X111994126Y-123798632D01*
X112066918Y-123841168D01*
X112067955Y-123841774D01*
X112116679Y-123893412D01*
X112129750Y-123963195D01*
X112103019Y-124028967D01*
X112062562Y-124062327D01*
X112054460Y-124066544D01*
X112045734Y-124072039D01*
X112025677Y-124087099D01*
X112017223Y-124098427D01*
X112023968Y-124110758D01*
X113046115Y-125132905D01*
X113080141Y-125195217D01*
X113075076Y-125266032D01*
X113046115Y-125311095D01*
X112022737Y-126334473D01*
X112015977Y-126346853D01*
X112021258Y-126353907D01*
X112067969Y-126381203D01*
X112116693Y-126432841D01*
X112129764Y-126502624D01*
X112103033Y-126568396D01*
X112062584Y-126601752D01*
X112049607Y-126608507D01*
X112045474Y-126611610D01*
X112045471Y-126611612D01*
X111875100Y-126739530D01*
X111870965Y-126742635D01*
X111716629Y-126904138D01*
X111713715Y-126908410D01*
X111713714Y-126908411D01*
X111672064Y-126969468D01*
X111590743Y-127088680D01*
X111552011Y-127172121D01*
X111502290Y-127279237D01*
X111496688Y-127291305D01*
X111436989Y-127506570D01*
X111413251Y-127728695D01*
X111413548Y-127733848D01*
X111413548Y-127733851D01*
X111423519Y-127906782D01*
X111426110Y-127951715D01*
X111427247Y-127956761D01*
X111427248Y-127956767D01*
X111448275Y-128050069D01*
X111458124Y-128093769D01*
X111459453Y-128099668D01*
X111454917Y-128170520D01*
X111425631Y-128216464D01*
X110353036Y-129289059D01*
X110290724Y-129323085D01*
X110263941Y-129325964D01*
X105529254Y-129325964D01*
X105461133Y-129305962D01*
X105414640Y-129252306D01*
X105404536Y-129182032D01*
X105434030Y-129117452D01*
X105493046Y-129079278D01*
X105500263Y-129077113D01*
X105535197Y-129066632D01*
X105648429Y-129032661D01*
X105648434Y-129032659D01*
X105653384Y-129031174D01*
X105853994Y-128932896D01*
X106035860Y-128803173D01*
X106046273Y-128792797D01*
X106134691Y-128704687D01*
X106194096Y-128645489D01*
X106204975Y-128630350D01*
X106321435Y-128468277D01*
X106324453Y-128464077D01*
X106328611Y-128455665D01*
X106421136Y-128268453D01*
X106421137Y-128268451D01*
X106423430Y-128263811D01*
X106488370Y-128050069D01*
X106517529Y-127828590D01*
X106518752Y-127778526D01*
X106519074Y-127765365D01*
X106519074Y-127765361D01*
X106519156Y-127762000D01*
X106500852Y-127539361D01*
X106502661Y-127539212D01*
X106510307Y-127476606D01*
X106555649Y-127421974D01*
X106626008Y-127400500D01*
X106775487Y-127400500D01*
X106781939Y-127399128D01*
X106781944Y-127399128D01*
X106884097Y-127377414D01*
X106962288Y-127360794D01*
X106968319Y-127358109D01*
X107130722Y-127285803D01*
X107130724Y-127285802D01*
X107136752Y-127283118D01*
X107146990Y-127275680D01*
X107202083Y-127235652D01*
X107291253Y-127170866D01*
X107306602Y-127153819D01*
X107414621Y-127033852D01*
X107414622Y-127033851D01*
X107419040Y-127028944D01*
X107486633Y-126911869D01*
X107511223Y-126869279D01*
X107511224Y-126869278D01*
X107514527Y-126863556D01*
X107573542Y-126681928D01*
X107590907Y-126516706D01*
X107617920Y-126451050D01*
X107627122Y-126440782D01*
X108874041Y-125193863D01*
X111414050Y-125193863D01*
X111426309Y-125406477D01*
X111427745Y-125416697D01*
X111474565Y-125624446D01*
X111477645Y-125634275D01*
X111557770Y-125831603D01*
X111562413Y-125840794D01*
X111642460Y-125971420D01*
X111652916Y-125980880D01*
X111661694Y-125977096D01*
X112403978Y-125234812D01*
X112411592Y-125220868D01*
X112411461Y-125219035D01*
X112407210Y-125212420D01*
X111665849Y-124471059D01*
X111654313Y-124464759D01*
X111642031Y-124474382D01*
X111594089Y-124544662D01*
X111589004Y-124553613D01*
X111499338Y-124746783D01*
X111495775Y-124756470D01*
X111438864Y-124961681D01*
X111436933Y-124971800D01*
X111414302Y-125183574D01*
X111414050Y-125193863D01*
X108874041Y-125193863D01*
X111222096Y-122845808D01*
X111284408Y-122811782D01*
X111355223Y-122816847D01*
G37*
G04 #@! TD.AperFunction*
M02*
