G04 #@! TF.GenerationSoftware,KiCad,Pcbnew,(6.0.6-0)*
G04 #@! TF.CreationDate,2022-09-04T13:15:17-04:00*
G04 #@! TF.ProjectId,dial_toner_mx,6469616c-5f74-46f6-9e65-725f6d782e6b,rev?*
G04 #@! TF.SameCoordinates,Original*
G04 #@! TF.FileFunction,Legend,Bot*
G04 #@! TF.FilePolarity,Positive*
%FSLAX46Y46*%
G04 Gerber Fmt 4.6, Leading zero omitted, Abs format (unit mm)*
G04 Created by KiCad (PCBNEW (6.0.6-0)) date 2022-09-04 13:15:17*
%MOMM*%
%LPD*%
G01*
G04 APERTURE LIST*
G04 Aperture macros list*
%AMRoundRect*
0 Rectangle with rounded corners*
0 $1 Rounding radius*
0 $2 $3 $4 $5 $6 $7 $8 $9 X,Y pos of 4 corners*
0 Add a 4 corners polygon primitive as box body*
4,1,4,$2,$3,$4,$5,$6,$7,$8,$9,$2,$3,0*
0 Add four circle primitives for the rounded corners*
1,1,$1+$1,$2,$3*
1,1,$1+$1,$4,$5*
1,1,$1+$1,$6,$7*
1,1,$1+$1,$8,$9*
0 Add four rect primitives between the rounded corners*
20,1,$1+$1,$2,$3,$4,$5,0*
20,1,$1+$1,$4,$5,$6,$7,0*
20,1,$1+$1,$6,$7,$8,$9,0*
20,1,$1+$1,$8,$9,$2,$3,0*%
G04 Aperture macros list end*
%ADD10C,0.150000*%
%ADD11C,0.101600*%
%ADD12C,0.066040*%
%ADD13C,0.127000*%
%ADD14C,0.254000*%
%ADD15C,0.120000*%
%ADD16C,0.152400*%
%ADD17C,0.100000*%
%ADD18O,2.748280X1.998980*%
%ADD19C,1.700000*%
%ADD20C,1.701800*%
%ADD21C,0.990600*%
%ADD22C,3.429000*%
%ADD23C,2.032000*%
%ADD24R,0.800000X0.480000*%
%ADD25R,0.800000X0.320000*%
%ADD26R,1.270000X0.558800*%
%ADD27R,1.700000X0.820000*%
%ADD28RoundRect,0.205000X0.645000X0.205000X-0.645000X0.205000X-0.645000X-0.205000X0.645000X-0.205000X0*%
%ADD29RoundRect,0.150000X-0.150000X0.825000X-0.150000X-0.825000X0.150000X-0.825000X0.150000X0.825000X0*%
G04 APERTURE END LIST*
D10*
X153221523Y-120284761D02*
X153888190Y-119332380D01*
X154364380Y-120284761D02*
X154364380Y-118284761D01*
X153602476Y-118284761D01*
X153412000Y-118380000D01*
X153316761Y-118475238D01*
X153221523Y-118665714D01*
X153221523Y-118951428D01*
X153316761Y-119141904D01*
X153412000Y-119237142D01*
X153602476Y-119332380D01*
X154364380Y-119332380D01*
X151602476Y-120189523D02*
X151792952Y-120284761D01*
X152173904Y-120284761D01*
X152364380Y-120189523D01*
X152459619Y-119999047D01*
X152459619Y-119237142D01*
X152364380Y-119046666D01*
X152173904Y-118951428D01*
X151792952Y-118951428D01*
X151602476Y-119046666D01*
X151507238Y-119237142D01*
X151507238Y-119427619D01*
X152459619Y-119618095D01*
X150840571Y-118951428D02*
X150364380Y-120284761D01*
X149888190Y-118951428D01*
X147697714Y-118951428D02*
X146269142Y-118951428D01*
X147126285Y-118094285D02*
X147697714Y-120665714D01*
X146459619Y-119808571D02*
X147888190Y-119808571D01*
X147031047Y-120665714D02*
X146459619Y-118094285D01*
X145221523Y-118284761D02*
X145031047Y-118284761D01*
X144840571Y-118380000D01*
X144745333Y-118475238D01*
X144650095Y-118665714D01*
X144554857Y-119046666D01*
X144554857Y-119522857D01*
X144650095Y-119903809D01*
X144745333Y-120094285D01*
X144840571Y-120189523D01*
X145031047Y-120284761D01*
X145221523Y-120284761D01*
X145412000Y-120189523D01*
X145507238Y-120094285D01*
X145602476Y-119903809D01*
X145697714Y-119522857D01*
X145697714Y-119046666D01*
X145602476Y-118665714D01*
X145507238Y-118475238D01*
X145412000Y-118380000D01*
X145221523Y-118284761D01*
X143316761Y-118284761D02*
X143126285Y-118284761D01*
X142935809Y-118380000D01*
X142840571Y-118475238D01*
X142745333Y-118665714D01*
X142650095Y-119046666D01*
X142650095Y-119522857D01*
X142745333Y-119903809D01*
X142840571Y-120094285D01*
X142935809Y-120189523D01*
X143126285Y-120284761D01*
X143316761Y-120284761D01*
X143507238Y-120189523D01*
X143602476Y-120094285D01*
X143697714Y-119903809D01*
X143792952Y-119522857D01*
X143792952Y-119046666D01*
X143697714Y-118665714D01*
X143602476Y-118475238D01*
X143507238Y-118380000D01*
X143316761Y-118284761D01*
X141412000Y-118284761D02*
X141221523Y-118284761D01*
X141031047Y-118380000D01*
X140935809Y-118475238D01*
X140840571Y-118665714D01*
X140745333Y-119046666D01*
X140745333Y-119522857D01*
X140840571Y-119903809D01*
X140935809Y-120094285D01*
X141031047Y-120189523D01*
X141221523Y-120284761D01*
X141412000Y-120284761D01*
X141602476Y-120189523D01*
X141697714Y-120094285D01*
X141792952Y-119903809D01*
X141888190Y-119522857D01*
X141888190Y-119046666D01*
X141792952Y-118665714D01*
X141697714Y-118475238D01*
X141602476Y-118380000D01*
X141412000Y-118284761D01*
X139507238Y-118284761D02*
X139316761Y-118284761D01*
X139126285Y-118380000D01*
X139031047Y-118475238D01*
X138935809Y-118665714D01*
X138840571Y-119046666D01*
X138840571Y-119522857D01*
X138935809Y-119903809D01*
X139031047Y-120094285D01*
X139126285Y-120189523D01*
X139316761Y-120284761D01*
X139507238Y-120284761D01*
X139697714Y-120189523D01*
X139792952Y-120094285D01*
X139888190Y-119903809D01*
X139983428Y-119522857D01*
X139983428Y-119046666D01*
X139888190Y-118665714D01*
X139792952Y-118475238D01*
X139697714Y-118380000D01*
X139507238Y-118284761D01*
X137602476Y-118284761D02*
X137412000Y-118284761D01*
X137221523Y-118380000D01*
X137126285Y-118475238D01*
X137031047Y-118665714D01*
X136935809Y-119046666D01*
X136935809Y-119522857D01*
X137031047Y-119903809D01*
X137126285Y-120094285D01*
X137221523Y-120189523D01*
X137412000Y-120284761D01*
X137602476Y-120284761D01*
X137792952Y-120189523D01*
X137888190Y-120094285D01*
X137983428Y-119903809D01*
X138078666Y-119522857D01*
X138078666Y-119046666D01*
X137983428Y-118665714D01*
X137888190Y-118475238D01*
X137792952Y-118380000D01*
X137602476Y-118284761D01*
X135031047Y-120284761D02*
X136173904Y-120284761D01*
X135602476Y-120284761D02*
X135602476Y-118284761D01*
X135792952Y-118570476D01*
X135983428Y-118760952D01*
X136173904Y-118856190D01*
X132650095Y-120284761D02*
X132650095Y-118284761D01*
X132650095Y-119046666D02*
X132459619Y-118951428D01*
X132078666Y-118951428D01*
X131888190Y-119046666D01*
X131792952Y-119141904D01*
X131697714Y-119332380D01*
X131697714Y-119903809D01*
X131792952Y-120094285D01*
X131888190Y-120189523D01*
X132078666Y-120284761D01*
X132459619Y-120284761D01*
X132650095Y-120189523D01*
X131031047Y-118951428D02*
X130554857Y-120284761D01*
X130078666Y-118951428D02*
X130554857Y-120284761D01*
X130745333Y-120760952D01*
X130840571Y-120856190D01*
X131031047Y-120951428D01*
X126745333Y-118380000D02*
X126935809Y-118284761D01*
X127221523Y-118284761D01*
X127507238Y-118380000D01*
X127697714Y-118570476D01*
X127792952Y-118760952D01*
X127888190Y-119141904D01*
X127888190Y-119427619D01*
X127792952Y-119808571D01*
X127697714Y-119999047D01*
X127507238Y-120189523D01*
X127221523Y-120284761D01*
X127031047Y-120284761D01*
X126745333Y-120189523D01*
X126650095Y-120094285D01*
X126650095Y-119427619D01*
X127031047Y-119427619D01*
X124935809Y-118951428D02*
X124935809Y-120284761D01*
X125792952Y-118951428D02*
X125792952Y-119999047D01*
X125697714Y-120189523D01*
X125507238Y-120284761D01*
X125221523Y-120284761D01*
X125031047Y-120189523D01*
X124935809Y-120094285D01*
X124173904Y-118951428D02*
X123697714Y-120284761D01*
X123221523Y-118951428D02*
X123697714Y-120284761D01*
X123888190Y-120760952D01*
X123983428Y-120856190D01*
X124173904Y-120951428D01*
X120935809Y-120284761D02*
X120935809Y-118284761D01*
X120459619Y-118284761D01*
X120173904Y-118380000D01*
X119983428Y-118570476D01*
X119888190Y-118760952D01*
X119792952Y-119141904D01*
X119792952Y-119427619D01*
X119888190Y-119808571D01*
X119983428Y-119999047D01*
X120173904Y-120189523D01*
X120459619Y-120284761D01*
X120935809Y-120284761D01*
X118078666Y-118951428D02*
X118078666Y-120284761D01*
X118935809Y-118951428D02*
X118935809Y-119999047D01*
X118840571Y-120189523D01*
X118650095Y-120284761D01*
X118364380Y-120284761D01*
X118173904Y-120189523D01*
X118078666Y-120094285D01*
X117126285Y-118951428D02*
X117126285Y-120951428D01*
X117126285Y-119046666D02*
X116935809Y-118951428D01*
X116554857Y-118951428D01*
X116364380Y-119046666D01*
X116269142Y-119141904D01*
X116173904Y-119332380D01*
X116173904Y-119903809D01*
X116269142Y-120094285D01*
X116364380Y-120189523D01*
X116554857Y-120284761D01*
X116935809Y-120284761D01*
X117126285Y-120189523D01*
X115031047Y-120284761D02*
X115221523Y-120189523D01*
X115316761Y-120094285D01*
X115412000Y-119903809D01*
X115412000Y-119332380D01*
X115316761Y-119141904D01*
X115221523Y-119046666D01*
X115031047Y-118951428D01*
X114745333Y-118951428D01*
X114554857Y-119046666D01*
X114459619Y-119141904D01*
X114364380Y-119332380D01*
X114364380Y-119903809D01*
X114459619Y-120094285D01*
X114554857Y-120189523D01*
X114745333Y-120284761D01*
X115031047Y-120284761D01*
X113507238Y-118951428D02*
X113507238Y-120284761D01*
X113507238Y-119141904D02*
X113412000Y-119046666D01*
X113221523Y-118951428D01*
X112935809Y-118951428D01*
X112745333Y-119046666D01*
X112650095Y-119237142D01*
X112650095Y-120284761D01*
X111983428Y-118951428D02*
X111221523Y-118951428D01*
X111697714Y-118284761D02*
X111697714Y-119999047D01*
X111602476Y-120189523D01*
X111412000Y-120284761D01*
X111221523Y-120284761D01*
X108459619Y-121046666D02*
X108554857Y-120951428D01*
X108745333Y-120665714D01*
X108840571Y-120475238D01*
X108935809Y-120189523D01*
X109031047Y-119713333D01*
X109031047Y-119332380D01*
X108935809Y-118856190D01*
X108840571Y-118570476D01*
X108745333Y-118380000D01*
X108554857Y-118094285D01*
X108459619Y-117999047D01*
X106459619Y-119332380D02*
X106554857Y-119237142D01*
X106745333Y-119141904D01*
X106935809Y-119141904D01*
X107126285Y-119237142D01*
X107221523Y-119332380D01*
X107316761Y-119522857D01*
X107316761Y-119713333D01*
X107221523Y-119903809D01*
X107126285Y-119999047D01*
X106935809Y-120094285D01*
X106745333Y-120094285D01*
X106554857Y-119999047D01*
X106459619Y-119903809D01*
X106459619Y-119141904D02*
X106459619Y-119903809D01*
X106364380Y-119999047D01*
X106269142Y-119999047D01*
X106078666Y-119903809D01*
X105983428Y-119713333D01*
X105983428Y-119237142D01*
X106173904Y-118951428D01*
X106459619Y-118760952D01*
X106840571Y-118665714D01*
X107221523Y-118760952D01*
X107507238Y-118951428D01*
X107697714Y-119237142D01*
X107792952Y-119618095D01*
X107697714Y-119999047D01*
X107507238Y-120284761D01*
X107221523Y-120475238D01*
X106840571Y-120570476D01*
X106459619Y-120475238D01*
X106173904Y-120284761D01*
X104269142Y-118951428D02*
X104269142Y-120570476D01*
X104364380Y-120760952D01*
X104459619Y-120856190D01*
X104650095Y-120951428D01*
X104935809Y-120951428D01*
X105126285Y-120856190D01*
X104269142Y-120189523D02*
X104459619Y-120284761D01*
X104840571Y-120284761D01*
X105031047Y-120189523D01*
X105126285Y-120094285D01*
X105221523Y-119903809D01*
X105221523Y-119332380D01*
X105126285Y-119141904D01*
X105031047Y-119046666D01*
X104840571Y-118951428D01*
X104459619Y-118951428D01*
X104269142Y-119046666D01*
X103507238Y-118951428D02*
X103031047Y-120284761D01*
X102554857Y-118951428D01*
X101983428Y-118951428D02*
X101507238Y-120284761D01*
X101031047Y-118951428D02*
X101507238Y-120284761D01*
X101697714Y-120760952D01*
X101792952Y-120856190D01*
X101983428Y-120951428D01*
X100745333Y-120475238D02*
X99221523Y-120475238D01*
X97888190Y-120284761D02*
X97888190Y-118284761D01*
X97888190Y-120189523D02*
X98078666Y-120284761D01*
X98459619Y-120284761D01*
X98650095Y-120189523D01*
X98745333Y-120094285D01*
X98840571Y-119903809D01*
X98840571Y-119332380D01*
X98745333Y-119141904D01*
X98650095Y-119046666D01*
X98459619Y-118951428D01*
X98078666Y-118951428D01*
X97888190Y-119046666D01*
X97126285Y-118951428D02*
X96650095Y-120284761D01*
X96173904Y-118951428D01*
X95412000Y-118951428D02*
X95412000Y-120951428D01*
X95412000Y-119046666D02*
X95221523Y-118951428D01*
X94840571Y-118951428D01*
X94650095Y-119046666D01*
X94554857Y-119141904D01*
X94459619Y-119332380D01*
X94459619Y-119903809D01*
X94554857Y-120094285D01*
X94650095Y-120189523D01*
X94840571Y-120284761D01*
X95221523Y-120284761D01*
X95412000Y-120189523D01*
X93316761Y-120284761D02*
X93507238Y-120189523D01*
X93602476Y-120094285D01*
X93697714Y-119903809D01*
X93697714Y-119332380D01*
X93602476Y-119141904D01*
X93507238Y-119046666D01*
X93316761Y-118951428D01*
X93031047Y-118951428D01*
X92840571Y-119046666D01*
X92745333Y-119141904D01*
X92650095Y-119332380D01*
X92650095Y-119903809D01*
X92745333Y-120094285D01*
X92840571Y-120189523D01*
X93031047Y-120284761D01*
X93316761Y-120284761D01*
X91792952Y-118951428D02*
X91792952Y-120284761D01*
X91792952Y-119141904D02*
X91697714Y-119046666D01*
X91507238Y-118951428D01*
X91221523Y-118951428D01*
X91031047Y-119046666D01*
X90935809Y-119237142D01*
X90935809Y-120284761D01*
X90269142Y-118951428D02*
X89507238Y-118951428D01*
X89983428Y-118284761D02*
X89983428Y-119999047D01*
X89888190Y-120189523D01*
X89697714Y-120284761D01*
X89507238Y-120284761D01*
X89031047Y-121046666D02*
X88935809Y-120951428D01*
X88745333Y-120665714D01*
X88650095Y-120475238D01*
X88554857Y-120189523D01*
X88459619Y-119713333D01*
X88459619Y-119332380D01*
X88554857Y-118856190D01*
X88650095Y-118570476D01*
X88745333Y-118380000D01*
X88935809Y-118094285D01*
X89031047Y-117999047D01*
D11*
X175746833Y-117559666D02*
X175746833Y-118279333D01*
X175704500Y-118364000D01*
X175662166Y-118406333D01*
X175577500Y-118448666D01*
X175408166Y-118448666D01*
X175323500Y-118406333D01*
X175281166Y-118364000D01*
X175238833Y-118279333D01*
X175238833Y-117559666D01*
X174434500Y-117559666D02*
X174603833Y-117559666D01*
X174688500Y-117602000D01*
X174730833Y-117644333D01*
X174815500Y-117771333D01*
X174857833Y-117940666D01*
X174857833Y-118279333D01*
X174815500Y-118364000D01*
X174773166Y-118406333D01*
X174688500Y-118448666D01*
X174519166Y-118448666D01*
X174434500Y-118406333D01*
X174392166Y-118364000D01*
X174349833Y-118279333D01*
X174349833Y-118067666D01*
X174392166Y-117983000D01*
X174434500Y-117940666D01*
X174519166Y-117898333D01*
X174688500Y-117898333D01*
X174773166Y-117940666D01*
X174815500Y-117983000D01*
X174857833Y-118067666D01*
D10*
X145597476Y-131256380D02*
X145930809Y-130780190D01*
X146168904Y-131256380D02*
X146168904Y-130256380D01*
X145787952Y-130256380D01*
X145692714Y-130304000D01*
X145645095Y-130351619D01*
X145597476Y-130446857D01*
X145597476Y-130589714D01*
X145645095Y-130684952D01*
X145692714Y-130732571D01*
X145787952Y-130780190D01*
X146168904Y-130780190D01*
X145168904Y-131256380D02*
X145168904Y-130256380D01*
X144597476Y-131256380D01*
X144597476Y-130256380D01*
X144216523Y-130256380D02*
X143597476Y-130256380D01*
X143930809Y-130637333D01*
X143787952Y-130637333D01*
X143692714Y-130684952D01*
X143645095Y-130732571D01*
X143597476Y-130827809D01*
X143597476Y-131065904D01*
X143645095Y-131161142D01*
X143692714Y-131208761D01*
X143787952Y-131256380D01*
X144073666Y-131256380D01*
X144168904Y-131208761D01*
X144216523Y-131161142D01*
X189634931Y-117185710D02*
X189634931Y-118513565D01*
X189556822Y-118669783D01*
X189478713Y-118747892D01*
X189322495Y-118826001D01*
X189010058Y-118826001D01*
X188853840Y-118747892D01*
X188775731Y-118669783D01*
X188697622Y-118513565D01*
X188697622Y-117185710D01*
X187057331Y-118826001D02*
X187994640Y-118826001D01*
X187525985Y-118826001D02*
X187525985Y-117185710D01*
X187682204Y-117420037D01*
X187838422Y-117576255D01*
X187994640Y-117654364D01*
X186041913Y-117185710D02*
X185885694Y-117185710D01*
X185729476Y-117263819D01*
X185651367Y-117341928D01*
X185573258Y-117498146D01*
X185495149Y-117810583D01*
X185495149Y-118201128D01*
X185573258Y-118513565D01*
X185651367Y-118669783D01*
X185729476Y-118747892D01*
X185885694Y-118826001D01*
X186041913Y-118826001D01*
X186198131Y-118747892D01*
X186276240Y-118669783D01*
X186354349Y-118513565D01*
X186432458Y-118201128D01*
X186432458Y-117810583D01*
X186354349Y-117498146D01*
X186276240Y-117341928D01*
X186198131Y-117263819D01*
X186041913Y-117185710D01*
X120197476Y-131383380D02*
X120530809Y-130907190D01*
X120768904Y-131383380D02*
X120768904Y-130383380D01*
X120387952Y-130383380D01*
X120292714Y-130431000D01*
X120245095Y-130478619D01*
X120197476Y-130573857D01*
X120197476Y-130716714D01*
X120245095Y-130811952D01*
X120292714Y-130859571D01*
X120387952Y-130907190D01*
X120768904Y-130907190D01*
X119768904Y-131383380D02*
X119768904Y-130383380D01*
X119197476Y-131383380D01*
X119197476Y-130383380D01*
X118768904Y-130478619D02*
X118721285Y-130431000D01*
X118626047Y-130383380D01*
X118387952Y-130383380D01*
X118292714Y-130431000D01*
X118245095Y-130478619D01*
X118197476Y-130573857D01*
X118197476Y-130669095D01*
X118245095Y-130811952D01*
X118816523Y-131383380D01*
X118197476Y-131383380D01*
X194318666Y-133226666D02*
X194318666Y-132526666D01*
X194152000Y-132526666D01*
X194052000Y-132560000D01*
X193985333Y-132626666D01*
X193952000Y-132693333D01*
X193918666Y-132826666D01*
X193918666Y-132926666D01*
X193952000Y-133060000D01*
X193985333Y-133126666D01*
X194052000Y-133193333D01*
X194152000Y-133226666D01*
X194318666Y-133226666D01*
X193252000Y-133226666D02*
X193652000Y-133226666D01*
X193452000Y-133226666D02*
X193452000Y-132526666D01*
X193518666Y-132626666D01*
X193585333Y-132693333D01*
X193652000Y-132726666D01*
X94797476Y-131256380D02*
X95130809Y-130780190D01*
X95368904Y-131256380D02*
X95368904Y-130256380D01*
X94987952Y-130256380D01*
X94892714Y-130304000D01*
X94845095Y-130351619D01*
X94797476Y-130446857D01*
X94797476Y-130589714D01*
X94845095Y-130684952D01*
X94892714Y-130732571D01*
X94987952Y-130780190D01*
X95368904Y-130780190D01*
X94368904Y-131256380D02*
X94368904Y-130256380D01*
X93797476Y-131256380D01*
X93797476Y-130256380D01*
X92797476Y-131256380D02*
X93368904Y-131256380D01*
X93083190Y-131256380D02*
X93083190Y-130256380D01*
X93178428Y-130399238D01*
X93273666Y-130494476D01*
X93368904Y-130542095D01*
X147603380Y-134143904D02*
X148412904Y-134143904D01*
X148508142Y-134191523D01*
X148555761Y-134239142D01*
X148603380Y-134334380D01*
X148603380Y-134524857D01*
X148555761Y-134620095D01*
X148508142Y-134667714D01*
X148412904Y-134715333D01*
X147603380Y-134715333D01*
X148603380Y-135715333D02*
X148603380Y-135143904D01*
X148603380Y-135429619D02*
X147603380Y-135429619D01*
X147746238Y-135334380D01*
X147841476Y-135239142D01*
X147889095Y-135143904D01*
X148603380Y-136667714D02*
X148603380Y-136096285D01*
X148603380Y-136382000D02*
X147603380Y-136382000D01*
X147746238Y-136286761D01*
X147841476Y-136191523D01*
X147889095Y-136096285D01*
X122203380Y-134747095D02*
X123012904Y-134747095D01*
X123108142Y-134794714D01*
X123155761Y-134842333D01*
X123203380Y-134937571D01*
X123203380Y-135128047D01*
X123155761Y-135223285D01*
X123108142Y-135270904D01*
X123012904Y-135318523D01*
X122203380Y-135318523D01*
X122203380Y-135699476D02*
X122203380Y-136366142D01*
X123203380Y-135937571D01*
X96803380Y-134620095D02*
X97612904Y-134620095D01*
X97708142Y-134667714D01*
X97755761Y-134715333D01*
X97803380Y-134810571D01*
X97803380Y-135001047D01*
X97755761Y-135096285D01*
X97708142Y-135143904D01*
X97612904Y-135191523D01*
X96803380Y-135191523D01*
X96803380Y-135572476D02*
X96803380Y-136191523D01*
X97184333Y-135858190D01*
X97184333Y-136001047D01*
X97231952Y-136096285D01*
X97279571Y-136143904D01*
X97374809Y-136191523D01*
X97612904Y-136191523D01*
X97708142Y-136143904D01*
X97755761Y-136096285D01*
X97803380Y-136001047D01*
X97803380Y-135715333D01*
X97755761Y-135620095D01*
X97708142Y-135572476D01*
D12*
X172085000Y-121412000D02*
X172085000Y-118745000D01*
X178054000Y-119507000D02*
X172974000Y-119507000D01*
X172974000Y-122047000D02*
X172974000Y-119507000D01*
X172085000Y-125478540D02*
X170307000Y-125478540D01*
X180721000Y-118745000D02*
X178943000Y-118745000D01*
D13*
X180004720Y-117403880D02*
X171010580Y-117403880D01*
D12*
X170307000Y-125478540D02*
X170307000Y-122809000D01*
X178943000Y-125478540D02*
X178943000Y-122809000D01*
X178054000Y-139192000D02*
X172339000Y-139192000D01*
X178054000Y-136652000D02*
X172339000Y-136652000D01*
X172339000Y-139192000D02*
X172339000Y-136652000D01*
X180721000Y-125478540D02*
X178943000Y-125478540D01*
X172085000Y-121412000D02*
X170307000Y-121412000D01*
X180721000Y-122809000D02*
X178943000Y-122809000D01*
D13*
X180009800Y-124757180D02*
X180009800Y-117403880D01*
D12*
X178054000Y-139192000D02*
X178054000Y-136652000D01*
D13*
X171010580Y-117403880D02*
X171010580Y-124757180D01*
D12*
X180721000Y-121412000D02*
X178943000Y-121412000D01*
X178054000Y-122047000D02*
X178054000Y-119507000D01*
X178943000Y-121412000D02*
X178943000Y-118745000D01*
D13*
X184404000Y-139827000D02*
X166606220Y-139827000D01*
D12*
X170307000Y-121412000D02*
X170307000Y-118745000D01*
X172085000Y-125478540D02*
X172085000Y-122809000D01*
X180721000Y-121412000D02*
X180721000Y-118745000D01*
X172085000Y-118745000D02*
X170307000Y-118745000D01*
D13*
X171010580Y-124757180D02*
X180009800Y-124757180D01*
D12*
X178054000Y-122047000D02*
X172974000Y-122047000D01*
X172085000Y-122809000D02*
X170307000Y-122809000D01*
D13*
X166606220Y-118828820D02*
X183733440Y-118828820D01*
D12*
X180721000Y-125478540D02*
X180721000Y-122809000D01*
D14*
X185420000Y-121666000D02*
G75*
G03*
X185420000Y-121666000I-127000J0D01*
G01*
D15*
X144377000Y-131784000D02*
X145437000Y-131784000D01*
X144377000Y-135424000D02*
X145437000Y-135424000D01*
D16*
X189052200Y-120116600D02*
G75*
G03*
X189661800Y-120116600I304800J0D01*
G01*
X189966600Y-123215400D02*
X188747400Y-123215400D01*
X188747400Y-120116600D02*
X189052200Y-120116600D01*
X189661800Y-120116600D02*
X189966600Y-120116600D01*
X188518800Y-121996200D02*
X188518800Y-121335800D01*
X189052200Y-120116600D02*
X189661800Y-120116600D01*
D15*
X118977000Y-135551000D02*
X120037000Y-135551000D01*
X118977000Y-131911000D02*
X120037000Y-131911000D01*
G36*
X191602000Y-129410000D02*
G01*
X191002000Y-129410000D01*
X191602000Y-128810000D01*
X191602000Y-129410000D01*
G37*
D17*
X191602000Y-129410000D02*
X191002000Y-129410000D01*
X191602000Y-128810000D01*
X191602000Y-129410000D01*
D15*
X93577000Y-135424000D02*
X94637000Y-135424000D01*
X93577000Y-131784000D02*
X94637000Y-131784000D01*
X148991000Y-135382000D02*
X148991000Y-131932000D01*
X148991000Y-135382000D02*
X148991000Y-137332000D01*
X159111000Y-135382000D02*
X159111000Y-133432000D01*
X159111000Y-135382000D02*
X159111000Y-137332000D01*
X123591000Y-135509000D02*
X123591000Y-132059000D01*
X133711000Y-135509000D02*
X133711000Y-133559000D01*
X133711000Y-135509000D02*
X133711000Y-137459000D01*
X123591000Y-135509000D02*
X123591000Y-137459000D01*
X98191000Y-135382000D02*
X98191000Y-137332000D01*
X108311000Y-135382000D02*
X108311000Y-133432000D01*
X98191000Y-135382000D02*
X98191000Y-131932000D01*
X108311000Y-135382000D02*
X108311000Y-137332000D01*
%LPC*%
D18*
X183570880Y-121709180D03*
X183570880Y-124249180D03*
X183570880Y-126789180D03*
X183570880Y-129329180D03*
X183570880Y-131869180D03*
X183570880Y-134409180D03*
X183570880Y-136949180D03*
X167406320Y-136949180D03*
X167406320Y-134409180D03*
X167406320Y-131869180D03*
X167406320Y-129329180D03*
X167406320Y-126789180D03*
X167406320Y-124249180D03*
X167406320Y-121709180D03*
D19*
X143256000Y-122682000D03*
X143256000Y-125222000D03*
X143256000Y-127762000D03*
X150876000Y-122682000D03*
X150876000Y-125222000D03*
X150876000Y-127762000D03*
D20*
X188302000Y-125984000D03*
D21*
X188582000Y-130184000D03*
D22*
X193802000Y-125984000D03*
D20*
X199302000Y-125984000D03*
D23*
X193802000Y-120084000D03*
X198802000Y-122184000D03*
D19*
X105156000Y-122682000D03*
X105156000Y-125222000D03*
X105156000Y-127762000D03*
X112776000Y-122682000D03*
X112776000Y-125222000D03*
X112776000Y-127762000D03*
X130556000Y-122682000D03*
X130556000Y-125222000D03*
X130556000Y-127762000D03*
X138176000Y-122682000D03*
X138176000Y-125222000D03*
X138176000Y-127762000D03*
X117856000Y-122682000D03*
X117856000Y-125222000D03*
X117856000Y-127762000D03*
X125476000Y-122682000D03*
X125476000Y-125222000D03*
X125476000Y-127762000D03*
X155956000Y-122682000D03*
X155956000Y-125222000D03*
X155956000Y-127762000D03*
X163576000Y-122682000D03*
X163576000Y-125222000D03*
X163576000Y-127762000D03*
X92456000Y-122682000D03*
X92456000Y-125222000D03*
X92456000Y-127762000D03*
X100076000Y-122682000D03*
X100076000Y-125222000D03*
X100076000Y-127762000D03*
D24*
X145807000Y-132244000D03*
D25*
X145807000Y-132964000D03*
X145807000Y-133604000D03*
X145807000Y-134244000D03*
D24*
X145807000Y-134964000D03*
X144007000Y-134964000D03*
D25*
X144007000Y-134244000D03*
X144007000Y-133604000D03*
X144007000Y-132964000D03*
D24*
X144007000Y-132244000D03*
D26*
X188061600Y-120726200D03*
X188061600Y-122605800D03*
X190652400Y-122605800D03*
X190652400Y-121666000D03*
X190652400Y-120726200D03*
D24*
X120407000Y-132371000D03*
D25*
X120407000Y-133091000D03*
X120407000Y-133731000D03*
X120407000Y-134371000D03*
D24*
X120407000Y-135091000D03*
X118607000Y-135091000D03*
D25*
X118607000Y-134371000D03*
X118607000Y-133731000D03*
X118607000Y-133091000D03*
D24*
X118607000Y-132371000D03*
D27*
X196469000Y-131560000D03*
X196469000Y-130060000D03*
D28*
X191135000Y-130060000D03*
D27*
X191135000Y-131560000D03*
D24*
X95007000Y-132244000D03*
D25*
X95007000Y-132964000D03*
X95007000Y-133604000D03*
X95007000Y-134244000D03*
D24*
X95007000Y-134964000D03*
X93207000Y-134964000D03*
D25*
X93207000Y-134244000D03*
X93207000Y-133604000D03*
X93207000Y-132964000D03*
D24*
X93207000Y-132244000D03*
D29*
X149606000Y-137857000D03*
X150876000Y-137857000D03*
X152146000Y-137857000D03*
X153416000Y-137857000D03*
X154686000Y-137857000D03*
X155956000Y-137857000D03*
X157226000Y-137857000D03*
X158496000Y-137857000D03*
X158496000Y-132907000D03*
X157226000Y-132907000D03*
X155956000Y-132907000D03*
X154686000Y-132907000D03*
X153416000Y-132907000D03*
X152146000Y-132907000D03*
X150876000Y-132907000D03*
X149606000Y-132907000D03*
X124206000Y-133034000D03*
X125476000Y-133034000D03*
X126746000Y-133034000D03*
X128016000Y-133034000D03*
X129286000Y-133034000D03*
X130556000Y-133034000D03*
X131826000Y-133034000D03*
X133096000Y-133034000D03*
X133096000Y-137984000D03*
X131826000Y-137984000D03*
X130556000Y-137984000D03*
X129286000Y-137984000D03*
X128016000Y-137984000D03*
X126746000Y-137984000D03*
X125476000Y-137984000D03*
X124206000Y-137984000D03*
X98806000Y-132907000D03*
X100076000Y-132907000D03*
X101346000Y-132907000D03*
X102616000Y-132907000D03*
X103886000Y-132907000D03*
X105156000Y-132907000D03*
X106426000Y-132907000D03*
X107696000Y-132907000D03*
X107696000Y-137857000D03*
X106426000Y-137857000D03*
X105156000Y-137857000D03*
X103886000Y-137857000D03*
X102616000Y-137857000D03*
X101346000Y-137857000D03*
X100076000Y-137857000D03*
X98806000Y-137857000D03*
M02*
