G04 #@! TF.GenerationSoftware,KiCad,Pcbnew,(6.0.6-0)*
G04 #@! TF.CreationDate,2022-09-04T13:15:17-04:00*
G04 #@! TF.ProjectId,dial_toner_mx,6469616c-5f74-46f6-9e65-725f6d782e6b,rev?*
G04 #@! TF.SameCoordinates,Original*
G04 #@! TF.FileFunction,Copper,L1,Top*
G04 #@! TF.FilePolarity,Positive*
%FSLAX46Y46*%
G04 Gerber Fmt 4.6, Leading zero omitted, Abs format (unit mm)*
G04 Created by KiCad (PCBNEW (6.0.6-0)) date 2022-09-04 13:15:17*
%MOMM*%
%LPD*%
G01*
G04 APERTURE LIST*
G04 #@! TA.AperFunction,ComponentPad*
%ADD10C,1.700000*%
G04 #@! TD*
G04 #@! TA.AperFunction,ComponentPad*
%ADD11C,2.032000*%
G04 #@! TD*
G04 #@! TA.AperFunction,ViaPad*
%ADD12C,0.800000*%
G04 #@! TD*
G04 #@! TA.AperFunction,Conductor*
%ADD13C,0.750000*%
G04 #@! TD*
G04 #@! TA.AperFunction,Conductor*
%ADD14C,0.250000*%
G04 #@! TD*
G04 APERTURE END LIST*
D10*
X143256000Y-122682000D03*
X143256000Y-125222000D03*
X143256000Y-127762000D03*
X150876000Y-122682000D03*
X150876000Y-125222000D03*
X150876000Y-127762000D03*
D11*
X193802000Y-120084000D03*
X198802000Y-122184000D03*
D10*
X105156000Y-122682000D03*
X105156000Y-125222000D03*
X105156000Y-127762000D03*
X112776000Y-122682000D03*
X112776000Y-125222000D03*
X112776000Y-127762000D03*
X130556000Y-122682000D03*
X130556000Y-125222000D03*
X130556000Y-127762000D03*
X138176000Y-122682000D03*
X138176000Y-125222000D03*
X138176000Y-127762000D03*
X117856000Y-122682000D03*
X117856000Y-125222000D03*
X117856000Y-127762000D03*
X125476000Y-122682000D03*
X125476000Y-125222000D03*
X125476000Y-127762000D03*
X155956000Y-122682000D03*
X155956000Y-125222000D03*
X155956000Y-127762000D03*
X163576000Y-122682000D03*
X163576000Y-125222000D03*
X163576000Y-127762000D03*
X92456000Y-122682000D03*
X92456000Y-125222000D03*
X92456000Y-127762000D03*
X100076000Y-122682000D03*
X100076000Y-125222000D03*
X100076000Y-127762000D03*
D12*
X203200000Y-138684000D03*
X108712000Y-138938000D03*
X134112000Y-138811000D03*
X159766000Y-138811000D03*
X132334000Y-126746000D03*
X180213000Y-122682000D03*
X106680000Y-126492000D03*
X181610000Y-122682000D03*
X165862000Y-138557000D03*
X159004000Y-129667000D03*
X93201500Y-130937000D03*
X118607500Y-130937000D03*
X144007500Y-131064000D03*
X162560000Y-131572000D03*
X97409000Y-137922000D03*
X123063000Y-137922000D03*
X148463000Y-137795000D03*
X150564500Y-131386500D03*
X151961500Y-131386500D03*
X156464000Y-130937000D03*
X146939000Y-135382000D03*
X148088000Y-135365500D03*
X125164500Y-131513500D03*
X126561500Y-131513500D03*
X131064000Y-131064000D03*
X121666000Y-135382000D03*
X122809000Y-135382000D03*
X96266000Y-135382000D03*
X97282000Y-135382000D03*
X105791000Y-130937000D03*
X101155500Y-131381500D03*
X99758500Y-131381500D03*
D13*
X93201500Y-130937000D02*
X93201500Y-136254500D01*
X93201500Y-136254500D02*
X94869000Y-137922000D01*
X94869000Y-137922000D02*
X97409000Y-137922000D01*
D14*
X148088000Y-125481000D02*
X150882000Y-122687000D01*
X148088000Y-135365500D02*
X148088000Y-125481000D01*
X146939000Y-135382000D02*
X147326000Y-134995000D01*
X147326000Y-134995000D02*
X147326000Y-130435000D01*
X147326000Y-130435000D02*
X144658000Y-127767000D01*
X144658000Y-127767000D02*
X143262000Y-127767000D01*
X122809000Y-135382000D02*
X122688000Y-135261000D01*
X122688000Y-135261000D02*
X122688000Y-125608000D01*
X122688000Y-125608000D02*
X125482000Y-122814000D01*
X119131000Y-127894000D02*
X117862000Y-127894000D01*
X121666000Y-135382000D02*
X121926000Y-135122000D01*
X121926000Y-135122000D02*
X121926000Y-130689000D01*
X121926000Y-130689000D02*
X119131000Y-127894000D01*
X97282000Y-135382000D02*
X97282000Y-125476000D01*
X97282000Y-125476000D02*
X100076000Y-122682000D01*
X96266000Y-135382000D02*
X96520000Y-135128000D01*
X96520000Y-135128000D02*
X96520000Y-130683000D01*
X96520000Y-130683000D02*
X93599000Y-127762000D01*
X93599000Y-127762000D02*
X92456000Y-127762000D01*
X159004000Y-129667000D02*
X161577068Y-129667000D01*
X161577068Y-129667000D02*
X165862000Y-133951932D01*
X165862000Y-133951932D02*
X165862000Y-138557000D01*
D13*
X162560000Y-131572000D02*
X162433000Y-131699000D01*
X162433000Y-131699000D02*
X162433000Y-135509000D01*
X162433000Y-135509000D02*
X160147000Y-137795000D01*
X160147000Y-137795000D02*
X148463000Y-137795000D01*
D14*
X150564500Y-131386500D02*
X151268000Y-130683000D01*
X151268000Y-130683000D02*
X154813000Y-130683000D01*
X154813000Y-130683000D02*
X155962000Y-129534000D01*
X155962000Y-129534000D02*
X155962000Y-127767000D01*
X180213000Y-122682000D02*
X178054000Y-120523000D01*
X178054000Y-120523000D02*
X138557000Y-120523000D01*
X138557000Y-120523000D02*
X132334000Y-126746000D01*
X181610000Y-122682000D02*
X178689000Y-119761000D01*
X178689000Y-119761000D02*
X113411000Y-119761000D01*
X113411000Y-119761000D02*
X106680000Y-126492000D01*
X151961500Y-131386500D02*
X155125500Y-131386500D01*
X155125500Y-131386500D02*
X155812000Y-130700000D01*
X155812000Y-130700000D02*
X155812000Y-130666932D01*
X155812000Y-130666932D02*
X156193932Y-130285000D01*
X156193932Y-130285000D02*
X156227000Y-130285000D01*
X156227000Y-130285000D02*
X158115000Y-128397000D01*
X158115000Y-128397000D02*
X162952000Y-128397000D01*
X162952000Y-128397000D02*
X163582000Y-127767000D01*
X101155500Y-131381500D02*
X101282500Y-131381500D01*
X101282500Y-131381500D02*
X102704536Y-129959464D01*
X102704536Y-129959464D02*
X110578536Y-129959464D01*
X110578536Y-129959464D02*
X112776000Y-127762000D01*
X126561500Y-131513500D02*
X128027000Y-130048000D01*
X128027000Y-130048000D02*
X136398000Y-130048000D01*
X136398000Y-130048000D02*
X138182000Y-128264000D01*
X138182000Y-128264000D02*
X138182000Y-127894000D01*
X108839000Y-138811000D02*
X108712000Y-138938000D01*
X134112000Y-138811000D02*
X108839000Y-138811000D01*
X159766000Y-138811000D02*
X134112000Y-138811000D01*
X156464000Y-130937000D02*
X158537000Y-128864000D01*
X158537000Y-128864000D02*
X164032464Y-128864000D01*
X164684000Y-128212464D02*
X164684000Y-123789000D01*
X164032464Y-128864000D02*
X164684000Y-128212464D01*
X164684000Y-123789000D02*
X163582000Y-122687000D01*
D13*
X118491000Y-137922000D02*
X107188000Y-137922000D01*
X123063000Y-137922000D02*
X118491000Y-137922000D01*
X118607500Y-130937000D02*
X118491000Y-131053500D01*
X118491000Y-131053500D02*
X118491000Y-137922000D01*
X148463000Y-137795000D02*
X144018000Y-137795000D01*
X144018000Y-137795000D02*
X132461000Y-137795000D01*
X144007500Y-131064000D02*
X144018000Y-131074500D01*
X144018000Y-131074500D02*
X144018000Y-137795000D01*
X132461000Y-137795000D02*
X123190000Y-137795000D01*
X107188000Y-137922000D02*
X97409000Y-137922000D01*
X123190000Y-137795000D02*
X123063000Y-137922000D01*
D14*
X105791000Y-130937000D02*
X106391536Y-130336464D01*
X106391536Y-130336464D02*
X111760000Y-130336464D01*
X111760000Y-130336464D02*
X113878000Y-128218464D01*
X113878000Y-128218464D02*
X113878000Y-123784000D01*
X113878000Y-123784000D02*
X112776000Y-122682000D01*
X131064000Y-131064000D02*
X131659536Y-130468464D01*
X131659536Y-130468464D02*
X137166000Y-130468464D01*
X137166000Y-130468464D02*
X139284000Y-128350464D01*
X139284000Y-128350464D02*
X139284000Y-123916000D01*
X139284000Y-123916000D02*
X138182000Y-122814000D01*
X128784000Y-127894000D02*
X130562000Y-127894000D01*
X125164500Y-131513500D02*
X128784000Y-127894000D01*
X99758500Y-131381500D02*
X103378000Y-127762000D01*
X103378000Y-127762000D02*
X105156000Y-127762000D01*
G04 #@! TA.AperFunction,Conductor*
G36*
X157611909Y-117108940D02*
G01*
X203912622Y-117112548D01*
X203931992Y-117114048D01*
X203955724Y-117117743D01*
X203966746Y-117116302D01*
X203995430Y-117115845D01*
X204098207Y-117125968D01*
X204122427Y-117130785D01*
X204211760Y-117157885D01*
X204241527Y-117166915D01*
X204264344Y-117176366D01*
X204368153Y-117231855D01*
X204374102Y-117235035D01*
X204394639Y-117248758D01*
X204490841Y-117327711D01*
X204508307Y-117345178D01*
X204587260Y-117441387D01*
X204600983Y-117461925D01*
X204659644Y-117571680D01*
X204669096Y-117594501D01*
X204705220Y-117713600D01*
X204710038Y-117737827D01*
X204719511Y-117834047D01*
X204719064Y-117849900D01*
X204719801Y-117849909D01*
X204719691Y-117858882D01*
X204718309Y-117867755D01*
X204719473Y-117876659D01*
X204719473Y-117876661D01*
X204722454Y-117899465D01*
X204723517Y-117915744D01*
X204730492Y-134584893D01*
X204732469Y-139309556D01*
X204732505Y-139396716D01*
X204731005Y-139416153D01*
X204727335Y-139439724D01*
X204728499Y-139448626D01*
X204728776Y-139450746D01*
X204729233Y-139479431D01*
X204719111Y-139582210D01*
X204714293Y-139606436D01*
X204678162Y-139725546D01*
X204668709Y-139748367D01*
X204610037Y-139858134D01*
X204596316Y-139878669D01*
X204517357Y-139974884D01*
X204499899Y-139992343D01*
X204403681Y-140071308D01*
X204383144Y-140085030D01*
X204273378Y-140143703D01*
X204250560Y-140153156D01*
X204232734Y-140158564D01*
X204131449Y-140189290D01*
X204107232Y-140194107D01*
X204050234Y-140199723D01*
X204011308Y-140203557D01*
X203995147Y-140203102D01*
X203995138Y-140203800D01*
X203986164Y-140203691D01*
X203977291Y-140202309D01*
X203945703Y-140206440D01*
X203929385Y-140207504D01*
X134416637Y-140212920D01*
X88196368Y-140216522D01*
X88176976Y-140215022D01*
X88168937Y-140213771D01*
X88153291Y-140211335D01*
X88144391Y-140212499D01*
X88144383Y-140212499D01*
X88142269Y-140212776D01*
X88113584Y-140213234D01*
X88010798Y-140203113D01*
X87986571Y-140198294D01*
X87867466Y-140162166D01*
X87844646Y-140152714D01*
X87734875Y-140094043D01*
X87714338Y-140080321D01*
X87618128Y-140001367D01*
X87600662Y-139983902D01*
X87521695Y-139887685D01*
X87507971Y-139867147D01*
X87449296Y-139757379D01*
X87439845Y-139734563D01*
X87438194Y-139729118D01*
X87403712Y-139615454D01*
X87398893Y-139591230D01*
X87398005Y-139582210D01*
X87389454Y-139495408D01*
X87389910Y-139479144D01*
X87389227Y-139479136D01*
X87389336Y-139470161D01*
X87390717Y-139461291D01*
X87388258Y-139442485D01*
X87386590Y-139429735D01*
X87385526Y-139413395D01*
X87385526Y-130937000D01*
X92287996Y-130937000D01*
X92288686Y-130943565D01*
X92305812Y-131106507D01*
X92307958Y-131126928D01*
X92311778Y-131138684D01*
X92311833Y-131138854D01*
X92318000Y-131177790D01*
X92318000Y-136175043D01*
X92316449Y-136194755D01*
X92314350Y-136208007D01*
X92314695Y-136214594D01*
X92314695Y-136214598D01*
X92317827Y-136274350D01*
X92318000Y-136280945D01*
X92318000Y-136300806D01*
X92318344Y-136304077D01*
X92320076Y-136320559D01*
X92320593Y-136327128D01*
X92324070Y-136393471D01*
X92327542Y-136406429D01*
X92331145Y-136425872D01*
X92332546Y-136439202D01*
X92353078Y-136502394D01*
X92354944Y-136508696D01*
X92372138Y-136572863D01*
X92375134Y-136578742D01*
X92375137Y-136578751D01*
X92378228Y-136584817D01*
X92385792Y-136603079D01*
X92387892Y-136609543D01*
X92387895Y-136609551D01*
X92389936Y-136615831D01*
X92393238Y-136621550D01*
X92393240Y-136621555D01*
X92423154Y-136673367D01*
X92426287Y-136679137D01*
X92456453Y-136738339D01*
X92460609Y-136743471D01*
X92464891Y-136748759D01*
X92476089Y-136765052D01*
X92482796Y-136776669D01*
X92487213Y-136781575D01*
X92487217Y-136781580D01*
X92527247Y-136826038D01*
X92531531Y-136831054D01*
X92541941Y-136843909D01*
X92544028Y-136846486D01*
X92558073Y-136860531D01*
X92562614Y-136865316D01*
X92607066Y-136914685D01*
X92617926Y-136922575D01*
X92632954Y-136935412D01*
X94188088Y-138490546D01*
X94200925Y-138505574D01*
X94208815Y-138516434D01*
X94213725Y-138520855D01*
X94213726Y-138520856D01*
X94258184Y-138560886D01*
X94262969Y-138565427D01*
X94277014Y-138579472D01*
X94279588Y-138581556D01*
X94279591Y-138581559D01*
X94292446Y-138591969D01*
X94297462Y-138596253D01*
X94341920Y-138636283D01*
X94341925Y-138636287D01*
X94346831Y-138640704D01*
X94358097Y-138647209D01*
X94358448Y-138647411D01*
X94374741Y-138658609D01*
X94385161Y-138667047D01*
X94444363Y-138697213D01*
X94450133Y-138700346D01*
X94501945Y-138730260D01*
X94501950Y-138730262D01*
X94507669Y-138733564D01*
X94513949Y-138735605D01*
X94513957Y-138735608D01*
X94520421Y-138737708D01*
X94538683Y-138745272D01*
X94544749Y-138748363D01*
X94544758Y-138748366D01*
X94550637Y-138751362D01*
X94557015Y-138753071D01*
X94614804Y-138768556D01*
X94621106Y-138770422D01*
X94684298Y-138790954D01*
X94697205Y-138792311D01*
X94697628Y-138792355D01*
X94717071Y-138795958D01*
X94730029Y-138799430D01*
X94736619Y-138799775D01*
X94736623Y-138799776D01*
X94780573Y-138802079D01*
X94796372Y-138802907D01*
X94802931Y-138803423D01*
X94822694Y-138805500D01*
X94842555Y-138805500D01*
X94849150Y-138805673D01*
X94908902Y-138808805D01*
X94908906Y-138808805D01*
X94915493Y-138809150D01*
X94928747Y-138807051D01*
X94948456Y-138805500D01*
X97182653Y-138805500D01*
X97208850Y-138808253D01*
X97307056Y-138829128D01*
X97307061Y-138829128D01*
X97313513Y-138830500D01*
X97504487Y-138830500D01*
X97510939Y-138829128D01*
X97510944Y-138829128D01*
X97609150Y-138808253D01*
X97635347Y-138805500D01*
X107673186Y-138805500D01*
X107741307Y-138825502D01*
X107787800Y-138879158D01*
X107799181Y-138931479D01*
X107798496Y-138938000D01*
X107818458Y-139127928D01*
X107877473Y-139309556D01*
X107972960Y-139474944D01*
X107977378Y-139479851D01*
X107977379Y-139479852D01*
X108077664Y-139591230D01*
X108100747Y-139616866D01*
X108183664Y-139677109D01*
X108240122Y-139718128D01*
X108255248Y-139729118D01*
X108261276Y-139731802D01*
X108261278Y-139731803D01*
X108423681Y-139804109D01*
X108429712Y-139806794D01*
X108523112Y-139826647D01*
X108610056Y-139845128D01*
X108610061Y-139845128D01*
X108616513Y-139846500D01*
X108807487Y-139846500D01*
X108813939Y-139845128D01*
X108813944Y-139845128D01*
X108900888Y-139826647D01*
X108994288Y-139806794D01*
X109000319Y-139804109D01*
X109162722Y-139731803D01*
X109162724Y-139731802D01*
X109168752Y-139729118D01*
X109183879Y-139718128D01*
X109240336Y-139677109D01*
X109323253Y-139616866D01*
X109440914Y-139486190D01*
X109501360Y-139448950D01*
X109534550Y-139444500D01*
X133403800Y-139444500D01*
X133471921Y-139464502D01*
X133491147Y-139480843D01*
X133491420Y-139480540D01*
X133496332Y-139484963D01*
X133500747Y-139489866D01*
X133655248Y-139602118D01*
X133661276Y-139604802D01*
X133661278Y-139604803D01*
X133697094Y-139620749D01*
X133829712Y-139679794D01*
X133923113Y-139699647D01*
X134010056Y-139718128D01*
X134010061Y-139718128D01*
X134016513Y-139719500D01*
X134207487Y-139719500D01*
X134213939Y-139718128D01*
X134213944Y-139718128D01*
X134300887Y-139699647D01*
X134394288Y-139679794D01*
X134526906Y-139620749D01*
X134562722Y-139604803D01*
X134562724Y-139604802D01*
X134568752Y-139602118D01*
X134723253Y-139489866D01*
X134727668Y-139484963D01*
X134732580Y-139480540D01*
X134733705Y-139481789D01*
X134787014Y-139448949D01*
X134820200Y-139444500D01*
X159057800Y-139444500D01*
X159125921Y-139464502D01*
X159145147Y-139480843D01*
X159145420Y-139480540D01*
X159150332Y-139484963D01*
X159154747Y-139489866D01*
X159309248Y-139602118D01*
X159315276Y-139604802D01*
X159315278Y-139604803D01*
X159351094Y-139620749D01*
X159483712Y-139679794D01*
X159577113Y-139699647D01*
X159664056Y-139718128D01*
X159664061Y-139718128D01*
X159670513Y-139719500D01*
X159861487Y-139719500D01*
X159867939Y-139718128D01*
X159867944Y-139718128D01*
X159954887Y-139699647D01*
X160048288Y-139679794D01*
X160180906Y-139620749D01*
X160216722Y-139604803D01*
X160216724Y-139604802D01*
X160222752Y-139602118D01*
X160377253Y-139489866D01*
X160408613Y-139455037D01*
X160500621Y-139352852D01*
X160500622Y-139352851D01*
X160505040Y-139347944D01*
X160600527Y-139182556D01*
X160659542Y-139000928D01*
X160677455Y-138830500D01*
X160678814Y-138817565D01*
X160679504Y-138811000D01*
X160673430Y-138753206D01*
X160660233Y-138627642D01*
X160660232Y-138627638D01*
X160659542Y-138621072D01*
X160657501Y-138614791D01*
X160656465Y-138609917D01*
X160661867Y-138539126D01*
X160695402Y-138490083D01*
X160707307Y-138479364D01*
X160718539Y-138469251D01*
X160723554Y-138464969D01*
X160736409Y-138454559D01*
X160736412Y-138454556D01*
X160738986Y-138452472D01*
X160753031Y-138438427D01*
X160757816Y-138433886D01*
X160802274Y-138393856D01*
X160802275Y-138393855D01*
X160807185Y-138389434D01*
X160815075Y-138378574D01*
X160827912Y-138363546D01*
X163001546Y-136189912D01*
X163016574Y-136177075D01*
X163027434Y-136169185D01*
X163071886Y-136119816D01*
X163076427Y-136115031D01*
X163090472Y-136100986D01*
X163092559Y-136098409D01*
X163102969Y-136085554D01*
X163107253Y-136080538D01*
X163147283Y-136036080D01*
X163147287Y-136036075D01*
X163151704Y-136031169D01*
X163158411Y-136019552D01*
X163169609Y-136003259D01*
X163173891Y-135997971D01*
X163178047Y-135992839D01*
X163208213Y-135933637D01*
X163211346Y-135927867D01*
X163241260Y-135876055D01*
X163241262Y-135876050D01*
X163244564Y-135870331D01*
X163246605Y-135864051D01*
X163246608Y-135864043D01*
X163248708Y-135857579D01*
X163256272Y-135839317D01*
X163259363Y-135833251D01*
X163259366Y-135833242D01*
X163262362Y-135827363D01*
X163279556Y-135763196D01*
X163281422Y-135756894D01*
X163301954Y-135693702D01*
X163303355Y-135680372D01*
X163306958Y-135660929D01*
X163310430Y-135647971D01*
X163313906Y-135581646D01*
X163314423Y-135575071D01*
X163316156Y-135558579D01*
X163316500Y-135555306D01*
X163316500Y-135535432D01*
X163316673Y-135528838D01*
X163319804Y-135469099D01*
X163319804Y-135469095D01*
X163320149Y-135462507D01*
X163318051Y-135449260D01*
X163316500Y-135429550D01*
X163316500Y-132606527D01*
X163336502Y-132538406D01*
X163390158Y-132491913D01*
X163460432Y-132481809D01*
X163525012Y-132511303D01*
X163531595Y-132517432D01*
X165191595Y-134177432D01*
X165225621Y-134239744D01*
X165228500Y-134266527D01*
X165228500Y-137854476D01*
X165208498Y-137922597D01*
X165196142Y-137938779D01*
X165122960Y-138020056D01*
X165027473Y-138185444D01*
X164968458Y-138367072D01*
X164967768Y-138373633D01*
X164967768Y-138373635D01*
X164952760Y-138516434D01*
X164948496Y-138557000D01*
X164949186Y-138563565D01*
X164957294Y-138640704D01*
X164968458Y-138746928D01*
X165027473Y-138928556D01*
X165030776Y-138934278D01*
X165030777Y-138934279D01*
X165036716Y-138944565D01*
X165122960Y-139093944D01*
X165127378Y-139098851D01*
X165127379Y-139098852D01*
X165246325Y-139230955D01*
X165250747Y-139235866D01*
X165405248Y-139348118D01*
X165411276Y-139350802D01*
X165411278Y-139350803D01*
X165514401Y-139396716D01*
X165579712Y-139425794D01*
X165658237Y-139442485D01*
X165760056Y-139464128D01*
X165760061Y-139464128D01*
X165766513Y-139465500D01*
X165957487Y-139465500D01*
X165963939Y-139464128D01*
X165963944Y-139464128D01*
X166065763Y-139442485D01*
X166144288Y-139425794D01*
X166209599Y-139396716D01*
X166312722Y-139350803D01*
X166312724Y-139350802D01*
X166318752Y-139348118D01*
X166473253Y-139235866D01*
X166477675Y-139230955D01*
X166596621Y-139098852D01*
X166596622Y-139098851D01*
X166601040Y-139093944D01*
X166687284Y-138944565D01*
X166693223Y-138934279D01*
X166693224Y-138934278D01*
X166696527Y-138928556D01*
X166755542Y-138746928D01*
X166766707Y-138640704D01*
X166774814Y-138563565D01*
X166775504Y-138557000D01*
X166771240Y-138516434D01*
X166756232Y-138373635D01*
X166756232Y-138373633D01*
X166755542Y-138367072D01*
X166696527Y-138185444D01*
X166601040Y-138020056D01*
X166527863Y-137938785D01*
X166497147Y-137874779D01*
X166495500Y-137854476D01*
X166495500Y-134030699D01*
X166496027Y-134019516D01*
X166497702Y-134012023D01*
X166495562Y-133943932D01*
X166495500Y-133939975D01*
X166495500Y-133912076D01*
X166494996Y-133908085D01*
X166494063Y-133896243D01*
X166492923Y-133859968D01*
X166492674Y-133852043D01*
X166490462Y-133844429D01*
X166490461Y-133844424D01*
X166487023Y-133832591D01*
X166483012Y-133813227D01*
X166481467Y-133800996D01*
X166480474Y-133793135D01*
X166477557Y-133785768D01*
X166477556Y-133785763D01*
X166464198Y-133752024D01*
X166460354Y-133740797D01*
X166450230Y-133705954D01*
X166448018Y-133698339D01*
X166437707Y-133680904D01*
X166429012Y-133663156D01*
X166421552Y-133644315D01*
X166395564Y-133608545D01*
X166389048Y-133598625D01*
X166370580Y-133567397D01*
X166370578Y-133567394D01*
X166366542Y-133560570D01*
X166352221Y-133546249D01*
X166339380Y-133531215D01*
X166332131Y-133521238D01*
X166327472Y-133514825D01*
X166293395Y-133486634D01*
X166284616Y-133478644D01*
X165185693Y-132379721D01*
X191593024Y-132379721D01*
X191595491Y-132388352D01*
X191601150Y-132408153D01*
X191604728Y-132424915D01*
X191608920Y-132454187D01*
X191612634Y-132462355D01*
X191612634Y-132462356D01*
X191619548Y-132477562D01*
X191625996Y-132495086D01*
X191633051Y-132519771D01*
X191637843Y-132527365D01*
X191637844Y-132527368D01*
X191648830Y-132544780D01*
X191656969Y-132559863D01*
X191669208Y-132586782D01*
X191675069Y-132593584D01*
X191685970Y-132606235D01*
X191697073Y-132621239D01*
X191710776Y-132642958D01*
X191717501Y-132648897D01*
X191717504Y-132648901D01*
X191732938Y-132662532D01*
X191744982Y-132674724D01*
X191758427Y-132690327D01*
X191758430Y-132690329D01*
X191764287Y-132697127D01*
X191771816Y-132702007D01*
X191771817Y-132702008D01*
X191785835Y-132711094D01*
X191800709Y-132722385D01*
X191813217Y-132733431D01*
X191819951Y-132739378D01*
X191846711Y-132751942D01*
X191861691Y-132760263D01*
X191878983Y-132771471D01*
X191878988Y-132771473D01*
X191886515Y-132776352D01*
X191895108Y-132778922D01*
X191895113Y-132778924D01*
X191911120Y-132783711D01*
X191928564Y-132790372D01*
X191943676Y-132797467D01*
X191943678Y-132797468D01*
X191951800Y-132801281D01*
X191960667Y-132802662D01*
X191960668Y-132802662D01*
X191963353Y-132803080D01*
X191981017Y-132805830D01*
X191997732Y-132809613D01*
X192017466Y-132815515D01*
X192017472Y-132815516D01*
X192026066Y-132818086D01*
X192035037Y-132818141D01*
X192035038Y-132818141D01*
X192045097Y-132818202D01*
X192060506Y-132818296D01*
X192061289Y-132818329D01*
X192062386Y-132818500D01*
X192093377Y-132818500D01*
X192094147Y-132818502D01*
X192167785Y-132818952D01*
X192167786Y-132818952D01*
X192171721Y-132818976D01*
X192173065Y-132818592D01*
X192174410Y-132818500D01*
X195493377Y-132818500D01*
X195494148Y-132818502D01*
X195571721Y-132818976D01*
X195600152Y-132810850D01*
X195616915Y-132807272D01*
X195617753Y-132807152D01*
X195646187Y-132803080D01*
X195669564Y-132792451D01*
X195687087Y-132786004D01*
X195711771Y-132778949D01*
X195719365Y-132774157D01*
X195719368Y-132774156D01*
X195736780Y-132763170D01*
X195751865Y-132755030D01*
X195778782Y-132742792D01*
X195798235Y-132726030D01*
X195813239Y-132714927D01*
X195834958Y-132701224D01*
X195840897Y-132694499D01*
X195840901Y-132694496D01*
X195854532Y-132679062D01*
X195866724Y-132667018D01*
X195882327Y-132653573D01*
X195882329Y-132653570D01*
X195889127Y-132647713D01*
X195903094Y-132626165D01*
X195914385Y-132611291D01*
X195925431Y-132598783D01*
X195925432Y-132598782D01*
X195931378Y-132592049D01*
X195943943Y-132565287D01*
X195952263Y-132550309D01*
X195963471Y-132533017D01*
X195963473Y-132533012D01*
X195968352Y-132525485D01*
X195970922Y-132516892D01*
X195970924Y-132516887D01*
X195975711Y-132500880D01*
X195982372Y-132483436D01*
X195989467Y-132468324D01*
X195989468Y-132468322D01*
X195993281Y-132460200D01*
X195997830Y-132430983D01*
X196001613Y-132414268D01*
X196007515Y-132394534D01*
X196007516Y-132394528D01*
X196010086Y-132385934D01*
X196010296Y-132351494D01*
X196010329Y-132350711D01*
X196010500Y-132349614D01*
X196010500Y-132318623D01*
X196010502Y-132317853D01*
X196010952Y-132244215D01*
X196010952Y-132244214D01*
X196010976Y-132240279D01*
X196010592Y-132238935D01*
X196010500Y-132237590D01*
X196010500Y-129318623D01*
X196010502Y-129317853D01*
X196010800Y-129269102D01*
X196010976Y-129240279D01*
X196002850Y-129211847D01*
X195999272Y-129195085D01*
X195998403Y-129189015D01*
X195995080Y-129165813D01*
X195984451Y-129142436D01*
X195978004Y-129124913D01*
X195970949Y-129100229D01*
X195966156Y-129092632D01*
X195955170Y-129075220D01*
X195947030Y-129060135D01*
X195944564Y-129054711D01*
X195934792Y-129033218D01*
X195918030Y-129013765D01*
X195906927Y-128998761D01*
X195893224Y-128977042D01*
X195886499Y-128971103D01*
X195886496Y-128971099D01*
X195871062Y-128957468D01*
X195859018Y-128945276D01*
X195845573Y-128929673D01*
X195845570Y-128929671D01*
X195839713Y-128922873D01*
X195826009Y-128913990D01*
X195818165Y-128908906D01*
X195803291Y-128897615D01*
X195790783Y-128886569D01*
X195790782Y-128886568D01*
X195784049Y-128880622D01*
X195757287Y-128868057D01*
X195742309Y-128859737D01*
X195725017Y-128848529D01*
X195725012Y-128848527D01*
X195717485Y-128843648D01*
X195708892Y-128841078D01*
X195708887Y-128841076D01*
X195692880Y-128836289D01*
X195675436Y-128829628D01*
X195660324Y-128822533D01*
X195660322Y-128822532D01*
X195652200Y-128818719D01*
X195643333Y-128817338D01*
X195643332Y-128817338D01*
X195632478Y-128815648D01*
X195622983Y-128814170D01*
X195606268Y-128810387D01*
X195586534Y-128804485D01*
X195586528Y-128804484D01*
X195577934Y-128801914D01*
X195568963Y-128801859D01*
X195568962Y-128801859D01*
X195558903Y-128801798D01*
X195543494Y-128801704D01*
X195542711Y-128801671D01*
X195541614Y-128801500D01*
X195510623Y-128801500D01*
X195509853Y-128801498D01*
X195436215Y-128801048D01*
X195436214Y-128801048D01*
X195432279Y-128801024D01*
X195430935Y-128801408D01*
X195429590Y-128801500D01*
X192110623Y-128801500D01*
X192109853Y-128801498D01*
X192109037Y-128801493D01*
X192032279Y-128801024D01*
X192009918Y-128807415D01*
X192003847Y-128809150D01*
X191987085Y-128812728D01*
X191957813Y-128816920D01*
X191949645Y-128820634D01*
X191949644Y-128820634D01*
X191934438Y-128827548D01*
X191916914Y-128833996D01*
X191892229Y-128841051D01*
X191884635Y-128845843D01*
X191884632Y-128845844D01*
X191867220Y-128856830D01*
X191852137Y-128864969D01*
X191825218Y-128877208D01*
X191818416Y-128883069D01*
X191805765Y-128893970D01*
X191790761Y-128905073D01*
X191769042Y-128918776D01*
X191763103Y-128925501D01*
X191763099Y-128925504D01*
X191749468Y-128940938D01*
X191737276Y-128952982D01*
X191721673Y-128966427D01*
X191721671Y-128966430D01*
X191714873Y-128972287D01*
X191709993Y-128979816D01*
X191709992Y-128979817D01*
X191700906Y-128993835D01*
X191689615Y-129008709D01*
X191678569Y-129021217D01*
X191672622Y-129027951D01*
X191666426Y-129041148D01*
X191660058Y-129054711D01*
X191651737Y-129069691D01*
X191640529Y-129086983D01*
X191640527Y-129086988D01*
X191635648Y-129094515D01*
X191633078Y-129103108D01*
X191633076Y-129103113D01*
X191628289Y-129119120D01*
X191621628Y-129136564D01*
X191614533Y-129151676D01*
X191610719Y-129159800D01*
X191609338Y-129168667D01*
X191609338Y-129168668D01*
X191606170Y-129189015D01*
X191602387Y-129205732D01*
X191596485Y-129225466D01*
X191596484Y-129225472D01*
X191593914Y-129234066D01*
X191593859Y-129243037D01*
X191593859Y-129243038D01*
X191593704Y-129268497D01*
X191593671Y-129269289D01*
X191593500Y-129270386D01*
X191593500Y-129301377D01*
X191593498Y-129302147D01*
X191593024Y-129379721D01*
X191593408Y-129381065D01*
X191593500Y-129382410D01*
X191593500Y-132301377D01*
X191593498Y-132302147D01*
X191593024Y-132379721D01*
X165185693Y-132379721D01*
X163039261Y-130233288D01*
X187574228Y-130233288D01*
X187604722Y-130434922D01*
X187606928Y-130440917D01*
X187606928Y-130440918D01*
X187663348Y-130594263D01*
X187675137Y-130626306D01*
X187782598Y-130799622D01*
X187786979Y-130804255D01*
X187786980Y-130804256D01*
X187870625Y-130892708D01*
X187922714Y-130947791D01*
X187927944Y-130951453D01*
X187927945Y-130951454D01*
X188084528Y-131061094D01*
X188089761Y-131064758D01*
X188187409Y-131107014D01*
X188254903Y-131136221D01*
X188276916Y-131145747D01*
X188293143Y-131149137D01*
X188471788Y-131186459D01*
X188471792Y-131186459D01*
X188476533Y-131187450D01*
X188481370Y-131187703D01*
X188481374Y-131187704D01*
X188481440Y-131187707D01*
X188483212Y-131187800D01*
X188632967Y-131187800D01*
X188731514Y-131177790D01*
X188778534Y-131173014D01*
X188778535Y-131173014D01*
X188784883Y-131172369D01*
X188979478Y-131111386D01*
X189157837Y-131012521D01*
X189312673Y-130879810D01*
X189437661Y-130718676D01*
X189527696Y-130535701D01*
X189530114Y-130526420D01*
X189577490Y-130344541D01*
X189577490Y-130344538D01*
X189579100Y-130338359D01*
X189586144Y-130203944D01*
X189589438Y-130141094D01*
X189589438Y-130141090D01*
X189589772Y-130134712D01*
X189559278Y-129933078D01*
X189557072Y-129927082D01*
X189491067Y-129747684D01*
X189491066Y-129747683D01*
X189488863Y-129741694D01*
X189381402Y-129568378D01*
X189241286Y-129420209D01*
X189208946Y-129397564D01*
X189079472Y-129306906D01*
X189079471Y-129306905D01*
X189074239Y-129303242D01*
X188887084Y-129222253D01*
X188836627Y-129211712D01*
X188692212Y-129181541D01*
X188692208Y-129181541D01*
X188687467Y-129180550D01*
X188682630Y-129180297D01*
X188682626Y-129180296D01*
X188682560Y-129180293D01*
X188680788Y-129180200D01*
X188531033Y-129180200D01*
X188458387Y-129187579D01*
X188385466Y-129194986D01*
X188385465Y-129194986D01*
X188379117Y-129195631D01*
X188184522Y-129256614D01*
X188006163Y-129355479D01*
X187851327Y-129488190D01*
X187726339Y-129649324D01*
X187636304Y-129832299D01*
X187634695Y-129838477D01*
X187634694Y-129838479D01*
X187611615Y-129927082D01*
X187584900Y-130029641D01*
X187580831Y-130107294D01*
X187574734Y-130223637D01*
X187574228Y-130233288D01*
X163039261Y-130233288D01*
X162518568Y-129712595D01*
X162484542Y-129650283D01*
X162489607Y-129579467D01*
X162532154Y-129522632D01*
X162598674Y-129497821D01*
X162607663Y-129497500D01*
X163953697Y-129497500D01*
X163964880Y-129498027D01*
X163972373Y-129499702D01*
X163980299Y-129499453D01*
X163980300Y-129499453D01*
X164040450Y-129497562D01*
X164044409Y-129497500D01*
X164072320Y-129497500D01*
X164076255Y-129497003D01*
X164076320Y-129496995D01*
X164088157Y-129496062D01*
X164120415Y-129495048D01*
X164124434Y-129494922D01*
X164132353Y-129494673D01*
X164151807Y-129489021D01*
X164171164Y-129485013D01*
X164183394Y-129483468D01*
X164183395Y-129483468D01*
X164191261Y-129482474D01*
X164198632Y-129479555D01*
X164198634Y-129479555D01*
X164232376Y-129466196D01*
X164243606Y-129462351D01*
X164278447Y-129452229D01*
X164278448Y-129452229D01*
X164286057Y-129450018D01*
X164292876Y-129445985D01*
X164292881Y-129445983D01*
X164303492Y-129439707D01*
X164321240Y-129431012D01*
X164340081Y-129423552D01*
X164375851Y-129397564D01*
X164385771Y-129391048D01*
X164416999Y-129372580D01*
X164417002Y-129372578D01*
X164423826Y-129368542D01*
X164438147Y-129354221D01*
X164453181Y-129341380D01*
X164453922Y-129340842D01*
X164469571Y-129329472D01*
X164497752Y-129295407D01*
X164505742Y-129286626D01*
X165076258Y-128716111D01*
X165084537Y-128708577D01*
X165091018Y-128704464D01*
X165137644Y-128654812D01*
X165140398Y-128651971D01*
X165160135Y-128632234D01*
X165162615Y-128629037D01*
X165170320Y-128620015D01*
X165189524Y-128599565D01*
X165200586Y-128587785D01*
X165204405Y-128580839D01*
X165204407Y-128580836D01*
X165210348Y-128570030D01*
X165221199Y-128553511D01*
X165225860Y-128547502D01*
X165233614Y-128537505D01*
X165236759Y-128530236D01*
X165236762Y-128530232D01*
X165251174Y-128496927D01*
X165256391Y-128486277D01*
X165277695Y-128447524D01*
X165280096Y-128438175D01*
X165282733Y-128427902D01*
X165289137Y-128409198D01*
X165294033Y-128397884D01*
X165294033Y-128397883D01*
X165297181Y-128390609D01*
X165298420Y-128382786D01*
X165298423Y-128382776D01*
X165304099Y-128346940D01*
X165306505Y-128335320D01*
X165315528Y-128300175D01*
X165315528Y-128300174D01*
X165317500Y-128292494D01*
X165317500Y-128272240D01*
X165319051Y-128252529D01*
X165320980Y-128240350D01*
X165322220Y-128232521D01*
X165318059Y-128188502D01*
X165317500Y-128176645D01*
X165317500Y-125919732D01*
X186939200Y-125919732D01*
X186939400Y-125925062D01*
X186939400Y-125925063D01*
X186943364Y-126030659D01*
X186947854Y-126150268D01*
X186995228Y-126376050D01*
X187079967Y-126590622D01*
X187199647Y-126787849D01*
X187203144Y-126791879D01*
X187319925Y-126926457D01*
X187350847Y-126962092D01*
X187354978Y-126965479D01*
X187525115Y-127104984D01*
X187525121Y-127104988D01*
X187529243Y-127108368D01*
X187729735Y-127222494D01*
X187734751Y-127224315D01*
X187734756Y-127224317D01*
X187941575Y-127299389D01*
X187941579Y-127299390D01*
X187946590Y-127301209D01*
X187951839Y-127302158D01*
X187951842Y-127302159D01*
X188169523Y-127341522D01*
X188169530Y-127341523D01*
X188173607Y-127342260D01*
X188191344Y-127343096D01*
X188196292Y-127343330D01*
X188196299Y-127343330D01*
X188197780Y-127343400D01*
X188359925Y-127343400D01*
X188426881Y-127337719D01*
X188526562Y-127329261D01*
X188526566Y-127329260D01*
X188531873Y-127328810D01*
X188537028Y-127327472D01*
X188537034Y-127327471D01*
X188750003Y-127272195D01*
X188750007Y-127272194D01*
X188755172Y-127270853D01*
X188760038Y-127268661D01*
X188760041Y-127268660D01*
X188960649Y-127178293D01*
X188965515Y-127176101D01*
X188969935Y-127173125D01*
X188969939Y-127173123D01*
X189116503Y-127074449D01*
X189156885Y-127047262D01*
X189323812Y-126888022D01*
X189411097Y-126770707D01*
X189458337Y-126707214D01*
X189458339Y-126707211D01*
X189461521Y-126702934D01*
X189516305Y-126595183D01*
X189563658Y-126502046D01*
X189563658Y-126502045D01*
X189566077Y-126497288D01*
X189605343Y-126370831D01*
X189632905Y-126282070D01*
X189632906Y-126282064D01*
X189634489Y-126276967D01*
X189664800Y-126048268D01*
X189664139Y-126030659D01*
X191574514Y-126030659D01*
X191574877Y-126034807D01*
X191574877Y-126034811D01*
X191591794Y-126228176D01*
X191600252Y-126324849D01*
X191601162Y-126328921D01*
X191601163Y-126328926D01*
X191663657Y-126608507D01*
X191664672Y-126613050D01*
X191766644Y-126890199D01*
X191768591Y-126893892D01*
X191768592Y-126893894D01*
X191804549Y-126962092D01*
X191904374Y-127151427D01*
X191919793Y-127173123D01*
X192073019Y-127388735D01*
X192073024Y-127388741D01*
X192075443Y-127392145D01*
X192078287Y-127395195D01*
X192078292Y-127395201D01*
X192267378Y-127597971D01*
X192276846Y-127608124D01*
X192505045Y-127795568D01*
X192756029Y-127951185D01*
X193025390Y-128072241D01*
X193097605Y-128093769D01*
X193257317Y-128141381D01*
X193308395Y-128156608D01*
X193312515Y-128157261D01*
X193312517Y-128157261D01*
X193596592Y-128202255D01*
X193596598Y-128202256D01*
X193600073Y-128202806D01*
X193624632Y-128203921D01*
X193691017Y-128206936D01*
X193691038Y-128206936D01*
X193692437Y-128207000D01*
X193876901Y-128207000D01*
X194096664Y-128192403D01*
X194100763Y-128191577D01*
X194100767Y-128191576D01*
X194274190Y-128156608D01*
X194386151Y-128134033D01*
X194665375Y-128037888D01*
X194837459Y-127951715D01*
X194925695Y-127907530D01*
X194925697Y-127907529D01*
X194929431Y-127905659D01*
X195173678Y-127739668D01*
X195393827Y-127542832D01*
X195402051Y-127533237D01*
X195583289Y-127321784D01*
X195583292Y-127321780D01*
X195586009Y-127318610D01*
X195588283Y-127315108D01*
X195588287Y-127315103D01*
X195744570Y-127074449D01*
X195744573Y-127074444D01*
X195746849Y-127070939D01*
X195756680Y-127050236D01*
X195871723Y-126807954D01*
X195873519Y-126804172D01*
X195884264Y-126770707D01*
X195962515Y-126526983D01*
X195962515Y-126526982D01*
X195963795Y-126522996D01*
X195990235Y-126376050D01*
X196015351Y-126236459D01*
X196015352Y-126236454D01*
X196016090Y-126232350D01*
X196019581Y-126155486D01*
X196029297Y-125941511D01*
X196029297Y-125941506D01*
X196029486Y-125937341D01*
X196028671Y-125928019D01*
X196027946Y-125919732D01*
X197939200Y-125919732D01*
X197939400Y-125925062D01*
X197939400Y-125925063D01*
X197943364Y-126030659D01*
X197947854Y-126150268D01*
X197995228Y-126376050D01*
X198079967Y-126590622D01*
X198199647Y-126787849D01*
X198203144Y-126791879D01*
X198319925Y-126926457D01*
X198350847Y-126962092D01*
X198354978Y-126965479D01*
X198525115Y-127104984D01*
X198525121Y-127104988D01*
X198529243Y-127108368D01*
X198729735Y-127222494D01*
X198734751Y-127224315D01*
X198734756Y-127224317D01*
X198941575Y-127299389D01*
X198941579Y-127299390D01*
X198946590Y-127301209D01*
X198951839Y-127302158D01*
X198951842Y-127302159D01*
X199169523Y-127341522D01*
X199169530Y-127341523D01*
X199173607Y-127342260D01*
X199191344Y-127343096D01*
X199196292Y-127343330D01*
X199196299Y-127343330D01*
X199197780Y-127343400D01*
X199359925Y-127343400D01*
X199426881Y-127337719D01*
X199526562Y-127329261D01*
X199526566Y-127329260D01*
X199531873Y-127328810D01*
X199537028Y-127327472D01*
X199537034Y-127327471D01*
X199750003Y-127272195D01*
X199750007Y-127272194D01*
X199755172Y-127270853D01*
X199760038Y-127268661D01*
X199760041Y-127268660D01*
X199960649Y-127178293D01*
X199965515Y-127176101D01*
X199969935Y-127173125D01*
X199969939Y-127173123D01*
X200116503Y-127074449D01*
X200156885Y-127047262D01*
X200323812Y-126888022D01*
X200411097Y-126770707D01*
X200458337Y-126707214D01*
X200458339Y-126707211D01*
X200461521Y-126702934D01*
X200516305Y-126595183D01*
X200563658Y-126502046D01*
X200563658Y-126502045D01*
X200566077Y-126497288D01*
X200605343Y-126370831D01*
X200632905Y-126282070D01*
X200632906Y-126282064D01*
X200634489Y-126276967D01*
X200664800Y-126048268D01*
X200663983Y-126026489D01*
X200657012Y-125840794D01*
X200656146Y-125817732D01*
X200608772Y-125591950D01*
X200606584Y-125586408D01*
X200560151Y-125468835D01*
X200524033Y-125377378D01*
X200421973Y-125209188D01*
X200407122Y-125184714D01*
X200407121Y-125184713D01*
X200404353Y-125180151D01*
X200390189Y-125163828D01*
X200256653Y-125009941D01*
X200256651Y-125009939D01*
X200253153Y-125005908D01*
X200211018Y-124971360D01*
X200078885Y-124863016D01*
X200078879Y-124863012D01*
X200074757Y-124859632D01*
X199874265Y-124745506D01*
X199869249Y-124743685D01*
X199869244Y-124743683D01*
X199662425Y-124668611D01*
X199662421Y-124668610D01*
X199657410Y-124666791D01*
X199652161Y-124665842D01*
X199652158Y-124665841D01*
X199434477Y-124626478D01*
X199434470Y-124626477D01*
X199430393Y-124625740D01*
X199412656Y-124624904D01*
X199407708Y-124624670D01*
X199407701Y-124624670D01*
X199406220Y-124624600D01*
X199244075Y-124624600D01*
X199177119Y-124630281D01*
X199077438Y-124638739D01*
X199077434Y-124638740D01*
X199072127Y-124639190D01*
X199066972Y-124640528D01*
X199066966Y-124640529D01*
X198853997Y-124695805D01*
X198853993Y-124695806D01*
X198848828Y-124697147D01*
X198843962Y-124699339D01*
X198843959Y-124699340D01*
X198647418Y-124787875D01*
X198638485Y-124791899D01*
X198634065Y-124794875D01*
X198634061Y-124794877D01*
X198596350Y-124820266D01*
X198447115Y-124920738D01*
X198280188Y-125079978D01*
X198277000Y-125084263D01*
X198150767Y-125253927D01*
X198142479Y-125265066D01*
X198140064Y-125269816D01*
X198055605Y-125435935D01*
X198037923Y-125470712D01*
X198022529Y-125520289D01*
X197971095Y-125685930D01*
X197971094Y-125685936D01*
X197969511Y-125691033D01*
X197962570Y-125743404D01*
X197945738Y-125870404D01*
X197939200Y-125919732D01*
X196027946Y-125919732D01*
X196004112Y-125647312D01*
X196003748Y-125643151D01*
X195993172Y-125595835D01*
X195940240Y-125359028D01*
X195940238Y-125359021D01*
X195939328Y-125354950D01*
X195837356Y-125077801D01*
X195835062Y-125073449D01*
X195752978Y-124917764D01*
X195699626Y-124816573D01*
X195583308Y-124652897D01*
X195530981Y-124579265D01*
X195530976Y-124579259D01*
X195528557Y-124575855D01*
X195525713Y-124572805D01*
X195525708Y-124572799D01*
X195330000Y-124362928D01*
X195327154Y-124359876D01*
X195098955Y-124172432D01*
X194847971Y-124016815D01*
X194830349Y-124008895D01*
X194728661Y-123963195D01*
X194578610Y-123895759D01*
X194338022Y-123824037D01*
X194299604Y-123812584D01*
X194299602Y-123812584D01*
X194295605Y-123811392D01*
X194291485Y-123810739D01*
X194291483Y-123810739D01*
X194007408Y-123765745D01*
X194007402Y-123765744D01*
X194003927Y-123765194D01*
X193979368Y-123764079D01*
X193912983Y-123761064D01*
X193912962Y-123761064D01*
X193911563Y-123761000D01*
X193727099Y-123761000D01*
X193507336Y-123775597D01*
X193503237Y-123776423D01*
X193503233Y-123776424D01*
X193380149Y-123801242D01*
X193217849Y-123833967D01*
X192938625Y-123930112D01*
X192934897Y-123931979D01*
X192696410Y-124051404D01*
X192674569Y-124062341D01*
X192430322Y-124228332D01*
X192210173Y-124425168D01*
X192207456Y-124428338D01*
X192207455Y-124428339D01*
X192025586Y-124640529D01*
X192017991Y-124649390D01*
X192015717Y-124652892D01*
X192015713Y-124652897D01*
X191879260Y-124863016D01*
X191857151Y-124897061D01*
X191855357Y-124900839D01*
X191855356Y-124900841D01*
X191845908Y-124920738D01*
X191730481Y-125163828D01*
X191729202Y-125167811D01*
X191729201Y-125167814D01*
X191646261Y-125426142D01*
X191640205Y-125445004D01*
X191634661Y-125475815D01*
X191590965Y-125718672D01*
X191587910Y-125735650D01*
X191587721Y-125739817D01*
X191587720Y-125739824D01*
X191577204Y-125971420D01*
X191574514Y-126030659D01*
X189664139Y-126030659D01*
X189663983Y-126026489D01*
X189657012Y-125840794D01*
X189656146Y-125817732D01*
X189608772Y-125591950D01*
X189606584Y-125586408D01*
X189560151Y-125468835D01*
X189524033Y-125377378D01*
X189421973Y-125209188D01*
X189407122Y-125184714D01*
X189407121Y-125184713D01*
X189404353Y-125180151D01*
X189390189Y-125163828D01*
X189256653Y-125009941D01*
X189256651Y-125009939D01*
X189253153Y-125005908D01*
X189211018Y-124971360D01*
X189078885Y-124863016D01*
X189078879Y-124863012D01*
X189074757Y-124859632D01*
X188874265Y-124745506D01*
X188869249Y-124743685D01*
X188869244Y-124743683D01*
X188662425Y-124668611D01*
X188662421Y-124668610D01*
X188657410Y-124666791D01*
X188652161Y-124665842D01*
X188652158Y-124665841D01*
X188434477Y-124626478D01*
X188434470Y-124626477D01*
X188430393Y-124625740D01*
X188412656Y-124624904D01*
X188407708Y-124624670D01*
X188407701Y-124624670D01*
X188406220Y-124624600D01*
X188244075Y-124624600D01*
X188177119Y-124630281D01*
X188077438Y-124638739D01*
X188077434Y-124638740D01*
X188072127Y-124639190D01*
X188066972Y-124640528D01*
X188066966Y-124640529D01*
X187853997Y-124695805D01*
X187853993Y-124695806D01*
X187848828Y-124697147D01*
X187843962Y-124699339D01*
X187843959Y-124699340D01*
X187647418Y-124787875D01*
X187638485Y-124791899D01*
X187634065Y-124794875D01*
X187634061Y-124794877D01*
X187596350Y-124820266D01*
X187447115Y-124920738D01*
X187280188Y-125079978D01*
X187277000Y-125084263D01*
X187150767Y-125253927D01*
X187142479Y-125265066D01*
X187140064Y-125269816D01*
X187055605Y-125435935D01*
X187037923Y-125470712D01*
X187022529Y-125520289D01*
X186971095Y-125685930D01*
X186971094Y-125685936D01*
X186969511Y-125691033D01*
X186962570Y-125743404D01*
X186945738Y-125870404D01*
X186939200Y-125919732D01*
X165317500Y-125919732D01*
X165317500Y-123867763D01*
X165318027Y-123856579D01*
X165319701Y-123849091D01*
X165317562Y-123781032D01*
X165317500Y-123777075D01*
X165317500Y-123749144D01*
X165316994Y-123745138D01*
X165316061Y-123733292D01*
X165314922Y-123697037D01*
X165314673Y-123689110D01*
X165309022Y-123669658D01*
X165305014Y-123650306D01*
X165303467Y-123638063D01*
X165302474Y-123630203D01*
X165297576Y-123617832D01*
X165286200Y-123589097D01*
X165282355Y-123577870D01*
X165278758Y-123565489D01*
X165270018Y-123535407D01*
X165265984Y-123528585D01*
X165265981Y-123528579D01*
X165259706Y-123517968D01*
X165251010Y-123500218D01*
X165246472Y-123488756D01*
X165246469Y-123488751D01*
X165243552Y-123481383D01*
X165230901Y-123463970D01*
X165217573Y-123445625D01*
X165211057Y-123435707D01*
X165192575Y-123404457D01*
X165188542Y-123397637D01*
X165174218Y-123383313D01*
X165161376Y-123368278D01*
X165158812Y-123364749D01*
X165149472Y-123351893D01*
X165115406Y-123323711D01*
X165106627Y-123315722D01*
X164927451Y-123136546D01*
X164893425Y-123074234D01*
X164895988Y-123010822D01*
X164906865Y-122975022D01*
X164906867Y-122975015D01*
X164908370Y-122970069D01*
X164937529Y-122748590D01*
X164937611Y-122745240D01*
X164939074Y-122685365D01*
X164939074Y-122685361D01*
X164939156Y-122682000D01*
X164920852Y-122459361D01*
X164866431Y-122242702D01*
X164777354Y-122037840D01*
X164714087Y-121940044D01*
X164658822Y-121854617D01*
X164658820Y-121854614D01*
X164656014Y-121850277D01*
X164505670Y-121685051D01*
X164501619Y-121681852D01*
X164501615Y-121681848D01*
X164334414Y-121549800D01*
X164334410Y-121549798D01*
X164330359Y-121546598D01*
X164317545Y-121539524D01*
X164236079Y-121494553D01*
X164134789Y-121438638D01*
X164104034Y-121427747D01*
X164029274Y-121401273D01*
X163971737Y-121359679D01*
X163945821Y-121293581D01*
X163959755Y-121223965D01*
X164009114Y-121172934D01*
X164071333Y-121156500D01*
X177739406Y-121156500D01*
X177807527Y-121176502D01*
X177828501Y-121193405D01*
X179265878Y-122630783D01*
X179299904Y-122693095D01*
X179302093Y-122706708D01*
X179318141Y-122859394D01*
X179319458Y-122871928D01*
X179378473Y-123053556D01*
X179381776Y-123059278D01*
X179381777Y-123059279D01*
X179399814Y-123090520D01*
X179473960Y-123218944D01*
X179478378Y-123223851D01*
X179478379Y-123223852D01*
X179539586Y-123291829D01*
X179601747Y-123360866D01*
X179756248Y-123473118D01*
X179762276Y-123475802D01*
X179762278Y-123475803D01*
X179924681Y-123548109D01*
X179930712Y-123550794D01*
X180017009Y-123569137D01*
X180111056Y-123589128D01*
X180111061Y-123589128D01*
X180117513Y-123590500D01*
X180308487Y-123590500D01*
X180314939Y-123589128D01*
X180314944Y-123589128D01*
X180408991Y-123569137D01*
X180495288Y-123550794D01*
X180501319Y-123548109D01*
X180663722Y-123475803D01*
X180663724Y-123475802D01*
X180669752Y-123473118D01*
X180700591Y-123450712D01*
X180818909Y-123364749D01*
X180818911Y-123364747D01*
X180824253Y-123360866D01*
X180827683Y-123357056D01*
X180891196Y-123326576D01*
X180961649Y-123335339D01*
X180995145Y-123356865D01*
X180998747Y-123360866D01*
X181004089Y-123364747D01*
X181004091Y-123364749D01*
X181122409Y-123450712D01*
X181153248Y-123473118D01*
X181159276Y-123475802D01*
X181159278Y-123475803D01*
X181321681Y-123548109D01*
X181327712Y-123550794D01*
X181414009Y-123569137D01*
X181508056Y-123589128D01*
X181508061Y-123589128D01*
X181514513Y-123590500D01*
X181705487Y-123590500D01*
X181711939Y-123589128D01*
X181711944Y-123589128D01*
X181805991Y-123569137D01*
X181892288Y-123550794D01*
X181898319Y-123548109D01*
X182060722Y-123475803D01*
X182060724Y-123475802D01*
X182066752Y-123473118D01*
X182128430Y-123428306D01*
X197922524Y-123428306D01*
X197928251Y-123435956D01*
X198103759Y-123543507D01*
X198112553Y-123547988D01*
X198325029Y-123635998D01*
X198334414Y-123639047D01*
X198558044Y-123692737D01*
X198567791Y-123694280D01*
X198797070Y-123712325D01*
X198806930Y-123712325D01*
X199036209Y-123694280D01*
X199045956Y-123692737D01*
X199269586Y-123639047D01*
X199278971Y-123635998D01*
X199491447Y-123547988D01*
X199500241Y-123543507D01*
X199672083Y-123438203D01*
X199681543Y-123427747D01*
X199677759Y-123418969D01*
X198814812Y-122556022D01*
X198800868Y-122548408D01*
X198799035Y-122548539D01*
X198792420Y-122552790D01*
X197929284Y-123415926D01*
X197922524Y-123428306D01*
X182128430Y-123428306D01*
X182221253Y-123360866D01*
X182283414Y-123291829D01*
X182344621Y-123223852D01*
X182344622Y-123223851D01*
X182349040Y-123218944D01*
X182423186Y-123090520D01*
X182441223Y-123059279D01*
X182441224Y-123059278D01*
X182444527Y-123053556D01*
X182503542Y-122871928D01*
X182504860Y-122859394D01*
X182522814Y-122688565D01*
X182523504Y-122682000D01*
X182503542Y-122492072D01*
X182444527Y-122310444D01*
X182374371Y-122188930D01*
X197273675Y-122188930D01*
X197291720Y-122418209D01*
X197293263Y-122427956D01*
X197346953Y-122651586D01*
X197350002Y-122660971D01*
X197438012Y-122873447D01*
X197442493Y-122882241D01*
X197547797Y-123054083D01*
X197558253Y-123063543D01*
X197567031Y-123059759D01*
X198429978Y-122196812D01*
X198436356Y-122185132D01*
X199166408Y-122185132D01*
X199166539Y-122186965D01*
X199170790Y-122193580D01*
X200033926Y-123056716D01*
X200046306Y-123063476D01*
X200053956Y-123057749D01*
X200161507Y-122882241D01*
X200165988Y-122873447D01*
X200253998Y-122660971D01*
X200257047Y-122651586D01*
X200310737Y-122427956D01*
X200312280Y-122418209D01*
X200330325Y-122188930D01*
X200330325Y-122179070D01*
X200312280Y-121949791D01*
X200310737Y-121940044D01*
X200257047Y-121716414D01*
X200253998Y-121707029D01*
X200165988Y-121494553D01*
X200161507Y-121485759D01*
X200056203Y-121313917D01*
X200045747Y-121304457D01*
X200036969Y-121308241D01*
X199174022Y-122171188D01*
X199166408Y-122185132D01*
X198436356Y-122185132D01*
X198437592Y-122182868D01*
X198437461Y-122181035D01*
X198433210Y-122174420D01*
X197570074Y-121311284D01*
X197557694Y-121304524D01*
X197550044Y-121310251D01*
X197442493Y-121485759D01*
X197438012Y-121494553D01*
X197350002Y-121707029D01*
X197346953Y-121716414D01*
X197293263Y-121940044D01*
X197291720Y-121949791D01*
X197273675Y-122179070D01*
X197273675Y-122188930D01*
X182374371Y-122188930D01*
X182349040Y-122145056D01*
X182252503Y-122037840D01*
X182225675Y-122008045D01*
X182225674Y-122008044D01*
X182221253Y-122003134D01*
X182066752Y-121890882D01*
X182060724Y-121888198D01*
X182060722Y-121888197D01*
X181898319Y-121815891D01*
X181898318Y-121815891D01*
X181892288Y-121813206D01*
X181798888Y-121793353D01*
X181711944Y-121774872D01*
X181711939Y-121774872D01*
X181705487Y-121773500D01*
X181649594Y-121773500D01*
X181581473Y-121753498D01*
X181560499Y-121736595D01*
X180385031Y-120561126D01*
X179907905Y-120084000D01*
X192272786Y-120084000D01*
X192291613Y-120323222D01*
X192292767Y-120328029D01*
X192292768Y-120328035D01*
X192326409Y-120468158D01*
X192347631Y-120556553D01*
X192349524Y-120561124D01*
X192349525Y-120561126D01*
X192369602Y-120609595D01*
X192439460Y-120778249D01*
X192564840Y-120982849D01*
X192720682Y-121165318D01*
X192724444Y-121168531D01*
X192891588Y-121311284D01*
X192903151Y-121321160D01*
X193107751Y-121446540D01*
X193112321Y-121448433D01*
X193112323Y-121448434D01*
X193313134Y-121531612D01*
X193329447Y-121538369D01*
X193411037Y-121557957D01*
X193557965Y-121593232D01*
X193557971Y-121593233D01*
X193562778Y-121594387D01*
X193802000Y-121613214D01*
X194041222Y-121594387D01*
X194046029Y-121593233D01*
X194046035Y-121593232D01*
X194192963Y-121557957D01*
X194274553Y-121538369D01*
X194290866Y-121531612D01*
X194491677Y-121448434D01*
X194491679Y-121448433D01*
X194496249Y-121446540D01*
X194700849Y-121321160D01*
X194712413Y-121311284D01*
X194879556Y-121168531D01*
X194883318Y-121165318D01*
X195039160Y-120982849D01*
X195065263Y-120940253D01*
X197922457Y-120940253D01*
X197926241Y-120949031D01*
X198789188Y-121811978D01*
X198803132Y-121819592D01*
X198804965Y-121819461D01*
X198811580Y-121815210D01*
X199674716Y-120952074D01*
X199681476Y-120939694D01*
X199675749Y-120932044D01*
X199500241Y-120824493D01*
X199491447Y-120820012D01*
X199278971Y-120732002D01*
X199269586Y-120728953D01*
X199045956Y-120675263D01*
X199036209Y-120673720D01*
X198806930Y-120655675D01*
X198797070Y-120655675D01*
X198567791Y-120673720D01*
X198558044Y-120675263D01*
X198334414Y-120728953D01*
X198325029Y-120732002D01*
X198112553Y-120820012D01*
X198103759Y-120824493D01*
X197931917Y-120929797D01*
X197922457Y-120940253D01*
X195065263Y-120940253D01*
X195164540Y-120778249D01*
X195234399Y-120609595D01*
X195254475Y-120561126D01*
X195254476Y-120561124D01*
X195256369Y-120556553D01*
X195277591Y-120468158D01*
X195311232Y-120328035D01*
X195311233Y-120328029D01*
X195312387Y-120323222D01*
X195331214Y-120084000D01*
X195312387Y-119844778D01*
X195311233Y-119839971D01*
X195311232Y-119839965D01*
X195257524Y-119616259D01*
X195256369Y-119611447D01*
X195164540Y-119389751D01*
X195039160Y-119185151D01*
X195019616Y-119162267D01*
X194886531Y-119006444D01*
X194883318Y-119002682D01*
X194700849Y-118846840D01*
X194496249Y-118721460D01*
X194491679Y-118719567D01*
X194491677Y-118719566D01*
X194279126Y-118631525D01*
X194279124Y-118631524D01*
X194274553Y-118629631D01*
X194192963Y-118610043D01*
X194046035Y-118574768D01*
X194046029Y-118574767D01*
X194041222Y-118573613D01*
X193802000Y-118554786D01*
X193562778Y-118573613D01*
X193557971Y-118574767D01*
X193557965Y-118574768D01*
X193411037Y-118610043D01*
X193329447Y-118629631D01*
X193324876Y-118631524D01*
X193324874Y-118631525D01*
X193112323Y-118719566D01*
X193112321Y-118719567D01*
X193107751Y-118721460D01*
X192903151Y-118846840D01*
X192720682Y-119002682D01*
X192717469Y-119006444D01*
X192584385Y-119162267D01*
X192564840Y-119185151D01*
X192439460Y-119389751D01*
X192347631Y-119611447D01*
X192346476Y-119616259D01*
X192292768Y-119839965D01*
X192292767Y-119839971D01*
X192291613Y-119844778D01*
X192272786Y-120084000D01*
X179907905Y-120084000D01*
X179192652Y-119368747D01*
X179185112Y-119360461D01*
X179181000Y-119353982D01*
X179131348Y-119307356D01*
X179128507Y-119304602D01*
X179108770Y-119284865D01*
X179105573Y-119282385D01*
X179096551Y-119274680D01*
X179083116Y-119262064D01*
X179064321Y-119244414D01*
X179057375Y-119240595D01*
X179057372Y-119240593D01*
X179046566Y-119234652D01*
X179030047Y-119223801D01*
X179029583Y-119223441D01*
X179014041Y-119211386D01*
X179006772Y-119208241D01*
X179006768Y-119208238D01*
X178973463Y-119193826D01*
X178962813Y-119188609D01*
X178924060Y-119167305D01*
X178904437Y-119162267D01*
X178885734Y-119155863D01*
X178874420Y-119150967D01*
X178874419Y-119150967D01*
X178867145Y-119147819D01*
X178859322Y-119146580D01*
X178859312Y-119146577D01*
X178823476Y-119140901D01*
X178811856Y-119138495D01*
X178776711Y-119129472D01*
X178776710Y-119129472D01*
X178769030Y-119127500D01*
X178748776Y-119127500D01*
X178729065Y-119125949D01*
X178726534Y-119125548D01*
X178709057Y-119122780D01*
X178701165Y-119123526D01*
X178665039Y-119126941D01*
X178653181Y-119127500D01*
X113489763Y-119127500D01*
X113478579Y-119126973D01*
X113471091Y-119125299D01*
X113463168Y-119125548D01*
X113403033Y-119127438D01*
X113399075Y-119127500D01*
X113371144Y-119127500D01*
X113367229Y-119127995D01*
X113367225Y-119127995D01*
X113367167Y-119128003D01*
X113367138Y-119128006D01*
X113355296Y-119128939D01*
X113311110Y-119130327D01*
X113293744Y-119135372D01*
X113291658Y-119135978D01*
X113272306Y-119139986D01*
X113260068Y-119141532D01*
X113260066Y-119141533D01*
X113252203Y-119142526D01*
X113211086Y-119158806D01*
X113199885Y-119162641D01*
X113157406Y-119174982D01*
X113150587Y-119179015D01*
X113150582Y-119179017D01*
X113139971Y-119185293D01*
X113122221Y-119193990D01*
X113103383Y-119201448D01*
X113096967Y-119206109D01*
X113096966Y-119206110D01*
X113067625Y-119227428D01*
X113057701Y-119233947D01*
X113026460Y-119252422D01*
X113026455Y-119252426D01*
X113019637Y-119256458D01*
X113005313Y-119270782D01*
X112990281Y-119283621D01*
X112973893Y-119295528D01*
X112945712Y-119329593D01*
X112937722Y-119338373D01*
X106729500Y-125546595D01*
X106667188Y-125580621D01*
X106640405Y-125583500D01*
X106621874Y-125583500D01*
X106553753Y-125563498D01*
X106507260Y-125509842D01*
X106496952Y-125441054D01*
X106516590Y-125291887D01*
X106517109Y-125285212D01*
X106518572Y-125225364D01*
X106518378Y-125218646D01*
X106500781Y-125004604D01*
X106499096Y-124994424D01*
X106447214Y-124787875D01*
X106443894Y-124778124D01*
X106358972Y-124582814D01*
X106354105Y-124573739D01*
X106289063Y-124473197D01*
X106278377Y-124463995D01*
X106268812Y-124468398D01*
X104402737Y-126334473D01*
X104395977Y-126346853D01*
X104401258Y-126353907D01*
X104447969Y-126381203D01*
X104496693Y-126432841D01*
X104509764Y-126502624D01*
X104483033Y-126568396D01*
X104442584Y-126601752D01*
X104429607Y-126608507D01*
X104425474Y-126611610D01*
X104425471Y-126611612D01*
X104255100Y-126739530D01*
X104250965Y-126742635D01*
X104096629Y-126904138D01*
X104093715Y-126908410D01*
X104093714Y-126908411D01*
X103981095Y-127073504D01*
X103926184Y-127118507D01*
X103877007Y-127128500D01*
X103456767Y-127128500D01*
X103445584Y-127127973D01*
X103438091Y-127126298D01*
X103430165Y-127126547D01*
X103430164Y-127126547D01*
X103370014Y-127128438D01*
X103366055Y-127128500D01*
X103338144Y-127128500D01*
X103334210Y-127128997D01*
X103334209Y-127128997D01*
X103334144Y-127129005D01*
X103322307Y-127129938D01*
X103290049Y-127130952D01*
X103286030Y-127131078D01*
X103278111Y-127131327D01*
X103258657Y-127136979D01*
X103239300Y-127140987D01*
X103227070Y-127142532D01*
X103227069Y-127142532D01*
X103219203Y-127143526D01*
X103211832Y-127146445D01*
X103211830Y-127146445D01*
X103178088Y-127159804D01*
X103166858Y-127163649D01*
X103132017Y-127173771D01*
X103132016Y-127173771D01*
X103124407Y-127175982D01*
X103117588Y-127180015D01*
X103117583Y-127180017D01*
X103106972Y-127186293D01*
X103089224Y-127194988D01*
X103070383Y-127202448D01*
X103063967Y-127207110D01*
X103063966Y-127207110D01*
X103034613Y-127228436D01*
X103024693Y-127234952D01*
X102993465Y-127253420D01*
X102993462Y-127253422D01*
X102986638Y-127257458D01*
X102972317Y-127271779D01*
X102957284Y-127284619D01*
X102940893Y-127296528D01*
X102922625Y-127318610D01*
X102912702Y-127330605D01*
X102904712Y-127339384D01*
X99808000Y-130436095D01*
X99745688Y-130470121D01*
X99718905Y-130473000D01*
X99663013Y-130473000D01*
X99656561Y-130474372D01*
X99656556Y-130474372D01*
X99569612Y-130492853D01*
X99476212Y-130512706D01*
X99470182Y-130515391D01*
X99470181Y-130515391D01*
X99307778Y-130587697D01*
X99307776Y-130587698D01*
X99301748Y-130590382D01*
X99296407Y-130594262D01*
X99296406Y-130594263D01*
X99252303Y-130626306D01*
X99147247Y-130702634D01*
X99142826Y-130707544D01*
X99142825Y-130707545D01*
X99027709Y-130835395D01*
X99019460Y-130844556D01*
X98982542Y-130908500D01*
X98927520Y-131003801D01*
X98923973Y-131009944D01*
X98864958Y-131191572D01*
X98864268Y-131198133D01*
X98864268Y-131198135D01*
X98859552Y-131243005D01*
X98844996Y-131381500D01*
X98845686Y-131388065D01*
X98862399Y-131547077D01*
X98864958Y-131571428D01*
X98923973Y-131753056D01*
X98927276Y-131758778D01*
X98927277Y-131758779D01*
X98938638Y-131778456D01*
X99019460Y-131918444D01*
X99023878Y-131923351D01*
X99023879Y-131923352D01*
X99110454Y-132019503D01*
X99147247Y-132060366D01*
X99301748Y-132172618D01*
X99307776Y-132175302D01*
X99307778Y-132175303D01*
X99462558Y-132244215D01*
X99476212Y-132250294D01*
X99569612Y-132270147D01*
X99656556Y-132288628D01*
X99656561Y-132288628D01*
X99663013Y-132290000D01*
X99853987Y-132290000D01*
X99860439Y-132288628D01*
X99860444Y-132288628D01*
X99947388Y-132270147D01*
X100040788Y-132250294D01*
X100054442Y-132244215D01*
X100209222Y-132175303D01*
X100209224Y-132175302D01*
X100215252Y-132172618D01*
X100223206Y-132166839D01*
X100364409Y-132064249D01*
X100364411Y-132064247D01*
X100369753Y-132060366D01*
X100373183Y-132056556D01*
X100436696Y-132026076D01*
X100507149Y-132034839D01*
X100540645Y-132056365D01*
X100544247Y-132060366D01*
X100549589Y-132064247D01*
X100549591Y-132064249D01*
X100690794Y-132166839D01*
X100698748Y-132172618D01*
X100704776Y-132175302D01*
X100704778Y-132175303D01*
X100859558Y-132244215D01*
X100873212Y-132250294D01*
X100966612Y-132270147D01*
X101053556Y-132288628D01*
X101053561Y-132288628D01*
X101060013Y-132290000D01*
X101250987Y-132290000D01*
X101257439Y-132288628D01*
X101257444Y-132288628D01*
X101344388Y-132270147D01*
X101437788Y-132250294D01*
X101451442Y-132244215D01*
X101606222Y-132175303D01*
X101606224Y-132175302D01*
X101612252Y-132172618D01*
X101766753Y-132060366D01*
X101803546Y-132019503D01*
X101890121Y-131923352D01*
X101890122Y-131923351D01*
X101894540Y-131918444D01*
X101975362Y-131778456D01*
X101986723Y-131758779D01*
X101986724Y-131758778D01*
X101990027Y-131753056D01*
X102049042Y-131571428D01*
X102051491Y-131548125D01*
X102078503Y-131482468D01*
X102087706Y-131472198D01*
X102930035Y-130629869D01*
X102992347Y-130595843D01*
X103019130Y-130592964D01*
X104775323Y-130592964D01*
X104843444Y-130612966D01*
X104889937Y-130666622D01*
X104900041Y-130736896D01*
X104899165Y-130741820D01*
X104897458Y-130747072D01*
X104877496Y-130937000D01*
X104878186Y-130943565D01*
X104895312Y-131106507D01*
X104897458Y-131126928D01*
X104956473Y-131308556D01*
X104959776Y-131314278D01*
X104959777Y-131314279D01*
X104968932Y-131330135D01*
X105051960Y-131473944D01*
X105056378Y-131478851D01*
X105056379Y-131478852D01*
X105161163Y-131595226D01*
X105179747Y-131615866D01*
X105334248Y-131728118D01*
X105340276Y-131730802D01*
X105340278Y-131730803D01*
X105499067Y-131801500D01*
X105508712Y-131805794D01*
X105602112Y-131825647D01*
X105689056Y-131844128D01*
X105689061Y-131844128D01*
X105695513Y-131845500D01*
X105886487Y-131845500D01*
X105892939Y-131844128D01*
X105892944Y-131844128D01*
X105979888Y-131825647D01*
X106073288Y-131805794D01*
X106082933Y-131801500D01*
X106241722Y-131730803D01*
X106241724Y-131730802D01*
X106247752Y-131728118D01*
X106402253Y-131615866D01*
X106420837Y-131595226D01*
X106525621Y-131478852D01*
X106525622Y-131478851D01*
X106530040Y-131473944D01*
X106613068Y-131330135D01*
X106622223Y-131314279D01*
X106622224Y-131314278D01*
X106625527Y-131308556D01*
X106684542Y-131126928D01*
X106685981Y-131113244D01*
X106689181Y-131082792D01*
X106716195Y-131017136D01*
X106774417Y-130976507D01*
X106814491Y-130969964D01*
X111681233Y-130969964D01*
X111692416Y-130970491D01*
X111699909Y-130972166D01*
X111707835Y-130971917D01*
X111707836Y-130971917D01*
X111767986Y-130970026D01*
X111771945Y-130969964D01*
X111799856Y-130969964D01*
X111803791Y-130969467D01*
X111803856Y-130969459D01*
X111815693Y-130968526D01*
X111847951Y-130967512D01*
X111851970Y-130967386D01*
X111859889Y-130967137D01*
X111879343Y-130961485D01*
X111898700Y-130957477D01*
X111910930Y-130955932D01*
X111910931Y-130955932D01*
X111918797Y-130954938D01*
X111926168Y-130952019D01*
X111926170Y-130952019D01*
X111959912Y-130938660D01*
X111971142Y-130934815D01*
X112005983Y-130924693D01*
X112005984Y-130924693D01*
X112013593Y-130922482D01*
X112020412Y-130918449D01*
X112020417Y-130918447D01*
X112031028Y-130912171D01*
X112048776Y-130903476D01*
X112067617Y-130896016D01*
X112084206Y-130883964D01*
X112103387Y-130870028D01*
X112113307Y-130863512D01*
X112144535Y-130845044D01*
X112144538Y-130845042D01*
X112151362Y-130841006D01*
X112165683Y-130826685D01*
X112180717Y-130813844D01*
X112190694Y-130806595D01*
X112197107Y-130801936D01*
X112225298Y-130767859D01*
X112233288Y-130759080D01*
X114270247Y-128722121D01*
X114278537Y-128714577D01*
X114285018Y-128710464D01*
X114331659Y-128660796D01*
X114334413Y-128657955D01*
X114354134Y-128638234D01*
X114356613Y-128635038D01*
X114364318Y-128626017D01*
X114389158Y-128599565D01*
X114394586Y-128593785D01*
X114404346Y-128576032D01*
X114415199Y-128559509D01*
X114422753Y-128549770D01*
X114427613Y-128543505D01*
X114445176Y-128502921D01*
X114450383Y-128492291D01*
X114471695Y-128453524D01*
X114473666Y-128445847D01*
X114473668Y-128445842D01*
X114476732Y-128433906D01*
X114483138Y-128415194D01*
X114488033Y-128403883D01*
X114491181Y-128396609D01*
X114492421Y-128388781D01*
X114492423Y-128388774D01*
X114498099Y-128352940D01*
X114500505Y-128341320D01*
X114509528Y-128306175D01*
X114509528Y-128306174D01*
X114511500Y-128298494D01*
X114511500Y-128278240D01*
X114513051Y-128258529D01*
X114514980Y-128246350D01*
X114516220Y-128238521D01*
X114512059Y-128194502D01*
X114511500Y-128182645D01*
X114511500Y-127728695D01*
X116493251Y-127728695D01*
X116493548Y-127733848D01*
X116493548Y-127733851D01*
X116503319Y-127903308D01*
X116506110Y-127951715D01*
X116507247Y-127956761D01*
X116507248Y-127956767D01*
X116525109Y-128036021D01*
X116555222Y-128169639D01*
X116593461Y-128263811D01*
X116633587Y-128362629D01*
X116639266Y-128376616D01*
X116678623Y-128440841D01*
X116753291Y-128562688D01*
X116755987Y-128567088D01*
X116902250Y-128735938D01*
X117028890Y-128841076D01*
X117061390Y-128868058D01*
X117074126Y-128878632D01*
X117267000Y-128991338D01*
X117271825Y-128993180D01*
X117271826Y-128993181D01*
X117294112Y-129001691D01*
X117475692Y-129071030D01*
X117480760Y-129072061D01*
X117480763Y-129072062D01*
X117588017Y-129093883D01*
X117694597Y-129115567D01*
X117699772Y-129115757D01*
X117699774Y-129115757D01*
X117912673Y-129123564D01*
X117912677Y-129123564D01*
X117917837Y-129123753D01*
X117922957Y-129123097D01*
X117922959Y-129123097D01*
X118134288Y-129096025D01*
X118134289Y-129096025D01*
X118139416Y-129095368D01*
X118144366Y-129093883D01*
X118348429Y-129032661D01*
X118348434Y-129032659D01*
X118353384Y-129031174D01*
X118553994Y-128932896D01*
X118735860Y-128803173D01*
X118746273Y-128792797D01*
X118851326Y-128688110D01*
X118913698Y-128654194D01*
X118984505Y-128659382D01*
X119029361Y-128688266D01*
X121255595Y-130914500D01*
X121289621Y-130976812D01*
X121292500Y-131003595D01*
X121292500Y-134471990D01*
X121272498Y-134540111D01*
X121220774Y-134584500D01*
X121221001Y-134584893D01*
X121218911Y-134586100D01*
X121217750Y-134587096D01*
X121215283Y-134588194D01*
X121215275Y-134588199D01*
X121209248Y-134590882D01*
X121054747Y-134703134D01*
X121050326Y-134708044D01*
X121050325Y-134708045D01*
X120941817Y-134828556D01*
X120926960Y-134845056D01*
X120923659Y-134850774D01*
X120837371Y-135000229D01*
X120831473Y-135010444D01*
X120772458Y-135192072D01*
X120752496Y-135382000D01*
X120753186Y-135388565D01*
X120771384Y-135561706D01*
X120772458Y-135571928D01*
X120831473Y-135753556D01*
X120834776Y-135759278D01*
X120834777Y-135759279D01*
X120868686Y-135818010D01*
X120926960Y-135918944D01*
X120931378Y-135923851D01*
X120931379Y-135923852D01*
X121050325Y-136055955D01*
X121054747Y-136060866D01*
X121132512Y-136117366D01*
X121203835Y-136169185D01*
X121209248Y-136173118D01*
X121215276Y-136175802D01*
X121215278Y-136175803D01*
X121377681Y-136248109D01*
X121383712Y-136250794D01*
X121477112Y-136270647D01*
X121564056Y-136289128D01*
X121564061Y-136289128D01*
X121570513Y-136290500D01*
X121761487Y-136290500D01*
X121767939Y-136289128D01*
X121767944Y-136289128D01*
X121854888Y-136270647D01*
X121948288Y-136250794D01*
X121954319Y-136248109D01*
X122116722Y-136175803D01*
X122116724Y-136175802D01*
X122122752Y-136173118D01*
X122128166Y-136169185D01*
X122163439Y-136143557D01*
X122230306Y-136119699D01*
X122299458Y-136135779D01*
X122311561Y-136143557D01*
X122346835Y-136169185D01*
X122352248Y-136173118D01*
X122358276Y-136175802D01*
X122358278Y-136175803D01*
X122520681Y-136248109D01*
X122526712Y-136250794D01*
X122620112Y-136270647D01*
X122707056Y-136289128D01*
X122707061Y-136289128D01*
X122713513Y-136290500D01*
X122904487Y-136290500D01*
X122910939Y-136289128D01*
X122910944Y-136289128D01*
X122997888Y-136270647D01*
X123091288Y-136250794D01*
X123097319Y-136248109D01*
X123259722Y-136175803D01*
X123259724Y-136175802D01*
X123265752Y-136173118D01*
X123271166Y-136169185D01*
X123342488Y-136117366D01*
X123420253Y-136060866D01*
X123424675Y-136055955D01*
X123543621Y-135923852D01*
X123543622Y-135923851D01*
X123548040Y-135918944D01*
X123606314Y-135818010D01*
X123640223Y-135759279D01*
X123640224Y-135759278D01*
X123643527Y-135753556D01*
X123702542Y-135571928D01*
X123703617Y-135561706D01*
X123721814Y-135388565D01*
X123722504Y-135382000D01*
X123702542Y-135192072D01*
X123643527Y-135010444D01*
X123637630Y-135000229D01*
X123551341Y-134850774D01*
X123548040Y-134845056D01*
X123533184Y-134828556D01*
X123424675Y-134708045D01*
X123424674Y-134708044D01*
X123420253Y-134703134D01*
X123414909Y-134699251D01*
X123414907Y-134699249D01*
X123373438Y-134669120D01*
X123330085Y-134612898D01*
X123321500Y-134567185D01*
X123321500Y-127728695D01*
X124113251Y-127728695D01*
X124113548Y-127733848D01*
X124113548Y-127733851D01*
X124123319Y-127903308D01*
X124126110Y-127951715D01*
X124127247Y-127956761D01*
X124127248Y-127956767D01*
X124145109Y-128036021D01*
X124175222Y-128169639D01*
X124213461Y-128263811D01*
X124253587Y-128362629D01*
X124259266Y-128376616D01*
X124298623Y-128440841D01*
X124373291Y-128562688D01*
X124375987Y-128567088D01*
X124522250Y-128735938D01*
X124648890Y-128841076D01*
X124681390Y-128868058D01*
X124694126Y-128878632D01*
X124887000Y-128991338D01*
X124891825Y-128993180D01*
X124891826Y-128993181D01*
X124914112Y-129001691D01*
X125095692Y-129071030D01*
X125100760Y-129072061D01*
X125100763Y-129072062D01*
X125208017Y-129093883D01*
X125314597Y-129115567D01*
X125319772Y-129115757D01*
X125319774Y-129115757D01*
X125532673Y-129123564D01*
X125532677Y-129123564D01*
X125537837Y-129123753D01*
X125542957Y-129123097D01*
X125542959Y-129123097D01*
X125754288Y-129096025D01*
X125754289Y-129096025D01*
X125759416Y-129095368D01*
X125764366Y-129093883D01*
X125968429Y-129032661D01*
X125968434Y-129032659D01*
X125973384Y-129031174D01*
X126173994Y-128932896D01*
X126355860Y-128803173D01*
X126366273Y-128792797D01*
X126454691Y-128704687D01*
X126514096Y-128645489D01*
X126524975Y-128630350D01*
X126641435Y-128468277D01*
X126644453Y-128464077D01*
X126648611Y-128455665D01*
X126741136Y-128268453D01*
X126741137Y-128268451D01*
X126743430Y-128263811D01*
X126808370Y-128050069D01*
X126837529Y-127828590D01*
X126838752Y-127778526D01*
X126839074Y-127765365D01*
X126839074Y-127765361D01*
X126839156Y-127762000D01*
X126820852Y-127539361D01*
X126766431Y-127322702D01*
X126677354Y-127117840D01*
X126619845Y-127028944D01*
X126558822Y-126934617D01*
X126558820Y-126934614D01*
X126556014Y-126930277D01*
X126405670Y-126765051D01*
X126401619Y-126761852D01*
X126401615Y-126761848D01*
X126234414Y-126629800D01*
X126234410Y-126629798D01*
X126230359Y-126626598D01*
X126188569Y-126603529D01*
X126138598Y-126553097D01*
X126123826Y-126483654D01*
X126148942Y-126417248D01*
X126176293Y-126390642D01*
X126225247Y-126355723D01*
X126233648Y-126345023D01*
X126226660Y-126331870D01*
X125488812Y-125594022D01*
X125474868Y-125586408D01*
X125473035Y-125586539D01*
X125466420Y-125590790D01*
X124722737Y-126334473D01*
X124715977Y-126346853D01*
X124721258Y-126353907D01*
X124767969Y-126381203D01*
X124816693Y-126432841D01*
X124829764Y-126502624D01*
X124803033Y-126568396D01*
X124762584Y-126601752D01*
X124749607Y-126608507D01*
X124745474Y-126611610D01*
X124745471Y-126611612D01*
X124575100Y-126739530D01*
X124570965Y-126742635D01*
X124416629Y-126904138D01*
X124413715Y-126908410D01*
X124413714Y-126908411D01*
X124377095Y-126962092D01*
X124290743Y-127088680D01*
X124252011Y-127172121D01*
X124202290Y-127279237D01*
X124196688Y-127291305D01*
X124136989Y-127506570D01*
X124113251Y-127728695D01*
X123321500Y-127728695D01*
X123321500Y-125922594D01*
X123341502Y-125854473D01*
X123358405Y-125833499D01*
X123909016Y-125282888D01*
X123971328Y-125248862D01*
X124042143Y-125253927D01*
X124098979Y-125296474D01*
X124123902Y-125364730D01*
X124126309Y-125406477D01*
X124127745Y-125416697D01*
X124174565Y-125624446D01*
X124177645Y-125634275D01*
X124257770Y-125831603D01*
X124262413Y-125840794D01*
X124342460Y-125971420D01*
X124352916Y-125980880D01*
X124361694Y-125977096D01*
X125115658Y-125223132D01*
X125840408Y-125223132D01*
X125840539Y-125224965D01*
X125844790Y-125231580D01*
X126586474Y-125973264D01*
X126598484Y-125979823D01*
X126610223Y-125970855D01*
X126641004Y-125928019D01*
X126646315Y-125919180D01*
X126740670Y-125728267D01*
X126744469Y-125718672D01*
X126806376Y-125514915D01*
X126808555Y-125504834D01*
X126836590Y-125291887D01*
X126837109Y-125285212D01*
X126838572Y-125225364D01*
X126838378Y-125218646D01*
X126836341Y-125193863D01*
X129194050Y-125193863D01*
X129206309Y-125406477D01*
X129207745Y-125416697D01*
X129254565Y-125624446D01*
X129257645Y-125634275D01*
X129337770Y-125831603D01*
X129342413Y-125840794D01*
X129422460Y-125971420D01*
X129432916Y-125980880D01*
X129441694Y-125977096D01*
X130183978Y-125234812D01*
X130191592Y-125220868D01*
X130191461Y-125219035D01*
X130187210Y-125212420D01*
X129445849Y-124471059D01*
X129434313Y-124464759D01*
X129422031Y-124474382D01*
X129374089Y-124544662D01*
X129369004Y-124553613D01*
X129279338Y-124746783D01*
X129275775Y-124756470D01*
X129218864Y-124961681D01*
X129216933Y-124971800D01*
X129194302Y-125183574D01*
X129194050Y-125193863D01*
X126836341Y-125193863D01*
X126820781Y-125004604D01*
X126819096Y-124994424D01*
X126767214Y-124787875D01*
X126763894Y-124778124D01*
X126678972Y-124582814D01*
X126674105Y-124573739D01*
X126609063Y-124473197D01*
X126598377Y-124463995D01*
X126588812Y-124468398D01*
X125848022Y-125209188D01*
X125840408Y-125223132D01*
X125115658Y-125223132D01*
X126229389Y-124109401D01*
X126236410Y-124096544D01*
X126229611Y-124087213D01*
X126225559Y-124084521D01*
X126188602Y-124064120D01*
X126138631Y-124013687D01*
X126123859Y-123944245D01*
X126148975Y-123877839D01*
X126176327Y-123851232D01*
X126225566Y-123816110D01*
X126355860Y-123723173D01*
X126382088Y-123697037D01*
X126500969Y-123578570D01*
X126514096Y-123565489D01*
X126523670Y-123552166D01*
X126638302Y-123392637D01*
X126644453Y-123384077D01*
X126650769Y-123371299D01*
X126741136Y-123188453D01*
X126741137Y-123188451D01*
X126743430Y-123183811D01*
X126808370Y-122970069D01*
X126837529Y-122748590D01*
X126837611Y-122745240D01*
X126839074Y-122685365D01*
X126839074Y-122685361D01*
X126839156Y-122682000D01*
X126836418Y-122648695D01*
X129193251Y-122648695D01*
X129193548Y-122653848D01*
X129193548Y-122653851D01*
X129199011Y-122748590D01*
X129206110Y-122871715D01*
X129207247Y-122876761D01*
X129207248Y-122876767D01*
X129208482Y-122882241D01*
X129255222Y-123089639D01*
X129339266Y-123296616D01*
X129366979Y-123341840D01*
X129449072Y-123475803D01*
X129455987Y-123487088D01*
X129602250Y-123655938D01*
X129774126Y-123798632D01*
X129846918Y-123841168D01*
X129847955Y-123841774D01*
X129896679Y-123893412D01*
X129909750Y-123963195D01*
X129883019Y-124028967D01*
X129842562Y-124062327D01*
X129834460Y-124066544D01*
X129825734Y-124072039D01*
X129805677Y-124087099D01*
X129797223Y-124098427D01*
X129803968Y-124110758D01*
X130543188Y-124849978D01*
X130557132Y-124857592D01*
X130558965Y-124857461D01*
X130565580Y-124853210D01*
X131309389Y-124109401D01*
X131316410Y-124096544D01*
X131309611Y-124087213D01*
X131305559Y-124084521D01*
X131268602Y-124064120D01*
X131218631Y-124013687D01*
X131203859Y-123944245D01*
X131228975Y-123877839D01*
X131256327Y-123851232D01*
X131305566Y-123816110D01*
X131435860Y-123723173D01*
X131462088Y-123697037D01*
X131580969Y-123578570D01*
X131594096Y-123565489D01*
X131603670Y-123552166D01*
X131718302Y-123392637D01*
X131724453Y-123384077D01*
X131730769Y-123371299D01*
X131821136Y-123188453D01*
X131821137Y-123188451D01*
X131823430Y-123183811D01*
X131888370Y-122970069D01*
X131917529Y-122748590D01*
X131917611Y-122745240D01*
X131919074Y-122685365D01*
X131919074Y-122685361D01*
X131919156Y-122682000D01*
X131900852Y-122459361D01*
X131846431Y-122242702D01*
X131757354Y-122037840D01*
X131694087Y-121940044D01*
X131638822Y-121854617D01*
X131638820Y-121854614D01*
X131636014Y-121850277D01*
X131485670Y-121685051D01*
X131481619Y-121681852D01*
X131481615Y-121681848D01*
X131314414Y-121549800D01*
X131314410Y-121549798D01*
X131310359Y-121546598D01*
X131297545Y-121539524D01*
X131216079Y-121494553D01*
X131114789Y-121438638D01*
X131109920Y-121436914D01*
X131109916Y-121436912D01*
X130909087Y-121365795D01*
X130909083Y-121365794D01*
X130904212Y-121364069D01*
X130899119Y-121363162D01*
X130899116Y-121363161D01*
X130689373Y-121325800D01*
X130689367Y-121325799D01*
X130684284Y-121324894D01*
X130610452Y-121323992D01*
X130466081Y-121322228D01*
X130466079Y-121322228D01*
X130460911Y-121322165D01*
X130240091Y-121355955D01*
X130027756Y-121425357D01*
X129829607Y-121528507D01*
X129825474Y-121531610D01*
X129825471Y-121531612D01*
X129655100Y-121659530D01*
X129650965Y-121662635D01*
X129496629Y-121824138D01*
X129370743Y-122008680D01*
X129355003Y-122042590D01*
X129284916Y-122193580D01*
X129276688Y-122211305D01*
X129216989Y-122426570D01*
X129193251Y-122648695D01*
X126836418Y-122648695D01*
X126820852Y-122459361D01*
X126766431Y-122242702D01*
X126677354Y-122037840D01*
X126614087Y-121940044D01*
X126558822Y-121854617D01*
X126558820Y-121854614D01*
X126556014Y-121850277D01*
X126405670Y-121685051D01*
X126401619Y-121681852D01*
X126401615Y-121681848D01*
X126234414Y-121549800D01*
X126234410Y-121549798D01*
X126230359Y-121546598D01*
X126217545Y-121539524D01*
X126136079Y-121494553D01*
X126034789Y-121438638D01*
X126029920Y-121436914D01*
X126029916Y-121436912D01*
X125829087Y-121365795D01*
X125829083Y-121365794D01*
X125824212Y-121364069D01*
X125819119Y-121363162D01*
X125819116Y-121363161D01*
X125609373Y-121325800D01*
X125609367Y-121325799D01*
X125604284Y-121324894D01*
X125530452Y-121323992D01*
X125386081Y-121322228D01*
X125386079Y-121322228D01*
X125380911Y-121322165D01*
X125160091Y-121355955D01*
X124947756Y-121425357D01*
X124749607Y-121528507D01*
X124745474Y-121531610D01*
X124745471Y-121531612D01*
X124575100Y-121659530D01*
X124570965Y-121662635D01*
X124416629Y-121824138D01*
X124290743Y-122008680D01*
X124275003Y-122042590D01*
X124204916Y-122193580D01*
X124196688Y-122211305D01*
X124136989Y-122426570D01*
X124113251Y-122648695D01*
X124113548Y-122653848D01*
X124113548Y-122653851D01*
X124119011Y-122748590D01*
X124126110Y-122871715D01*
X124127247Y-122876761D01*
X124127248Y-122876767D01*
X124128482Y-122882241D01*
X124175222Y-123089639D01*
X124177165Y-123094425D01*
X124177167Y-123094430D01*
X124182841Y-123108404D01*
X124189937Y-123179045D01*
X124155193Y-123244902D01*
X122295747Y-125104348D01*
X122287461Y-125111888D01*
X122280982Y-125116000D01*
X122275557Y-125121777D01*
X122234357Y-125165651D01*
X122231602Y-125168493D01*
X122211865Y-125188230D01*
X122209385Y-125191427D01*
X122201682Y-125200447D01*
X122171414Y-125232679D01*
X122167595Y-125239625D01*
X122167593Y-125239628D01*
X122161652Y-125250434D01*
X122150801Y-125266953D01*
X122138386Y-125282959D01*
X122135241Y-125290228D01*
X122135238Y-125290232D01*
X122120826Y-125323537D01*
X122115609Y-125334187D01*
X122094305Y-125372940D01*
X122092334Y-125380615D01*
X122092334Y-125380616D01*
X122089267Y-125392562D01*
X122082863Y-125411266D01*
X122080718Y-125416224D01*
X122074819Y-125429855D01*
X122073580Y-125437678D01*
X122073577Y-125437688D01*
X122067901Y-125473524D01*
X122065495Y-125485144D01*
X122054500Y-125527970D01*
X122054500Y-125548224D01*
X122052949Y-125567934D01*
X122049780Y-125587943D01*
X122050526Y-125595835D01*
X122053941Y-125631961D01*
X122054500Y-125643819D01*
X122054500Y-129617406D01*
X122034498Y-129685527D01*
X121980842Y-129732020D01*
X121910568Y-129742124D01*
X121845988Y-129712630D01*
X121839405Y-129706501D01*
X120841028Y-128708123D01*
X119634652Y-127501747D01*
X119627112Y-127493461D01*
X119623000Y-127486982D01*
X119573348Y-127440356D01*
X119570507Y-127437602D01*
X119550770Y-127417865D01*
X119547573Y-127415385D01*
X119538551Y-127407680D01*
X119522008Y-127392145D01*
X119506321Y-127377414D01*
X119499375Y-127373595D01*
X119499372Y-127373593D01*
X119488566Y-127367652D01*
X119472047Y-127356801D01*
X119469154Y-127354557D01*
X119456041Y-127344386D01*
X119448772Y-127341241D01*
X119448768Y-127341238D01*
X119415463Y-127326826D01*
X119404813Y-127321609D01*
X119366060Y-127300305D01*
X119346437Y-127295267D01*
X119327734Y-127288863D01*
X119316420Y-127283967D01*
X119316419Y-127283967D01*
X119309145Y-127280819D01*
X119301322Y-127279580D01*
X119301312Y-127279577D01*
X119265476Y-127273901D01*
X119253856Y-127271495D01*
X119218711Y-127262472D01*
X119218710Y-127262472D01*
X119211030Y-127260500D01*
X119201994Y-127260500D01*
X119201158Y-127260255D01*
X119195240Y-127259507D01*
X119195361Y-127258552D01*
X119133873Y-127240498D01*
X119086445Y-127184743D01*
X119067419Y-127140987D01*
X119057354Y-127117840D01*
X118999845Y-127028944D01*
X118938822Y-126934617D01*
X118938820Y-126934614D01*
X118936014Y-126930277D01*
X118785670Y-126765051D01*
X118781619Y-126761852D01*
X118781615Y-126761848D01*
X118614414Y-126629800D01*
X118614410Y-126629798D01*
X118610359Y-126626598D01*
X118568569Y-126603529D01*
X118518598Y-126553097D01*
X118503826Y-126483654D01*
X118528942Y-126417248D01*
X118556293Y-126390642D01*
X118605247Y-126355723D01*
X118613648Y-126345023D01*
X118606660Y-126331870D01*
X117868812Y-125594022D01*
X117854868Y-125586408D01*
X117853035Y-125586539D01*
X117846420Y-125590790D01*
X117102737Y-126334473D01*
X117095977Y-126346853D01*
X117101258Y-126353907D01*
X117147969Y-126381203D01*
X117196693Y-126432841D01*
X117209764Y-126502624D01*
X117183033Y-126568396D01*
X117142584Y-126601752D01*
X117129607Y-126608507D01*
X117125474Y-126611610D01*
X117125471Y-126611612D01*
X116955100Y-126739530D01*
X116950965Y-126742635D01*
X116796629Y-126904138D01*
X116793715Y-126908410D01*
X116793714Y-126908411D01*
X116757095Y-126962092D01*
X116670743Y-127088680D01*
X116632011Y-127172121D01*
X116582290Y-127279237D01*
X116576688Y-127291305D01*
X116516989Y-127506570D01*
X116493251Y-127728695D01*
X114511500Y-127728695D01*
X114511500Y-125193863D01*
X116494050Y-125193863D01*
X116506309Y-125406477D01*
X116507745Y-125416697D01*
X116554565Y-125624446D01*
X116557645Y-125634275D01*
X116637770Y-125831603D01*
X116642413Y-125840794D01*
X116722460Y-125971420D01*
X116732916Y-125980880D01*
X116741694Y-125977096D01*
X117483978Y-125234812D01*
X117490356Y-125223132D01*
X118220408Y-125223132D01*
X118220539Y-125224965D01*
X118224790Y-125231580D01*
X118966474Y-125973264D01*
X118978484Y-125979823D01*
X118990223Y-125970855D01*
X119021004Y-125928019D01*
X119026315Y-125919180D01*
X119120670Y-125728267D01*
X119124469Y-125718672D01*
X119186376Y-125514915D01*
X119188555Y-125504834D01*
X119216590Y-125291887D01*
X119217109Y-125285212D01*
X119218572Y-125225364D01*
X119218378Y-125218646D01*
X119200781Y-125004604D01*
X119199096Y-124994424D01*
X119147214Y-124787875D01*
X119143894Y-124778124D01*
X119058972Y-124582814D01*
X119054105Y-124573739D01*
X118989063Y-124473197D01*
X118978377Y-124463995D01*
X118968812Y-124468398D01*
X118228022Y-125209188D01*
X118220408Y-125223132D01*
X117490356Y-125223132D01*
X117491592Y-125220868D01*
X117491461Y-125219035D01*
X117487210Y-125212420D01*
X116745849Y-124471059D01*
X116734313Y-124464759D01*
X116722031Y-124474382D01*
X116674089Y-124544662D01*
X116669004Y-124553613D01*
X116579338Y-124746783D01*
X116575775Y-124756470D01*
X116518864Y-124961681D01*
X116516933Y-124971800D01*
X116494302Y-125183574D01*
X116494050Y-125193863D01*
X114511500Y-125193863D01*
X114511500Y-123862763D01*
X114512027Y-123851579D01*
X114513701Y-123844091D01*
X114511562Y-123776032D01*
X114511500Y-123772075D01*
X114511500Y-123744144D01*
X114510994Y-123740138D01*
X114510061Y-123728292D01*
X114509995Y-123726171D01*
X114508673Y-123684110D01*
X114503022Y-123664658D01*
X114499014Y-123645306D01*
X114497467Y-123633063D01*
X114496474Y-123625203D01*
X114487275Y-123601968D01*
X114480200Y-123584097D01*
X114476355Y-123572870D01*
X114474885Y-123567811D01*
X114464018Y-123530407D01*
X114459984Y-123523585D01*
X114459981Y-123523579D01*
X114453706Y-123512968D01*
X114445010Y-123495218D01*
X114440472Y-123483756D01*
X114440469Y-123483751D01*
X114437552Y-123476383D01*
X114416152Y-123446928D01*
X114411573Y-123440625D01*
X114405057Y-123430707D01*
X114386575Y-123399457D01*
X114382542Y-123392637D01*
X114368218Y-123378313D01*
X114355376Y-123363278D01*
X114351763Y-123358305D01*
X114343472Y-123346893D01*
X114309406Y-123318711D01*
X114300627Y-123310722D01*
X114127218Y-123137313D01*
X114093192Y-123075001D01*
X114095755Y-123011589D01*
X114106865Y-122975022D01*
X114106867Y-122975015D01*
X114108370Y-122970069D01*
X114137529Y-122748590D01*
X114137611Y-122745240D01*
X114139074Y-122685365D01*
X114139074Y-122685361D01*
X114139156Y-122682000D01*
X114136418Y-122648695D01*
X116493251Y-122648695D01*
X116493548Y-122653848D01*
X116493548Y-122653851D01*
X116499011Y-122748590D01*
X116506110Y-122871715D01*
X116507247Y-122876761D01*
X116507248Y-122876767D01*
X116508482Y-122882241D01*
X116555222Y-123089639D01*
X116639266Y-123296616D01*
X116666979Y-123341840D01*
X116749072Y-123475803D01*
X116755987Y-123487088D01*
X116902250Y-123655938D01*
X117074126Y-123798632D01*
X117146918Y-123841168D01*
X117147955Y-123841774D01*
X117196679Y-123893412D01*
X117209750Y-123963195D01*
X117183019Y-124028967D01*
X117142562Y-124062327D01*
X117134460Y-124066544D01*
X117125734Y-124072039D01*
X117105677Y-124087099D01*
X117097223Y-124098427D01*
X117103968Y-124110758D01*
X117843188Y-124849978D01*
X117857132Y-124857592D01*
X117858965Y-124857461D01*
X117865580Y-124853210D01*
X118609389Y-124109401D01*
X118616410Y-124096544D01*
X118609611Y-124087213D01*
X118605559Y-124084521D01*
X118568602Y-124064120D01*
X118518631Y-124013687D01*
X118503859Y-123944245D01*
X118528975Y-123877839D01*
X118556327Y-123851232D01*
X118605566Y-123816110D01*
X118735860Y-123723173D01*
X118762088Y-123697037D01*
X118880969Y-123578570D01*
X118894096Y-123565489D01*
X118903670Y-123552166D01*
X119018302Y-123392637D01*
X119024453Y-123384077D01*
X119030769Y-123371299D01*
X119121136Y-123188453D01*
X119121137Y-123188451D01*
X119123430Y-123183811D01*
X119188370Y-122970069D01*
X119217529Y-122748590D01*
X119217611Y-122745240D01*
X119219074Y-122685365D01*
X119219074Y-122685361D01*
X119219156Y-122682000D01*
X119200852Y-122459361D01*
X119146431Y-122242702D01*
X119057354Y-122037840D01*
X118994087Y-121940044D01*
X118938822Y-121854617D01*
X118938820Y-121854614D01*
X118936014Y-121850277D01*
X118785670Y-121685051D01*
X118781619Y-121681852D01*
X118781615Y-121681848D01*
X118614414Y-121549800D01*
X118614410Y-121549798D01*
X118610359Y-121546598D01*
X118597545Y-121539524D01*
X118516079Y-121494553D01*
X118414789Y-121438638D01*
X118409920Y-121436914D01*
X118409916Y-121436912D01*
X118209087Y-121365795D01*
X118209083Y-121365794D01*
X118204212Y-121364069D01*
X118199119Y-121363162D01*
X118199116Y-121363161D01*
X117989373Y-121325800D01*
X117989367Y-121325799D01*
X117984284Y-121324894D01*
X117910452Y-121323992D01*
X117766081Y-121322228D01*
X117766079Y-121322228D01*
X117760911Y-121322165D01*
X117540091Y-121355955D01*
X117327756Y-121425357D01*
X117129607Y-121528507D01*
X117125474Y-121531610D01*
X117125471Y-121531612D01*
X116955100Y-121659530D01*
X116950965Y-121662635D01*
X116796629Y-121824138D01*
X116670743Y-122008680D01*
X116655003Y-122042590D01*
X116584916Y-122193580D01*
X116576688Y-122211305D01*
X116516989Y-122426570D01*
X116493251Y-122648695D01*
X114136418Y-122648695D01*
X114120852Y-122459361D01*
X114066431Y-122242702D01*
X113977354Y-122037840D01*
X113914087Y-121940044D01*
X113858822Y-121854617D01*
X113858820Y-121854614D01*
X113856014Y-121850277D01*
X113705670Y-121685051D01*
X113701619Y-121681852D01*
X113701615Y-121681848D01*
X113534414Y-121549800D01*
X113534410Y-121549798D01*
X113530359Y-121546598D01*
X113517545Y-121539524D01*
X113436079Y-121494553D01*
X113334789Y-121438638D01*
X113329920Y-121436914D01*
X113329916Y-121436912D01*
X113129087Y-121365795D01*
X113129083Y-121365794D01*
X113124212Y-121364069D01*
X113119119Y-121363162D01*
X113119116Y-121363161D01*
X113005179Y-121342866D01*
X112941621Y-121311228D01*
X112905258Y-121250251D01*
X112907635Y-121179294D01*
X112938180Y-121129724D01*
X113636499Y-120431405D01*
X113698811Y-120397379D01*
X113725594Y-120394500D01*
X137485406Y-120394500D01*
X137553527Y-120414502D01*
X137600020Y-120468158D01*
X137610124Y-120538432D01*
X137580630Y-120603012D01*
X137574502Y-120609594D01*
X134970869Y-123213226D01*
X132383500Y-125800595D01*
X132321188Y-125834621D01*
X132294405Y-125837500D01*
X132238513Y-125837500D01*
X132232061Y-125838872D01*
X132232056Y-125838872D01*
X132145112Y-125857353D01*
X132051712Y-125877206D01*
X132045682Y-125879891D01*
X132045681Y-125879891D01*
X131979958Y-125909153D01*
X131909591Y-125918587D01*
X131845294Y-125888481D01*
X131807480Y-125828392D01*
X131808156Y-125757398D01*
X131815751Y-125738221D01*
X131820670Y-125728268D01*
X131824469Y-125718672D01*
X131886376Y-125514915D01*
X131888555Y-125504834D01*
X131916590Y-125291887D01*
X131917109Y-125285212D01*
X131918572Y-125225364D01*
X131918378Y-125218646D01*
X131900781Y-125004604D01*
X131899096Y-124994424D01*
X131847214Y-124787875D01*
X131843894Y-124778124D01*
X131758972Y-124582814D01*
X131754105Y-124573739D01*
X131689063Y-124473197D01*
X131678377Y-124463995D01*
X131668812Y-124468398D01*
X129802737Y-126334473D01*
X129795977Y-126346853D01*
X129801258Y-126353907D01*
X129847969Y-126381203D01*
X129896693Y-126432841D01*
X129909764Y-126502624D01*
X129883033Y-126568396D01*
X129842584Y-126601752D01*
X129829607Y-126608507D01*
X129825474Y-126611610D01*
X129825471Y-126611612D01*
X129655100Y-126739530D01*
X129650965Y-126742635D01*
X129496629Y-126904138D01*
X129493715Y-126908410D01*
X129493714Y-126908411D01*
X129457095Y-126962092D01*
X129370743Y-127088680D01*
X129330219Y-127175982D01*
X129324849Y-127187551D01*
X129278024Y-127240917D01*
X129210561Y-127260500D01*
X128862767Y-127260500D01*
X128851584Y-127259973D01*
X128844091Y-127258298D01*
X128836165Y-127258547D01*
X128836164Y-127258547D01*
X128776014Y-127260438D01*
X128772055Y-127260500D01*
X128744144Y-127260500D01*
X128740210Y-127260997D01*
X128740209Y-127260997D01*
X128740144Y-127261005D01*
X128728307Y-127261938D01*
X128696049Y-127262952D01*
X128692030Y-127263078D01*
X128684111Y-127263327D01*
X128664657Y-127268979D01*
X128645300Y-127272987D01*
X128633070Y-127274532D01*
X128633069Y-127274532D01*
X128625203Y-127275526D01*
X128617832Y-127278445D01*
X128617830Y-127278445D01*
X128584088Y-127291804D01*
X128572858Y-127295649D01*
X128538017Y-127305771D01*
X128538016Y-127305771D01*
X128530407Y-127307982D01*
X128523588Y-127312015D01*
X128523583Y-127312017D01*
X128512972Y-127318293D01*
X128495224Y-127326988D01*
X128476383Y-127334448D01*
X128469967Y-127339110D01*
X128469966Y-127339110D01*
X128440613Y-127360436D01*
X128430693Y-127366952D01*
X128399465Y-127385420D01*
X128399462Y-127385422D01*
X128392638Y-127389458D01*
X128378317Y-127403779D01*
X128363284Y-127416619D01*
X128346893Y-127428528D01*
X128338217Y-127439016D01*
X128318702Y-127462605D01*
X128310712Y-127471384D01*
X125214000Y-130568095D01*
X125151688Y-130602121D01*
X125124905Y-130605000D01*
X125069013Y-130605000D01*
X125062561Y-130606372D01*
X125062556Y-130606372D01*
X124996957Y-130620316D01*
X124882212Y-130644706D01*
X124876182Y-130647391D01*
X124876181Y-130647391D01*
X124713778Y-130719697D01*
X124713776Y-130719698D01*
X124707748Y-130722382D01*
X124553247Y-130834634D01*
X124548826Y-130839544D01*
X124548825Y-130839545D01*
X124431340Y-130970026D01*
X124425460Y-130976556D01*
X124392497Y-131033650D01*
X124338643Y-131126928D01*
X124329973Y-131141944D01*
X124270958Y-131323572D01*
X124270268Y-131330133D01*
X124270268Y-131330135D01*
X124257552Y-131451126D01*
X124250996Y-131513500D01*
X124251686Y-131520065D01*
X124265972Y-131655985D01*
X124270958Y-131703428D01*
X124329973Y-131885056D01*
X124333276Y-131890778D01*
X124333277Y-131890779D01*
X124365189Y-131946052D01*
X124425460Y-132050444D01*
X124429878Y-132055351D01*
X124429879Y-132055352D01*
X124437890Y-132064249D01*
X124553247Y-132192366D01*
X124624611Y-132244215D01*
X124692622Y-132293628D01*
X124707748Y-132304618D01*
X124713776Y-132307302D01*
X124713778Y-132307303D01*
X124870236Y-132376962D01*
X124882212Y-132382294D01*
X124975613Y-132402147D01*
X125062556Y-132420628D01*
X125062561Y-132420628D01*
X125069013Y-132422000D01*
X125259987Y-132422000D01*
X125266439Y-132420628D01*
X125266444Y-132420628D01*
X125353387Y-132402147D01*
X125446788Y-132382294D01*
X125458764Y-132376962D01*
X125615222Y-132307303D01*
X125615224Y-132307302D01*
X125621252Y-132304618D01*
X125634490Y-132295000D01*
X125770409Y-132196249D01*
X125770411Y-132196247D01*
X125775753Y-132192366D01*
X125779183Y-132188556D01*
X125842696Y-132158076D01*
X125913149Y-132166839D01*
X125946645Y-132188365D01*
X125950247Y-132192366D01*
X125955589Y-132196247D01*
X125955591Y-132196249D01*
X126091510Y-132295000D01*
X126104748Y-132304618D01*
X126110776Y-132307302D01*
X126110778Y-132307303D01*
X126267236Y-132376962D01*
X126279212Y-132382294D01*
X126372613Y-132402147D01*
X126459556Y-132420628D01*
X126459561Y-132420628D01*
X126466013Y-132422000D01*
X126656987Y-132422000D01*
X126663439Y-132420628D01*
X126663444Y-132420628D01*
X126750387Y-132402147D01*
X126843788Y-132382294D01*
X126855764Y-132376962D01*
X127012222Y-132307303D01*
X127012224Y-132307302D01*
X127018252Y-132304618D01*
X127033379Y-132293628D01*
X127101389Y-132244215D01*
X127172753Y-132192366D01*
X127288110Y-132064249D01*
X127296121Y-132055352D01*
X127296122Y-132055351D01*
X127300540Y-132050444D01*
X127360811Y-131946052D01*
X127392723Y-131890779D01*
X127392724Y-131890778D01*
X127396027Y-131885056D01*
X127455042Y-131703428D01*
X127460029Y-131655985D01*
X127472407Y-131538208D01*
X127499420Y-131472551D01*
X127508622Y-131462282D01*
X128252501Y-130718404D01*
X128314813Y-130684379D01*
X128341596Y-130681500D01*
X130059605Y-130681500D01*
X130127726Y-130701502D01*
X130174219Y-130755158D01*
X130184323Y-130825432D01*
X130179437Y-130846438D01*
X130172498Y-130867792D01*
X130172498Y-130867794D01*
X130170458Y-130874072D01*
X130169768Y-130880633D01*
X130169768Y-130880635D01*
X130154991Y-131021229D01*
X130150496Y-131064000D01*
X130151186Y-131070565D01*
X130165120Y-131203135D01*
X130170458Y-131253928D01*
X130229473Y-131435556D01*
X130232776Y-131441278D01*
X130232777Y-131441279D01*
X130238462Y-131451126D01*
X130324960Y-131600944D01*
X130329378Y-131605851D01*
X130329379Y-131605852D01*
X130417237Y-131703428D01*
X130452747Y-131742866D01*
X130535664Y-131803109D01*
X130592122Y-131844128D01*
X130607248Y-131855118D01*
X130613276Y-131857802D01*
X130613278Y-131857803D01*
X130760711Y-131923444D01*
X130781712Y-131932794D01*
X130844086Y-131946052D01*
X130962056Y-131971128D01*
X130962061Y-131971128D01*
X130968513Y-131972500D01*
X131159487Y-131972500D01*
X131165939Y-131971128D01*
X131165944Y-131971128D01*
X131283914Y-131946052D01*
X131346288Y-131932794D01*
X131367289Y-131923444D01*
X131514722Y-131857803D01*
X131514724Y-131857802D01*
X131520752Y-131855118D01*
X131535879Y-131844128D01*
X131592336Y-131803109D01*
X131675253Y-131742866D01*
X131710763Y-131703428D01*
X131798621Y-131605852D01*
X131798622Y-131605851D01*
X131803040Y-131600944D01*
X131889538Y-131451126D01*
X131895223Y-131441279D01*
X131895224Y-131441278D01*
X131898527Y-131435556D01*
X131943167Y-131298169D01*
X131955502Y-131260207D01*
X131955502Y-131260205D01*
X131957542Y-131253928D01*
X131961655Y-131214794D01*
X131988668Y-131149137D01*
X132046889Y-131108507D01*
X132086965Y-131101964D01*
X137087233Y-131101964D01*
X137098416Y-131102491D01*
X137105909Y-131104166D01*
X137113835Y-131103917D01*
X137113836Y-131103917D01*
X137173986Y-131102026D01*
X137177945Y-131101964D01*
X137205856Y-131101964D01*
X137209791Y-131101467D01*
X137209856Y-131101459D01*
X137221693Y-131100526D01*
X137253951Y-131099512D01*
X137257970Y-131099386D01*
X137265889Y-131099137D01*
X137285343Y-131093485D01*
X137304700Y-131089477D01*
X137316930Y-131087932D01*
X137316931Y-131087932D01*
X137324797Y-131086938D01*
X137332168Y-131084019D01*
X137332170Y-131084019D01*
X137365912Y-131070660D01*
X137377142Y-131066815D01*
X137411983Y-131056693D01*
X137411984Y-131056693D01*
X137419593Y-131054482D01*
X137426412Y-131050449D01*
X137426417Y-131050447D01*
X137437028Y-131044171D01*
X137454776Y-131035476D01*
X137473617Y-131028016D01*
X137502277Y-131007194D01*
X137509387Y-131002028D01*
X137519307Y-130995512D01*
X137550535Y-130977044D01*
X137550538Y-130977042D01*
X137557362Y-130973006D01*
X137571683Y-130958685D01*
X137586717Y-130945844D01*
X137589854Y-130943565D01*
X137603107Y-130933936D01*
X137631298Y-130899859D01*
X137639288Y-130891080D01*
X139676247Y-128854121D01*
X139684537Y-128846577D01*
X139691018Y-128842464D01*
X139720086Y-128811510D01*
X139737658Y-128792797D01*
X139740413Y-128789955D01*
X139760134Y-128770234D01*
X139762612Y-128767039D01*
X139770318Y-128758017D01*
X139787951Y-128739240D01*
X139800586Y-128725785D01*
X139810346Y-128708032D01*
X139821199Y-128691509D01*
X139828753Y-128681770D01*
X139833613Y-128675505D01*
X139851176Y-128634921D01*
X139856383Y-128624291D01*
X139877695Y-128585524D01*
X139879666Y-128577847D01*
X139879668Y-128577842D01*
X139882732Y-128565906D01*
X139889138Y-128547194D01*
X139890735Y-128543505D01*
X139897181Y-128528609D01*
X139898421Y-128520781D01*
X139898423Y-128520774D01*
X139904099Y-128484940D01*
X139906505Y-128473320D01*
X139915528Y-128438175D01*
X139915528Y-128438174D01*
X139917500Y-128430494D01*
X139917500Y-128410240D01*
X139919051Y-128390529D01*
X139920980Y-128378350D01*
X139922220Y-128370521D01*
X139918059Y-128326502D01*
X139917500Y-128314645D01*
X139917500Y-125193863D01*
X141894050Y-125193863D01*
X141906309Y-125406477D01*
X141907745Y-125416697D01*
X141954565Y-125624446D01*
X141957645Y-125634275D01*
X142037770Y-125831603D01*
X142042413Y-125840794D01*
X142122460Y-125971420D01*
X142132916Y-125980880D01*
X142141694Y-125977096D01*
X142883978Y-125234812D01*
X142890356Y-125223132D01*
X143620408Y-125223132D01*
X143620539Y-125224965D01*
X143624790Y-125231580D01*
X144366474Y-125973264D01*
X144378484Y-125979823D01*
X144390223Y-125970855D01*
X144421004Y-125928019D01*
X144426315Y-125919180D01*
X144520670Y-125728267D01*
X144524469Y-125718672D01*
X144586376Y-125514915D01*
X144588555Y-125504834D01*
X144616590Y-125291887D01*
X144617109Y-125285212D01*
X144618572Y-125225364D01*
X144618378Y-125218646D01*
X144600781Y-125004604D01*
X144599096Y-124994424D01*
X144547214Y-124787875D01*
X144543894Y-124778124D01*
X144458972Y-124582814D01*
X144454105Y-124573739D01*
X144389063Y-124473197D01*
X144378377Y-124463995D01*
X144368812Y-124468398D01*
X143628022Y-125209188D01*
X143620408Y-125223132D01*
X142890356Y-125223132D01*
X142891592Y-125220868D01*
X142891461Y-125219035D01*
X142887210Y-125212420D01*
X142145849Y-124471059D01*
X142134313Y-124464759D01*
X142122031Y-124474382D01*
X142074089Y-124544662D01*
X142069004Y-124553613D01*
X141979338Y-124746783D01*
X141975775Y-124756470D01*
X141918864Y-124961681D01*
X141916933Y-124971800D01*
X141894302Y-125183574D01*
X141894050Y-125193863D01*
X139917500Y-125193863D01*
X139917500Y-123994763D01*
X139918027Y-123983579D01*
X139919701Y-123976091D01*
X139917562Y-123908032D01*
X139917500Y-123904075D01*
X139917500Y-123876144D01*
X139916994Y-123872138D01*
X139916061Y-123860292D01*
X139916019Y-123858938D01*
X139914673Y-123816110D01*
X139909022Y-123796658D01*
X139905014Y-123777306D01*
X139903467Y-123765063D01*
X139902474Y-123757203D01*
X139899556Y-123749832D01*
X139886200Y-123716097D01*
X139882355Y-123704870D01*
X139878830Y-123692737D01*
X139870018Y-123662407D01*
X139865984Y-123655585D01*
X139865981Y-123655579D01*
X139859706Y-123644968D01*
X139851010Y-123627218D01*
X139846472Y-123615756D01*
X139846469Y-123615751D01*
X139843552Y-123608383D01*
X139829540Y-123589097D01*
X139817573Y-123572625D01*
X139811057Y-123562707D01*
X139792575Y-123531457D01*
X139788542Y-123524637D01*
X139774218Y-123510313D01*
X139761376Y-123495278D01*
X139749472Y-123478893D01*
X139715406Y-123450711D01*
X139706627Y-123442722D01*
X139497858Y-123233953D01*
X139463832Y-123171641D01*
X139466394Y-123108230D01*
X139506867Y-122975015D01*
X139508370Y-122970069D01*
X139537529Y-122748590D01*
X139537611Y-122745240D01*
X139539074Y-122685365D01*
X139539074Y-122685361D01*
X139539156Y-122682000D01*
X139520852Y-122459361D01*
X139466431Y-122242702D01*
X139377354Y-122037840D01*
X139314087Y-121940044D01*
X139258822Y-121854617D01*
X139258820Y-121854614D01*
X139256014Y-121850277D01*
X139105670Y-121685051D01*
X139101619Y-121681852D01*
X139101615Y-121681848D01*
X138934414Y-121549800D01*
X138934410Y-121549798D01*
X138930359Y-121546598D01*
X138754172Y-121449338D01*
X138704202Y-121398905D01*
X138689430Y-121329462D01*
X138714546Y-121263057D01*
X138725971Y-121249934D01*
X138782500Y-121193405D01*
X138844812Y-121159379D01*
X138871595Y-121156500D01*
X142759261Y-121156500D01*
X142827382Y-121176502D01*
X142873875Y-121230158D01*
X142883979Y-121300432D01*
X142854485Y-121365012D01*
X142798406Y-121402265D01*
X142727756Y-121425357D01*
X142529607Y-121528507D01*
X142525474Y-121531610D01*
X142525471Y-121531612D01*
X142355100Y-121659530D01*
X142350965Y-121662635D01*
X142196629Y-121824138D01*
X142070743Y-122008680D01*
X142055003Y-122042590D01*
X141984916Y-122193580D01*
X141976688Y-122211305D01*
X141916989Y-122426570D01*
X141893251Y-122648695D01*
X141893548Y-122653848D01*
X141893548Y-122653851D01*
X141899011Y-122748590D01*
X141906110Y-122871715D01*
X141907247Y-122876761D01*
X141907248Y-122876767D01*
X141908482Y-122882241D01*
X141955222Y-123089639D01*
X142039266Y-123296616D01*
X142066979Y-123341840D01*
X142149072Y-123475803D01*
X142155987Y-123487088D01*
X142302250Y-123655938D01*
X142474126Y-123798632D01*
X142546918Y-123841168D01*
X142547955Y-123841774D01*
X142596679Y-123893412D01*
X142609750Y-123963195D01*
X142583019Y-124028967D01*
X142542562Y-124062327D01*
X142534460Y-124066544D01*
X142525734Y-124072039D01*
X142505677Y-124087099D01*
X142497223Y-124098427D01*
X142503968Y-124110758D01*
X143243188Y-124849978D01*
X143257132Y-124857592D01*
X143258965Y-124857461D01*
X143265580Y-124853210D01*
X144009389Y-124109401D01*
X144016410Y-124096544D01*
X144009611Y-124087213D01*
X144005559Y-124084521D01*
X143968602Y-124064120D01*
X143918631Y-124013687D01*
X143903859Y-123944245D01*
X143928975Y-123877839D01*
X143956327Y-123851232D01*
X144005566Y-123816110D01*
X144135860Y-123723173D01*
X144162088Y-123697037D01*
X144280969Y-123578570D01*
X144294096Y-123565489D01*
X144303670Y-123552166D01*
X144418302Y-123392637D01*
X144424453Y-123384077D01*
X144430769Y-123371299D01*
X144521136Y-123188453D01*
X144521137Y-123188451D01*
X144523430Y-123183811D01*
X144588370Y-122970069D01*
X144617529Y-122748590D01*
X144617611Y-122745240D01*
X144619074Y-122685365D01*
X144619074Y-122685361D01*
X144619156Y-122682000D01*
X144600852Y-122459361D01*
X144546431Y-122242702D01*
X144457354Y-122037840D01*
X144394087Y-121940044D01*
X144338822Y-121854617D01*
X144338820Y-121854614D01*
X144336014Y-121850277D01*
X144185670Y-121685051D01*
X144181619Y-121681852D01*
X144181615Y-121681848D01*
X144014414Y-121549800D01*
X144014410Y-121549798D01*
X144010359Y-121546598D01*
X143997545Y-121539524D01*
X143916079Y-121494553D01*
X143814789Y-121438638D01*
X143784034Y-121427747D01*
X143709274Y-121401273D01*
X143651737Y-121359679D01*
X143625821Y-121293581D01*
X143639755Y-121223965D01*
X143689114Y-121172934D01*
X143751333Y-121156500D01*
X150379261Y-121156500D01*
X150447382Y-121176502D01*
X150493875Y-121230158D01*
X150503979Y-121300432D01*
X150474485Y-121365012D01*
X150418406Y-121402265D01*
X150347756Y-121425357D01*
X150149607Y-121528507D01*
X150145474Y-121531610D01*
X150145471Y-121531612D01*
X149975100Y-121659530D01*
X149970965Y-121662635D01*
X149816629Y-121824138D01*
X149690743Y-122008680D01*
X149675003Y-122042590D01*
X149604916Y-122193580D01*
X149596688Y-122211305D01*
X149536989Y-122426570D01*
X149513251Y-122648695D01*
X149513548Y-122653848D01*
X149513548Y-122653851D01*
X149519011Y-122748590D01*
X149526110Y-122871715D01*
X149527247Y-122876761D01*
X149527248Y-122876767D01*
X149561476Y-123028646D01*
X149556940Y-123099498D01*
X149527654Y-123145442D01*
X148610768Y-124062327D01*
X147695747Y-124977348D01*
X147687461Y-124984888D01*
X147680982Y-124989000D01*
X147675557Y-124994777D01*
X147634357Y-125038651D01*
X147631602Y-125041493D01*
X147611865Y-125061230D01*
X147609385Y-125064427D01*
X147601682Y-125073447D01*
X147571414Y-125105679D01*
X147567595Y-125112625D01*
X147567593Y-125112628D01*
X147561652Y-125123434D01*
X147550801Y-125139953D01*
X147538386Y-125155959D01*
X147535241Y-125163228D01*
X147535238Y-125163232D01*
X147520826Y-125196537D01*
X147515609Y-125207187D01*
X147494305Y-125245940D01*
X147492334Y-125253615D01*
X147492334Y-125253616D01*
X147489267Y-125265562D01*
X147482863Y-125284266D01*
X147474819Y-125302855D01*
X147473580Y-125310678D01*
X147473577Y-125310688D01*
X147467901Y-125346524D01*
X147465495Y-125358144D01*
X147460557Y-125377378D01*
X147454500Y-125400970D01*
X147454500Y-125421224D01*
X147452949Y-125440934D01*
X147449780Y-125460943D01*
X147450526Y-125468835D01*
X147453941Y-125504961D01*
X147454500Y-125516819D01*
X147454500Y-129363406D01*
X147434498Y-129431527D01*
X147380842Y-129478020D01*
X147310568Y-129488124D01*
X147245988Y-129458630D01*
X147239405Y-129452501D01*
X146301127Y-128514222D01*
X145161652Y-127374747D01*
X145154112Y-127366461D01*
X145150000Y-127359982D01*
X145131336Y-127342455D01*
X145100349Y-127313357D01*
X145097507Y-127310602D01*
X145077770Y-127290865D01*
X145074573Y-127288385D01*
X145065551Y-127280680D01*
X145033321Y-127250414D01*
X145026375Y-127246595D01*
X145026372Y-127246593D01*
X145015566Y-127240652D01*
X144999047Y-127229801D01*
X144997287Y-127228436D01*
X144983041Y-127217386D01*
X144975772Y-127214241D01*
X144975768Y-127214238D01*
X144942463Y-127199826D01*
X144931813Y-127194609D01*
X144893060Y-127173305D01*
X144873437Y-127168267D01*
X144854734Y-127161863D01*
X144843420Y-127156967D01*
X144843419Y-127156967D01*
X144836145Y-127153819D01*
X144828322Y-127152580D01*
X144828312Y-127152577D01*
X144792476Y-127146901D01*
X144780856Y-127144495D01*
X144745711Y-127135472D01*
X144745710Y-127135472D01*
X144738030Y-127133500D01*
X144717776Y-127133500D01*
X144698065Y-127131949D01*
X144685886Y-127130020D01*
X144678057Y-127128780D01*
X144670165Y-127129526D01*
X144634039Y-127132941D01*
X144622181Y-127133500D01*
X144536040Y-127133500D01*
X144467919Y-127113498D01*
X144430248Y-127075940D01*
X144338822Y-126934617D01*
X144338820Y-126934614D01*
X144336014Y-126930277D01*
X144185670Y-126765051D01*
X144181619Y-126761852D01*
X144181615Y-126761848D01*
X144014414Y-126629800D01*
X144014410Y-126629798D01*
X144010359Y-126626598D01*
X143968569Y-126603529D01*
X143918598Y-126553097D01*
X143903826Y-126483654D01*
X143928942Y-126417248D01*
X143956293Y-126390642D01*
X144005247Y-126355723D01*
X144013648Y-126345023D01*
X144006660Y-126331870D01*
X143268812Y-125594022D01*
X143254868Y-125586408D01*
X143253035Y-125586539D01*
X143246420Y-125590790D01*
X142502737Y-126334473D01*
X142495977Y-126346853D01*
X142501258Y-126353907D01*
X142547969Y-126381203D01*
X142596693Y-126432841D01*
X142609764Y-126502624D01*
X142583033Y-126568396D01*
X142542584Y-126601752D01*
X142529607Y-126608507D01*
X142525474Y-126611610D01*
X142525471Y-126611612D01*
X142355100Y-126739530D01*
X142350965Y-126742635D01*
X142196629Y-126904138D01*
X142193715Y-126908410D01*
X142193714Y-126908411D01*
X142157095Y-126962092D01*
X142070743Y-127088680D01*
X142032011Y-127172121D01*
X141982290Y-127279237D01*
X141976688Y-127291305D01*
X141916989Y-127506570D01*
X141893251Y-127728695D01*
X141893548Y-127733848D01*
X141893548Y-127733851D01*
X141903319Y-127903308D01*
X141906110Y-127951715D01*
X141907247Y-127956761D01*
X141907248Y-127956767D01*
X141925109Y-128036021D01*
X141955222Y-128169639D01*
X141993461Y-128263811D01*
X142033587Y-128362629D01*
X142039266Y-128376616D01*
X142078623Y-128440841D01*
X142153291Y-128562688D01*
X142155987Y-128567088D01*
X142302250Y-128735938D01*
X142428890Y-128841076D01*
X142461390Y-128868058D01*
X142474126Y-128878632D01*
X142667000Y-128991338D01*
X142671825Y-128993180D01*
X142671826Y-128993181D01*
X142694112Y-129001691D01*
X142875692Y-129071030D01*
X142880760Y-129072061D01*
X142880763Y-129072062D01*
X142988017Y-129093883D01*
X143094597Y-129115567D01*
X143099772Y-129115757D01*
X143099774Y-129115757D01*
X143312673Y-129123564D01*
X143312677Y-129123564D01*
X143317837Y-129123753D01*
X143322957Y-129123097D01*
X143322959Y-129123097D01*
X143534288Y-129096025D01*
X143534289Y-129096025D01*
X143539416Y-129095368D01*
X143544366Y-129093883D01*
X143748429Y-129032661D01*
X143748434Y-129032659D01*
X143753384Y-129031174D01*
X143953994Y-128932896D01*
X144135860Y-128803173D01*
X144146273Y-128792797D01*
X144234691Y-128704687D01*
X144294096Y-128645489D01*
X144297112Y-128641292D01*
X144297119Y-128641284D01*
X144352426Y-128564316D01*
X144408420Y-128520668D01*
X144479124Y-128514222D01*
X144543843Y-128548747D01*
X145606501Y-129611406D01*
X146655595Y-130660500D01*
X146689621Y-130722812D01*
X146692500Y-130749595D01*
X146692500Y-134415446D01*
X146672498Y-134483567D01*
X146617749Y-134530553D01*
X146488278Y-134588197D01*
X146488276Y-134588198D01*
X146482248Y-134590882D01*
X146327747Y-134703134D01*
X146323326Y-134708044D01*
X146323325Y-134708045D01*
X146214817Y-134828556D01*
X146199960Y-134845056D01*
X146196659Y-134850774D01*
X146110371Y-135000229D01*
X146104473Y-135010444D01*
X146045458Y-135192072D01*
X146025496Y-135382000D01*
X146026186Y-135388565D01*
X146044384Y-135561706D01*
X146045458Y-135571928D01*
X146104473Y-135753556D01*
X146107776Y-135759278D01*
X146107777Y-135759279D01*
X146141686Y-135818010D01*
X146199960Y-135918944D01*
X146204378Y-135923851D01*
X146204379Y-135923852D01*
X146323325Y-136055955D01*
X146327747Y-136060866D01*
X146405512Y-136117366D01*
X146476835Y-136169185D01*
X146482248Y-136173118D01*
X146488276Y-136175802D01*
X146488278Y-136175803D01*
X146650681Y-136248109D01*
X146656712Y-136250794D01*
X146750112Y-136270647D01*
X146837056Y-136289128D01*
X146837061Y-136289128D01*
X146843513Y-136290500D01*
X147034487Y-136290500D01*
X147040939Y-136289128D01*
X147040944Y-136289128D01*
X147127888Y-136270647D01*
X147221288Y-136250794D01*
X147227319Y-136248109D01*
X147389722Y-136175803D01*
X147389724Y-136175802D01*
X147395752Y-136173118D01*
X147401094Y-136169237D01*
X147450794Y-136133128D01*
X147517662Y-136109269D01*
X147586814Y-136125350D01*
X147598915Y-136133127D01*
X147625907Y-136152738D01*
X147625910Y-136152740D01*
X147631248Y-136156618D01*
X147637276Y-136159302D01*
X147637278Y-136159303D01*
X147799681Y-136231609D01*
X147805712Y-136234294D01*
X147883338Y-136250794D01*
X147986056Y-136272628D01*
X147986061Y-136272628D01*
X147992513Y-136274000D01*
X148183487Y-136274000D01*
X148189939Y-136272628D01*
X148189944Y-136272628D01*
X148292662Y-136250794D01*
X148370288Y-136234294D01*
X148376319Y-136231609D01*
X148538722Y-136159303D01*
X148538724Y-136159302D01*
X148544752Y-136156618D01*
X148577085Y-136133127D01*
X148618099Y-136103328D01*
X148699253Y-136044366D01*
X148721596Y-136019552D01*
X148822621Y-135907352D01*
X148822622Y-135907351D01*
X148827040Y-135902444D01*
X148913001Y-135753556D01*
X148919223Y-135742779D01*
X148919224Y-135742778D01*
X148922527Y-135737056D01*
X148981542Y-135555428D01*
X148990616Y-135469099D01*
X149000814Y-135372065D01*
X149001504Y-135365500D01*
X148983276Y-135192072D01*
X148982232Y-135182135D01*
X148982232Y-135182133D01*
X148981542Y-135175572D01*
X148922527Y-134993944D01*
X148827040Y-134828556D01*
X148753863Y-134747285D01*
X148723147Y-134683279D01*
X148721500Y-134662976D01*
X148721500Y-127728695D01*
X149513251Y-127728695D01*
X149513548Y-127733848D01*
X149513548Y-127733851D01*
X149523319Y-127903308D01*
X149526110Y-127951715D01*
X149527247Y-127956761D01*
X149527248Y-127956767D01*
X149545109Y-128036021D01*
X149575222Y-128169639D01*
X149613461Y-128263811D01*
X149653587Y-128362629D01*
X149659266Y-128376616D01*
X149698623Y-128440841D01*
X149773291Y-128562688D01*
X149775987Y-128567088D01*
X149922250Y-128735938D01*
X150048890Y-128841076D01*
X150081390Y-128868058D01*
X150094126Y-128878632D01*
X150287000Y-128991338D01*
X150291825Y-128993180D01*
X150291826Y-128993181D01*
X150314112Y-129001691D01*
X150495692Y-129071030D01*
X150500760Y-129072061D01*
X150500763Y-129072062D01*
X150608017Y-129093883D01*
X150714597Y-129115567D01*
X150719772Y-129115757D01*
X150719774Y-129115757D01*
X150932673Y-129123564D01*
X150932677Y-129123564D01*
X150937837Y-129123753D01*
X150942957Y-129123097D01*
X150942959Y-129123097D01*
X151154288Y-129096025D01*
X151154289Y-129096025D01*
X151159416Y-129095368D01*
X151164366Y-129093883D01*
X151368429Y-129032661D01*
X151368434Y-129032659D01*
X151373384Y-129031174D01*
X151573994Y-128932896D01*
X151755860Y-128803173D01*
X151766273Y-128792797D01*
X151854691Y-128704687D01*
X151914096Y-128645489D01*
X151924975Y-128630350D01*
X152041435Y-128468277D01*
X152044453Y-128464077D01*
X152048611Y-128455665D01*
X152141136Y-128268453D01*
X152141137Y-128268451D01*
X152143430Y-128263811D01*
X152208370Y-128050069D01*
X152237529Y-127828590D01*
X152238752Y-127778526D01*
X152239074Y-127765365D01*
X152239074Y-127765361D01*
X152239156Y-127762000D01*
X152220852Y-127539361D01*
X152166431Y-127322702D01*
X152077354Y-127117840D01*
X152019845Y-127028944D01*
X151958822Y-126934617D01*
X151958820Y-126934614D01*
X151956014Y-126930277D01*
X151805670Y-126765051D01*
X151801619Y-126761852D01*
X151801615Y-126761848D01*
X151634414Y-126629800D01*
X151634410Y-126629798D01*
X151630359Y-126626598D01*
X151588569Y-126603529D01*
X151538598Y-126553097D01*
X151523826Y-126483654D01*
X151548942Y-126417248D01*
X151576293Y-126390642D01*
X151625247Y-126355723D01*
X151633648Y-126345023D01*
X151626660Y-126331870D01*
X150888812Y-125594022D01*
X150874868Y-125586408D01*
X150873035Y-125586539D01*
X150866420Y-125590790D01*
X150122737Y-126334473D01*
X150115977Y-126346853D01*
X150121258Y-126353907D01*
X150167969Y-126381203D01*
X150216693Y-126432841D01*
X150229764Y-126502624D01*
X150203033Y-126568396D01*
X150162584Y-126601752D01*
X150149607Y-126608507D01*
X150145474Y-126611610D01*
X150145471Y-126611612D01*
X149975100Y-126739530D01*
X149970965Y-126742635D01*
X149816629Y-126904138D01*
X149813715Y-126908410D01*
X149813714Y-126908411D01*
X149777095Y-126962092D01*
X149690743Y-127088680D01*
X149652011Y-127172121D01*
X149602290Y-127279237D01*
X149596688Y-127291305D01*
X149536989Y-127506570D01*
X149513251Y-127728695D01*
X148721500Y-127728695D01*
X148721500Y-125795594D01*
X148741502Y-125727473D01*
X148758405Y-125706499D01*
X149302093Y-125162811D01*
X149364405Y-125128785D01*
X149435220Y-125133850D01*
X149492056Y-125176397D01*
X149516979Y-125244653D01*
X149526309Y-125406477D01*
X149527745Y-125416697D01*
X149574565Y-125624446D01*
X149577645Y-125634275D01*
X149657770Y-125831603D01*
X149662413Y-125840794D01*
X149742460Y-125971420D01*
X149752916Y-125980880D01*
X149761694Y-125977096D01*
X150515658Y-125223132D01*
X151240408Y-125223132D01*
X151240539Y-125224965D01*
X151244790Y-125231580D01*
X151986474Y-125973264D01*
X151998484Y-125979823D01*
X152010223Y-125970855D01*
X152041004Y-125928019D01*
X152046315Y-125919180D01*
X152140670Y-125728267D01*
X152144469Y-125718672D01*
X152206376Y-125514915D01*
X152208555Y-125504834D01*
X152236590Y-125291887D01*
X152237109Y-125285212D01*
X152238572Y-125225364D01*
X152238378Y-125218646D01*
X152236341Y-125193863D01*
X154594050Y-125193863D01*
X154606309Y-125406477D01*
X154607745Y-125416697D01*
X154654565Y-125624446D01*
X154657645Y-125634275D01*
X154737770Y-125831603D01*
X154742413Y-125840794D01*
X154822460Y-125971420D01*
X154832916Y-125980880D01*
X154841694Y-125977096D01*
X155583978Y-125234812D01*
X155590356Y-125223132D01*
X156320408Y-125223132D01*
X156320539Y-125224965D01*
X156324790Y-125231580D01*
X157066474Y-125973264D01*
X157078484Y-125979823D01*
X157090223Y-125970855D01*
X157121004Y-125928019D01*
X157126315Y-125919180D01*
X157220670Y-125728267D01*
X157224469Y-125718672D01*
X157286376Y-125514915D01*
X157288555Y-125504834D01*
X157316590Y-125291887D01*
X157317109Y-125285212D01*
X157318572Y-125225364D01*
X157318378Y-125218646D01*
X157316341Y-125193863D01*
X162214050Y-125193863D01*
X162226309Y-125406477D01*
X162227745Y-125416697D01*
X162274565Y-125624446D01*
X162277645Y-125634275D01*
X162357770Y-125831603D01*
X162362413Y-125840794D01*
X162442460Y-125971420D01*
X162452916Y-125980880D01*
X162461694Y-125977096D01*
X163203978Y-125234812D01*
X163211592Y-125220868D01*
X163211461Y-125219035D01*
X163207210Y-125212420D01*
X162465849Y-124471059D01*
X162454313Y-124464759D01*
X162442031Y-124474382D01*
X162394089Y-124544662D01*
X162389004Y-124553613D01*
X162299338Y-124746783D01*
X162295775Y-124756470D01*
X162238864Y-124961681D01*
X162236933Y-124971800D01*
X162214302Y-125183574D01*
X162214050Y-125193863D01*
X157316341Y-125193863D01*
X157300781Y-125004604D01*
X157299096Y-124994424D01*
X157247214Y-124787875D01*
X157243894Y-124778124D01*
X157158972Y-124582814D01*
X157154105Y-124573739D01*
X157089063Y-124473197D01*
X157078377Y-124463995D01*
X157068812Y-124468398D01*
X156328022Y-125209188D01*
X156320408Y-125223132D01*
X155590356Y-125223132D01*
X155591592Y-125220868D01*
X155591461Y-125219035D01*
X155587210Y-125212420D01*
X154845849Y-124471059D01*
X154834313Y-124464759D01*
X154822031Y-124474382D01*
X154774089Y-124544662D01*
X154769004Y-124553613D01*
X154679338Y-124746783D01*
X154675775Y-124756470D01*
X154618864Y-124961681D01*
X154616933Y-124971800D01*
X154594302Y-125183574D01*
X154594050Y-125193863D01*
X152236341Y-125193863D01*
X152220781Y-125004604D01*
X152219096Y-124994424D01*
X152167214Y-124787875D01*
X152163894Y-124778124D01*
X152078972Y-124582814D01*
X152074105Y-124573739D01*
X152009063Y-124473197D01*
X151998377Y-124463995D01*
X151988812Y-124468398D01*
X151248022Y-125209188D01*
X151240408Y-125223132D01*
X150515658Y-125223132D01*
X151629389Y-124109401D01*
X151636410Y-124096544D01*
X151629611Y-124087213D01*
X151625559Y-124084521D01*
X151588602Y-124064120D01*
X151538631Y-124013687D01*
X151523859Y-123944245D01*
X151548975Y-123877839D01*
X151576327Y-123851232D01*
X151625566Y-123816110D01*
X151755860Y-123723173D01*
X151782088Y-123697037D01*
X151900969Y-123578570D01*
X151914096Y-123565489D01*
X151923670Y-123552166D01*
X152038302Y-123392637D01*
X152044453Y-123384077D01*
X152050769Y-123371299D01*
X152141136Y-123188453D01*
X152141137Y-123188451D01*
X152143430Y-123183811D01*
X152208370Y-122970069D01*
X152237529Y-122748590D01*
X152237611Y-122745240D01*
X152239074Y-122685365D01*
X152239074Y-122685361D01*
X152239156Y-122682000D01*
X152220852Y-122459361D01*
X152166431Y-122242702D01*
X152077354Y-122037840D01*
X152014087Y-121940044D01*
X151958822Y-121854617D01*
X151958820Y-121854614D01*
X151956014Y-121850277D01*
X151805670Y-121685051D01*
X151801619Y-121681852D01*
X151801615Y-121681848D01*
X151634414Y-121549800D01*
X151634410Y-121549798D01*
X151630359Y-121546598D01*
X151617545Y-121539524D01*
X151536079Y-121494553D01*
X151434789Y-121438638D01*
X151404034Y-121427747D01*
X151329274Y-121401273D01*
X151271737Y-121359679D01*
X151245821Y-121293581D01*
X151259755Y-121223965D01*
X151309114Y-121172934D01*
X151371333Y-121156500D01*
X155459261Y-121156500D01*
X155527382Y-121176502D01*
X155573875Y-121230158D01*
X155583979Y-121300432D01*
X155554485Y-121365012D01*
X155498406Y-121402265D01*
X155427756Y-121425357D01*
X155229607Y-121528507D01*
X155225474Y-121531610D01*
X155225471Y-121531612D01*
X155055100Y-121659530D01*
X155050965Y-121662635D01*
X154896629Y-121824138D01*
X154770743Y-122008680D01*
X154755003Y-122042590D01*
X154684916Y-122193580D01*
X154676688Y-122211305D01*
X154616989Y-122426570D01*
X154593251Y-122648695D01*
X154593548Y-122653848D01*
X154593548Y-122653851D01*
X154599011Y-122748590D01*
X154606110Y-122871715D01*
X154607247Y-122876761D01*
X154607248Y-122876767D01*
X154608482Y-122882241D01*
X154655222Y-123089639D01*
X154739266Y-123296616D01*
X154766979Y-123341840D01*
X154849072Y-123475803D01*
X154855987Y-123487088D01*
X155002250Y-123655938D01*
X155174126Y-123798632D01*
X155246918Y-123841168D01*
X155247955Y-123841774D01*
X155296679Y-123893412D01*
X155309750Y-123963195D01*
X155283019Y-124028967D01*
X155242562Y-124062327D01*
X155234460Y-124066544D01*
X155225734Y-124072039D01*
X155205677Y-124087099D01*
X155197223Y-124098427D01*
X155203968Y-124110758D01*
X155943188Y-124849978D01*
X155957132Y-124857592D01*
X155958965Y-124857461D01*
X155965580Y-124853210D01*
X156709389Y-124109401D01*
X156716410Y-124096544D01*
X156709611Y-124087213D01*
X156705559Y-124084521D01*
X156668602Y-124064120D01*
X156618631Y-124013687D01*
X156603859Y-123944245D01*
X156628975Y-123877839D01*
X156656327Y-123851232D01*
X156705566Y-123816110D01*
X156835860Y-123723173D01*
X156862088Y-123697037D01*
X156980969Y-123578570D01*
X156994096Y-123565489D01*
X157003670Y-123552166D01*
X157118302Y-123392637D01*
X157124453Y-123384077D01*
X157130769Y-123371299D01*
X157221136Y-123188453D01*
X157221137Y-123188451D01*
X157223430Y-123183811D01*
X157288370Y-122970069D01*
X157317529Y-122748590D01*
X157317611Y-122745240D01*
X157319074Y-122685365D01*
X157319074Y-122685361D01*
X157319156Y-122682000D01*
X157300852Y-122459361D01*
X157246431Y-122242702D01*
X157157354Y-122037840D01*
X157094087Y-121940044D01*
X157038822Y-121854617D01*
X157038820Y-121854614D01*
X157036014Y-121850277D01*
X156885670Y-121685051D01*
X156881619Y-121681852D01*
X156881615Y-121681848D01*
X156714414Y-121549800D01*
X156714410Y-121549798D01*
X156710359Y-121546598D01*
X156697545Y-121539524D01*
X156616079Y-121494553D01*
X156514789Y-121438638D01*
X156484034Y-121427747D01*
X156409274Y-121401273D01*
X156351737Y-121359679D01*
X156325821Y-121293581D01*
X156339755Y-121223965D01*
X156389114Y-121172934D01*
X156451333Y-121156500D01*
X163079261Y-121156500D01*
X163147382Y-121176502D01*
X163193875Y-121230158D01*
X163203979Y-121300432D01*
X163174485Y-121365012D01*
X163118406Y-121402265D01*
X163047756Y-121425357D01*
X162849607Y-121528507D01*
X162845474Y-121531610D01*
X162845471Y-121531612D01*
X162675100Y-121659530D01*
X162670965Y-121662635D01*
X162516629Y-121824138D01*
X162390743Y-122008680D01*
X162375003Y-122042590D01*
X162304916Y-122193580D01*
X162296688Y-122211305D01*
X162236989Y-122426570D01*
X162213251Y-122648695D01*
X162213548Y-122653848D01*
X162213548Y-122653851D01*
X162219011Y-122748590D01*
X162226110Y-122871715D01*
X162227247Y-122876761D01*
X162227248Y-122876767D01*
X162228482Y-122882241D01*
X162275222Y-123089639D01*
X162359266Y-123296616D01*
X162386979Y-123341840D01*
X162469072Y-123475803D01*
X162475987Y-123487088D01*
X162622250Y-123655938D01*
X162794126Y-123798632D01*
X162866918Y-123841168D01*
X162867955Y-123841774D01*
X162916679Y-123893412D01*
X162929750Y-123963195D01*
X162903019Y-124028967D01*
X162862562Y-124062327D01*
X162854460Y-124066544D01*
X162845734Y-124072039D01*
X162825677Y-124087099D01*
X162817223Y-124098427D01*
X162823968Y-124110758D01*
X163846115Y-125132905D01*
X163880141Y-125195217D01*
X163875076Y-125266032D01*
X163846115Y-125311095D01*
X162822737Y-126334473D01*
X162815977Y-126346853D01*
X162821258Y-126353907D01*
X162867969Y-126381203D01*
X162916693Y-126432841D01*
X162929764Y-126502624D01*
X162903033Y-126568396D01*
X162862584Y-126601752D01*
X162849607Y-126608507D01*
X162845474Y-126611610D01*
X162845471Y-126611612D01*
X162675100Y-126739530D01*
X162670965Y-126742635D01*
X162516629Y-126904138D01*
X162513715Y-126908410D01*
X162513714Y-126908411D01*
X162477095Y-126962092D01*
X162390743Y-127088680D01*
X162352011Y-127172121D01*
X162302290Y-127279237D01*
X162296688Y-127291305D01*
X162236989Y-127506570D01*
X162236440Y-127511707D01*
X162221566Y-127650889D01*
X162194438Y-127716499D01*
X162136146Y-127757027D01*
X162096279Y-127763500D01*
X158193767Y-127763500D01*
X158182584Y-127762973D01*
X158175091Y-127761298D01*
X158167165Y-127761547D01*
X158167164Y-127761547D01*
X158107014Y-127763438D01*
X158103055Y-127763500D01*
X158075144Y-127763500D01*
X158071210Y-127763997D01*
X158071209Y-127763997D01*
X158071144Y-127764005D01*
X158059307Y-127764938D01*
X158027490Y-127765938D01*
X158023029Y-127766078D01*
X158015110Y-127766327D01*
X157997454Y-127771456D01*
X157995658Y-127771978D01*
X157976306Y-127775986D01*
X157969235Y-127776880D01*
X157956203Y-127778526D01*
X157948834Y-127781443D01*
X157948832Y-127781444D01*
X157915097Y-127794800D01*
X157903869Y-127798645D01*
X157861407Y-127810982D01*
X157854585Y-127815016D01*
X157854579Y-127815019D01*
X157843968Y-127821294D01*
X157826218Y-127829990D01*
X157814756Y-127834528D01*
X157814751Y-127834531D01*
X157807383Y-127837448D01*
X157800968Y-127842109D01*
X157771625Y-127863427D01*
X157761707Y-127869943D01*
X157743019Y-127880995D01*
X157723637Y-127892458D01*
X157709313Y-127906782D01*
X157694281Y-127919621D01*
X157677893Y-127931528D01*
X157649712Y-127965593D01*
X157641722Y-127974373D01*
X157508740Y-128107355D01*
X157446428Y-128141381D01*
X157375613Y-128136316D01*
X157318777Y-128093769D01*
X157293966Y-128027249D01*
X157294723Y-128001813D01*
X157298890Y-127970167D01*
X157317529Y-127828590D01*
X157318752Y-127778526D01*
X157319074Y-127765365D01*
X157319074Y-127765361D01*
X157319156Y-127762000D01*
X157300852Y-127539361D01*
X157246431Y-127322702D01*
X157157354Y-127117840D01*
X157099845Y-127028944D01*
X157038822Y-126934617D01*
X157038820Y-126934614D01*
X157036014Y-126930277D01*
X156885670Y-126765051D01*
X156881619Y-126761852D01*
X156881615Y-126761848D01*
X156714414Y-126629800D01*
X156714410Y-126629798D01*
X156710359Y-126626598D01*
X156668569Y-126603529D01*
X156618598Y-126553097D01*
X156603826Y-126483654D01*
X156628942Y-126417248D01*
X156656293Y-126390642D01*
X156705247Y-126355723D01*
X156713648Y-126345023D01*
X156706660Y-126331870D01*
X155968812Y-125594022D01*
X155954868Y-125586408D01*
X155953035Y-125586539D01*
X155946420Y-125590790D01*
X155202737Y-126334473D01*
X155195977Y-126346853D01*
X155201258Y-126353907D01*
X155247969Y-126381203D01*
X155296693Y-126432841D01*
X155309764Y-126502624D01*
X155283033Y-126568396D01*
X155242584Y-126601752D01*
X155229607Y-126608507D01*
X155225474Y-126611610D01*
X155225471Y-126611612D01*
X155055100Y-126739530D01*
X155050965Y-126742635D01*
X154896629Y-126904138D01*
X154893715Y-126908410D01*
X154893714Y-126908411D01*
X154857095Y-126962092D01*
X154770743Y-127088680D01*
X154732011Y-127172121D01*
X154682290Y-127279237D01*
X154676688Y-127291305D01*
X154616989Y-127506570D01*
X154593251Y-127728695D01*
X154593548Y-127733848D01*
X154593548Y-127733851D01*
X154603319Y-127903308D01*
X154606110Y-127951715D01*
X154607247Y-127956761D01*
X154607248Y-127956767D01*
X154625109Y-128036021D01*
X154655222Y-128169639D01*
X154693461Y-128263811D01*
X154733587Y-128362629D01*
X154739266Y-128376616D01*
X154778623Y-128440841D01*
X154853291Y-128562688D01*
X154855987Y-128567088D01*
X155002250Y-128735938D01*
X155119894Y-128833608D01*
X155161390Y-128868058D01*
X155174126Y-128878632D01*
X155178583Y-128881236D01*
X155178588Y-128881240D01*
X155266070Y-128932360D01*
X155314794Y-128983998D01*
X155328500Y-129041148D01*
X155328500Y-129219405D01*
X155308498Y-129287526D01*
X155291595Y-129308500D01*
X154587500Y-130012595D01*
X154525188Y-130046621D01*
X154498405Y-130049500D01*
X151346767Y-130049500D01*
X151335584Y-130048973D01*
X151328091Y-130047298D01*
X151320165Y-130047547D01*
X151320164Y-130047547D01*
X151260014Y-130049438D01*
X151256055Y-130049500D01*
X151228144Y-130049500D01*
X151224210Y-130049997D01*
X151224209Y-130049997D01*
X151224144Y-130050005D01*
X151212307Y-130050938D01*
X151180490Y-130051938D01*
X151176029Y-130052078D01*
X151168110Y-130052327D01*
X151150454Y-130057456D01*
X151148658Y-130057978D01*
X151129306Y-130061986D01*
X151122235Y-130062880D01*
X151109203Y-130064526D01*
X151101834Y-130067443D01*
X151101832Y-130067444D01*
X151068097Y-130080800D01*
X151056869Y-130084645D01*
X151014407Y-130096982D01*
X151007585Y-130101016D01*
X151007579Y-130101019D01*
X150996968Y-130107294D01*
X150979218Y-130115990D01*
X150967756Y-130120528D01*
X150967751Y-130120531D01*
X150960383Y-130123448D01*
X150944879Y-130134712D01*
X150924625Y-130149427D01*
X150914707Y-130155943D01*
X150896019Y-130166995D01*
X150876637Y-130178458D01*
X150862313Y-130192782D01*
X150847281Y-130205621D01*
X150830893Y-130217528D01*
X150802712Y-130251593D01*
X150794722Y-130260373D01*
X150614000Y-130441095D01*
X150551688Y-130475121D01*
X150524905Y-130478000D01*
X150469013Y-130478000D01*
X150462561Y-130479372D01*
X150462556Y-130479372D01*
X150375613Y-130497853D01*
X150282212Y-130517706D01*
X150276182Y-130520391D01*
X150276181Y-130520391D01*
X150113778Y-130592697D01*
X150113776Y-130592698D01*
X150107748Y-130595382D01*
X150102407Y-130599262D01*
X150102406Y-130599263D01*
X150083546Y-130612966D01*
X149953247Y-130707634D01*
X149948826Y-130712544D01*
X149948825Y-130712545D01*
X149838211Y-130835395D01*
X149825460Y-130849556D01*
X149787948Y-130914529D01*
X149733769Y-131008370D01*
X149729973Y-131014944D01*
X149670958Y-131196572D01*
X149670268Y-131203133D01*
X149670268Y-131203135D01*
X149664270Y-131260206D01*
X149650996Y-131386500D01*
X149651686Y-131393065D01*
X149669743Y-131564865D01*
X149670958Y-131576428D01*
X149729973Y-131758056D01*
X149825460Y-131923444D01*
X149829878Y-131928351D01*
X149829879Y-131928352D01*
X149911952Y-132019503D01*
X149953247Y-132065366D01*
X150107748Y-132177618D01*
X150113776Y-132180302D01*
X150113778Y-132180303D01*
X150274063Y-132251666D01*
X150282212Y-132255294D01*
X150375612Y-132275147D01*
X150462556Y-132293628D01*
X150462561Y-132293628D01*
X150469013Y-132295000D01*
X150659987Y-132295000D01*
X150666439Y-132293628D01*
X150666444Y-132293628D01*
X150753388Y-132275147D01*
X150846788Y-132255294D01*
X150854937Y-132251666D01*
X151015222Y-132180303D01*
X151015224Y-132180302D01*
X151021252Y-132177618D01*
X151048149Y-132158076D01*
X151170409Y-132069249D01*
X151170411Y-132069247D01*
X151175753Y-132065366D01*
X151179183Y-132061556D01*
X151242696Y-132031076D01*
X151313149Y-132039839D01*
X151346645Y-132061365D01*
X151350247Y-132065366D01*
X151355589Y-132069247D01*
X151355591Y-132069249D01*
X151477851Y-132158076D01*
X151504748Y-132177618D01*
X151510776Y-132180302D01*
X151510778Y-132180303D01*
X151671063Y-132251666D01*
X151679212Y-132255294D01*
X151772612Y-132275147D01*
X151859556Y-132293628D01*
X151859561Y-132293628D01*
X151866013Y-132295000D01*
X152056987Y-132295000D01*
X152063439Y-132293628D01*
X152063444Y-132293628D01*
X152150388Y-132275147D01*
X152243788Y-132255294D01*
X152251937Y-132251666D01*
X152412222Y-132180303D01*
X152412224Y-132180302D01*
X152418252Y-132177618D01*
X152572753Y-132065366D01*
X152577168Y-132060463D01*
X152582080Y-132056040D01*
X152583205Y-132057289D01*
X152636514Y-132024449D01*
X152669700Y-132020000D01*
X155046733Y-132020000D01*
X155057916Y-132020527D01*
X155065409Y-132022202D01*
X155073335Y-132021953D01*
X155073336Y-132021953D01*
X155133486Y-132020062D01*
X155137445Y-132020000D01*
X155165356Y-132020000D01*
X155169291Y-132019503D01*
X155169356Y-132019495D01*
X155181193Y-132018562D01*
X155213451Y-132017548D01*
X155217470Y-132017422D01*
X155225389Y-132017173D01*
X155244843Y-132011521D01*
X155264200Y-132007513D01*
X155276430Y-132005968D01*
X155276431Y-132005968D01*
X155284297Y-132004974D01*
X155291668Y-132002055D01*
X155291670Y-132002055D01*
X155325412Y-131988696D01*
X155336642Y-131984851D01*
X155371483Y-131974729D01*
X155371484Y-131974729D01*
X155379093Y-131972518D01*
X155385912Y-131968485D01*
X155385917Y-131968483D01*
X155396528Y-131962207D01*
X155414276Y-131953512D01*
X155433117Y-131946052D01*
X155468887Y-131920064D01*
X155478807Y-131913548D01*
X155510035Y-131895080D01*
X155510038Y-131895078D01*
X155516862Y-131891042D01*
X155531183Y-131876721D01*
X155546217Y-131863880D01*
X155556194Y-131856631D01*
X155562607Y-131851972D01*
X155590798Y-131817895D01*
X155598788Y-131809116D01*
X155741490Y-131666414D01*
X155803802Y-131632388D01*
X155874617Y-131637453D01*
X155904646Y-131653573D01*
X155939850Y-131679150D01*
X156007248Y-131728118D01*
X156013276Y-131730802D01*
X156013278Y-131730803D01*
X156172067Y-131801500D01*
X156181712Y-131805794D01*
X156275112Y-131825647D01*
X156362056Y-131844128D01*
X156362061Y-131844128D01*
X156368513Y-131845500D01*
X156559487Y-131845500D01*
X156565939Y-131844128D01*
X156565944Y-131844128D01*
X156652888Y-131825647D01*
X156746288Y-131805794D01*
X156755933Y-131801500D01*
X156914722Y-131730803D01*
X156914724Y-131730802D01*
X156920752Y-131728118D01*
X157075253Y-131615866D01*
X157093837Y-131595226D01*
X157198621Y-131478852D01*
X157198622Y-131478851D01*
X157203040Y-131473944D01*
X157286068Y-131330135D01*
X157295223Y-131314279D01*
X157295224Y-131314278D01*
X157298527Y-131308556D01*
X157357542Y-131126928D01*
X157359935Y-131104166D01*
X157366771Y-131039123D01*
X157374907Y-130961706D01*
X157401920Y-130896050D01*
X157411122Y-130885782D01*
X158089580Y-130207324D01*
X158151892Y-130173298D01*
X158222707Y-130178363D01*
X158272311Y-130212108D01*
X158392747Y-130345866D01*
X158441450Y-130381251D01*
X158515322Y-130434922D01*
X158547248Y-130458118D01*
X158553276Y-130460802D01*
X158553278Y-130460803D01*
X158711688Y-130531331D01*
X158721712Y-130535794D01*
X158815113Y-130555647D01*
X158902056Y-130574128D01*
X158902061Y-130574128D01*
X158908513Y-130575500D01*
X159099487Y-130575500D01*
X159105939Y-130574128D01*
X159105944Y-130574128D01*
X159192887Y-130555647D01*
X159286288Y-130535794D01*
X159296312Y-130531331D01*
X159454722Y-130460803D01*
X159454724Y-130460802D01*
X159460752Y-130458118D01*
X159492679Y-130434922D01*
X159593671Y-130361546D01*
X159615253Y-130345866D01*
X159619668Y-130340963D01*
X159624580Y-130336540D01*
X159625705Y-130337789D01*
X159679014Y-130304949D01*
X159712200Y-130300500D01*
X161262474Y-130300500D01*
X161330595Y-130320502D01*
X161351569Y-130337405D01*
X161844560Y-130830396D01*
X161878586Y-130892708D01*
X161873521Y-130963523D01*
X161849102Y-131003801D01*
X161828164Y-131027055D01*
X161820960Y-131035056D01*
X161817657Y-131040777D01*
X161792567Y-131084234D01*
X161777314Y-131105228D01*
X161775528Y-131107014D01*
X161773452Y-131109578D01*
X161773441Y-131109590D01*
X161763031Y-131122446D01*
X161758747Y-131127462D01*
X161718717Y-131171920D01*
X161718713Y-131171925D01*
X161714296Y-131176831D01*
X161708165Y-131187450D01*
X161707589Y-131188448D01*
X161696391Y-131204741D01*
X161687953Y-131215161D01*
X161657787Y-131274363D01*
X161654654Y-131280133D01*
X161624740Y-131331945D01*
X161624738Y-131331950D01*
X161621436Y-131337669D01*
X161619395Y-131343949D01*
X161619392Y-131343957D01*
X161617292Y-131350421D01*
X161609728Y-131368683D01*
X161606637Y-131374749D01*
X161606634Y-131374758D01*
X161603638Y-131380637D01*
X161601929Y-131387015D01*
X161586444Y-131444804D01*
X161584578Y-131451106D01*
X161564046Y-131514298D01*
X161563356Y-131520866D01*
X161562645Y-131527628D01*
X161559042Y-131547071D01*
X161555570Y-131560029D01*
X161555225Y-131566619D01*
X161555224Y-131566623D01*
X161552093Y-131626367D01*
X161551577Y-131632931D01*
X161549500Y-131652694D01*
X161549500Y-131672555D01*
X161549327Y-131679150D01*
X161546761Y-131728118D01*
X161545850Y-131745493D01*
X161546882Y-131752007D01*
X161547949Y-131758744D01*
X161549500Y-131778456D01*
X161549500Y-135090852D01*
X161529498Y-135158973D01*
X161512595Y-135179947D01*
X159817947Y-136874595D01*
X159755635Y-136908621D01*
X159728852Y-136911500D01*
X148689347Y-136911500D01*
X148663150Y-136908747D01*
X148564944Y-136887872D01*
X148564939Y-136887872D01*
X148558487Y-136886500D01*
X148367513Y-136886500D01*
X148361061Y-136887872D01*
X148361056Y-136887872D01*
X148262850Y-136908747D01*
X148236653Y-136911500D01*
X145027500Y-136911500D01*
X144959379Y-136891498D01*
X144912886Y-136837842D01*
X144901500Y-136785500D01*
X144901500Y-131256175D01*
X144902190Y-131243005D01*
X144920314Y-131070565D01*
X144921004Y-131064000D01*
X144916509Y-131021229D01*
X144901732Y-130880635D01*
X144901732Y-130880633D01*
X144901042Y-130874072D01*
X144842027Y-130692444D01*
X144838564Y-130686445D01*
X144755715Y-130542948D01*
X144746540Y-130527056D01*
X144701416Y-130476940D01*
X144623175Y-130390045D01*
X144623174Y-130390044D01*
X144618753Y-130385134D01*
X144464252Y-130272882D01*
X144458224Y-130270198D01*
X144458222Y-130270197D01*
X144295819Y-130197891D01*
X144295818Y-130197891D01*
X144289788Y-130195206D01*
X144186720Y-130173298D01*
X144109444Y-130156872D01*
X144109439Y-130156872D01*
X144102987Y-130155500D01*
X143912013Y-130155500D01*
X143905561Y-130156872D01*
X143905556Y-130156872D01*
X143828280Y-130173298D01*
X143725212Y-130195206D01*
X143719182Y-130197891D01*
X143719181Y-130197891D01*
X143556778Y-130270197D01*
X143556776Y-130270198D01*
X143550748Y-130272882D01*
X143396247Y-130385134D01*
X143391826Y-130390044D01*
X143391825Y-130390045D01*
X143313585Y-130476940D01*
X143268460Y-130527056D01*
X143259285Y-130542948D01*
X143176437Y-130686445D01*
X143172973Y-130692444D01*
X143113958Y-130874072D01*
X143113268Y-130880633D01*
X143113268Y-130880635D01*
X143098491Y-131021229D01*
X143093996Y-131064000D01*
X143094686Y-131070565D01*
X143112810Y-131243005D01*
X143113958Y-131253928D01*
X143122473Y-131280133D01*
X143128333Y-131298169D01*
X143134500Y-131337106D01*
X143134500Y-136785500D01*
X143114498Y-136853621D01*
X143060842Y-136900114D01*
X143008500Y-136911500D01*
X123269457Y-136911500D01*
X123249745Y-136909949D01*
X123243008Y-136908882D01*
X123243009Y-136908882D01*
X123236493Y-136907850D01*
X123229906Y-136908195D01*
X123229902Y-136908195D01*
X123170150Y-136911327D01*
X123163555Y-136911500D01*
X123143694Y-136911500D01*
X123123931Y-136913577D01*
X123117372Y-136914093D01*
X123101573Y-136914921D01*
X123057623Y-136917224D01*
X123057619Y-136917225D01*
X123051029Y-136917570D01*
X123038071Y-136921042D01*
X123018628Y-136924645D01*
X123005298Y-136926046D01*
X122942106Y-136946578D01*
X122935804Y-136948444D01*
X122882328Y-136962773D01*
X122871637Y-136965638D01*
X122865758Y-136968634D01*
X122865749Y-136968637D01*
X122859683Y-136971728D01*
X122841421Y-136979292D01*
X122834957Y-136981392D01*
X122834949Y-136981395D01*
X122828669Y-136983436D01*
X122822950Y-136986738D01*
X122822945Y-136986740D01*
X122771140Y-137016650D01*
X122765351Y-137019793D01*
X122759018Y-137023020D01*
X122755586Y-137024769D01*
X122698387Y-137038500D01*
X119500500Y-137038500D01*
X119432379Y-137018498D01*
X119385886Y-136964842D01*
X119374500Y-136912500D01*
X119374500Y-131459277D01*
X119391381Y-131396277D01*
X119393236Y-131393065D01*
X119429568Y-131330135D01*
X119438723Y-131314279D01*
X119438724Y-131314278D01*
X119442027Y-131308556D01*
X119501042Y-131126928D01*
X119503189Y-131106507D01*
X119520314Y-130943565D01*
X119521004Y-130937000D01*
X119520040Y-130927830D01*
X119501732Y-130753635D01*
X119501732Y-130753633D01*
X119501042Y-130747072D01*
X119442027Y-130565444D01*
X119419497Y-130526420D01*
X119349841Y-130405774D01*
X119346540Y-130400056D01*
X119301244Y-130349749D01*
X119223175Y-130263045D01*
X119223174Y-130263044D01*
X119218753Y-130258134D01*
X119101987Y-130173298D01*
X119069594Y-130149763D01*
X119069593Y-130149762D01*
X119064252Y-130145882D01*
X119058224Y-130143198D01*
X119058222Y-130143197D01*
X118895819Y-130070891D01*
X118895818Y-130070891D01*
X118889788Y-130068206D01*
X118788239Y-130046621D01*
X118709444Y-130029872D01*
X118709439Y-130029872D01*
X118702987Y-130028500D01*
X118512013Y-130028500D01*
X118505561Y-130029872D01*
X118505556Y-130029872D01*
X118426761Y-130046621D01*
X118325212Y-130068206D01*
X118319182Y-130070891D01*
X118319181Y-130070891D01*
X118156778Y-130143197D01*
X118156776Y-130143198D01*
X118150748Y-130145882D01*
X118145407Y-130149762D01*
X118145406Y-130149763D01*
X118113013Y-130173298D01*
X117996247Y-130258134D01*
X117991826Y-130263044D01*
X117991825Y-130263045D01*
X117913757Y-130349749D01*
X117868460Y-130400056D01*
X117865159Y-130405774D01*
X117836566Y-130455298D01*
X117825377Y-130471580D01*
X117821017Y-130476964D01*
X117816747Y-130481963D01*
X117776717Y-130526420D01*
X117776713Y-130526425D01*
X117772296Y-130531331D01*
X117766467Y-130541428D01*
X117765589Y-130542948D01*
X117754391Y-130559241D01*
X117745953Y-130569661D01*
X117715787Y-130628863D01*
X117712654Y-130634633D01*
X117682740Y-130686445D01*
X117682738Y-130686450D01*
X117679436Y-130692169D01*
X117677395Y-130698449D01*
X117677392Y-130698457D01*
X117675292Y-130704921D01*
X117667728Y-130723183D01*
X117664637Y-130729249D01*
X117664634Y-130729258D01*
X117661638Y-130735137D01*
X117659929Y-130741515D01*
X117644444Y-130799304D01*
X117642578Y-130805606D01*
X117622046Y-130868798D01*
X117621356Y-130875366D01*
X117620645Y-130882128D01*
X117617042Y-130901571D01*
X117613570Y-130914529D01*
X117613225Y-130921119D01*
X117613224Y-130921123D01*
X117611254Y-130958720D01*
X117610306Y-130976812D01*
X117610093Y-130980867D01*
X117609577Y-130987431D01*
X117607500Y-131007194D01*
X117607500Y-131027055D01*
X117607327Y-131033650D01*
X117605564Y-131067294D01*
X117603850Y-131099993D01*
X117605949Y-131113244D01*
X117607500Y-131132956D01*
X117607500Y-136912500D01*
X117587498Y-136980621D01*
X117533842Y-137027114D01*
X117481500Y-137038500D01*
X97635347Y-137038500D01*
X97609150Y-137035747D01*
X97510944Y-137014872D01*
X97510939Y-137014872D01*
X97504487Y-137013500D01*
X97313513Y-137013500D01*
X97307061Y-137014872D01*
X97307056Y-137014872D01*
X97208850Y-137035747D01*
X97182653Y-137038500D01*
X95287148Y-137038500D01*
X95219027Y-137018498D01*
X95198053Y-137001595D01*
X94121905Y-135925447D01*
X94087879Y-135863135D01*
X94085000Y-135836352D01*
X94085000Y-131177790D01*
X94091167Y-131138854D01*
X94091222Y-131138684D01*
X94095042Y-131126928D01*
X94097189Y-131106507D01*
X94114314Y-130943565D01*
X94115004Y-130937000D01*
X94114040Y-130927830D01*
X94095732Y-130753635D01*
X94095732Y-130753633D01*
X94095042Y-130747072D01*
X94036027Y-130565444D01*
X94013497Y-130526420D01*
X93943841Y-130405774D01*
X93940540Y-130400056D01*
X93895244Y-130349749D01*
X93817175Y-130263045D01*
X93817174Y-130263044D01*
X93812753Y-130258134D01*
X93695987Y-130173298D01*
X93663594Y-130149763D01*
X93663593Y-130149762D01*
X93658252Y-130145882D01*
X93652224Y-130143198D01*
X93652222Y-130143197D01*
X93489819Y-130070891D01*
X93489818Y-130070891D01*
X93483788Y-130068206D01*
X93382239Y-130046621D01*
X93303444Y-130029872D01*
X93303439Y-130029872D01*
X93296987Y-130028500D01*
X93106013Y-130028500D01*
X93099561Y-130029872D01*
X93099556Y-130029872D01*
X93020761Y-130046621D01*
X92919212Y-130068206D01*
X92913182Y-130070891D01*
X92913181Y-130070891D01*
X92750778Y-130143197D01*
X92750776Y-130143198D01*
X92744748Y-130145882D01*
X92739407Y-130149762D01*
X92739406Y-130149763D01*
X92707013Y-130173298D01*
X92590247Y-130258134D01*
X92585826Y-130263044D01*
X92585825Y-130263045D01*
X92507757Y-130349749D01*
X92462460Y-130400056D01*
X92459159Y-130405774D01*
X92389504Y-130526420D01*
X92366973Y-130565444D01*
X92307958Y-130747072D01*
X92307268Y-130753633D01*
X92307268Y-130753635D01*
X92288960Y-130927830D01*
X92287996Y-130937000D01*
X87385526Y-130937000D01*
X87385526Y-127728695D01*
X91093251Y-127728695D01*
X91093548Y-127733848D01*
X91093548Y-127733851D01*
X91103319Y-127903308D01*
X91106110Y-127951715D01*
X91107247Y-127956761D01*
X91107248Y-127956767D01*
X91125109Y-128036021D01*
X91155222Y-128169639D01*
X91193461Y-128263811D01*
X91233587Y-128362629D01*
X91239266Y-128376616D01*
X91278623Y-128440841D01*
X91353291Y-128562688D01*
X91355987Y-128567088D01*
X91502250Y-128735938D01*
X91628890Y-128841076D01*
X91661390Y-128868058D01*
X91674126Y-128878632D01*
X91867000Y-128991338D01*
X91871825Y-128993180D01*
X91871826Y-128993181D01*
X91894112Y-129001691D01*
X92075692Y-129071030D01*
X92080760Y-129072061D01*
X92080763Y-129072062D01*
X92188017Y-129093883D01*
X92294597Y-129115567D01*
X92299772Y-129115757D01*
X92299774Y-129115757D01*
X92512673Y-129123564D01*
X92512677Y-129123564D01*
X92517837Y-129123753D01*
X92522957Y-129123097D01*
X92522959Y-129123097D01*
X92734288Y-129096025D01*
X92734289Y-129096025D01*
X92739416Y-129095368D01*
X92744366Y-129093883D01*
X92948429Y-129032661D01*
X92948434Y-129032659D01*
X92953384Y-129031174D01*
X93153994Y-128932896D01*
X93335860Y-128803173D01*
X93346273Y-128792797D01*
X93451326Y-128688110D01*
X93513698Y-128654194D01*
X93584505Y-128659382D01*
X93629361Y-128688266D01*
X95849595Y-130908500D01*
X95883621Y-130970812D01*
X95886500Y-130997595D01*
X95886500Y-134474661D01*
X95866498Y-134542782D01*
X95819820Y-134582847D01*
X95821001Y-134584893D01*
X95815278Y-134588197D01*
X95809248Y-134590882D01*
X95654747Y-134703134D01*
X95650326Y-134708044D01*
X95650325Y-134708045D01*
X95541817Y-134828556D01*
X95526960Y-134845056D01*
X95523659Y-134850774D01*
X95437371Y-135000229D01*
X95431473Y-135010444D01*
X95372458Y-135192072D01*
X95352496Y-135382000D01*
X95353186Y-135388565D01*
X95371384Y-135561706D01*
X95372458Y-135571928D01*
X95431473Y-135753556D01*
X95434776Y-135759278D01*
X95434777Y-135759279D01*
X95468686Y-135818010D01*
X95526960Y-135918944D01*
X95531378Y-135923851D01*
X95531379Y-135923852D01*
X95650325Y-136055955D01*
X95654747Y-136060866D01*
X95732512Y-136117366D01*
X95803835Y-136169185D01*
X95809248Y-136173118D01*
X95815276Y-136175802D01*
X95815278Y-136175803D01*
X95977681Y-136248109D01*
X95983712Y-136250794D01*
X96077112Y-136270647D01*
X96164056Y-136289128D01*
X96164061Y-136289128D01*
X96170513Y-136290500D01*
X96361487Y-136290500D01*
X96367939Y-136289128D01*
X96367944Y-136289128D01*
X96454888Y-136270647D01*
X96548288Y-136250794D01*
X96722752Y-136173118D01*
X96793118Y-136163684D01*
X96825247Y-136173118D01*
X96825248Y-136173118D01*
X96999712Y-136250794D01*
X97093112Y-136270647D01*
X97180056Y-136289128D01*
X97180061Y-136289128D01*
X97186513Y-136290500D01*
X97377487Y-136290500D01*
X97383939Y-136289128D01*
X97383944Y-136289128D01*
X97470888Y-136270647D01*
X97564288Y-136250794D01*
X97570319Y-136248109D01*
X97732722Y-136175803D01*
X97732724Y-136175802D01*
X97738752Y-136173118D01*
X97744166Y-136169185D01*
X97815488Y-136117366D01*
X97893253Y-136060866D01*
X97897675Y-136055955D01*
X98016621Y-135923852D01*
X98016622Y-135923851D01*
X98021040Y-135918944D01*
X98079314Y-135818010D01*
X98113223Y-135759279D01*
X98113224Y-135759278D01*
X98116527Y-135753556D01*
X98175542Y-135571928D01*
X98176617Y-135561706D01*
X98194814Y-135388565D01*
X98195504Y-135382000D01*
X98175542Y-135192072D01*
X98116527Y-135010444D01*
X98110630Y-135000229D01*
X98024341Y-134850774D01*
X98021040Y-134845056D01*
X97947863Y-134763785D01*
X97917147Y-134699779D01*
X97915500Y-134679476D01*
X97915500Y-127728695D01*
X98713251Y-127728695D01*
X98713548Y-127733848D01*
X98713548Y-127733851D01*
X98723319Y-127903308D01*
X98726110Y-127951715D01*
X98727247Y-127956761D01*
X98727248Y-127956767D01*
X98745109Y-128036021D01*
X98775222Y-128169639D01*
X98813461Y-128263811D01*
X98853587Y-128362629D01*
X98859266Y-128376616D01*
X98898623Y-128440841D01*
X98973291Y-128562688D01*
X98975987Y-128567088D01*
X99122250Y-128735938D01*
X99248890Y-128841076D01*
X99281390Y-128868058D01*
X99294126Y-128878632D01*
X99487000Y-128991338D01*
X99491825Y-128993180D01*
X99491826Y-128993181D01*
X99514112Y-129001691D01*
X99695692Y-129071030D01*
X99700760Y-129072061D01*
X99700763Y-129072062D01*
X99808017Y-129093883D01*
X99914597Y-129115567D01*
X99919772Y-129115757D01*
X99919774Y-129115757D01*
X100132673Y-129123564D01*
X100132677Y-129123564D01*
X100137837Y-129123753D01*
X100142957Y-129123097D01*
X100142959Y-129123097D01*
X100354288Y-129096025D01*
X100354289Y-129096025D01*
X100359416Y-129095368D01*
X100364366Y-129093883D01*
X100568429Y-129032661D01*
X100568434Y-129032659D01*
X100573384Y-129031174D01*
X100773994Y-128932896D01*
X100955860Y-128803173D01*
X100966273Y-128792797D01*
X101054691Y-128704687D01*
X101114096Y-128645489D01*
X101124975Y-128630350D01*
X101241435Y-128468277D01*
X101244453Y-128464077D01*
X101248611Y-128455665D01*
X101341136Y-128268453D01*
X101341137Y-128268451D01*
X101343430Y-128263811D01*
X101408370Y-128050069D01*
X101437529Y-127828590D01*
X101438752Y-127778526D01*
X101439074Y-127765365D01*
X101439074Y-127765361D01*
X101439156Y-127762000D01*
X101420852Y-127539361D01*
X101366431Y-127322702D01*
X101277354Y-127117840D01*
X101219845Y-127028944D01*
X101158822Y-126934617D01*
X101158820Y-126934614D01*
X101156014Y-126930277D01*
X101005670Y-126765051D01*
X101001619Y-126761852D01*
X101001615Y-126761848D01*
X100834414Y-126629800D01*
X100834410Y-126629798D01*
X100830359Y-126626598D01*
X100788569Y-126603529D01*
X100738598Y-126553097D01*
X100723826Y-126483654D01*
X100748942Y-126417248D01*
X100776293Y-126390642D01*
X100825247Y-126355723D01*
X100833648Y-126345023D01*
X100826660Y-126331870D01*
X100088812Y-125594022D01*
X100074868Y-125586408D01*
X100073035Y-125586539D01*
X100066420Y-125590790D01*
X99322737Y-126334473D01*
X99315977Y-126346853D01*
X99321258Y-126353907D01*
X99367969Y-126381203D01*
X99416693Y-126432841D01*
X99429764Y-126502624D01*
X99403033Y-126568396D01*
X99362584Y-126601752D01*
X99349607Y-126608507D01*
X99345474Y-126611610D01*
X99345471Y-126611612D01*
X99175100Y-126739530D01*
X99170965Y-126742635D01*
X99016629Y-126904138D01*
X99013715Y-126908410D01*
X99013714Y-126908411D01*
X98977095Y-126962092D01*
X98890743Y-127088680D01*
X98852011Y-127172121D01*
X98802290Y-127279237D01*
X98796688Y-127291305D01*
X98736989Y-127506570D01*
X98713251Y-127728695D01*
X97915500Y-127728695D01*
X97915500Y-125790594D01*
X97935502Y-125722473D01*
X97952405Y-125701499D01*
X98501493Y-125152411D01*
X98563805Y-125118385D01*
X98634620Y-125123450D01*
X98691456Y-125165997D01*
X98716379Y-125234253D01*
X98726309Y-125406477D01*
X98727745Y-125416697D01*
X98774565Y-125624446D01*
X98777645Y-125634275D01*
X98857770Y-125831603D01*
X98862413Y-125840794D01*
X98942460Y-125971420D01*
X98952916Y-125980880D01*
X98961694Y-125977096D01*
X99715658Y-125223132D01*
X100440408Y-125223132D01*
X100440539Y-125224965D01*
X100444790Y-125231580D01*
X101186474Y-125973264D01*
X101198484Y-125979823D01*
X101210223Y-125970855D01*
X101241004Y-125928019D01*
X101246315Y-125919180D01*
X101340670Y-125728267D01*
X101344469Y-125718672D01*
X101406376Y-125514915D01*
X101408555Y-125504834D01*
X101436590Y-125291887D01*
X101437109Y-125285212D01*
X101438572Y-125225364D01*
X101438378Y-125218646D01*
X101436341Y-125193863D01*
X103794050Y-125193863D01*
X103806309Y-125406477D01*
X103807745Y-125416697D01*
X103854565Y-125624446D01*
X103857645Y-125634275D01*
X103937770Y-125831603D01*
X103942413Y-125840794D01*
X104022460Y-125971420D01*
X104032916Y-125980880D01*
X104041694Y-125977096D01*
X104783978Y-125234812D01*
X104791592Y-125220868D01*
X104791461Y-125219035D01*
X104787210Y-125212420D01*
X104045849Y-124471059D01*
X104034313Y-124464759D01*
X104022031Y-124474382D01*
X103974089Y-124544662D01*
X103969004Y-124553613D01*
X103879338Y-124746783D01*
X103875775Y-124756470D01*
X103818864Y-124961681D01*
X103816933Y-124971800D01*
X103794302Y-125183574D01*
X103794050Y-125193863D01*
X101436341Y-125193863D01*
X101420781Y-125004604D01*
X101419096Y-124994424D01*
X101367214Y-124787875D01*
X101363894Y-124778124D01*
X101278972Y-124582814D01*
X101274105Y-124573739D01*
X101209063Y-124473197D01*
X101198377Y-124463995D01*
X101188812Y-124468398D01*
X100448022Y-125209188D01*
X100440408Y-125223132D01*
X99715658Y-125223132D01*
X100829389Y-124109401D01*
X100836410Y-124096544D01*
X100829611Y-124087213D01*
X100825559Y-124084521D01*
X100788602Y-124064120D01*
X100738631Y-124013687D01*
X100723859Y-123944245D01*
X100748975Y-123877839D01*
X100776327Y-123851232D01*
X100825566Y-123816110D01*
X100955860Y-123723173D01*
X100982088Y-123697037D01*
X101100969Y-123578570D01*
X101114096Y-123565489D01*
X101123670Y-123552166D01*
X101238302Y-123392637D01*
X101244453Y-123384077D01*
X101250769Y-123371299D01*
X101341136Y-123188453D01*
X101341137Y-123188451D01*
X101343430Y-123183811D01*
X101408370Y-122970069D01*
X101437529Y-122748590D01*
X101437611Y-122745240D01*
X101439074Y-122685365D01*
X101439074Y-122685361D01*
X101439156Y-122682000D01*
X101436418Y-122648695D01*
X103793251Y-122648695D01*
X103793548Y-122653848D01*
X103793548Y-122653851D01*
X103799011Y-122748590D01*
X103806110Y-122871715D01*
X103807247Y-122876761D01*
X103807248Y-122876767D01*
X103808482Y-122882241D01*
X103855222Y-123089639D01*
X103939266Y-123296616D01*
X103966979Y-123341840D01*
X104049072Y-123475803D01*
X104055987Y-123487088D01*
X104202250Y-123655938D01*
X104374126Y-123798632D01*
X104446918Y-123841168D01*
X104447955Y-123841774D01*
X104496679Y-123893412D01*
X104509750Y-123963195D01*
X104483019Y-124028967D01*
X104442562Y-124062327D01*
X104434460Y-124066544D01*
X104425734Y-124072039D01*
X104405677Y-124087099D01*
X104397223Y-124098427D01*
X104403968Y-124110758D01*
X105143188Y-124849978D01*
X105157132Y-124857592D01*
X105158965Y-124857461D01*
X105165580Y-124853210D01*
X105909389Y-124109401D01*
X105916410Y-124096544D01*
X105909611Y-124087213D01*
X105905559Y-124084521D01*
X105868602Y-124064120D01*
X105818631Y-124013687D01*
X105803859Y-123944245D01*
X105828975Y-123877839D01*
X105856327Y-123851232D01*
X105905566Y-123816110D01*
X106035860Y-123723173D01*
X106062088Y-123697037D01*
X106180969Y-123578570D01*
X106194096Y-123565489D01*
X106203670Y-123552166D01*
X106318302Y-123392637D01*
X106324453Y-123384077D01*
X106330769Y-123371299D01*
X106421136Y-123188453D01*
X106421137Y-123188451D01*
X106423430Y-123183811D01*
X106488370Y-122970069D01*
X106517529Y-122748590D01*
X106517611Y-122745240D01*
X106519074Y-122685365D01*
X106519074Y-122685361D01*
X106519156Y-122682000D01*
X106500852Y-122459361D01*
X106446431Y-122242702D01*
X106357354Y-122037840D01*
X106294087Y-121940044D01*
X106238822Y-121854617D01*
X106238820Y-121854614D01*
X106236014Y-121850277D01*
X106085670Y-121685051D01*
X106081619Y-121681852D01*
X106081615Y-121681848D01*
X105914414Y-121549800D01*
X105914410Y-121549798D01*
X105910359Y-121546598D01*
X105897545Y-121539524D01*
X105816079Y-121494553D01*
X105714789Y-121438638D01*
X105709920Y-121436914D01*
X105709916Y-121436912D01*
X105509087Y-121365795D01*
X105509083Y-121365794D01*
X105504212Y-121364069D01*
X105499119Y-121363162D01*
X105499116Y-121363161D01*
X105289373Y-121325800D01*
X105289367Y-121325799D01*
X105284284Y-121324894D01*
X105210452Y-121323992D01*
X105066081Y-121322228D01*
X105066079Y-121322228D01*
X105060911Y-121322165D01*
X104840091Y-121355955D01*
X104627756Y-121425357D01*
X104429607Y-121528507D01*
X104425474Y-121531610D01*
X104425471Y-121531612D01*
X104255100Y-121659530D01*
X104250965Y-121662635D01*
X104096629Y-121824138D01*
X103970743Y-122008680D01*
X103955003Y-122042590D01*
X103884916Y-122193580D01*
X103876688Y-122211305D01*
X103816989Y-122426570D01*
X103793251Y-122648695D01*
X101436418Y-122648695D01*
X101420852Y-122459361D01*
X101366431Y-122242702D01*
X101277354Y-122037840D01*
X101214087Y-121940044D01*
X101158822Y-121854617D01*
X101158820Y-121854614D01*
X101156014Y-121850277D01*
X101005670Y-121685051D01*
X101001619Y-121681852D01*
X101001615Y-121681848D01*
X100834414Y-121549800D01*
X100834410Y-121549798D01*
X100830359Y-121546598D01*
X100817545Y-121539524D01*
X100736079Y-121494553D01*
X100634789Y-121438638D01*
X100629920Y-121436914D01*
X100629916Y-121436912D01*
X100429087Y-121365795D01*
X100429083Y-121365794D01*
X100424212Y-121364069D01*
X100419119Y-121363162D01*
X100419116Y-121363161D01*
X100209373Y-121325800D01*
X100209367Y-121325799D01*
X100204284Y-121324894D01*
X100130452Y-121323992D01*
X99986081Y-121322228D01*
X99986079Y-121322228D01*
X99980911Y-121322165D01*
X99760091Y-121355955D01*
X99547756Y-121425357D01*
X99349607Y-121528507D01*
X99345474Y-121531610D01*
X99345471Y-121531612D01*
X99175100Y-121659530D01*
X99170965Y-121662635D01*
X99016629Y-121824138D01*
X98890743Y-122008680D01*
X98875003Y-122042590D01*
X98804916Y-122193580D01*
X98796688Y-122211305D01*
X98736989Y-122426570D01*
X98713251Y-122648695D01*
X98713548Y-122653848D01*
X98713548Y-122653851D01*
X98719011Y-122748590D01*
X98726110Y-122871715D01*
X98727247Y-122876761D01*
X98727248Y-122876767D01*
X98759453Y-123019668D01*
X98754917Y-123090520D01*
X98725631Y-123136464D01*
X96889747Y-124972348D01*
X96881461Y-124979888D01*
X96874982Y-124984000D01*
X96869557Y-124989777D01*
X96828357Y-125033651D01*
X96825602Y-125036493D01*
X96805865Y-125056230D01*
X96803385Y-125059427D01*
X96795682Y-125068447D01*
X96765414Y-125100679D01*
X96761595Y-125107625D01*
X96761593Y-125107628D01*
X96755652Y-125118434D01*
X96744801Y-125134953D01*
X96732386Y-125150959D01*
X96729241Y-125158228D01*
X96729238Y-125158232D01*
X96714826Y-125191537D01*
X96709609Y-125202187D01*
X96688305Y-125240940D01*
X96686334Y-125248615D01*
X96686334Y-125248616D01*
X96683267Y-125260562D01*
X96676863Y-125279266D01*
X96668819Y-125297855D01*
X96667580Y-125305678D01*
X96667577Y-125305688D01*
X96661901Y-125341524D01*
X96659495Y-125353144D01*
X96656195Y-125365999D01*
X96648500Y-125395970D01*
X96648500Y-125416224D01*
X96646949Y-125435934D01*
X96643780Y-125455943D01*
X96644526Y-125463835D01*
X96647941Y-125499961D01*
X96648500Y-125511819D01*
X96648500Y-129611406D01*
X96628498Y-129679527D01*
X96574842Y-129726020D01*
X96504568Y-129736124D01*
X96439988Y-129706630D01*
X96433405Y-129700501D01*
X95371139Y-128638234D01*
X94102652Y-127369747D01*
X94095112Y-127361461D01*
X94091000Y-127354982D01*
X94084888Y-127349242D01*
X94045247Y-127312017D01*
X94041348Y-127308356D01*
X94038507Y-127305602D01*
X94018770Y-127285865D01*
X94015573Y-127283385D01*
X94006551Y-127275680D01*
X94006387Y-127275526D01*
X93974321Y-127245414D01*
X93967375Y-127241595D01*
X93967372Y-127241593D01*
X93956566Y-127235652D01*
X93940047Y-127224801D01*
X93930487Y-127217386D01*
X93924041Y-127212386D01*
X93916772Y-127209241D01*
X93916768Y-127209238D01*
X93883463Y-127194826D01*
X93872813Y-127189609D01*
X93834060Y-127168305D01*
X93824908Y-127165955D01*
X93814438Y-127163267D01*
X93795734Y-127156863D01*
X93784420Y-127151967D01*
X93784419Y-127151967D01*
X93777145Y-127148819D01*
X93769322Y-127147580D01*
X93769312Y-127147577D01*
X93733476Y-127141901D01*
X93721861Y-127139496D01*
X93709017Y-127136199D01*
X93648009Y-127099888D01*
X93634557Y-127082601D01*
X93536014Y-126930277D01*
X93385670Y-126765051D01*
X93381619Y-126761852D01*
X93381615Y-126761848D01*
X93214414Y-126629800D01*
X93214410Y-126629798D01*
X93210359Y-126626598D01*
X93168569Y-126603529D01*
X93118598Y-126553097D01*
X93103826Y-126483654D01*
X93128942Y-126417248D01*
X93156293Y-126390642D01*
X93205247Y-126355723D01*
X93213648Y-126345023D01*
X93206660Y-126331870D01*
X92468812Y-125594022D01*
X92454868Y-125586408D01*
X92453035Y-125586539D01*
X92446420Y-125590790D01*
X91702737Y-126334473D01*
X91695977Y-126346853D01*
X91701258Y-126353907D01*
X91747969Y-126381203D01*
X91796693Y-126432841D01*
X91809764Y-126502624D01*
X91783033Y-126568396D01*
X91742584Y-126601752D01*
X91729607Y-126608507D01*
X91725474Y-126611610D01*
X91725471Y-126611612D01*
X91555100Y-126739530D01*
X91550965Y-126742635D01*
X91396629Y-126904138D01*
X91393715Y-126908410D01*
X91393714Y-126908411D01*
X91357095Y-126962092D01*
X91270743Y-127088680D01*
X91232011Y-127172121D01*
X91182290Y-127279237D01*
X91176688Y-127291305D01*
X91116989Y-127506570D01*
X91093251Y-127728695D01*
X87385526Y-127728695D01*
X87385526Y-125193863D01*
X91094050Y-125193863D01*
X91106309Y-125406477D01*
X91107745Y-125416697D01*
X91154565Y-125624446D01*
X91157645Y-125634275D01*
X91237770Y-125831603D01*
X91242413Y-125840794D01*
X91322460Y-125971420D01*
X91332916Y-125980880D01*
X91341694Y-125977096D01*
X92083978Y-125234812D01*
X92090356Y-125223132D01*
X92820408Y-125223132D01*
X92820539Y-125224965D01*
X92824790Y-125231580D01*
X93566474Y-125973264D01*
X93578484Y-125979823D01*
X93590223Y-125970855D01*
X93621004Y-125928019D01*
X93626315Y-125919180D01*
X93720670Y-125728267D01*
X93724469Y-125718672D01*
X93786376Y-125514915D01*
X93788555Y-125504834D01*
X93816590Y-125291887D01*
X93817109Y-125285212D01*
X93818572Y-125225364D01*
X93818378Y-125218646D01*
X93800781Y-125004604D01*
X93799096Y-124994424D01*
X93747214Y-124787875D01*
X93743894Y-124778124D01*
X93658972Y-124582814D01*
X93654105Y-124573739D01*
X93589063Y-124473197D01*
X93578377Y-124463995D01*
X93568812Y-124468398D01*
X92828022Y-125209188D01*
X92820408Y-125223132D01*
X92090356Y-125223132D01*
X92091592Y-125220868D01*
X92091461Y-125219035D01*
X92087210Y-125212420D01*
X91345849Y-124471059D01*
X91334313Y-124464759D01*
X91322031Y-124474382D01*
X91274089Y-124544662D01*
X91269004Y-124553613D01*
X91179338Y-124746783D01*
X91175775Y-124756470D01*
X91118864Y-124961681D01*
X91116933Y-124971800D01*
X91094302Y-125183574D01*
X91094050Y-125193863D01*
X87385526Y-125193863D01*
X87385526Y-122648695D01*
X91093251Y-122648695D01*
X91093548Y-122653848D01*
X91093548Y-122653851D01*
X91099011Y-122748590D01*
X91106110Y-122871715D01*
X91107247Y-122876761D01*
X91107248Y-122876767D01*
X91108482Y-122882241D01*
X91155222Y-123089639D01*
X91239266Y-123296616D01*
X91266979Y-123341840D01*
X91349072Y-123475803D01*
X91355987Y-123487088D01*
X91502250Y-123655938D01*
X91674126Y-123798632D01*
X91746918Y-123841168D01*
X91747955Y-123841774D01*
X91796679Y-123893412D01*
X91809750Y-123963195D01*
X91783019Y-124028967D01*
X91742562Y-124062327D01*
X91734460Y-124066544D01*
X91725734Y-124072039D01*
X91705677Y-124087099D01*
X91697223Y-124098427D01*
X91703968Y-124110758D01*
X92443188Y-124849978D01*
X92457132Y-124857592D01*
X92458965Y-124857461D01*
X92465580Y-124853210D01*
X93209389Y-124109401D01*
X93216410Y-124096544D01*
X93209611Y-124087213D01*
X93205559Y-124084521D01*
X93168602Y-124064120D01*
X93118631Y-124013687D01*
X93103859Y-123944245D01*
X93128975Y-123877839D01*
X93156327Y-123851232D01*
X93205566Y-123816110D01*
X93335860Y-123723173D01*
X93362088Y-123697037D01*
X93480969Y-123578570D01*
X93494096Y-123565489D01*
X93503670Y-123552166D01*
X93618302Y-123392637D01*
X93624453Y-123384077D01*
X93630769Y-123371299D01*
X93721136Y-123188453D01*
X93721137Y-123188451D01*
X93723430Y-123183811D01*
X93788370Y-122970069D01*
X93817529Y-122748590D01*
X93817611Y-122745240D01*
X93819074Y-122685365D01*
X93819074Y-122685361D01*
X93819156Y-122682000D01*
X93800852Y-122459361D01*
X93746431Y-122242702D01*
X93657354Y-122037840D01*
X93594087Y-121940044D01*
X93538822Y-121854617D01*
X93538820Y-121854614D01*
X93536014Y-121850277D01*
X93385670Y-121685051D01*
X93381619Y-121681852D01*
X93381615Y-121681848D01*
X93214414Y-121549800D01*
X93214410Y-121549798D01*
X93210359Y-121546598D01*
X93197545Y-121539524D01*
X93116079Y-121494553D01*
X93014789Y-121438638D01*
X93009920Y-121436914D01*
X93009916Y-121436912D01*
X92809087Y-121365795D01*
X92809083Y-121365794D01*
X92804212Y-121364069D01*
X92799119Y-121363162D01*
X92799116Y-121363161D01*
X92589373Y-121325800D01*
X92589367Y-121325799D01*
X92584284Y-121324894D01*
X92510452Y-121323992D01*
X92366081Y-121322228D01*
X92366079Y-121322228D01*
X92360911Y-121322165D01*
X92140091Y-121355955D01*
X91927756Y-121425357D01*
X91729607Y-121528507D01*
X91725474Y-121531610D01*
X91725471Y-121531612D01*
X91555100Y-121659530D01*
X91550965Y-121662635D01*
X91396629Y-121824138D01*
X91270743Y-122008680D01*
X91255003Y-122042590D01*
X91184916Y-122193580D01*
X91176688Y-122211305D01*
X91116989Y-122426570D01*
X91093251Y-122648695D01*
X87385526Y-122648695D01*
X87385526Y-117914382D01*
X87387026Y-117894999D01*
X87390717Y-117871291D01*
X87389276Y-117860272D01*
X87388818Y-117831584D01*
X87398939Y-117728804D01*
X87403758Y-117704577D01*
X87439885Y-117585480D01*
X87449337Y-117562660D01*
X87508006Y-117452895D01*
X87521730Y-117432356D01*
X87600685Y-117336150D01*
X87618150Y-117318685D01*
X87714356Y-117239730D01*
X87734895Y-117226006D01*
X87844660Y-117167337D01*
X87867480Y-117157885D01*
X87986578Y-117121758D01*
X88010806Y-117116939D01*
X88106828Y-117107484D01*
X88122886Y-117107936D01*
X88122895Y-117107226D01*
X88131868Y-117107336D01*
X88140739Y-117108717D01*
X88149642Y-117107553D01*
X88149643Y-117107553D01*
X88172288Y-117104593D01*
X88188630Y-117103530D01*
X157611909Y-117108940D01*
G37*
G04 #@! TD.AperFunction*
G04 #@! TA.AperFunction,Conductor*
G36*
X136877184Y-123202886D02*
G01*
X136934020Y-123245433D01*
X136949895Y-123273538D01*
X136959266Y-123296616D01*
X136986979Y-123341840D01*
X137069072Y-123475803D01*
X137075987Y-123487088D01*
X137222250Y-123655938D01*
X137394126Y-123798632D01*
X137466918Y-123841168D01*
X137467955Y-123841774D01*
X137516679Y-123893412D01*
X137529750Y-123963195D01*
X137503019Y-124028967D01*
X137462562Y-124062327D01*
X137454460Y-124066544D01*
X137445734Y-124072039D01*
X137425677Y-124087099D01*
X137417223Y-124098427D01*
X137423968Y-124110758D01*
X138446115Y-125132905D01*
X138480141Y-125195217D01*
X138475076Y-125266032D01*
X138446115Y-125311095D01*
X137422737Y-126334473D01*
X137415977Y-126346853D01*
X137421258Y-126353907D01*
X137467969Y-126381203D01*
X137516693Y-126432841D01*
X137529764Y-126502624D01*
X137503033Y-126568396D01*
X137462584Y-126601752D01*
X137449607Y-126608507D01*
X137445474Y-126611610D01*
X137445471Y-126611612D01*
X137275100Y-126739530D01*
X137270965Y-126742635D01*
X137116629Y-126904138D01*
X137113715Y-126908410D01*
X137113714Y-126908411D01*
X137077095Y-126962092D01*
X136990743Y-127088680D01*
X136952011Y-127172121D01*
X136902290Y-127279237D01*
X136896688Y-127291305D01*
X136836989Y-127506570D01*
X136813251Y-127728695D01*
X136813548Y-127733848D01*
X136813548Y-127733851D01*
X136823319Y-127903308D01*
X136826110Y-127951715D01*
X136827247Y-127956761D01*
X136827248Y-127956767D01*
X136845109Y-128036021D01*
X136875222Y-128169639D01*
X136913461Y-128263811D01*
X136953587Y-128362629D01*
X136959266Y-128376616D01*
X136984809Y-128418298D01*
X136988759Y-128424744D01*
X137007297Y-128493277D01*
X136985841Y-128560954D01*
X136970421Y-128579675D01*
X136570278Y-128979817D01*
X136172499Y-129377596D01*
X136110187Y-129411621D01*
X136083404Y-129414500D01*
X128463595Y-129414500D01*
X128395474Y-129394498D01*
X128348981Y-129340842D01*
X128338877Y-129270568D01*
X128368371Y-129205988D01*
X128374500Y-129199405D01*
X129009500Y-128564405D01*
X129071812Y-128530379D01*
X129098595Y-128527500D01*
X129364140Y-128527500D01*
X129432261Y-128547502D01*
X129459377Y-128571002D01*
X129598865Y-128732031D01*
X129598869Y-128732035D01*
X129602250Y-128735938D01*
X129728890Y-128841076D01*
X129761390Y-128868058D01*
X129774126Y-128878632D01*
X129967000Y-128991338D01*
X129971825Y-128993180D01*
X129971826Y-128993181D01*
X129994112Y-129001691D01*
X130175692Y-129071030D01*
X130180760Y-129072061D01*
X130180763Y-129072062D01*
X130288017Y-129093883D01*
X130394597Y-129115567D01*
X130399772Y-129115757D01*
X130399774Y-129115757D01*
X130612673Y-129123564D01*
X130612677Y-129123564D01*
X130617837Y-129123753D01*
X130622957Y-129123097D01*
X130622959Y-129123097D01*
X130834288Y-129096025D01*
X130834289Y-129096025D01*
X130839416Y-129095368D01*
X130844366Y-129093883D01*
X131048429Y-129032661D01*
X131048434Y-129032659D01*
X131053384Y-129031174D01*
X131253994Y-128932896D01*
X131435860Y-128803173D01*
X131446273Y-128792797D01*
X131534691Y-128704687D01*
X131594096Y-128645489D01*
X131604975Y-128630350D01*
X131721435Y-128468277D01*
X131724453Y-128464077D01*
X131728611Y-128455665D01*
X131821136Y-128268453D01*
X131821137Y-128268451D01*
X131823430Y-128263811D01*
X131888370Y-128050069D01*
X131917529Y-127828590D01*
X131918752Y-127778526D01*
X131919074Y-127765365D01*
X131919074Y-127765361D01*
X131919156Y-127762000D01*
X131918357Y-127752279D01*
X131932711Y-127682748D01*
X131982377Y-127632016D01*
X132051587Y-127616189D01*
X132070130Y-127618709D01*
X132232056Y-127653128D01*
X132232061Y-127653128D01*
X132238513Y-127654500D01*
X132429487Y-127654500D01*
X132435939Y-127653128D01*
X132435944Y-127653128D01*
X132535265Y-127632016D01*
X132616288Y-127614794D01*
X132622319Y-127612109D01*
X132784722Y-127539803D01*
X132784724Y-127539802D01*
X132790752Y-127537118D01*
X132945253Y-127424866D01*
X132953739Y-127415441D01*
X133068621Y-127287852D01*
X133068622Y-127287851D01*
X133073040Y-127282944D01*
X133142946Y-127161863D01*
X133165223Y-127123279D01*
X133165224Y-127123278D01*
X133168527Y-127117556D01*
X133227542Y-126935928D01*
X133228538Y-126926457D01*
X133242682Y-126791879D01*
X133244907Y-126770706D01*
X133271920Y-126705050D01*
X133281122Y-126694782D01*
X134782041Y-125193863D01*
X136814050Y-125193863D01*
X136826309Y-125406477D01*
X136827745Y-125416697D01*
X136874565Y-125624446D01*
X136877645Y-125634275D01*
X136957770Y-125831603D01*
X136962413Y-125840794D01*
X137042460Y-125971420D01*
X137052916Y-125980880D01*
X137061694Y-125977096D01*
X137803978Y-125234812D01*
X137811592Y-125220868D01*
X137811461Y-125219035D01*
X137807210Y-125212420D01*
X137065849Y-124471059D01*
X137054313Y-124464759D01*
X137042031Y-124474382D01*
X136994089Y-124544662D01*
X136989004Y-124553613D01*
X136899338Y-124746783D01*
X136895775Y-124756470D01*
X136838864Y-124961681D01*
X136836933Y-124971800D01*
X136814302Y-125183574D01*
X136814050Y-125193863D01*
X134782041Y-125193863D01*
X136744057Y-123231847D01*
X136806369Y-123197821D01*
X136877184Y-123202886D01*
G37*
G04 #@! TD.AperFunction*
G04 #@! TA.AperFunction,Conductor*
G36*
X111355223Y-122816847D02*
G01*
X111412059Y-122859394D01*
X111434107Y-122907200D01*
X111475222Y-123089639D01*
X111559266Y-123296616D01*
X111586979Y-123341840D01*
X111669072Y-123475803D01*
X111675987Y-123487088D01*
X111822250Y-123655938D01*
X111994126Y-123798632D01*
X112066918Y-123841168D01*
X112067955Y-123841774D01*
X112116679Y-123893412D01*
X112129750Y-123963195D01*
X112103019Y-124028967D01*
X112062562Y-124062327D01*
X112054460Y-124066544D01*
X112045734Y-124072039D01*
X112025677Y-124087099D01*
X112017223Y-124098427D01*
X112023968Y-124110758D01*
X113046115Y-125132905D01*
X113080141Y-125195217D01*
X113075076Y-125266032D01*
X113046115Y-125311095D01*
X112022737Y-126334473D01*
X112015977Y-126346853D01*
X112021258Y-126353907D01*
X112067969Y-126381203D01*
X112116693Y-126432841D01*
X112129764Y-126502624D01*
X112103033Y-126568396D01*
X112062584Y-126601752D01*
X112049607Y-126608507D01*
X112045474Y-126611610D01*
X112045471Y-126611612D01*
X111875100Y-126739530D01*
X111870965Y-126742635D01*
X111716629Y-126904138D01*
X111713715Y-126908410D01*
X111713714Y-126908411D01*
X111677095Y-126962092D01*
X111590743Y-127088680D01*
X111552011Y-127172121D01*
X111502290Y-127279237D01*
X111496688Y-127291305D01*
X111436989Y-127506570D01*
X111413251Y-127728695D01*
X111413548Y-127733848D01*
X111413548Y-127733851D01*
X111423319Y-127903308D01*
X111426110Y-127951715D01*
X111427247Y-127956761D01*
X111427248Y-127956767D01*
X111430268Y-127970167D01*
X111458124Y-128093769D01*
X111459453Y-128099668D01*
X111454917Y-128170520D01*
X111425631Y-128216464D01*
X110353036Y-129289059D01*
X110290724Y-129323085D01*
X110263941Y-129325964D01*
X105529254Y-129325964D01*
X105461133Y-129305962D01*
X105414640Y-129252306D01*
X105404536Y-129182032D01*
X105434030Y-129117452D01*
X105493046Y-129079278D01*
X105648429Y-129032661D01*
X105648434Y-129032659D01*
X105653384Y-129031174D01*
X105853994Y-128932896D01*
X106035860Y-128803173D01*
X106046273Y-128792797D01*
X106134691Y-128704687D01*
X106194096Y-128645489D01*
X106204975Y-128630350D01*
X106321435Y-128468277D01*
X106324453Y-128464077D01*
X106328611Y-128455665D01*
X106421136Y-128268453D01*
X106421137Y-128268451D01*
X106423430Y-128263811D01*
X106488370Y-128050069D01*
X106517529Y-127828590D01*
X106518752Y-127778526D01*
X106519074Y-127765365D01*
X106519074Y-127765361D01*
X106519156Y-127762000D01*
X106500852Y-127539361D01*
X106502661Y-127539212D01*
X106510307Y-127476606D01*
X106555649Y-127421974D01*
X106626008Y-127400500D01*
X106775487Y-127400500D01*
X106781939Y-127399128D01*
X106781944Y-127399128D01*
X106884097Y-127377414D01*
X106962288Y-127360794D01*
X106968319Y-127358109D01*
X107130722Y-127285803D01*
X107130724Y-127285802D01*
X107136752Y-127283118D01*
X107146990Y-127275680D01*
X107202083Y-127235652D01*
X107291253Y-127170866D01*
X107306602Y-127153819D01*
X107414621Y-127033852D01*
X107414622Y-127033851D01*
X107419040Y-127028944D01*
X107491097Y-126904138D01*
X107511223Y-126869279D01*
X107511224Y-126869278D01*
X107514527Y-126863556D01*
X107573542Y-126681928D01*
X107590907Y-126516706D01*
X107617920Y-126451050D01*
X107627122Y-126440782D01*
X108874041Y-125193863D01*
X111414050Y-125193863D01*
X111426309Y-125406477D01*
X111427745Y-125416697D01*
X111474565Y-125624446D01*
X111477645Y-125634275D01*
X111557770Y-125831603D01*
X111562413Y-125840794D01*
X111642460Y-125971420D01*
X111652916Y-125980880D01*
X111661694Y-125977096D01*
X112403978Y-125234812D01*
X112411592Y-125220868D01*
X112411461Y-125219035D01*
X112407210Y-125212420D01*
X111665849Y-124471059D01*
X111654313Y-124464759D01*
X111642031Y-124474382D01*
X111594089Y-124544662D01*
X111589004Y-124553613D01*
X111499338Y-124746783D01*
X111495775Y-124756470D01*
X111438864Y-124961681D01*
X111436933Y-124971800D01*
X111414302Y-125183574D01*
X111414050Y-125193863D01*
X108874041Y-125193863D01*
X111222096Y-122845808D01*
X111284408Y-122811782D01*
X111355223Y-122816847D01*
G37*
G04 #@! TD.AperFunction*
M02*
