G04 #@! TF.GenerationSoftware,KiCad,Pcbnew,(6.0.6-0)*
G04 #@! TF.CreationDate,2022-09-04T13:15:17-04:00*
G04 #@! TF.ProjectId,dial_toner_mx,6469616c-5f74-46f6-9e65-725f6d782e6b,rev?*
G04 #@! TF.SameCoordinates,Original*
G04 #@! TF.FileFunction,Legend,Top*
G04 #@! TF.FilePolarity,Positive*
%FSLAX46Y46*%
G04 Gerber Fmt 4.6, Leading zero omitted, Abs format (unit mm)*
G04 Created by KiCad (PCBNEW (6.0.6-0)) date 2022-09-04 13:15:17*
%MOMM*%
%LPD*%
G01*
G04 APERTURE LIST*
%ADD10C,0.150000*%
%ADD11C,1.700000*%
%ADD12C,1.701800*%
%ADD13C,0.990600*%
%ADD14C,3.429000*%
%ADD15C,2.032000*%
G04 APERTURE END LIST*
D10*
X146304095Y-123174380D02*
X146304095Y-123983904D01*
X146351714Y-124079142D01*
X146399333Y-124126761D01*
X146494571Y-124174380D01*
X146685047Y-124174380D01*
X146780285Y-124126761D01*
X146827904Y-124079142D01*
X146875523Y-123983904D01*
X146875523Y-123174380D01*
X147494571Y-123602952D02*
X147399333Y-123555333D01*
X147351714Y-123507714D01*
X147304095Y-123412476D01*
X147304095Y-123364857D01*
X147351714Y-123269619D01*
X147399333Y-123222000D01*
X147494571Y-123174380D01*
X147685047Y-123174380D01*
X147780285Y-123222000D01*
X147827904Y-123269619D01*
X147875523Y-123364857D01*
X147875523Y-123412476D01*
X147827904Y-123507714D01*
X147780285Y-123555333D01*
X147685047Y-123602952D01*
X147494571Y-123602952D01*
X147399333Y-123650571D01*
X147351714Y-123698190D01*
X147304095Y-123793428D01*
X147304095Y-123983904D01*
X147351714Y-124079142D01*
X147399333Y-124126761D01*
X147494571Y-124174380D01*
X147685047Y-124174380D01*
X147780285Y-124126761D01*
X147827904Y-124079142D01*
X147875523Y-123983904D01*
X147875523Y-123793428D01*
X147827904Y-123698190D01*
X147780285Y-123650571D01*
X147685047Y-123602952D01*
X108204095Y-123174380D02*
X108204095Y-123983904D01*
X108251714Y-124079142D01*
X108299333Y-124126761D01*
X108394571Y-124174380D01*
X108585047Y-124174380D01*
X108680285Y-124126761D01*
X108727904Y-124079142D01*
X108775523Y-123983904D01*
X108775523Y-123174380D01*
X109204095Y-123269619D02*
X109251714Y-123222000D01*
X109346952Y-123174380D01*
X109585047Y-123174380D01*
X109680285Y-123222000D01*
X109727904Y-123269619D01*
X109775523Y-123364857D01*
X109775523Y-123460095D01*
X109727904Y-123602952D01*
X109156476Y-124174380D01*
X109775523Y-124174380D01*
X133604095Y-123174380D02*
X133604095Y-123983904D01*
X133651714Y-124079142D01*
X133699333Y-124126761D01*
X133794571Y-124174380D01*
X133985047Y-124174380D01*
X134080285Y-124126761D01*
X134127904Y-124079142D01*
X134175523Y-123983904D01*
X134175523Y-123174380D01*
X135127904Y-123174380D02*
X134651714Y-123174380D01*
X134604095Y-123650571D01*
X134651714Y-123602952D01*
X134746952Y-123555333D01*
X134985047Y-123555333D01*
X135080285Y-123602952D01*
X135127904Y-123650571D01*
X135175523Y-123745809D01*
X135175523Y-123983904D01*
X135127904Y-124079142D01*
X135080285Y-124126761D01*
X134985047Y-124174380D01*
X134746952Y-124174380D01*
X134651714Y-124126761D01*
X134604095Y-124079142D01*
X120904095Y-123174380D02*
X120904095Y-123983904D01*
X120951714Y-124079142D01*
X120999333Y-124126761D01*
X121094571Y-124174380D01*
X121285047Y-124174380D01*
X121380285Y-124126761D01*
X121427904Y-124079142D01*
X121475523Y-123983904D01*
X121475523Y-123174380D01*
X122380285Y-123507714D02*
X122380285Y-124174380D01*
X122142190Y-123126761D02*
X121904095Y-123841047D01*
X122523142Y-123841047D01*
X159004095Y-123174380D02*
X159004095Y-123983904D01*
X159051714Y-124079142D01*
X159099333Y-124126761D01*
X159194571Y-124174380D01*
X159385047Y-124174380D01*
X159480285Y-124126761D01*
X159527904Y-124079142D01*
X159575523Y-123983904D01*
X159575523Y-123174380D01*
X160099333Y-124174380D02*
X160289809Y-124174380D01*
X160385047Y-124126761D01*
X160432666Y-124079142D01*
X160527904Y-123936285D01*
X160575523Y-123745809D01*
X160575523Y-123364857D01*
X160527904Y-123269619D01*
X160480285Y-123222000D01*
X160385047Y-123174380D01*
X160194571Y-123174380D01*
X160099333Y-123222000D01*
X160051714Y-123269619D01*
X160004095Y-123364857D01*
X160004095Y-123602952D01*
X160051714Y-123698190D01*
X160099333Y-123745809D01*
X160194571Y-123793428D01*
X160385047Y-123793428D01*
X160480285Y-123745809D01*
X160527904Y-123698190D01*
X160575523Y-123602952D01*
X95504095Y-123174380D02*
X95504095Y-123983904D01*
X95551714Y-124079142D01*
X95599333Y-124126761D01*
X95694571Y-124174380D01*
X95885047Y-124174380D01*
X95980285Y-124126761D01*
X96027904Y-124079142D01*
X96075523Y-123983904D01*
X96075523Y-123174380D01*
X97075523Y-124174380D02*
X96504095Y-124174380D01*
X96789809Y-124174380D02*
X96789809Y-123174380D01*
X96694571Y-123317238D01*
X96599333Y-123412476D01*
X96504095Y-123460095D01*
G36*
X178446594Y-127456533D02*
G01*
X177533177Y-127456533D01*
X177533177Y-126543116D01*
X178446594Y-126543116D01*
X178446594Y-127456533D01*
G37*
G36*
X169452956Y-128369949D02*
G01*
X168539540Y-128369949D01*
X168539540Y-126543116D01*
X169452956Y-126543116D01*
X169452956Y-128369949D01*
G37*
G36*
X183224464Y-131777694D02*
G01*
X182486704Y-131777694D01*
X182486704Y-131039935D01*
X183224464Y-131039935D01*
X183224464Y-131777694D01*
G37*
G36*
X172114159Y-131047529D02*
G01*
X172491822Y-131057501D01*
X172491822Y-132497888D01*
X172138732Y-132507823D01*
X171987553Y-132509706D01*
X171863476Y-132506811D01*
X171782721Y-132499766D01*
X171761069Y-132493184D01*
X171753638Y-132452110D01*
X171747109Y-132351678D01*
X171741845Y-132202794D01*
X171738207Y-132016361D01*
X171736557Y-131803283D01*
X171736497Y-131753085D01*
X171736497Y-131037558D01*
X172114159Y-131047529D01*
G37*
G36*
X154100536Y-134834126D02*
G01*
X153554896Y-134834126D01*
X153336985Y-134832787D01*
X153180504Y-134828277D01*
X153076667Y-134819858D01*
X153016683Y-134806790D01*
X152991764Y-134788335D01*
X152991068Y-134786726D01*
X152983325Y-134729292D01*
X152980587Y-134624546D01*
X152983388Y-134496892D01*
X152993897Y-134254458D01*
X153547216Y-134244783D01*
X154100536Y-134235108D01*
X154100536Y-134834126D01*
G37*
G36*
X154100536Y-136485302D02*
G01*
X153561854Y-136485302D01*
X153374010Y-136483848D01*
X153211564Y-136479839D01*
X153087232Y-136473805D01*
X153013731Y-136466277D01*
X152999752Y-136461881D01*
X152991648Y-136420335D01*
X152984759Y-136321247D01*
X152979616Y-136177333D01*
X152976748Y-136001310D01*
X152976331Y-135899778D01*
X152976331Y-135361097D01*
X154100536Y-135361097D01*
X154100536Y-136485302D01*
G37*
G36*
X103511324Y-135361097D02*
G01*
X102387119Y-135361097D01*
X102387119Y-134236892D01*
X103511324Y-134236892D01*
X103511324Y-135361097D01*
G37*
G36*
X193149083Y-137100101D02*
G01*
X192753196Y-137110041D01*
X192571392Y-137112647D01*
X192449312Y-137109041D01*
X192376615Y-137098285D01*
X192342960Y-137079443D01*
X192339103Y-137072534D01*
X192332433Y-137019132D01*
X192328886Y-136912685D01*
X192328800Y-136770357D01*
X192330979Y-136658584D01*
X192341061Y-136292079D01*
X193149083Y-136292079D01*
X193149083Y-137100101D01*
G37*
G36*
X173949775Y-122186823D02*
G01*
X173949775Y-122309783D01*
X173954029Y-122388510D01*
X173980297Y-122423496D01*
X174048835Y-122432468D01*
X174090300Y-122432743D01*
X174230826Y-122432743D01*
X174230826Y-124505495D01*
X172122942Y-124505495D01*
X172122942Y-124382535D01*
X172117504Y-124300124D01*
X172086821Y-124266326D01*
X172009341Y-124259591D01*
X171999982Y-124259575D01*
X171877022Y-124259575D01*
X171877022Y-124224444D01*
X172403993Y-124224444D01*
X173949775Y-124224444D01*
X173949775Y-124013656D01*
X172892877Y-124013656D01*
X172903138Y-123741387D01*
X172913399Y-123469119D01*
X173949775Y-123449675D01*
X173949775Y-123240765D01*
X172895833Y-123240765D01*
X172895833Y-122959714D01*
X173949775Y-122959714D01*
X173949775Y-122713794D01*
X172403993Y-122713794D01*
X172403993Y-124224444D01*
X171877022Y-124224444D01*
X171877022Y-122186823D01*
X173949775Y-122186823D01*
G37*
G36*
X171385183Y-122186823D02*
G01*
X171385183Y-122309783D01*
X171390621Y-122392195D01*
X171421304Y-122425992D01*
X171498784Y-122432727D01*
X171508143Y-122432743D01*
X171631103Y-122432743D01*
X171631103Y-124505495D01*
X169558350Y-124505495D01*
X169558350Y-124382535D01*
X169552912Y-124300124D01*
X169522229Y-124266326D01*
X169444749Y-124259591D01*
X169435390Y-124259575D01*
X169312430Y-124259575D01*
X169312430Y-124224444D01*
X169839401Y-124224444D01*
X170331241Y-124224444D01*
X170331241Y-123448598D01*
X170603509Y-123458858D01*
X170875778Y-123469119D01*
X170885749Y-123846782D01*
X170895720Y-124224444D01*
X171350051Y-124224444D01*
X171350051Y-122713794D01*
X170896421Y-122713794D01*
X170886100Y-122968497D01*
X170875778Y-123223199D01*
X170603509Y-123233460D01*
X170331241Y-123243720D01*
X170331241Y-122713794D01*
X169839401Y-122713794D01*
X169839401Y-124224444D01*
X169312430Y-124224444D01*
X169312430Y-122186823D01*
X171385183Y-122186823D01*
G37*
G36*
X166747838Y-122186823D02*
G01*
X168820591Y-122186823D01*
X168820591Y-122309783D01*
X168826029Y-122392195D01*
X168856712Y-122425992D01*
X168934192Y-122432727D01*
X168943551Y-122432743D01*
X169066511Y-122432743D01*
X169066511Y-123240765D01*
X168574671Y-123240765D01*
X168574671Y-124505495D01*
X167520729Y-124505495D01*
X167520729Y-124382535D01*
X167516475Y-124303808D01*
X167490207Y-124268822D01*
X167421669Y-124259850D01*
X167380204Y-124259575D01*
X167239678Y-124259575D01*
X167239678Y-123240765D01*
X167116718Y-123240765D01*
X167037991Y-123236511D01*
X167003005Y-123210243D01*
X166994033Y-123141705D01*
X166993758Y-123100239D01*
X166990036Y-123010266D01*
X166967052Y-122970281D01*
X166907081Y-122960028D01*
X166870798Y-122959714D01*
X167274809Y-122959714D01*
X167801780Y-122959714D01*
X167801780Y-124224444D01*
X168293620Y-124224444D01*
X168293620Y-122959714D01*
X168785459Y-122959714D01*
X168785459Y-122713794D01*
X167274809Y-122713794D01*
X167274809Y-122959714D01*
X166870798Y-122959714D01*
X166747838Y-122959714D01*
X166747838Y-122186823D01*
G37*
G36*
X180238295Y-125172992D02*
G01*
X182065128Y-125172992D01*
X182065128Y-125629700D01*
X182521836Y-125629700D01*
X182521836Y-127421401D01*
X183856829Y-127421401D01*
X183856829Y-127878109D01*
X184313537Y-127878109D01*
X184313537Y-129248234D01*
X180695003Y-129248234D01*
X180695003Y-128791526D01*
X181151711Y-128791526D01*
X183821697Y-128791526D01*
X183821697Y-128371155D01*
X182934630Y-128361769D01*
X182047562Y-128352383D01*
X182038286Y-127236961D01*
X182029009Y-126121539D01*
X181151711Y-126121539D01*
X181151711Y-128791526D01*
X180695003Y-128791526D01*
X180238295Y-128791526D01*
X180238295Y-125172992D01*
G37*
G36*
X175741476Y-125172992D02*
G01*
X179360010Y-125172992D01*
X179360010Y-125629700D01*
X179816718Y-125629700D01*
X179816718Y-129248234D01*
X176198184Y-129248234D01*
X176198184Y-128791526D01*
X176654892Y-128791526D01*
X177533177Y-128791526D01*
X177533177Y-127878109D01*
X178446594Y-127878109D01*
X178446594Y-128791526D01*
X179324879Y-128791526D01*
X179324879Y-126121539D01*
X176654892Y-126121539D01*
X176654892Y-128791526D01*
X176198184Y-128791526D01*
X175741476Y-128791526D01*
X175741476Y-125172992D01*
G37*
G36*
X171244657Y-127421401D02*
G01*
X172579650Y-127421401D01*
X172579650Y-126999824D01*
X171701365Y-126999824D01*
X171701365Y-126543116D01*
X171244657Y-126543116D01*
X171244657Y-125172992D01*
X174863191Y-125172992D01*
X174863191Y-125629700D01*
X175319899Y-125629700D01*
X175319899Y-126999824D01*
X174406483Y-126999824D01*
X174406483Y-127421401D01*
X174863191Y-127421401D01*
X174863191Y-127878109D01*
X175319899Y-127878109D01*
X175319899Y-129248234D01*
X171701365Y-129248234D01*
X171701365Y-128791526D01*
X172158074Y-128791526D01*
X174828060Y-128791526D01*
X174828060Y-128369949D01*
X173949775Y-128369949D01*
X173949775Y-126543116D01*
X174828060Y-126543116D01*
X174828060Y-126121539D01*
X172158074Y-126121539D01*
X172158074Y-126543116D01*
X173072676Y-126543116D01*
X173063300Y-127447750D01*
X173053924Y-128352383D01*
X172605999Y-128362216D01*
X172158074Y-128372048D01*
X172158074Y-128791526D01*
X171701365Y-128791526D01*
X171244657Y-128791526D01*
X171244657Y-127421401D01*
G37*
G36*
X166747838Y-125172992D02*
G01*
X169909664Y-125172992D01*
X169909664Y-125629700D01*
X170366372Y-125629700D01*
X170366372Y-126086408D01*
X170823081Y-126086408D01*
X170823081Y-128791526D01*
X170366372Y-128791526D01*
X170366372Y-129248234D01*
X167169415Y-129248234D01*
X167169415Y-128791526D01*
X167661255Y-128791526D01*
X169874533Y-128791526D01*
X169874533Y-128334817D01*
X170331241Y-128334817D01*
X170331241Y-126543116D01*
X169874533Y-126543116D01*
X169874533Y-126121539D01*
X167661255Y-126121539D01*
X167661255Y-128791526D01*
X167169415Y-128791526D01*
X166747838Y-128791526D01*
X166747838Y-125172992D01*
G37*
G36*
X181045529Y-129985993D02*
G01*
X183962223Y-129985993D01*
X183962223Y-130337307D01*
X184313537Y-130337307D01*
X184313537Y-133218082D01*
X181432762Y-133218082D01*
X181432762Y-132870440D01*
X181248323Y-132859821D01*
X181063883Y-132849202D01*
X181063770Y-132831636D01*
X181819208Y-132831636D01*
X182486704Y-132831636D01*
X182486704Y-132129008D01*
X183224464Y-132129008D01*
X183224464Y-132831636D01*
X183927092Y-132831636D01*
X183927092Y-132129008D01*
X183575778Y-132129008D01*
X183575778Y-131777694D01*
X183927092Y-131777694D01*
X183927092Y-130723752D01*
X181819208Y-130723752D01*
X181819208Y-132831636D01*
X181063770Y-132831636D01*
X181054706Y-131417598D01*
X181045529Y-129985993D01*
G37*
G36*
X177462126Y-129985993D02*
G01*
X180378820Y-129985993D01*
X180378820Y-130337307D01*
X180730134Y-130337307D01*
X180730134Y-133218082D01*
X177849360Y-133218082D01*
X177849360Y-132870440D01*
X177480480Y-132849202D01*
X177480367Y-132831636D01*
X178235805Y-132831636D01*
X180343689Y-132831636D01*
X180343689Y-132515454D01*
X178903302Y-132515454D01*
X178903302Y-131777694D01*
X180343689Y-131777694D01*
X180343689Y-131426380D01*
X178903302Y-131426380D01*
X178903302Y-131039935D01*
X180343689Y-131039935D01*
X180343689Y-130723752D01*
X178235805Y-130723752D01*
X178235805Y-132831636D01*
X177480367Y-132831636D01*
X177471303Y-131417598D01*
X177462126Y-129985993D01*
G37*
G36*
X176795418Y-129985993D02*
G01*
X176795418Y-130337307D01*
X177146732Y-130337307D01*
X177146732Y-133218082D01*
X174265957Y-133218082D01*
X174265957Y-132866768D01*
X173914643Y-132866768D01*
X173914643Y-132831636D01*
X174652403Y-132831636D01*
X175319899Y-132831636D01*
X175319899Y-131039935D01*
X176057659Y-131039935D01*
X176057659Y-132831636D01*
X176760287Y-132831636D01*
X176760287Y-130723752D01*
X174652403Y-130723752D01*
X174652403Y-132831636D01*
X173914643Y-132831636D01*
X173914643Y-129985993D01*
X176795418Y-129985993D01*
G37*
G36*
X173212016Y-129985993D02*
G01*
X173212016Y-130337307D01*
X173563329Y-130337307D01*
X173563329Y-133218082D01*
X170682555Y-133218082D01*
X170682555Y-132866768D01*
X170331241Y-132866768D01*
X170331241Y-132831636D01*
X171069000Y-132831636D01*
X173176884Y-132831636D01*
X173176884Y-130723752D01*
X171069000Y-130723752D01*
X171069000Y-132831636D01*
X170331241Y-132831636D01*
X170331241Y-129985993D01*
X173212016Y-129985993D01*
G37*
G36*
X169628613Y-129985993D02*
G01*
X169628613Y-130337307D01*
X169979927Y-130337307D01*
X169979927Y-131426380D01*
X169277299Y-131426380D01*
X169277299Y-133218082D01*
X167801780Y-133218082D01*
X167801780Y-132866768D01*
X167450466Y-132866768D01*
X167450466Y-131426380D01*
X167099152Y-131426380D01*
X167099152Y-131075066D01*
X166747838Y-131075066D01*
X166747838Y-131039935D01*
X167485598Y-131039935D01*
X168188226Y-131039935D01*
X168188226Y-132831636D01*
X168890854Y-132831636D01*
X168890854Y-131039935D01*
X169593482Y-131039935D01*
X169593482Y-130723752D01*
X167485598Y-130723752D01*
X167485598Y-131039935D01*
X166747838Y-131039935D01*
X166747838Y-129985993D01*
X169628613Y-129985993D01*
G37*
G36*
X160705238Y-133709921D02*
G01*
X160705238Y-134233937D01*
X160977507Y-134244197D01*
X161249775Y-134254458D01*
X161249775Y-136467736D01*
X159045280Y-136476783D01*
X156840785Y-136485829D01*
X156840785Y-135923199D01*
X156278682Y-135923199D01*
X156278682Y-135888068D01*
X157402887Y-135888068D01*
X160670107Y-135888068D01*
X160670107Y-134834126D01*
X157402887Y-134834126D01*
X157402887Y-135888068D01*
X156278682Y-135888068D01*
X156278682Y-133709921D01*
X160705238Y-133709921D01*
G37*
G36*
X149709111Y-133709921D02*
G01*
X149709111Y-134236892D01*
X150271213Y-134236892D01*
X150271213Y-136485302D01*
X148081356Y-136485302D01*
X147695456Y-136484936D01*
X147330496Y-136483880D01*
X146992519Y-136482200D01*
X146687568Y-136479958D01*
X146421685Y-136477218D01*
X146200913Y-136474045D01*
X146031294Y-136470502D01*
X145918871Y-136466654D01*
X145869686Y-136462563D01*
X145868078Y-136461881D01*
X145856667Y-136417605D01*
X145848332Y-136322612D01*
X145844700Y-136196431D01*
X145844657Y-136180829D01*
X145844657Y-135923199D01*
X145317686Y-135923199D01*
X145317686Y-135888068D01*
X146441891Y-135888068D01*
X149709111Y-135888068D01*
X149709111Y-134834126D01*
X146441891Y-134834126D01*
X146441891Y-135888068D01*
X145317686Y-135888068D01*
X145317686Y-133709921D01*
X149709111Y-133709921D01*
G37*
G36*
X135375501Y-133709921D02*
G01*
X135375501Y-134236892D01*
X135938590Y-134236892D01*
X135920038Y-136467736D01*
X133715542Y-136476783D01*
X131511047Y-136485829D01*
X131511047Y-135923199D01*
X130948945Y-135923199D01*
X130948945Y-135888068D01*
X132073150Y-135888068D01*
X135340370Y-135888068D01*
X135340370Y-134834126D01*
X132073150Y-134834126D01*
X132073150Y-135888068D01*
X130948945Y-135888068D01*
X130948945Y-133709921D01*
X135375501Y-133709921D01*
G37*
G36*
X124414505Y-133709921D02*
G01*
X124414505Y-134236892D01*
X124941476Y-134236892D01*
X124941476Y-136485302D01*
X120550051Y-136485302D01*
X120550051Y-135923199D01*
X119987949Y-135923199D01*
X119987949Y-135888068D01*
X121112154Y-135888068D01*
X124379374Y-135888068D01*
X124379374Y-134834126D01*
X121112154Y-134834126D01*
X121112154Y-135888068D01*
X119987949Y-135888068D01*
X119987949Y-133709921D01*
X124414505Y-133709921D01*
G37*
G36*
X110080895Y-133709921D02*
G01*
X110080895Y-134236892D01*
X110642998Y-134236892D01*
X110642998Y-136485302D01*
X108453140Y-136485302D01*
X108067240Y-136484936D01*
X107702280Y-136483880D01*
X107364304Y-136482200D01*
X107059352Y-136479958D01*
X106793469Y-136477218D01*
X106572697Y-136474045D01*
X106403078Y-136470502D01*
X106290655Y-136466654D01*
X106241470Y-136462563D01*
X106239862Y-136461881D01*
X106228451Y-136417605D01*
X106220116Y-136322612D01*
X106216484Y-136196431D01*
X106216442Y-136180829D01*
X106216442Y-135923199D01*
X105689471Y-135923199D01*
X105689471Y-135888068D01*
X106813675Y-135888068D01*
X110080895Y-135888068D01*
X110080895Y-134834126D01*
X106813675Y-134834126D01*
X106813675Y-135888068D01*
X105689471Y-135888068D01*
X105689471Y-133709921D01*
X110080895Y-133709921D01*
G37*
G36*
X99119899Y-133709921D02*
G01*
X99119899Y-134233937D01*
X99392168Y-134244197D01*
X99664436Y-134254458D01*
X99664436Y-136467736D01*
X97459941Y-136476783D01*
X95255446Y-136485829D01*
X95255446Y-135923199D01*
X94693343Y-135923199D01*
X94693343Y-135888068D01*
X95817548Y-135888068D01*
X99084768Y-135888068D01*
X99084768Y-134834126D01*
X95817548Y-134834126D01*
X95817548Y-135888068D01*
X94693343Y-135888068D01*
X94693343Y-133709921D01*
X99119899Y-133709921D01*
G37*
G36*
X153002679Y-132594235D02*
G01*
X155207175Y-132603282D01*
X155217435Y-132875551D01*
X155227696Y-133147819D01*
X155751711Y-133147819D01*
X155751711Y-137574375D01*
X153561854Y-137574375D01*
X153175954Y-137574009D01*
X152810994Y-137572954D01*
X152473017Y-137571273D01*
X152168066Y-137569031D01*
X151902183Y-137566291D01*
X151681411Y-137563118D01*
X151511792Y-137559575D01*
X151399369Y-137555727D01*
X151350184Y-137551637D01*
X151348576Y-137550954D01*
X151337165Y-137506678D01*
X151328830Y-137411685D01*
X151325198Y-137285505D01*
X151325155Y-137269903D01*
X151325155Y-137012273D01*
X150798184Y-137012273D01*
X150798184Y-136977141D01*
X151922389Y-136977141D01*
X155189609Y-136977141D01*
X155189609Y-135361097D01*
X154627507Y-135361097D01*
X154627507Y-134798995D01*
X155189609Y-134798995D01*
X155189609Y-133709921D01*
X151922389Y-133709921D01*
X151922389Y-136977141D01*
X150798184Y-136977141D01*
X150798184Y-132585189D01*
X153002679Y-132594235D01*
G37*
G36*
X125486013Y-132603282D02*
G01*
X129877437Y-132603282D01*
X129887672Y-132874099D01*
X129897906Y-133144916D01*
X130168723Y-133155150D01*
X130439540Y-133165385D01*
X130439540Y-137556809D01*
X128235045Y-137565856D01*
X126030549Y-137574903D01*
X126030549Y-137012273D01*
X125467919Y-137012273D01*
X125468063Y-136977141D01*
X126592652Y-136977141D01*
X129859872Y-136977141D01*
X129859872Y-134834126D01*
X128243827Y-134834126D01*
X128243827Y-135361097D01*
X128807714Y-135361097D01*
X128798039Y-135914416D01*
X128788364Y-136467736D01*
X128235045Y-136477411D01*
X127681725Y-136487086D01*
X127681725Y-134236892D01*
X129859872Y-134236892D01*
X129859872Y-133709921D01*
X126592652Y-133709921D01*
X126592652Y-136977141D01*
X125468063Y-136977141D01*
X125476966Y-134807777D01*
X125486013Y-132603282D01*
G37*
G36*
X100191407Y-132603282D02*
G01*
X102395902Y-132594235D01*
X104600397Y-132585189D01*
X104600397Y-133147819D01*
X105162500Y-133147819D01*
X105162500Y-137574375D01*
X100735944Y-137574375D01*
X100735944Y-137012273D01*
X100173313Y-137012273D01*
X100173457Y-136977141D01*
X101297344Y-136977141D01*
X102387119Y-136977141D01*
X102387119Y-135888068D01*
X103511324Y-135888068D01*
X103511324Y-136977141D01*
X104565266Y-136977141D01*
X104565266Y-135923199D01*
X104038295Y-135923199D01*
X104038295Y-135361097D01*
X104565266Y-135361097D01*
X104565266Y-133709219D01*
X101315612Y-133727487D01*
X101297344Y-136977141D01*
X100173457Y-136977141D01*
X100182360Y-134807777D01*
X100191407Y-132603282D01*
G37*
G36*
X195511670Y-134701724D02*
G01*
X196310909Y-134711166D01*
X196321445Y-134913172D01*
X196331981Y-135115177D01*
X196714920Y-135115177D01*
X196714920Y-138277003D01*
X195098876Y-138277003D01*
X195098876Y-137890557D01*
X194712430Y-137890557D01*
X194712430Y-137855426D01*
X195520453Y-137855426D01*
X196293343Y-137855426D01*
X196293343Y-137504112D01*
X195520453Y-137504112D01*
X195520453Y-137855426D01*
X194712430Y-137855426D01*
X194712430Y-137082535D01*
X195520453Y-137082535D01*
X196293343Y-137082535D01*
X196293343Y-135536754D01*
X195520453Y-135536754D01*
X195520453Y-137082535D01*
X194712430Y-137082535D01*
X194712430Y-134692281D01*
X195511670Y-134701724D01*
G37*
G36*
X190760148Y-134711166D02*
G01*
X193939540Y-134692884D01*
X193939540Y-135115177D01*
X194325985Y-135115177D01*
X194325985Y-138277003D01*
X191164159Y-138277003D01*
X191164159Y-137890557D01*
X190741867Y-137890557D01*
X190744291Y-137468981D01*
X191585736Y-137468981D01*
X191972181Y-137468981D01*
X191972181Y-137855426D01*
X192323495Y-137855426D01*
X192323495Y-137468981D01*
X193166649Y-137468981D01*
X193166649Y-137855426D01*
X193517963Y-137855426D01*
X193517963Y-137468981D01*
X193904408Y-137468981D01*
X193904408Y-137117667D01*
X193515733Y-137117667D01*
X193535529Y-136292079D01*
X193719968Y-136281460D01*
X193904408Y-136270841D01*
X193904408Y-135923199D01*
X193517963Y-135923199D01*
X193517963Y-135536754D01*
X193166649Y-135536754D01*
X193166649Y-135923199D01*
X192323495Y-135923199D01*
X192323495Y-135536754D01*
X191972181Y-135536754D01*
X191972181Y-135923199D01*
X191585736Y-135923199D01*
X191585736Y-136270841D01*
X191954616Y-136292079D01*
X191964514Y-136704873D01*
X191974411Y-137117667D01*
X191585736Y-137117667D01*
X191585736Y-137468981D01*
X190744291Y-137468981D01*
X190751007Y-136300862D01*
X190760148Y-134711166D01*
G37*
X200802000Y-131984000D02*
X200802000Y-132984000D01*
X187802000Y-118984000D02*
X186802000Y-118984000D01*
X186802000Y-119984000D02*
X186802000Y-118984000D01*
X186802000Y-132984000D02*
X187802000Y-132984000D01*
X200802000Y-118984000D02*
X199802000Y-118984000D01*
X199802000Y-132984000D02*
X200802000Y-132984000D01*
X200802000Y-118984000D02*
X200802000Y-119984000D01*
X186802000Y-132984000D02*
X186802000Y-131984000D01*
%LPC*%
D11*
X143256000Y-122682000D03*
X143256000Y-125222000D03*
X143256000Y-127762000D03*
X150876000Y-122682000D03*
X150876000Y-125222000D03*
X150876000Y-127762000D03*
D12*
X188302000Y-125984000D03*
D13*
X188582000Y-130184000D03*
D14*
X193802000Y-125984000D03*
D12*
X199302000Y-125984000D03*
D15*
X193802000Y-120084000D03*
X198802000Y-122184000D03*
D11*
X105156000Y-122682000D03*
X105156000Y-125222000D03*
X105156000Y-127762000D03*
X112776000Y-122682000D03*
X112776000Y-125222000D03*
X112776000Y-127762000D03*
X130556000Y-122682000D03*
X130556000Y-125222000D03*
X130556000Y-127762000D03*
X138176000Y-122682000D03*
X138176000Y-125222000D03*
X138176000Y-127762000D03*
X117856000Y-122682000D03*
X117856000Y-125222000D03*
X117856000Y-127762000D03*
X125476000Y-122682000D03*
X125476000Y-125222000D03*
X125476000Y-127762000D03*
X155956000Y-122682000D03*
X155956000Y-125222000D03*
X155956000Y-127762000D03*
X163576000Y-122682000D03*
X163576000Y-125222000D03*
X163576000Y-127762000D03*
X92456000Y-122682000D03*
X92456000Y-125222000D03*
X92456000Y-127762000D03*
X100076000Y-122682000D03*
X100076000Y-125222000D03*
X100076000Y-127762000D03*
M02*
