G04 #@! TF.GenerationSoftware,KiCad,Pcbnew,(6.0.6-0)*
G04 #@! TF.CreationDate,2022-09-04T13:15:17-04:00*
G04 #@! TF.ProjectId,dial_toner_mx,6469616c-5f74-46f6-9e65-725f6d782e6b,rev?*
G04 #@! TF.SameCoordinates,Original*
G04 #@! TF.FileFunction,Paste,Bot*
G04 #@! TF.FilePolarity,Positive*
%FSLAX46Y46*%
G04 Gerber Fmt 4.6, Leading zero omitted, Abs format (unit mm)*
G04 Created by KiCad (PCBNEW (6.0.6-0)) date 2022-09-04 13:15:17*
%MOMM*%
%LPD*%
G01*
G04 APERTURE LIST*
G04 Aperture macros list*
%AMRoundRect*
0 Rectangle with rounded corners*
0 $1 Rounding radius*
0 $2 $3 $4 $5 $6 $7 $8 $9 X,Y pos of 4 corners*
0 Add a 4 corners polygon primitive as box body*
4,1,4,$2,$3,$4,$5,$6,$7,$8,$9,$2,$3,0*
0 Add four circle primitives for the rounded corners*
1,1,$1+$1,$2,$3*
1,1,$1+$1,$4,$5*
1,1,$1+$1,$6,$7*
1,1,$1+$1,$8,$9*
0 Add four rect primitives between the rounded corners*
20,1,$1+$1,$2,$3,$4,$5,0*
20,1,$1+$1,$4,$5,$6,$7,0*
20,1,$1+$1,$6,$7,$8,$9,0*
20,1,$1+$1,$8,$9,$2,$3,0*%
G04 Aperture macros list end*
%ADD10O,2.748280X1.998980*%
%ADD11R,0.800000X0.480000*%
%ADD12R,0.800000X0.320000*%
%ADD13R,1.270000X0.558800*%
%ADD14R,1.700000X0.820000*%
%ADD15RoundRect,0.205000X0.645000X0.205000X-0.645000X0.205000X-0.645000X-0.205000X0.645000X-0.205000X0*%
%ADD16RoundRect,0.150000X-0.150000X0.825000X-0.150000X-0.825000X0.150000X-0.825000X0.150000X0.825000X0*%
G04 APERTURE END LIST*
D10*
X183570880Y-121709180D03*
X183570880Y-124249180D03*
X183570880Y-126789180D03*
X183570880Y-129329180D03*
X183570880Y-131869180D03*
X183570880Y-134409180D03*
X183570880Y-136949180D03*
X167406320Y-136949180D03*
X167406320Y-134409180D03*
X167406320Y-131869180D03*
X167406320Y-129329180D03*
X167406320Y-126789180D03*
X167406320Y-124249180D03*
X167406320Y-121709180D03*
D11*
X145807000Y-132244000D03*
D12*
X145807000Y-132964000D03*
X145807000Y-133604000D03*
X145807000Y-134244000D03*
D11*
X145807000Y-134964000D03*
X144007000Y-134964000D03*
D12*
X144007000Y-134244000D03*
X144007000Y-133604000D03*
X144007000Y-132964000D03*
D11*
X144007000Y-132244000D03*
D13*
X188061600Y-120726200D03*
X188061600Y-122605800D03*
X190652400Y-122605800D03*
X190652400Y-121666000D03*
X190652400Y-120726200D03*
D11*
X120407000Y-132371000D03*
D12*
X120407000Y-133091000D03*
X120407000Y-133731000D03*
X120407000Y-134371000D03*
D11*
X120407000Y-135091000D03*
X118607000Y-135091000D03*
D12*
X118607000Y-134371000D03*
X118607000Y-133731000D03*
X118607000Y-133091000D03*
D11*
X118607000Y-132371000D03*
D14*
X196469000Y-131560000D03*
X196469000Y-130060000D03*
D15*
X191135000Y-130060000D03*
D14*
X191135000Y-131560000D03*
D11*
X95007000Y-132244000D03*
D12*
X95007000Y-132964000D03*
X95007000Y-133604000D03*
X95007000Y-134244000D03*
D11*
X95007000Y-134964000D03*
X93207000Y-134964000D03*
D12*
X93207000Y-134244000D03*
X93207000Y-133604000D03*
X93207000Y-132964000D03*
D11*
X93207000Y-132244000D03*
D16*
X149606000Y-137857000D03*
X150876000Y-137857000D03*
X152146000Y-137857000D03*
X153416000Y-137857000D03*
X154686000Y-137857000D03*
X155956000Y-137857000D03*
X157226000Y-137857000D03*
X158496000Y-137857000D03*
X158496000Y-132907000D03*
X157226000Y-132907000D03*
X155956000Y-132907000D03*
X154686000Y-132907000D03*
X153416000Y-132907000D03*
X152146000Y-132907000D03*
X150876000Y-132907000D03*
X149606000Y-132907000D03*
X124206000Y-133034000D03*
X125476000Y-133034000D03*
X126746000Y-133034000D03*
X128016000Y-133034000D03*
X129286000Y-133034000D03*
X130556000Y-133034000D03*
X131826000Y-133034000D03*
X133096000Y-133034000D03*
X133096000Y-137984000D03*
X131826000Y-137984000D03*
X130556000Y-137984000D03*
X129286000Y-137984000D03*
X128016000Y-137984000D03*
X126746000Y-137984000D03*
X125476000Y-137984000D03*
X124206000Y-137984000D03*
X98806000Y-132907000D03*
X100076000Y-132907000D03*
X101346000Y-132907000D03*
X102616000Y-132907000D03*
X103886000Y-132907000D03*
X105156000Y-132907000D03*
X106426000Y-132907000D03*
X107696000Y-132907000D03*
X107696000Y-137857000D03*
X106426000Y-137857000D03*
X105156000Y-137857000D03*
X103886000Y-137857000D03*
X102616000Y-137857000D03*
X101346000Y-137857000D03*
X100076000Y-137857000D03*
X98806000Y-137857000D03*
M02*
